<svg width="405" height="557" viewBox="0 0 405 557" fill="none" xmlns="http://www.w3.org/2000/svg">
<path d="M205.057 352.512C204.875 352.531 204.702 352.559 204.52 352.597V352.465C204.702 352.465 204.875 352.493 205.057 352.512Z" fill="#1D1D1B"/>
<path d="M205.586 352.465V352.597C205.412 352.559 205.23 352.531 205.057 352.512C205.23 352.484 205.412 352.465 205.586 352.465Z" fill="#1D1D1B"/>
<path d="M230.634 214.451C232.87 213.494 235.288 212.968 237.81 212.968C242.941 212.968 247.639 215.146 251.27 218.743C253.576 221.034 257.06 218.733 256.514 215.25C252.986 192.797 240.922 182.899 230.764 177.621C231.076 182.495 231.24 187.82 231.24 193.661C231.24 200.243 231.024 207.23 230.634 214.451Z" fill="#404596"/>
<path d="M174.817 214.451C172.581 213.494 170.163 212.968 167.641 212.968C162.51 212.968 157.812 215.146 154.181 218.743C151.875 221.034 148.391 218.733 148.937 215.25C152.464 192.797 164.529 182.899 174.687 177.621C174.375 182.495 174.21 187.82 174.21 193.661C174.21 200.243 174.427 207.23 174.817 214.451Z" fill="#404596"/>
<path d="M224.168 140.679H224.021C223.873 140.679 223.743 140.575 223.674 140.406C218.838 128.781 211.219 121.278 202.648 121.278C194.076 121.278 186.457 128.781 181.621 140.406C181.552 140.575 181.422 140.679 181.274 140.679C180.997 140.679 180.806 140.312 180.902 139.974C180.98 139.73 181.049 139.486 181.127 139.242C181.586 137.796 182.054 136.425 182.54 135.148C182.661 134.819 182.791 134.49 182.921 134.171C184.698 129.682 187.099 125.738 189.846 122.235C191.736 119.822 192.992 116.977 194.414 114.047C195.497 111.812 196.372 109.417 197.023 106.91L200.784 92.2888V92.2512C201.2 91.1807 201.919 90.5703 202.682 90.3918C202.682 90.3918 202.7 90.3918 202.708 90.3918C202.717 90.3918 202.726 90.3918 202.734 90.3918C203.506 90.5609 204.216 91.1807 204.624 92.2512V92.2888L208.403 106.91C209.053 109.417 209.928 111.812 211.011 114.047C212.06 116.216 213.057 118.714 214.504 120.583C215.735 122.179 217.061 123.55 218.196 125.297C220.987 129.588 222.998 134.706 224.532 139.965C224.627 140.303 224.437 140.669 224.159 140.669L224.168 140.679Z" fill="#404596"/>
<path d="M219.895 389.624C214.825 382.985 210.734 375.031 210.266 365.894C210.266 365.734 210.248 365.574 210.24 365.415V365.368C210.205 364.692 209.382 364.607 209.252 365.265C208.394 369.387 207.64 373.556 207.05 376.993C206.972 377.472 206.366 377.36 206.409 376.871C207.822 362.006 210.56 346.671 211.687 340.699C211.982 338.971 212.311 337.252 212.693 335.543C214.807 325.955 217.018 314.546 219.132 302.113C225.095 266.973 230.278 223.635 230.278 190.101C230.278 184.054 230.105 178.541 229.793 173.489C229.212 163.995 228.12 156.192 226.69 149.787C222.573 135.204 213.594 125.09 203.176 125.09C203.02 125.09 202.873 125.09 202.717 125.099C202.561 125.099 202.413 125.09 202.257 125.09C191.839 125.09 182.86 135.204 178.743 149.787C177.322 156.192 176.23 163.995 175.64 173.489C175.328 178.541 175.155 184.054 175.155 190.101C175.155 223.645 180.338 266.973 186.301 302.113C188.407 314.546 190.626 325.955 192.741 335.543C193.087 337.102 193.391 338.661 193.659 340.229C194.726 345.826 197.577 361.602 199.024 376.871C199.068 377.35 198.461 377.463 198.383 376.993C197.802 373.556 197.04 369.378 196.182 365.255C196.043 364.607 195.237 364.682 195.185 365.349V365.415C195.176 365.574 195.168 365.734 195.159 365.894C194.682 375.031 190.6 382.985 185.53 389.624C179.185 397.925 169.357 404.649 169.357 415.73C169.357 416.528 169.383 417.307 169.435 418.087C169.53 419.467 170.839 420.256 171.853 419.533C175.242 417.12 180.26 414.819 184.88 412.988C187.792 411.823 190.799 411.034 193.85 410.612C195.315 410.405 196.598 409.325 197.161 407.729C198.158 404.93 200.264 402.996 202.708 402.996C205.152 402.996 207.258 404.93 208.255 407.729C208.827 409.325 210.101 410.405 211.566 410.612C214.625 411.034 217.65 411.833 220.58 412.997C225.182 414.838 230.183 417.129 233.563 419.533C234.577 420.256 235.886 419.467 235.981 418.087C236.033 417.307 236.059 416.519 236.059 415.73C236.059 404.649 226.239 397.925 219.886 389.624H219.895Z" fill="#404596"/>
<path d="M202.725 273.697C203.75 273.697 204.58 259.629 204.58 242.276C204.58 224.922 203.75 210.855 202.725 210.855C201.701 210.855 200.871 224.922 200.871 242.276C200.871 259.629 201.701 273.697 202.725 273.697Z" fill="#B9CAE9"/>
<path d="M405 495.512C401.758 500.508 398.664 506.471 396.003 513.101C395.969 513.186 395.934 513.27 395.899 513.355C395.405 514.604 394.287 515.374 393.03 515.467C392.892 515.477 392.753 515.496 392.614 515.524C390.664 515.871 389.13 517.656 388.94 519.787C388.792 521.412 389.399 522.886 390.413 523.863C391.314 524.727 391.652 526.098 391.34 527.356C388.168 539.949 388.064 550.786 391.15 556.242C387.059 556.767 383.332 555.997 380.342 553.725C380.281 553.687 380.229 553.64 380.16 553.584C378.86 552.57 377.75 551.274 376.875 549.828C375.505 547.574 375.011 544.823 374.24 542.296C372.923 537.986 371.553 533.394 369.438 529.45C364.446 520.332 345.959 519.59 345.959 519.59C358.7 519.318 370.782 516.369 381.668 511.279C381.702 511.27 381.728 511.251 381.763 511.232C382.699 510.791 383.627 510.34 384.554 509.861C392.034 506.03 398.907 501.184 404.991 495.494L405 495.512Z" fill="#404596"/>
<path d="M403.145 492.094C398.318 494.874 393.343 497.081 388.324 498.687C388.038 498.78 387.761 498.865 387.484 498.95C379.215 501.494 370.834 502.405 362.739 501.551C360.537 501.325 358.362 500.959 356.212 500.461C355.268 500.245 354.34 500.001 353.413 499.729C348.065 498.189 342.926 495.794 338.107 492.489C330.306 487.136 324.109 479.934 319.585 471.463C317.756 468.054 316.213 464.467 314.939 460.777C308.292 441.507 309.02 419.787 314.948 400.423C315.797 397.662 316.794 394.967 317.895 392.328C318.294 391.38 317.028 390.666 316.551 391.577C311.23 401.7 306.862 413.73 304.01 426.98C297.397 457.762 300.821 486.61 311.377 502.17C311.958 503.016 310.831 504.011 310.207 503.203C298.532 488.197 294.494 458.166 301.41 426.041C305.561 406.743 312.946 390.018 321.778 378.027C328.651 368.702 335.013 358.945 340.542 348.634C350.483 330.087 360.277 311.222 367.341 291.436C367.679 290.478 368.017 289.52 368.347 288.562C382.569 247.272 383.982 209.653 371.822 201.314C371.406 201.032 371.337 200.403 371.701 200.037C373.287 198.422 374.63 196.525 375.662 194.374C382.049 181.058 374.128 162.869 357.955 153.76C349.764 149.149 341.036 147.75 333.582 149.215C332.759 149.374 331.953 149.581 331.164 149.816C324.447 153.619 320.157 160.53 320.105 167.686C320.062 174.072 323.477 179.669 327.845 183.641C321.362 181.434 316.69 175.217 314.627 168.588C314.515 168.635 314.376 168.663 314.246 168.635C309.869 167.911 306.506 163.817 306.506 158.868C306.506 158.173 306.576 157.488 306.697 156.831C306.844 156.089 306.073 155.553 305.509 156.004C301.93 158.859 299.598 163.451 299.598 168.644C299.598 170.776 299.988 172.804 300.699 174.654C300.907 175.199 300.543 175.809 299.997 175.809H299.988C296.08 175.809 292.734 178.476 291.451 182.223C291.295 182.673 291.521 183.171 291.954 183.303C297.198 184.843 301.41 189.256 303.161 194.956C303.741 196.816 304.053 198.816 304.053 200.901C304.053 201.211 304.053 201.52 304.027 201.821C303.369 216.649 282.663 228.002 273.094 236.172L270.329 238.529L270.295 238.557C268.241 240.538 266.403 242.849 264.843 245.403C261.09 251.535 258.863 259.151 258.863 267.405C258.863 271.997 259.556 276.382 260.813 280.439C261.047 281.2 262.035 281.2 262.252 280.439C262.312 280.214 262.373 280.007 262.442 279.791C263.942 274.899 266.941 270.1 271.838 268.87C276.648 267.659 282.316 270.147 284.665 274.908C286.953 279.557 285.904 285.576 284.284 290.309C282.212 296.356 278.667 301.634 275.781 307.231C268.362 321.617 262.962 337.149 258.88 352.991C250.248 386.487 249.259 418.669 254.676 442.812C261.896 485.643 298.732 518.219 343.073 518.219C355.814 518.219 367.948 515.524 378.929 510.669C378.964 510.66 378.99 510.641 379.025 510.622C379.969 510.209 380.905 509.767 381.833 509.317C388.489 506.086 394.677 502.048 400.302 497.325C401.689 496.16 402.911 494.789 403.986 493.296C403.986 493.296 403.995 493.287 404.003 493.278C404.003 493.268 404.021 493.249 404.029 493.24C404.515 492.592 403.83 491.691 403.145 492.076V492.094ZM340.031 302.949C347.736 308.639 347.207 319.185 347.173 319.683C347.216 318.978 348.568 317.523 348.915 316.931C351.758 312.142 354.054 306.601 354.748 300.807C355.528 294.309 354.358 287.651 353.647 281.2C353.11 276.345 351.957 271.358 352.243 266.466C352.598 260.465 353.69 254.437 354.895 248.577C353.838 254.183 352.98 262.409 354.704 271.997C355.389 275.791 355.918 276.721 356.637 280.777C357.244 284.205 359.194 295.239 356.828 305.456C353.63 319.269 343.463 327.533 339.259 330.557C339.259 330.557 347.363 304.207 327.68 300.235C328.98 299.981 334.718 299.023 340.031 302.958V302.949ZM263.5 414.725C264.054 385.539 273.996 353.883 287.196 334.041C276.492 355.264 268.856 384.6 268.336 411.927C267.599 450.466 280.609 480.863 297.466 493.55C278.373 484.018 262.763 453.875 263.508 414.734L263.5 414.725Z" fill="#7ECBF3"/>
<path d="M337.716 190.721C339.263 190.721 340.516 189.363 340.516 187.688C340.516 186.013 339.263 184.655 337.716 184.655C336.17 184.655 334.917 186.013 334.917 187.688C334.917 189.363 336.17 190.721 337.716 190.721Z" fill="#404596"/>
<path d="M0 495.512C3.24153 500.508 6.33571 506.471 8.99653 513.101C9.0312 513.186 9.06587 513.27 9.10054 513.355C9.59457 514.604 10.7126 515.374 11.9694 515.467C12.1081 515.477 12.2467 515.496 12.3854 515.524C14.3355 515.871 15.8696 517.656 16.0603 519.787C16.2076 521.412 15.6009 522.886 14.5869 523.863C13.6855 524.727 13.3475 526.098 13.6595 527.356C16.8317 539.949 16.9357 550.786 13.8502 556.242C17.9411 556.767 21.668 555.997 24.6581 553.725C24.7188 553.687 24.7708 553.64 24.8401 553.584C26.1402 552.57 27.2496 551.274 28.125 549.828C29.4944 547.574 29.9884 544.823 30.7598 542.296C32.0772 537.986 33.4466 533.394 35.5614 529.45C40.5537 520.332 59.0408 519.59 59.0408 519.59C46.3001 519.318 34.218 516.369 23.332 511.279C23.2974 511.27 23.2714 511.251 23.2367 511.232C22.3007 510.791 21.3733 510.34 20.4459 509.861C12.9661 506.03 6.09303 501.184 0.00866718 495.494L0 495.512Z" fill="#404596"/>
<path d="M0.979432 493.259C0.979432 493.259 0.996766 493.287 1.00543 493.296C1.00543 493.296 1.0141 493.306 1.02277 493.315C2.0975 494.818 3.32824 496.189 4.70632 497.344C10.3227 502.067 16.5197 506.105 23.1761 509.336C24.1035 509.786 25.0395 510.228 25.9842 510.641C26.0189 510.65 26.0449 510.669 26.0796 510.688C37.0609 515.543 49.195 518.238 61.9357 518.238C106.286 518.238 143.113 485.652 150.332 442.831C155.749 418.697 154.77 386.516 146.129 353.01C142.046 337.168 136.647 321.636 129.228 307.249C126.342 301.653 122.805 296.366 120.725 290.328C119.096 285.595 118.056 279.575 120.344 274.927C122.693 270.166 128.361 267.677 133.171 268.889C138.068 270.119 141.067 274.918 142.566 279.81C142.636 280.026 142.696 280.242 142.757 280.458C142.974 281.228 143.962 281.228 144.196 280.458C145.453 276.401 146.146 272.006 146.146 267.424C146.146 259.169 143.927 251.554 140.166 245.422C138.597 242.858 136.759 240.557 134.714 238.576L134.679 238.548C134.679 238.548 131.923 236.191 131.915 236.191C122.346 228.021 101.64 216.677 100.981 201.84C100.964 201.539 100.955 201.229 100.955 200.919C100.955 198.835 101.267 196.835 101.848 194.975C103.599 189.275 107.811 184.862 113.055 183.321C113.479 183.19 113.713 182.692 113.557 182.242C112.266 178.495 108.929 175.828 105.02 175.828H105.012C104.466 175.828 104.102 175.217 104.31 174.673C105.02 172.823 105.41 170.794 105.41 168.663C105.41 163.47 103.087 158.878 99.4993 156.023C98.9359 155.572 98.1645 156.107 98.3119 156.849C98.4332 157.507 98.5025 158.192 98.5025 158.887C98.5025 163.836 95.1397 167.93 90.7628 168.653C90.6327 168.672 90.4941 168.653 90.3814 168.606C88.3186 175.236 83.647 181.453 77.1639 183.66C81.5322 179.687 84.9471 174.09 84.9037 167.705C84.8517 160.549 80.5701 153.638 73.8444 149.835C73.0557 149.6 72.2497 149.403 71.4263 149.234C63.9725 147.769 55.236 149.168 47.0542 153.779C30.8812 162.887 22.9594 181.077 29.3471 194.393C30.3785 196.543 31.7219 198.431 33.308 200.056C33.672 200.422 33.6027 201.051 33.1867 201.333C21.0266 209.672 22.4394 247.29 36.6622 288.581C36.9829 289.529 37.3296 290.487 37.6676 291.454C44.74 311.24 54.5339 330.106 64.4665 348.653C70.0049 358.964 76.3666 368.72 83.231 378.045C92.0628 390.028 99.4473 406.762 103.599 426.06C110.507 458.185 106.476 488.216 94.8017 503.222C94.169 504.03 93.0509 503.034 93.6316 502.189C104.197 486.638 107.62 457.781 100.999 426.999C98.1472 413.748 93.7789 401.719 88.4573 391.596C87.9806 390.694 86.7152 391.399 87.1139 392.347C88.2146 394.986 89.2027 397.672 90.0607 400.442C95.9891 419.805 96.7258 441.526 90.0694 460.795C88.7953 464.486 87.2439 468.073 85.4238 471.482C80.8995 479.952 74.7025 487.155 66.902 492.508C62.0917 495.813 56.9434 498.208 51.5958 499.748C50.6684 500.02 49.741 500.264 48.7963 500.48C46.6468 500.978 44.4713 501.344 42.2699 501.569C34.1747 502.424 25.7936 501.504 17.5251 498.968C17.2391 498.884 16.9617 498.799 16.6844 498.705C11.6661 497.1 6.6911 494.893 1.86348 492.113C1.17878 491.728 0.49407 492.62 0.979432 493.278V493.259ZM77.3373 300.235C57.6455 304.207 65.7579 330.557 65.7579 330.557C61.563 327.533 51.3964 319.269 48.1896 305.456C45.8234 295.239 47.7735 284.205 48.3802 280.777C49.0996 276.721 49.6283 275.791 50.313 271.997C52.0291 262.4 51.1797 254.183 50.1223 248.577C51.3357 254.446 52.4191 260.465 52.7745 266.466C53.0692 271.359 51.9078 276.345 51.3704 281.2C50.6597 287.642 49.4896 294.309 50.2697 300.807C50.9631 306.601 53.2599 312.142 56.1027 316.931C56.4494 317.523 57.7928 318.978 57.8448 319.683C57.8101 319.185 57.2814 308.649 64.9866 302.949C70.2995 299.023 76.0372 299.981 77.3373 300.225V300.235ZM107.56 493.55C124.409 480.863 137.418 450.466 136.69 411.927C136.17 384.609 128.534 355.264 117.83 334.041C131.03 353.883 140.972 385.539 141.526 414.725C142.272 453.865 126.662 484.009 107.568 493.54L107.56 493.55Z" fill="#7ECBF3"/>
<path d="M67.2919 190.721C68.838 190.721 70.0914 189.363 70.0914 187.688C70.0914 186.013 68.838 184.655 67.2919 184.655C65.7458 184.655 64.4924 186.013 64.4924 187.688C64.4924 189.363 65.7458 190.721 67.2919 190.721Z" fill="#404596"/>
<g clip-path="url(#clip0_25_215)">
<path d="M185.941 78.0385C185.842 78.474 185.712 78.9122 185.551 79.345C185.548 79.353 185.546 79.361 185.543 79.3663C184.964 80.8985 183.799 82.0431 182.435 82.4308C182.112 82.5237 181.79 82.5795 181.474 82.6034C180.404 82.683 179.396 82.3644 178.614 81.6288C178.614 81.6288 178.606 81.6261 178.604 81.6208C177.983 81.1402 177.495 80.463 177.164 79.669C177.125 79.5761 177.228 79.4751 177.284 79.5495C177.674 80.0859 178.162 80.5188 178.736 80.8056C179.377 81.1295 180.058 81.2411 180.735 81.1641C180.078 80.9251 179.475 80.5055 178.984 79.8974C178.292 79.037 177.924 77.9349 177.863 76.7612C177.858 76.6576 177.986 76.6072 178.01 76.7028C178.194 77.3826 178.501 78.0119 178.928 78.543C179.315 79.0264 179.774 79.3902 180.274 79.6371C182.026 80.5055 184.116 79.5415 184.981 77.4755C184.986 77.4649 184.989 77.4569 184.994 77.4463C185.033 77.356 185.067 77.2684 185.102 77.1728C185.612 75.8131 185.734 74.3924 185.526 73.1151L185.639 73.062C185.776 73.3966 185.894 73.7525 185.98 74.1242C186.25 75.3033 186.25 76.6629 185.941 78.0332V78.0385Z" fill="#404596"/>
<path d="M197.457 39.8943C197.457 39.8943 197.432 39.9102 197.42 39.9155C196.547 40.4201 195.605 40.8211 194.639 41.1291C194.192 41.2752 193.736 41.4 193.28 41.5062C192.458 41.7001 191.629 41.8381 190.814 41.9284C190.397 41.9736 189.988 42.0108 189.581 42.032C189.99 42.0001 190.397 41.9576 190.802 41.8992C191.55 41.7983 192.289 41.6523 193.017 41.4557C193.446 41.3416 193.873 41.2035 194.293 41.0441C194.597 40.9353 194.894 40.8105 195.19 40.6777L195.335 40.5741C196.434 39.7774 196.002 38.1735 195.073 37.4698C193.895 36.5802 192.59 36.057 191.2 35.7835C189.539 35.4542 187.633 35.6454 185.977 36.0039C185.447 36.1181 185.021 36.235 184.51 36.4235C179.57 38.2505 176.342 43.2562 176.05 48.5673C175.964 50.1314 176.131 51.7407 176.58 53.3207C176.786 52.4975 177.085 51.6796 177.478 50.8962C177.843 50.1633 178.292 49.4542 178.817 48.7904C178.908 48.6762 178.999 48.5593 179.092 48.4531C179.595 47.8662 180.134 47.3431 180.708 46.8916C180.814 46.8067 180.922 46.7297 181.03 46.6473C179.116 50.0119 178.91 54.8344 180.458 59.6781C180.924 61.1386 181.545 62.5992 182.327 64.0199C182.371 64.1314 182.423 64.2376 182.472 64.3439C182.582 64.5776 182.693 64.8086 182.806 65.037C183.326 66.1231 183.887 67.1853 184.42 68.2634C185.131 69.7107 185.779 71.1792 186.21 72.7407C186.605 74.1747 186.774 75.7043 186.63 77.194C186.561 77.9349 186.411 78.6679 186.164 79.361C186.046 79.6982 185.904 80.0248 185.739 80.3355C185.727 80.3594 185.71 80.3913 185.69 80.4205C185.506 80.71 185.833 81.0685 186.11 80.8879C186.264 80.787 186.399 80.6861 186.497 80.617C186.922 80.3196 187.317 79.9664 187.67 79.5761C188.371 78.7953 188.926 77.8606 189.291 76.8488C189.796 75.4732 189.98 73.9941 189.949 72.5123C189.944 72.191 189.926 71.8697 189.899 71.551C189.895 71.4899 189.89 71.4262 189.882 71.3625C189.846 70.919 189.792 70.4729 189.718 70.0373C189.492 68.6591 188.972 66.301 188.577 64.1553C188.494 63.7145 188.42 63.2816 188.354 62.8647C188.214 62.0017 188.114 61.2263 188.087 60.6261C188.082 60.5252 188.079 60.4243 188.077 60.326C187.932 56.0745 189.215 52.6489 193.368 49.2445C191.217 49.1143 188.808 49.664 187.236 51.1857C186.468 51.9292 184.984 53.9607 185.013 55.007C185.001 54.9034 184.989 54.7972 184.976 54.6883C184.959 54.9751 184.945 55.2672 184.925 55.5567C184.579 53.1401 185.315 50.5669 186.87 48.7904C187.996 47.5051 189.421 46.6951 190.959 46.0711C192.154 45.5851 193.417 45.2001 194.656 44.7831C194.918 44.6955 195.176 44.6079 195.436 44.5149C195.725 44.4114 196.01 44.3051 196.294 44.1936C196.885 43.9546 197.474 43.6864 198.024 43.3465C198.49 42.9721 198.811 42.5525 199.024 42.0984C199.503 41.0734 199.419 39.889 199.118 38.7205C198.602 39.164 198.046 39.5517 197.459 39.8916L197.457 39.8943ZM190.952 40.829C190.952 40.6856 191.018 40.5449 191.138 40.4599C191.334 40.3139 191.599 40.3723 191.732 40.5821C191.774 40.6485 191.793 40.7228 191.803 40.7972C191.818 40.9565 191.751 41.1265 191.617 41.2247C191.567 41.2592 191.521 41.2831 191.464 41.2964C191.401 41.3097 191.334 41.307 191.276 41.2858C191.177 41.2619 191.084 41.1955 191.023 41.0999C190.974 41.0202 190.949 40.922 190.952 40.829Z" fill="#404596"/>
<path d="M168.848 37.6609C168.434 37.6954 168.01 37.6954 167.58 37.6609C167.573 37.6609 167.566 37.6609 167.558 37.6609C166.033 37.5361 164.669 36.6916 163.906 35.4063C163.724 35.1036 163.575 34.7902 163.457 34.4716C163.057 33.3961 163.025 32.2595 163.43 31.2265C163.43 31.2265 163.43 31.2185 163.432 31.2159C163.661 30.4272 164.107 29.7155 164.701 29.1313C164.769 29.0622 164.892 29.1366 164.843 29.2162C164.492 29.7845 164.264 30.4219 164.188 31.099C164.102 31.8585 164.215 32.5967 164.49 33.2686C164.495 32.5197 164.679 31.7682 165.061 31.0751C165.603 30.0979 166.459 29.3782 167.47 28.9533C167.561 28.9162 167.642 29.0304 167.566 29.0861C167.026 29.4845 166.567 29.9943 166.231 30.5998C165.927 31.1495 165.748 31.7337 165.687 32.3232C165.466 34.3945 166.957 36.2508 169.04 36.503C169.05 36.503 169.059 36.503 169.069 36.5057C169.16 36.5163 169.248 36.5269 169.344 36.5323C170.696 36.6358 171.981 36.3251 173.041 35.717L173.124 35.8153C172.871 36.0622 172.597 36.2906 172.295 36.4951C171.343 37.1377 170.149 37.5573 168.848 37.6609Z" fill="#404596"/>
<path d="M205.917 37.7299C205.917 37.7299 205.895 37.7086 205.888 37.698C205.174 36.9544 204.531 36.11 203.96 35.2097C203.692 34.7955 203.442 34.3626 203.207 33.9271C202.782 33.1437 202.404 32.3311 202.073 31.5185C201.904 31.1043 201.745 30.6927 201.6 30.2811C201.754 30.6927 201.919 31.099 202.093 31.4973C202.412 32.2355 202.768 32.9499 203.165 33.6403C203.398 34.0466 203.651 34.4423 203.92 34.8247C204.112 35.1035 204.31 35.3717 204.521 35.6373L204.659 35.7541C205.696 36.6384 206.974 35.6984 207.303 34.5246C207.72 33.0375 207.776 31.5318 207.588 30.0155C207.362 28.2044 206.606 26.3004 205.78 24.7071C205.515 24.1972 205.282 23.7936 204.956 23.3262C201.823 18.8038 196.429 17.0273 191.673 18.3683C190.27 18.7613 188.911 19.4332 187.66 20.3839C188.447 20.3414 189.257 20.3971 190.069 20.5591C190.824 20.7078 191.587 20.9521 192.333 21.2867C192.46 21.3452 192.59 21.4009 192.713 21.4647C193.385 21.7993 194.011 22.1949 194.585 22.6464C194.69 22.7287 194.793 22.8163 194.899 22.9013C191.349 21.9692 187.052 23.2492 183.277 26.3376C182.138 27.2697 181.047 28.3584 180.039 29.6039C179.955 29.6836 179.877 29.7685 179.798 29.8509C179.627 30.0367 179.457 30.2226 179.293 30.4085C178.501 31.2795 177.74 32.1877 176.958 33.0667C175.908 34.2458 174.816 35.3664 173.578 36.2932C172.44 37.143 171.149 37.7883 169.795 38.1016C169.123 38.2583 168.434 38.33 167.75 38.2902C167.416 38.2742 167.085 38.2291 166.764 38.1547C166.739 38.1494 166.705 38.1415 166.673 38.1308C166.364 38.0299 166.148 38.4761 166.391 38.7071C166.528 38.8346 166.658 38.9434 166.749 39.0204C167.141 39.3657 167.573 39.6631 168.027 39.9074C168.929 40.388 169.923 40.6695 170.924 40.7333C172.288 40.8289 173.644 40.5607 174.937 40.072C175.219 39.9685 175.493 39.849 175.766 39.7242C175.82 39.7003 175.871 39.6764 175.925 39.6472C176.303 39.4719 176.678 39.278 177.039 39.0682C178.182 38.4097 180.09 37.1456 181.854 36.0755C182.217 35.8524 182.573 35.6426 182.918 35.4461C183.632 35.0371 184.285 34.6919 184.802 34.4795C184.888 34.4423 184.976 34.4104 185.062 34.3759C188.754 32.9127 192.159 33.1756 196.434 36.3994C195.885 34.1449 194.658 31.8345 192.833 30.6874C191.943 30.127 189.701 29.2268 188.788 29.58C188.877 29.5349 188.965 29.4897 189.058 29.4446C188.801 29.5136 188.541 29.588 188.281 29.6597C190.297 28.555 192.784 28.5204 194.825 29.572C196.302 30.3342 197.452 31.5531 198.477 32.9419C199.275 34.0227 200.001 35.2018 200.751 36.3516C200.908 36.5933 201.068 36.8323 201.23 37.0713C201.411 37.3368 201.59 37.5971 201.777 37.8547C202.169 38.3911 202.586 38.9116 203.055 39.3736C203.528 39.7374 203.994 39.9393 204.46 40.0189C205.507 40.1968 206.523 39.7428 207.458 39.0709C206.908 38.6779 206.398 38.2238 205.917 37.7272V37.7299ZM203.086 31.3194C203.214 31.2769 203.356 31.3008 203.469 31.399C203.658 31.5557 203.69 31.8478 203.545 32.047C203.498 32.1107 203.442 32.1532 203.376 32.1877C203.238 32.2541 203.069 32.2355 202.944 32.1267C202.9 32.0868 202.863 32.0443 202.834 31.9939C202.802 31.9328 202.785 31.8638 202.785 31.7974C202.775 31.6885 202.804 31.5743 202.871 31.4787C202.927 31.4044 203.003 31.3486 203.086 31.322V31.3194Z" fill="#404596"/>
<path d="M199.037 7.58411C198.88 7.16719 198.747 6.73168 198.642 6.28024C198.642 6.27227 198.639 6.26431 198.637 6.25634C198.274 4.64708 198.595 2.98206 199.488 1.79769C199.699 1.51885 199.927 1.26658 200.172 1.04617C200.994 0.302617 201.983 -0.082437 203.015 0.0131625C203.015 0.0131625 203.023 0.0131625 203.025 0.0131625C203.788 0.00519585 204.551 0.244195 205.247 0.674392C205.328 0.724848 205.301 0.873558 205.216 0.847003C204.61 0.661115 203.979 0.623937 203.359 0.754059C202.665 0.900113 202.051 1.24268 201.546 1.73395C202.206 1.50823 202.922 1.46309 203.651 1.64367C204.678 1.90125 205.574 2.55717 206.261 3.46802C206.322 3.55034 206.246 3.66984 206.172 3.60877C205.655 3.17591 205.066 2.86256 204.431 2.70323C203.854 2.55983 203.288 2.55717 202.748 2.67402C200.859 3.08562 199.692 5.19678 200.114 7.41947C200.114 7.43009 200.118 7.44071 200.118 7.44868C200.136 7.54428 200.155 7.63988 200.18 7.73813C200.506 9.1615 201.176 10.391 202.039 11.2912L201.978 11.4081C201.683 11.2249 201.396 11.0124 201.127 10.7655C200.268 9.98207 199.53 8.88533 199.037 7.5788V7.58411Z" fill="#404596"/>
<path d="M210.43 45.7735C210.435 45.7602 210.443 45.7443 210.45 45.7337C210.882 44.7697 211.426 43.8456 212.042 42.9799C212.324 42.5762 212.626 42.1859 212.935 41.8088C213.492 41.129 214.09 40.489 214.699 39.8968C215.01 39.5941 215.322 39.3046 215.638 39.0284C215.326 39.3152 215.017 39.61 214.723 39.9127C214.174 40.4704 213.654 41.0573 213.17 41.6786C212.883 42.0451 212.616 42.4275 212.363 42.8232C212.177 43.1047 212.003 43.3941 211.836 43.6915L211.777 43.8668C211.321 45.2079 212.54 46.2329 213.673 46.209C215.108 46.1798 216.447 45.7708 217.721 45.1096C219.241 44.3183 220.681 42.9533 221.827 41.6096C222.195 41.1794 222.474 40.8129 222.786 40.3349C225.791 35.7116 225.685 29.6092 223.038 25.1267C222.258 23.8042 221.25 22.6119 220.029 21.6187C220.308 22.4154 220.509 23.2678 220.617 24.1521C220.72 24.9779 220.743 25.8357 220.676 26.7067C220.664 26.8554 220.654 27.0068 220.637 27.1555C220.551 27.9495 220.397 28.7169 220.178 29.4472C220.139 29.5827 220.092 29.7154 220.051 29.8482C219.771 25.9074 217.318 21.8763 213.44 18.9419C212.27 18.0576 210.975 17.2716 209.569 16.6183C209.474 16.5572 209.376 16.5041 209.278 16.4483C209.062 16.3288 208.846 16.212 208.63 16.1005C207.619 15.5534 206.587 15.0515 205.574 14.5178C204.215 13.8008 202.89 13.0254 201.693 12.0348C200.594 11.124 199.628 9.99538 198.936 8.69948C198.59 8.05418 198.313 7.3664 198.139 6.6494C198.051 6.30153 197.987 5.94568 197.952 5.58984C197.95 5.56329 197.945 5.52611 197.945 5.48893C197.938 5.1384 197.479 5.05608 197.351 5.3774C197.283 5.55797 197.226 5.72527 197.185 5.84212C197.003 6.35464 196.876 6.8884 196.8 7.43013C196.655 8.50828 196.716 9.6183 196.969 10.6672C197.307 12.1012 197.962 13.4157 198.789 14.5948C198.965 14.8524 199.157 15.0993 199.351 15.341C199.387 15.3888 199.427 15.4339 199.468 15.4817C199.738 15.8163 200.025 16.143 200.322 16.4483C201.254 17.4203 202.954 18.995 204.438 20.4821C204.745 20.7875 205.041 21.0876 205.321 21.3823C205.902 21.9905 206.405 22.5561 206.753 23.0235C206.812 23.1005 206.869 23.1828 206.923 23.2598C209.349 26.6084 210.17 30.1961 208.659 35.5921C210.47 34.3281 212.12 32.3524 212.564 30.1191C212.783 29.0276 212.878 26.4412 212.287 25.6126C212.354 25.6896 212.422 25.7666 212.488 25.849C212.346 25.6047 212.201 25.3603 212.057 25.1134C213.649 26.8474 214.451 29.3994 214.156 31.8239C213.943 33.5792 213.229 35.1407 212.324 36.6278C211.623 37.783 210.808 38.8956 210.033 40.0216C209.869 40.2579 209.709 40.4943 209.547 40.7359C209.371 41.0041 209.197 41.2697 209.027 41.5406C208.679 42.1088 208.348 42.701 208.088 43.3277C207.914 43.9279 207.882 44.4696 207.955 44.9742C208.122 46.1081 208.836 47.0136 209.714 47.7678C209.891 47.0827 210.129 46.4135 210.418 45.7655L210.43 45.7735ZM215.187 40.8767C215.263 40.9935 215.287 41.1475 215.236 41.2936C215.157 41.5352 214.909 41.6574 214.689 41.5724C214.618 41.5459 214.564 41.4981 214.515 41.4423C214.414 41.3228 214.377 41.1422 214.434 40.9776C214.453 40.9192 214.48 40.8687 214.517 40.8236C214.561 40.7731 214.618 40.7333 214.676 40.712C214.77 40.6695 214.88 40.6642 214.983 40.7014C215.066 40.7359 215.14 40.797 215.187 40.8767Z" fill="#404596"/>
<path d="M234.788 29.3729C235.104 29.0834 235.448 28.8126 235.813 28.563C235.821 28.5576 235.825 28.555 235.833 28.5497C237.133 27.6787 238.695 27.4954 240.013 28.0478C240.324 28.1779 240.616 28.3372 240.883 28.5178C241.791 29.1339 242.434 30.0341 242.669 31.1256C242.669 31.1256 242.672 31.1335 242.672 31.1362C242.914 31.9196 242.941 32.7773 242.777 33.6297C242.757 33.728 242.62 33.7466 242.615 33.651C242.591 32.9685 242.429 32.3073 242.122 31.7098C241.781 31.0406 241.288 30.5148 240.699 30.1457C241.102 30.7564 241.362 31.4814 241.428 32.2834C241.519 33.4199 241.219 34.5459 240.633 35.5338C240.582 35.6214 240.452 35.5816 240.484 35.486C240.704 34.8194 240.798 34.1157 240.741 33.412C240.69 32.7746 240.515 32.1878 240.246 31.6699C239.301 29.8535 237.086 29.3012 235.264 30.4218C235.256 30.4271 235.247 30.4325 235.239 30.4378C235.161 30.4856 235.082 30.536 235.004 30.5891C233.853 31.3646 232.983 32.4347 232.455 33.6032L232.335 33.574C232.406 33.2155 232.504 32.8543 232.637 32.4985C233.059 31.3725 233.797 30.2731 234.79 29.3623L234.788 29.3729Z" fill="#404596"/>
<path d="M204.762 52.9064C204.776 52.9064 204.791 52.909 204.803 52.9143C205.785 53.0604 206.763 53.3366 207.715 53.703C208.157 53.8703 208.593 54.0589 209.02 54.2607C209.79 54.6245 210.536 55.0414 211.245 55.4876C211.605 55.7159 211.959 55.947 212.3 56.186C211.951 55.9523 211.598 55.7266 211.24 55.5168C210.58 55.1238 209.903 54.7706 209.209 54.4652C208.799 54.2846 208.38 54.1253 207.955 53.9872C207.649 53.881 207.342 53.7907 207.028 53.7137L206.854 53.7057C205.534 53.6499 205.012 55.222 205.382 56.3825C205.851 57.851 206.624 59.1044 207.6 60.2118C208.765 61.5342 210.408 62.5911 211.944 63.3586C212.434 63.6029 212.844 63.7808 213.359 63.9534C218.348 65.6185 223.679 63.6241 226.796 59.5134C227.716 58.3024 228.455 56.895 228.95 55.3282C228.337 55.8647 227.65 56.3347 226.907 56.7171C226.215 57.0782 225.467 57.365 224.679 57.5695C224.545 57.604 224.407 57.6412 224.275 57.6678C223.549 57.8244 222.83 57.9041 222.119 57.9041C221.986 57.9041 221.856 57.8988 221.726 57.8961C225.101 56.3905 227.885 52.6196 229.264 47.7201C229.679 46.2436 229.97 44.6662 230.11 43.0171C230.135 42.8976 230.152 42.7808 230.169 42.664C230.208 42.4037 230.243 42.1488 230.275 41.8885C230.444 40.6803 230.566 39.4614 230.721 38.2504C230.932 36.6279 231.204 35.0266 231.702 33.4891C232.163 32.0763 232.855 30.7326 233.78 29.6173C234.238 29.0623 234.759 28.5657 235.333 28.162C235.612 27.9629 235.904 27.7903 236.206 27.6442C236.23 27.6336 236.26 27.6177 236.292 27.607C236.596 27.4902 236.527 26.9936 236.206 26.9617C236.027 26.9458 235.86 26.9405 235.747 26.9352C235.242 26.906 234.732 26.9405 234.234 27.0308C233.243 27.2167 232.286 27.6203 231.442 28.2045C230.287 28.9959 229.335 30.0767 228.555 31.2929C228.383 31.5558 228.224 31.8267 228.072 32.1029C228.042 32.156 228.013 32.2091 227.984 32.2675C227.773 32.6499 227.574 33.0456 227.397 33.4439C226.831 34.7026 225.972 36.9413 225.126 38.9303C224.954 39.3419 224.78 39.7376 224.606 40.1173C224.25 40.9033 223.909 41.5964 223.605 42.0983C223.554 42.1833 223.502 42.2656 223.451 42.3479C221.258 45.8798 218.361 47.8343 213.153 47.9485C214.821 49.4223 217.068 50.5111 219.168 50.2774C220.193 50.1632 222.496 49.4648 223.041 48.5991C222.994 48.692 222.948 48.785 222.896 48.8806C223.068 48.6602 223.237 48.4345 223.409 48.2114C222.376 50.3889 220.384 52.0008 218.162 52.447C216.553 52.771 214.961 52.516 213.376 52.046C212.145 51.6795 210.916 51.1856 209.685 50.7342C209.425 50.6386 209.17 50.5456 208.907 50.4553C208.618 50.3544 208.328 50.2588 208.039 50.1685C207.431 49.9853 206.81 49.8286 206.18 49.7543C205.601 49.7596 205.113 49.895 204.691 50.1287C203.746 50.6518 203.172 51.6662 202.78 52.8028C203.437 52.7736 204.097 52.8134 204.757 52.909L204.762 52.9064ZM210.531 56.2895C210.453 56.4064 210.323 56.4754 210.178 56.4701C209.94 56.4648 209.756 56.2471 209.763 55.9948C209.766 55.9125 209.79 55.8434 209.822 55.7744C209.896 55.6336 210.043 55.5407 210.205 55.5486C210.261 55.5513 210.315 55.5619 210.367 55.5858C210.426 55.615 210.477 55.6602 210.514 55.7133C210.58 55.7956 210.619 55.9071 210.617 56.0266C210.612 56.1222 210.58 56.2178 210.526 56.2895H210.531Z" fill="#404596"/>
<path d="M226.696 72.9157C227.049 73.1521 227.392 73.4203 227.723 73.7204C227.728 73.7257 227.736 73.731 227.741 73.7363C228.906 74.8065 229.553 76.36 229.472 77.8843C229.453 78.2454 229.404 78.5933 229.328 78.9279C229.068 80.0512 228.477 80.9939 227.589 81.5728C227.589 81.5728 227.584 81.5781 227.579 81.5808C226.966 82.072 226.22 82.3642 225.42 82.4598C225.327 82.4704 225.268 82.3323 225.352 82.3004C225.943 82.0641 226.475 81.695 226.904 81.1931C227.387 80.6354 227.697 79.9662 227.839 79.2466C227.427 79.8494 226.87 80.3406 226.186 80.6593C225.214 81.1054 224.132 81.1426 223.085 80.8452C222.992 80.8186 222.987 80.6726 223.08 80.6752C223.733 80.6965 224.38 80.5743 224.981 80.3008C225.526 80.0485 225.987 79.69 226.36 79.2519C227.665 77.717 227.463 75.2659 225.916 73.7363C225.908 73.7283 225.901 73.723 225.894 73.7151C225.827 73.6487 225.759 73.5823 225.688 73.5185C224.65 72.5732 223.441 72.0075 222.253 71.827L222.241 71.6942C222.577 71.6544 222.926 71.6464 223.281 71.6729C224.4 71.7606 225.594 72.1802 226.703 72.9211L226.696 72.9157Z" fill="#404596"/>
<path d="M196.741 49.2735C196.743 49.2895 196.746 49.3027 196.748 49.3187C196.922 50.3729 196.981 51.467 196.954 52.5584C196.944 53.063 196.912 53.5729 196.866 54.0748C196.782 54.9803 196.648 55.8779 196.476 56.7436C196.388 57.187 196.292 57.6199 196.186 58.0448C196.284 57.6146 196.373 57.1791 196.446 56.7462C196.589 55.9469 196.689 55.1396 196.743 54.3297C196.775 53.8517 196.785 53.371 196.775 52.8904C196.775 52.5425 196.758 52.1973 196.731 51.8521L196.684 51.6715C196.324 50.2959 194.783 50.2428 193.878 50.9837C192.733 51.9211 191.872 53.1028 191.2 54.4492C190.397 56.0584 189.976 58.0766 189.779 59.893C189.716 60.4746 189.686 60.9499 189.696 61.5342C189.774 67.1852 193.174 72.0581 197.749 73.9993C199.098 74.5729 200.562 74.8969 202.091 74.9234C201.431 74.456 200.805 73.8957 200.239 73.2478C199.709 72.6449 199.223 71.9651 198.804 71.2189C198.733 71.0915 198.656 70.9613 198.593 70.8312C198.232 70.1328 197.94 69.4158 197.719 68.6855C197.678 68.5501 197.643 68.4147 197.604 68.2792C199.969 71.2906 204.141 72.9902 208.873 72.8946C210.3 72.8654 211.775 72.6768 213.266 72.313C213.376 72.3024 213.487 72.2811 213.595 72.2652C213.835 72.2254 214.071 72.1829 214.309 72.1351C215.422 71.9359 216.531 71.6836 217.642 71.4712C219.131 71.1871 220.622 70.972 222.128 71.0118C223.512 71.049 224.905 71.3464 226.171 71.9545C226.801 72.2546 227.397 72.6343 227.93 73.1044C228.19 73.3301 228.432 73.577 228.656 73.8426C228.673 73.8638 228.695 73.8904 228.715 73.9196C228.911 74.1984 229.328 73.9727 229.254 73.6328C229.213 73.4443 229.166 73.2717 229.136 73.1522C229.006 72.6211 228.818 72.1085 228.585 71.6226C228.116 70.6613 227.464 69.8009 226.691 69.1104C225.639 68.1651 224.395 67.5198 223.085 67.0922C222.801 66.9966 222.514 66.9169 222.224 66.8452C222.168 66.832 222.111 66.816 222.052 66.8054C221.653 66.7072 221.243 66.6248 220.838 66.5664C219.558 66.3726 217.326 66.1787 215.317 65.9211C214.902 65.8707 214.5 65.8149 214.115 65.7538C213.315 65.6317 212.601 65.4936 212.064 65.3369C211.973 65.3103 211.885 65.2838 211.797 65.2546C208.017 64.0888 205.404 61.7094 203.695 56.3824C202.915 58.5573 202.655 61.2049 203.506 63.2948C203.923 64.3145 205.247 66.4708 206.177 66.7629C206.081 66.7443 205.983 66.7231 205.885 66.7018C206.133 66.8107 206.383 66.9143 206.633 67.0232C204.404 66.6328 202.37 65.0793 201.291 62.931C200.511 61.3748 200.241 59.6567 200.165 57.8801C200.106 56.4993 200.16 55.0812 200.177 53.6764C200.182 53.379 200.182 53.0869 200.182 52.7895C200.182 52.4602 200.175 52.1335 200.165 51.8069C200.138 51.1244 200.084 50.4367 199.954 49.7648C199.77 49.17 199.5 48.7079 199.167 48.3467C198.416 47.5368 197.347 47.258 196.228 47.2075C196.459 47.8741 196.628 48.5672 196.746 49.2762L196.741 49.2735ZM195.551 56.2603C195.426 56.2151 195.323 56.1036 195.284 55.9522C195.215 55.7053 195.35 55.4503 195.576 55.3786C195.647 55.3574 195.718 55.3574 195.787 55.3733C195.931 55.4078 196.059 55.53 196.103 55.6973C196.118 55.7584 196.125 55.8141 196.12 55.8752C196.113 55.9443 196.088 56.0106 196.054 56.0664C196.002 56.162 195.917 56.2337 195.811 56.2709C195.725 56.2974 195.632 56.2921 195.551 56.2603Z" fill="#404596"/>
</g>
<defs>
<clipPath id="clip0_25_215">
<rect width="83.3454" height="90.23" fill="white" transform="translate(161.389)"/>
</clipPath>
</defs>
</svg>
