<svg width="670" height="421" viewBox="0 0 670 421" fill="none" xmlns="http://www.w3.org/2000/svg">
<path d="M668.986 18.0427H32.9856V385.043H668.986V201.543V18.0427Z" fill="#5BB8E3"/>
<path d="M519.465 70.9235C517.316 65.5449 513.882 60.9614 509.538 57.1495C507.505 55.3723 504.609 54.6006 503.277 52.1685C501.923 49.6429 501.292 46.4625 500.941 43.6562C500.521 40.3589 500.568 37.0148 500.825 33.7175C501.082 30.4202 500.661 27.1696 500.895 23.8957C501.128 20.6685 501.969 17.301 502.483 14.0972C502.997 10.7999 503.838 7.71303 505.123 4.62617C505.73 3.17628 506.524 1.72639 506.991 0.229733C503.231 -0.144432 499.26 0.182962 495.475 0.182962C494.728 0.182962 493.233 -0.0976611 492.719 0.440201C492.299 0.861136 492.252 2.59165 492.135 3.19967C491.808 4.95356 491.621 6.70746 491.411 8.48474C490.523 15.968 489.542 23.5449 490.033 31.0983C490.266 34.8166 491.294 38.6518 491.948 42.3233C492.532 45.5504 493.21 48.7542 494.354 51.8411C496.643 58.0148 500.568 62.3879 504.749 67.3222C508.954 72.3032 512.364 78.1262 514.63 84.2531C515.681 87.1061 515.774 90.193 516.685 93.046C517.76 96.4602 518.718 99.9446 518.928 103.546C519.115 106.867 518.764 110.655 516.942 113.508C515.447 115.847 513.111 117.437 510.869 118.98C505.543 122.675 499.446 125.505 493.023 126.487C489.402 127.048 485.875 126.206 482.301 127.305C478.68 128.405 475.083 129.667 471.486 130.883C464.245 133.339 457.307 134.999 449.598 134.812C442.497 134.625 435.443 133.853 428.926 130.813C422.876 128.007 417.013 124.265 411.78 120.126C406.711 116.127 402.437 111.474 399.447 105.768C398.162 103.289 396.55 100.646 395.639 97.8166C395.125 96.2732 394.915 94.6362 394.401 93.0928C393.887 91.5259 393.07 90.2631 392.836 88.556C391.925 81.7041 392.065 73.7999 393.327 66.9948C394.518 60.6106 396.901 53.4079 401.269 48.4736C403.114 46.3923 405.427 44.7553 408.066 43.8433C411.126 42.7442 414.467 42.7676 417.597 41.9725C423.74 40.3823 430.701 38.8856 435.863 35.0037C437.031 34.115 438.153 33.1562 438.947 31.9168C439.624 30.8879 440.068 29.6952 441.002 28.8533C442.24 27.7308 442.988 26.889 443.759 25.2988C444.46 23.8021 444.997 22.2119 445.604 20.6685C446.912 17.3712 447.66 13.9335 448.804 10.566C449.388 8.85891 450.019 7.15178 450.72 5.49143C451.21 4.32216 452.518 2.3578 452.472 1.04822C452.425 -0.0976611 451.841 0.159577 450.79 0.159577H427.221C426.169 0.159577 424.347 -0.214588 423.366 0.182962C422.432 0.557127 421.451 1.91347 420.703 2.56826C418.952 4.11169 417.153 5.63174 415.331 7.10501C408.043 12.9513 400.521 18.517 391.715 21.791C383.002 24.9948 373.215 23.1006 364.689 20.2008C360.04 18.634 355.298 17.3478 350.58 16.0148C346.515 14.8689 341.447 14.0738 337.873 11.7119C336.191 10.5894 334.556 9.32661 332.874 8.15735C331.192 6.9647 329.627 5.58497 328.179 4.08831C327.431 3.31659 326.73 2.52149 326.053 1.70301C325.165 0.627283 324.955 0.159577 323.507 0.159577C321.031 0.136192 318.555 0.159577 316.079 0.159577C314.841 0.159577 313.579 0.066036 312.341 0.182962C313.042 2.38118 315.892 4.04154 317.293 5.86559C319.209 8.32105 321.872 10.3322 323.997 12.6473C326.193 15.056 328.249 17.605 330.024 20.3645C331.729 23.0304 333.808 25.3923 335.443 28.1284C337.008 30.7475 338.34 33.507 339.414 36.3366C344.226 49.105 334.813 48.5905 324.768 50.625C321.264 51.35 317.948 52.5894 314.49 53.5482C311.033 54.4836 307.506 55.232 304.002 56.0504C297.952 57.4536 292.042 59.4413 285.759 58.693C281.811 58.2253 278.728 56.3545 276.672 52.9402C275.317 50.7186 274.593 48.2164 273.566 45.8544C272.281 42.9079 270.576 40.1484 268.73 37.5293C265.25 32.6418 260.625 28.2453 258.265 22.6562C257.051 19.7798 257.004 17.1607 257.051 14.0972C257.074 12.4836 256.584 10.9402 256.513 9.35C256.443 7.73641 256.934 6.14621 257.424 4.62617C257.915 3.08274 258.686 1.70301 259.293 0.229733C256.35 -0.0508905 253.22 0.206348 250.23 0.206348C247.24 0.206348 244.11 -0.0976611 241.167 0.253118C241.4 6.77762 244.951 14.0738 248.128 19.6629C251.678 25.9302 256.373 31.4023 260.508 37.272C278.237 62.5516 289.823 110.351 265.483 135.163C256.957 143.839 237.92 149.732 226.427 153.029C213.276 156.818 196.177 153.591 182.816 151.673C165.414 149.171 139.345 145.148 138.06 123.213C137.64 115.893 136.308 108.644 136.378 101.278C136.449 93.8411 137.126 85.703 139.041 78.5237C142.685 64.9369 151.842 53.9458 161.209 43.8901C165.928 38.8155 169.945 33.3901 173.216 27.2865C176.462 21.2297 178.915 14.4948 180.831 7.9235C181.158 6.75423 181.391 5.86559 181.718 4.5794C182.092 3.1529 183.026 1.72639 182.98 0.229733C180.784 -0.0508905 178.401 0.206348 176.205 0.206348C174.01 0.206348 171.627 0.0192654 169.408 0.253118C168.404 5.77205 166.441 11.9925 162.587 16.272C161.793 17.1373 160.742 18.4001 159.597 18.821C158.336 19.2654 156.607 18.821 155.253 18.8912C152.192 19.0081 149.179 19.5928 146.259 20.5048C140.233 22.4224 134.907 26.1406 128.53 27.0527C123.111 27.8244 118.229 22.3288 115.355 18.3767C113.58 15.9447 112.202 13.2553 111.291 10.379C110.894 9.11615 110.497 7.73641 110.31 6.40345C110.287 6.1696 110.263 5.93575 110.24 5.70189C110.1 3.87784 110.847 2.05379 110.684 0.253118C108.862 0.0192654 106.876 0.206348 105.031 0.206348C103.185 0.206348 101.2 -0.00411992 99.3779 0.253118C98.7005 6.66069 103.232 13.9335 106.526 19.0783C110.24 24.8778 114.795 30.0694 119.583 35.0037C124.092 39.634 128.46 43.8433 130.562 50.1573C131.637 53.3845 132.267 56.3544 130.562 59.4647C128.904 62.5048 127.619 65.6384 126.778 69.0293C125.937 72.3032 125.47 75.6707 125.143 79.0148C124.792 82.3589 124.582 86.2409 123.461 89.4213C120.962 96.6707 111.688 94.2854 106.759 91.6662C100.406 88.2754 94.5426 84.0894 88.6562 79.9268C83.2369 76.115 77.8877 72.4903 71.4173 70.7364C64.4096 68.8422 56.8179 69.2164 49.6 69.0994C48.0116 69.0761 46.4933 68.7253 44.9049 68.5148C43.3165 68.3277 41.6813 67.6963 40.1397 67.2052C36.8694 66.1763 33.6459 64.8901 30.6092 63.2531C29.1609 62.4814 27.8528 61.4758 26.428 60.7041C26.0075 65.5449 26.3812 70.5961 26.3812 75.4602C26.3812 80.3244 25.9608 85.399 26.428 90.2397C28.9974 90.3333 31.8472 88.1585 34.3466 87.5738C37.4534 86.8255 40.5601 86.2642 43.7836 86.3344C50.184 86.4747 56.4675 85.8433 62.7511 87.2464C68.6843 88.5794 74.6174 89.8188 80.2937 92.017C85.8064 94.1451 91.0855 96.8344 96.3646 99.5471C101.363 102.119 106.572 104.248 110.473 108.457C117.925 116.501 122.34 127.633 128.88 136.543C132.267 141.15 135.514 145.897 137.967 151.065C140.279 155.929 142.171 161.448 142.218 166.897C142.265 173.047 138.901 176.859 136.051 181.91C133.178 186.985 130.422 192.878 130.118 198.794C129.791 205.295 132.057 211.937 132.921 218.344C133.645 223.77 133.389 228.915 130.585 233.755C120.658 250.92 102.835 249.517 90.0577 236.445C82.4894 228.727 76.1358 216.24 64.4096 214.533C54.0382 213.013 41.9149 219.631 35.1876 227.161C31.7071 231.066 30.0953 235.954 30.142 241.145C30.1654 245.167 32.8984 251.388 29.815 254.755C29.3712 255.246 28.8106 255.691 28.25 256.042C27.8762 256.252 26.6615 256.556 26.4513 256.813C25.8673 257.608 26.4046 260.789 26.4046 261.841V266.892C26.4046 267.57 26.1944 268.67 26.4046 269.278C26.7083 270.166 27.3623 270.073 28.3667 270.33C34.2298 271.733 40.2331 272.481 46.0495 274.001C56.7946 276.808 66.7221 282.373 73.9167 290.979C77.7242 295.516 79.8498 300.731 82.396 306.016C84.8019 311.02 87.5349 317.101 92.417 320.094C97.5326 323.227 103.045 323.835 108.838 324.701C113.884 325.449 118.696 327.46 122.527 330.898C126.521 334.476 128.974 339.2 133.318 342.497C137.944 345.981 143.176 347.548 148.292 350.05C150.394 351.079 152.963 352.529 154.271 354.587C155.72 356.856 154.108 358.329 152.192 359.451C147.054 362.468 141.564 364.526 136.752 368.104C134.603 369.694 132.501 371.425 130.679 373.436C129.254 375.003 127.969 376.71 126.334 378.066C122.083 381.527 116.944 378.674 112.506 376.897C106.549 374.511 101.27 372.524 94.7295 372.828C88.4693 373.108 82.6529 375.073 76.6964 376.78C70.7632 378.464 64.5497 379.75 58.383 378.51C52.1695 377.247 46.9371 373.833 41.6113 370.559C39.2053 369.063 36.7059 367.706 34.2532 366.327C31.9173 365.017 29.1609 363.333 26.498 362.912C26.0309 366.327 26.4513 370.092 26.4513 373.529C26.4513 374.324 26.4046 375.119 26.4513 375.915C26.5447 377.177 26.6148 377.247 27.8996 377.481C29.4646 377.762 31.053 377.715 32.6181 377.762C38.4812 377.996 44.8815 381.129 49.6701 384.403C59.7144 391.232 67.7733 401.521 74.0101 411.811C74.8978 413.308 75.7387 414.828 76.4394 416.418C76.7898 417.213 77.0234 418.078 77.3972 418.873C77.9578 420.066 78.1446 419.879 79.4995 419.879C83.377 419.879 87.4649 420.23 91.3191 419.832C90.2913 416.839 88.3058 414.033 86.9042 411.18C85.5261 408.35 84.3581 405.427 83.6807 402.34C83.05 399.487 82.8164 396.517 83.3537 393.641C83.8209 391.138 84.9421 387.443 87.3247 386.087C89.3102 384.941 91.9031 385.783 93.9586 386.298C96.3413 386.906 98.6538 387.794 100.756 389.104C104.821 391.583 107.834 395.371 109.819 399.627C111.221 402.621 112.202 405.848 112.739 409.098C113.3 412.629 114.024 416.278 114.211 419.832C117.271 420.253 121.312 420.206 124.372 419.832C124.582 414.126 123.064 408.747 124.138 402.995C125.026 398.271 127.082 393.828 129.978 390.016C133.085 385.923 137.266 382.158 141.588 379.329C143.783 377.879 146.072 376.944 148.175 375.353C150.3 373.763 152.403 372.126 154.785 370.933C155.977 370.349 157.215 369.881 158.499 369.577C159.761 369.273 160.602 368.408 161.91 368.174C164.853 367.613 168.31 367.917 171.3 368.057C177.841 368.338 184.007 370.279 190.478 370.77C196.014 371.191 200.265 372.547 204.353 376.382C207.67 379.492 210.333 383.304 211.361 387.771C212.015 390.624 212.482 392.682 210.73 395.324C209.118 397.756 206.549 398.996 204.61 401.077C200.592 405.38 198.046 409.239 197.018 415.155C196.761 416.628 196.434 418.382 196.785 419.832C197.789 419.972 198.864 419.879 199.868 419.879C201.34 419.879 201.76 420.113 202.087 418.663C202.484 416.886 202.998 415.132 203.722 413.425C205.1 410.151 207.086 407.157 209.375 404.445C210.52 403.065 211.898 401.849 212.856 400.352C213.883 398.762 214.981 397.265 216.173 395.792C218.485 392.892 220.891 389.408 220.774 385.526C220.541 378.206 216.383 372.828 211.221 368.127C205.731 363.123 202.367 356.364 195.056 353.769C189.17 351.711 182.139 352.272 178.471 346.332C174.64 340.112 175.598 331.506 177.373 324.794C179.476 316.843 183.026 309.266 187.441 302.344C191.692 295.656 199.027 291.073 205.334 286.489C211.361 282.116 219.723 277.416 221.312 269.558C222.783 262.402 222.947 254.054 229.184 249.096C234.323 245.027 242.194 244.653 248.011 247.506C250.954 248.932 253.08 251.224 254.972 253.82C257.354 257.094 260.111 260.087 262.634 263.268C272.514 275.615 273.893 292.616 285.292 303.981C290.664 309.337 297.228 313.078 302.951 317.989C308.721 322.947 312.995 330.15 315.098 337.446C316.219 341.328 316.009 345.397 315.215 349.325C314.49 352.786 313.579 356.552 311.477 359.451C310.309 361.041 309.141 362.398 308.137 364.152C307.109 365.906 306.081 367.66 305.077 369.437C303.115 372.945 301.293 376.546 300.125 380.381C297.999 387.443 298.116 394.997 301.059 401.825C302.624 405.403 304.89 408.42 307.272 411.484C308.627 413.237 309.959 415.038 311.29 416.815C311.851 417.564 312.458 418.803 313.206 419.388C314.117 420.089 315.331 419.856 316.523 419.856C320.797 419.856 325.212 420.183 329.463 419.809C329.907 415.88 331.683 414.126 335.817 414.079C339.952 414.056 340.722 416.278 341.517 419.809C343.175 419.972 344.927 419.856 346.609 419.856C347.683 419.856 350.673 420.323 351.234 419.505C351.841 418.663 351.514 416.301 351.538 415.295C351.584 413.939 351.584 412.559 351.958 411.226C352.565 408.935 353.547 406.339 354.598 404.187C355.602 402.153 356.98 400.329 358.779 398.949C360.624 397.523 363.17 396.049 365.366 395.394C368.076 394.576 370.879 394.272 373.589 393.337C379.382 391.325 384.777 388.402 390.43 386.087C402.367 381.176 413.836 375.985 427.034 376.312C433.528 376.452 440.138 377.762 446.468 379.118C449.435 379.75 452.308 380.732 455.041 382.018C457.541 383.211 460.274 384.38 462.539 385.97C471.976 392.565 475.153 405.637 478.984 415.786C479.498 417.119 479.685 418.429 479.918 419.809C482.114 420.089 484.497 419.856 486.716 419.856C488.935 419.856 491.294 420.043 493.49 419.809C492.719 414.711 490.687 410.151 491.247 404.795C491.691 400.82 497.554 398.388 501.012 397.663C509.911 395.815 517.62 401.288 522.875 407.952C524.37 409.847 525.725 411.858 527.103 413.845C528.435 415.786 530.047 417.494 530.607 419.809C534.695 420.23 539.484 420.183 543.595 419.809C540.955 416.067 539.017 412.419 538.269 407.835C537.475 402.901 537.849 397.78 538.059 392.822C538.456 383.234 538.269 372.22 542.988 363.591C544.996 359.896 547.799 356.668 551.023 354.003C552.822 352.529 554.854 351.5 557.143 351.103C559.479 350.682 561.862 351.103 564.221 350.822C573.705 349.723 579.614 342.029 581.109 332.979C581.95 327.834 580.969 322.432 580.268 317.334C579.521 311.886 578.54 306.46 577.535 301.058C576.134 293.575 574.405 280.409 583.492 276.714C587.276 275.171 591.481 276.667 595.125 277.954C599.726 279.591 604.071 281.859 608.206 284.455C616.171 289.436 623.085 295.259 628.107 303.28C632.849 310.857 635.045 319.79 640.348 327.016C645.954 334.64 653.639 339.387 661.955 343.573C663.847 344.508 666.743 346.332 668.939 345.701C669.453 341.678 668.986 337.282 668.986 333.213V232.352C668.986 230.248 669.453 227.535 668.986 225.477C668.635 223.863 666.486 223.185 666.229 221.291C667.537 220.472 668.892 224.05 668.986 220.87C669.079 217.877 668.986 214.86 668.986 211.867C668.986 210.347 668.986 208.827 668.986 207.283C668.986 205.412 668.472 205.108 667 204.009C664.711 202.302 662.375 200.642 659.946 199.122C655.671 196.456 650.135 194.328 645.16 196.456C641.002 198.233 640.137 202.442 638.736 206.254C637.077 210.768 634.344 213.036 630.467 215.538C628.551 216.778 627.103 218.578 626.052 220.566C624.65 223.138 624.837 225.664 624.907 228.517C625.164 239.157 633.854 248.278 640.277 255.971C647.285 264.367 654.737 272.552 660.203 282.093C662.585 286.255 665.155 290.815 663.239 295.68C661.744 299.468 658.03 302.789 654.316 304.379C644.108 308.729 636.82 298.439 631.354 291.33C625.328 283.472 618.577 276.995 609.747 272.341C601.572 268.015 592.088 266.448 584.87 260.415C581.273 257.421 578.843 253.633 576.297 249.774C573.611 245.729 571.345 241.262 570.995 236.351C570.598 230.785 572.957 225.103 575.036 220.052C576.671 216.029 578.867 212.498 582.698 210.253C584.473 209.201 586.435 208.499 588.444 208.055C591.037 207.494 593.303 206.465 595.685 205.249C599.983 203.074 604.772 200.478 606.687 195.801C608.182 192.129 607.435 188.084 605.94 184.529C604.188 180.39 601.268 175.152 597.297 172.837C594.985 171.48 592.252 170.428 589.659 169.797C586.809 169.095 584.193 169.516 581.343 169.984C575.69 170.872 570.084 172.135 564.384 172.883C554.994 174.123 545.37 173.679 537.148 168.534C529.93 164.02 523.016 155.906 522.011 147.23C521.38 141.898 522.619 136.73 523.857 131.585C525.165 126.089 526.379 120.524 528.739 115.356C531.004 110.398 534.438 106.235 536.961 101.418C539.484 96.6005 541.259 91.5727 542.474 86.2642C545.066 74.7587 548.29 63.4636 550.229 51.7943C552.191 40.0315 551.14 28.3622 548.617 16.7631C547.426 11.291 546.234 5.70189 544.833 0.299889C542.17 -0.0275052 539.297 0.253118 536.611 0.253118C533.924 0.253118 531.074 -0.00411994 528.412 0.299889C528.739 3.17628 530.701 6.19298 531.915 8.76537C533.294 11.7119 534.228 14.752 535.232 17.8389C537.311 24.1997 539.974 30.7475 540.955 37.4124C541.913 43.9602 540.044 50.4146 539.53 56.8923C539.016 63.3233 540.044 70.1284 537.498 76.1852C535.863 80.0438 531.705 84.5571 527.267 82.8734C522.035 80.8856 521.567 75.6239 519.722 70.9936L519.465 70.9235ZM649.621 248.067C643.921 247.459 637.755 241.426 636.89 235.65C636.727 234.621 636.493 233.638 636.353 232.609C636.096 230.785 636.727 229.032 637.054 227.301C637.451 225.196 639.717 225.57 641.072 224.729C643.267 223.372 645.44 222.203 647.682 222.063C651.513 222.016 656.839 226.155 657.656 229.382C657.797 229.944 658.03 230.458 657.727 230.972C655.344 235.182 654.526 239.742 654.269 244.536C654.106 247.529 652.658 248.418 649.598 248.067H649.621ZM375.411 77.6818C378.751 78.5003 381.858 80.4647 383.166 83.8322C384.824 87.9948 383.282 92.2977 382.979 96.5538C382.652 100.997 382.512 105.627 384.38 109.766C386.716 114.981 391.925 118.209 396.153 121.74C401.876 126.51 407.482 132.123 409.982 139.349C412.855 147.651 411.64 156.818 410.075 165.26C409.374 169.095 409.001 173.421 406.898 176.789C405.59 178.893 403.021 182.027 400.171 181.279C394.401 179.759 394.331 172.369 392.533 167.809C390.617 162.898 385.338 159.764 380.573 158.034C375.294 156.233 370.038 156.631 364.595 157.239C359.947 157.753 355.088 157.543 351.865 153.684C349.389 150.738 348.337 146.762 348.081 143.02C347.94 141.243 348.034 138.951 350.697 131.187C353.243 123.751 354.131 123.049 356.7 116.151C358.218 112.105 359.877 108.083 360.764 103.827C361.746 99.2197 361.792 94.4959 361.956 89.8188C361.956 89.585 361.956 89.3745 361.956 89.1406C362.002 85.9135 361.769 82.0081 364.198 79.5994C366.908 76.9101 371.907 76.84 375.364 77.6818H375.411ZM348.384 55.6295C352.332 50.7887 355.182 45.6206 355.625 39.1429C355.882 35.4246 359.877 32.9458 363.708 32.6418C371.51 32.0104 379.382 31.6128 387.043 30.1629C391.552 29.2977 395.966 27.2631 399.914 24.5504C402.32 22.8901 404.96 21.6974 407.903 21.3233C410.075 21.6039 412.575 20.2242 414.186 23.007C416.195 26.468 415.424 29.2041 411.36 32.1273C410.355 33.1562 409.001 33.3433 407.716 33.5304C400.521 34.6295 395.149 38.9792 389.963 43.5627C383.259 49.5026 378.377 57.0092 372.958 64.0716C370.155 67.7431 367.212 71.321 362.446 72.2564C352.846 74.174 346.726 70.0115 346.375 60.8678C346.282 58.8567 347.17 57.1028 348.338 55.6529L348.384 55.6295ZM269.524 148.726C270.365 147.838 271.206 146.926 272.024 146.014C274.78 142.88 277.28 139.513 279.242 135.771C283.306 128.007 286.81 120.36 288.118 111.614C288.562 108.691 289.169 105.814 289.777 102.915C290.361 100.085 291.365 97.536 292.229 94.7999C295.079 85.9602 300.218 76.9101 307.693 71.1106C311.594 68.0705 316.009 66.9948 320.704 65.732C325.983 64.3288 331.986 65.4981 336.915 67.7431C345.207 71.4847 347.94 81.3767 348.992 89.6785C349.739 95.4781 350.136 101.324 349.038 107.101C347.94 112.783 346.048 118.349 344.437 123.915C342.848 129.457 340.839 134.999 338.737 140.354C336.611 145.756 333.832 150.784 331.356 155.999C329.043 160.934 326.894 165.634 323.343 169.867C320.143 173.679 316.266 177.023 311.827 179.338C306.829 181.957 301.97 182.705 296.644 180.577C291.412 178.496 286.857 175.175 281.765 172.837C277.793 171.013 272.958 170.919 269.641 167.809C267.445 165.751 266.815 162.828 266.418 159.951C265.81 155.391 266.231 152.117 269.524 148.68V148.726ZM54.2017 266.986C52.66 266.004 51.2585 264.367 49.9738 262.964C47.3108 260.087 45.045 256.86 43.3165 253.352C40.0462 246.687 38.925 236.983 46.2597 232.516C49.2496 230.692 53.0805 229.569 56.561 229.569C60.8824 229.569 64.0592 231.838 67.2594 234.48C70.9968 237.591 74.8277 240.748 78.3782 244.092C80.4805 246.079 82.2792 249.143 82.5828 252.043C83.0033 256.158 79.5695 257.187 76.3226 258.263C74.3138 258.918 72.3516 259.643 70.4128 260.461C66.5353 262.098 63.1248 264.226 59.8079 266.799C57.7523 268.389 55.9069 268.062 54.2251 266.986H54.2017ZM152.917 278.258C155.696 281.298 158.102 284.642 159.737 288.43C162.774 295.446 162.891 303.327 163.381 310.974C163.825 317.849 164.503 325.145 161.419 331.295C161.069 331.997 160.018 333.423 158.196 334.406C155.533 335.856 152.753 335.364 150.908 335.037C147.521 334.429 145.185 332.979 142.312 331.155C141.027 330.337 138.621 328.793 136.308 326.525C131.66 321.988 130.656 317.779 128.95 314.972C122.76 304.73 107.063 312.4 96.7384 302.298C89.7774 295.469 88.7496 283.917 91.0154 275.545C91.576 273.487 94.0988 264.203 102.695 259.315C102.695 259.315 113.697 253.048 129.394 259.9C132.571 261.28 135.608 263.268 135.608 263.268C137.733 264.834 139.766 266.495 141.821 268.178C145.652 271.312 149.576 274.586 152.917 278.234V278.258ZM212.505 249.307C208.511 254.779 205.357 260.929 199.634 264.998C192.72 269.909 185.456 273.885 176.673 273.838C173.87 273.838 171.207 273.206 168.614 272.177C159.994 270.33 153.033 266.004 148.362 258.357C145.815 254.194 145.535 249.377 145.465 244.746C145.325 235.556 144.928 226.506 142.335 217.549C140.747 211.984 142.569 206.465 145.745 201.671C147.544 198.911 150.698 197.952 153.687 197.04C155.93 196.339 158.289 196.058 160.602 195.591C164.549 194.795 168.45 194.328 172.468 193.883C175.995 193.509 179.522 192.55 182.419 190.422C188.422 186.003 191.389 178.262 196.411 172.86C201.2 167.715 206.385 162.874 213.72 162.407C218.392 162.103 222.97 161.705 227.455 160.396C230.141 159.601 232.804 158.689 235.444 157.776C238.107 156.864 240.863 156.888 243.596 157.052C246.609 157.239 248.898 158.829 250.674 161.238C252.542 163.763 254.551 166.148 256.327 168.721C259.223 172.93 263.428 175.479 267.726 177.958C272.561 180.764 277.116 183.734 280.059 188.832C283.516 194.842 282.909 201.694 277.116 205.366C270.062 209.832 265.834 216.427 261.699 223.185C258.896 227.769 255.626 231.58 250.674 233.872C249.202 234.574 247.777 235.018 246.142 235.065C241.33 235.205 236.518 235.018 231.706 234.527C227.852 234.129 224.792 235.86 221.989 238.362C218.345 241.613 215.916 245.869 212.505 249.307ZM336.705 323.976C334.532 323.415 332.407 322.853 330.351 322.386C318.858 319.72 307.202 311.605 298.957 303.35C289.777 294.136 287.931 281.274 281.765 270.353C278.541 264.624 273.636 259.923 273.472 252.931C273.098 238.058 278.284 225.033 286.974 213.293C290.524 208.476 295.429 205.062 300.615 202.209C305.38 199.589 311.921 197.882 316.126 194.491C321.802 189.908 326.45 183.734 332.337 179.572C342.708 172.252 356.77 165.961 369.594 169.913C381.974 173.749 389.216 186.821 389.543 199.262C389.706 205.716 389.332 212.171 389.776 218.602C390.594 230.014 395.149 241.145 404.679 247.927C409.211 251.154 414.35 253.352 418.975 256.392C426.637 261.467 430.234 269.956 431.332 278.819C432.173 285.601 432.64 293.692 431.122 300.427C429.393 308.144 419.582 310.412 412.832 310.482C399.4 310.623 388.094 311.652 375.901 317.802C362.329 324.631 351.701 327.858 336.681 323.999L336.705 323.976ZM359.059 379.984C355.298 385.082 349.856 388.285 345.254 392.471C344.717 393.898 343.642 394.786 342.217 395.207C337.919 396.47 333.528 397.125 329.183 395.605C327.501 394.997 326.427 393.828 325.773 391.863C324.231 387.28 322.736 382.743 322.199 377.926C321.848 374.886 322.246 371.962 323.157 369.063C326.427 351.734 335.397 340.65 354.948 341.211C362.984 341.351 370.225 344.181 377.092 348.063C380.199 349.84 383.399 351.524 385.642 354.47C389.659 359.732 387.627 361.977 383.166 365.368C381.063 366.958 378.4 367.847 375.738 368.595C371.276 369.858 368.006 373.202 364.385 375.915C362.61 377.247 361.255 379.188 359.059 379.96V379.984ZM541.119 185.091C543.198 185.675 545.277 186.26 547.332 186.915C550.065 187.756 552.798 188.668 555.485 189.627C557.82 190.469 560.156 191.311 562.492 192.106C564.618 192.831 567.164 193.229 569.103 194.351C573.027 196.643 571.953 200.618 570.528 204.056C568.682 208.546 567.001 213.106 564.875 217.456C562.749 221.805 560.787 225.664 559.642 230.411C558.474 235.322 557.493 239.929 557.774 245.004C558.288 254.989 560.343 264.671 562.048 274.493C562.936 279.497 563.17 284.595 563.894 289.623C564.618 294.721 565.786 299.725 566.603 304.823C567.024 307.396 567.281 309.945 567.351 312.54C567.444 314.879 567.865 317.451 567.491 319.766C566.884 323.742 563.59 327.343 560.577 329.775C557.073 332.628 552.752 332.675 548.781 334.452C544.81 336.253 542.053 339.527 539.647 343.152C534.438 350.962 532.336 359.802 529.65 368.665C528.365 372.898 526.917 376.756 523.156 379.376C519.559 381.878 515.003 383.024 510.799 383.936C501.899 385.877 491.808 386.227 483.048 383.421C479.148 382.158 475.504 380.194 472.35 377.598C470.855 376.359 469.477 374.137 467.842 373.178C467.048 372.734 466.16 372.804 465.319 372.22C464.665 371.729 464.151 371.05 463.567 370.489C458.008 365.04 449.715 364.128 443.992 358.96C437.919 353.488 436.401 345.303 436.284 337.422C436.144 327.32 439.134 317.802 443.478 308.799C447.683 300.099 452.028 291.447 457.541 283.519C460.25 279.637 461.512 274.633 462.75 270.119C464.058 265.302 465.109 260.415 465.973 255.504C467.748 245.495 468.192 235.416 469.056 225.313C469.874 215.819 471.182 205.88 476.928 197.976C482.324 190.586 490.056 185.628 498.769 183.009C512.574 178.87 527.407 181.349 541.025 185.067L541.119 185.091ZM494.167 137.01C496.83 137.408 499.26 138.975 501.689 140.004C504.142 141.056 506.641 142.155 508.51 144.119C510.425 146.154 511.827 148.726 512.341 151.462C513.252 156.444 511.5 160.255 508.93 164.114C503.184 172.696 495.359 178.613 485.968 182.658C482.581 185.184 478.774 187.102 475.644 189.978C471.953 193.86 468.473 197.929 465.202 202.162C462.726 205.366 462.539 209.318 461.558 213.013C459.806 219.467 460.764 226.202 459.806 232.75C459.503 234.808 459.456 236.912 459.036 238.923C457.797 244.98 453.546 248.091 446.492 247.553C439.764 247.038 432.92 246.57 426.753 243.46C418.298 239.181 410.869 233.779 408.767 223.676C407.786 218.952 409.141 214.322 409.842 209.668C411.71 197.204 418.087 186.821 424.955 176.625C429.557 169.797 434.649 163.412 440.489 157.613C444.646 154.128 448.641 150.457 453.336 147.697C454.153 147.206 454.878 146.364 455.672 145.78C456.489 145.172 457.33 144.587 458.218 144.049C459.946 142.997 461.745 142.108 463.614 141.36C465.483 140.612 467.398 139.98 469.36 139.442C470.645 139.115 471.953 138.905 473.261 138.647C474.709 138.343 476.017 137.572 477.489 137.291C479.872 136.776 482.394 136.543 484.824 136.449C487.954 136.309 491.107 136.543 494.214 136.987L494.167 137.01Z" fill="#7FCAF1"/>
<path d="M593.736 80.3827C593.396 81.0027 593.046 81.6027 592.666 82.1827C593.166 80.1827 593.556 78.1227 593.816 76.0127C595.296 64.4827 593.016 53.4127 587.996 44.3127C587.596 43.5727 587.156 42.8427 586.716 42.1127C586.716 42.1127 586.716 42.1127 586.716 42.1027C586.236 41.3327 586.066 40.4127 586.456 39.5927C587.706 36.9827 588.976 34.7427 589.726 32.0427H589.746C600.606 47.2327 601.596 66.2227 593.736 80.3927V80.3827Z" fill="#404596"/>
<path d="M540.466 107.453C541.176 107.503 541.866 107.523 542.556 107.523C540.596 106.853 538.666 106.073 536.736 105.153C526.236 100.163 518.166 92.2527 513.226 83.1127C512.816 82.3727 512.446 81.6127 512.066 80.8527C512.066 80.8527 512.066 80.8527 512.066 80.8427C511.686 80.0227 510.996 79.3727 510.096 79.2627C507.226 78.9027 504.656 78.7627 501.976 77.9327V77.9627C508.866 95.3127 524.306 106.413 540.476 107.463L540.466 107.453Z" fill="#404596"/>
<path d="M653.796 214.353C653.856 213.443 653.896 212.543 653.916 211.633C653.796 213.743 653.616 215.853 653.356 217.923C653.526 216.803 653.656 215.673 653.786 214.543C651.606 250.133 628.376 281.373 594.796 296.683C583.376 301.893 570.756 305.263 557.356 306.333C544.466 307.353 531.896 306.513 520.196 303.453C506.846 299.253 494.426 292.103 484.066 282.703C475.606 275.033 467.556 266.943 461.966 257.053C461.016 255.373 458.466 256.133 458.526 258.053C458.826 267.943 461.846 281.443 469.606 292.953C471.186 295.303 472.976 297.433 474.876 299.353C476.246 300.743 475.046 303.043 473.116 302.753C436.646 297.163 423.976 248.813 420.076 226.713C418.156 215.873 411.216 206.423 401.226 201.783C389.976 196.543 381.836 200.303 379.126 201.933C378.716 202.193 378.166 201.873 378.186 201.373C378.356 198.313 379.186 195.423 380.516 192.833C381.556 190.803 383.746 189.623 386.006 189.883C387.816 190.093 389.716 190.163 391.666 190.113C385.526 189.303 380.106 187.283 376.126 184.443C376.086 184.423 376.066 184.393 376.026 184.373C374.846 183.503 373.766 182.543 372.786 181.513C372.666 181.393 372.556 181.253 372.436 181.123C370.066 178.523 368.366 175.483 367.556 172.193C367.176 170.723 366.986 169.193 366.986 167.623C366.986 166.813 367.036 166.023 367.146 165.233C367.206 164.763 367.786 164.573 368.106 164.943C368.656 165.613 369.246 166.243 369.916 166.843C370.016 166.943 370.106 167.023 370.216 167.103C373.936 170.323 379.236 172.313 385.116 172.313C387.106 172.313 389.036 172.083 390.866 171.653C392.396 171.273 393.856 170.783 395.216 170.163C396.576 169.533 397.546 168.333 397.926 166.903C397.946 167.193 397.976 167.483 398.026 167.773C399.326 174.763 406.736 179.523 415.886 179.983C406.456 177.773 399.406 171.323 399.186 163.893V163.873C399.136 162.233 399.576 160.633 400.266 159.143C401.466 156.593 403.056 154.283 404.956 152.243C406.216 150.853 407.666 149.693 409.206 148.523C420.206 140.293 436.896 137.833 449.766 139.983C449.836 139.993 449.926 140.003 449.996 140.023C460.046 141.793 469.186 146.923 476.086 154.433L476.606 155.003L482.276 161.183C482.276 161.183 483.446 162.443 484.826 163.963C486.596 165.883 488.946 167.193 491.506 167.713C496.306 168.683 501.126 169.733 505.776 170.973C506.446 171.143 507.096 171.323 507.756 171.503C507.796 171.513 507.826 171.523 507.866 171.543C513.706 173.453 519.066 175.763 523.466 178.723C533.286 185.313 539.636 191.843 542.346 199.783C542.746 200.933 541.896 202.083 540.776 202.163C540.386 202.103 539.996 202.053 539.606 202.013C531.256 200.393 525.046 200.873 523.216 203.713C518.036 200.663 512.666 196.803 507.446 192.233C503.626 188.893 500.196 185.443 497.166 181.973C499.466 185.243 502.086 188.563 505.036 191.823C511.746 199.273 519.096 205.393 526.066 209.693C533.916 214.943 543.116 218.123 553.016 218.493C553.676 218.533 554.326 218.543 554.986 218.543C584.456 218.543 608.376 193.683 608.716 162.883V162.243C608.716 148.863 604.106 135.633 595.546 125.313C591.716 120.693 586.906 116.043 581.426 113.443C574.006 109.923 566.436 106.513 558.006 107.363C553.886 107.793 549.696 107.603 545.586 106.793C539.886 105.673 534.346 103.343 529.336 99.7326C523.706 95.6826 519.396 90.5026 516.476 84.7026C515.676 83.1026 517.216 81.3526 518.906 81.9526C525.166 84.2226 532.006 84.8926 538.836 84.0226C543.016 83.4926 547.216 82.3726 551.266 80.6526C552.726 80.0426 554.156 79.3526 555.576 78.6026C556.156 78.2826 556.886 78.4526 557.226 79.0326C557.856 80.1426 558.796 81.0826 560.016 81.7526C562.876 83.3226 566.526 82.7026 568.716 80.2826C571.336 77.3926 571.136 73.1126 568.596 70.4726C568.146 70.0126 568.086 69.2526 568.506 68.7726L568.566 68.6926C575.666 61.3026 580.106 52.4326 581.886 43.4326C582.156 42.0726 583.526 41.4726 584.646 41.8526C585.076 42.0026 585.456 42.2926 585.736 42.7426C586.176 43.4726 586.606 44.2026 587.016 44.9426C592.036 54.0426 594.316 65.1126 592.836 76.6426C592.566 78.7526 592.176 80.8126 591.686 82.8126C591.666 82.9026 591.646 82.9726 591.626 83.0526C591.016 85.4126 589.996 87.6326 588.576 89.6026L588.556 89.6426L588.516 89.6826C587.086 91.6826 587.686 94.4826 589.826 95.7326C593.506 97.8826 597.116 100.233 600.656 102.783C638.946 130.343 658.006 173.863 653.746 214.363L653.796 214.353Z" fill="#404596"/>
<path d="M414.646 179.663C416.076 179.663 417.236 178.503 417.236 177.073C417.236 175.642 416.076 174.483 414.646 174.483C413.215 174.483 412.056 175.642 412.056 177.073C412.056 178.503 413.215 179.663 414.646 179.663Z" fill="#7ECBF3"/>
<path d="M251.183 68.9279C253.903 63.9991 258.745 60.6032 264.279 59.5577L264.994 59.4241C269.978 58.4729 275.166 58.4886 280.347 59.5891L282.343 60.0136C283.53 60.2652 283.491 61.9553 282.296 62.1597C277.462 63.0086 272.73 64.7144 268.32 67.1828C259.586 72.0644 252.087 79.941 247.417 90.1209C247.017 90.9856 246.647 91.8582 246.301 92.7307C245.814 93.957 243.959 93.5168 244.084 92.204C244.084 92.1726 244.084 92.149 244.092 92.1176C244.933 83.5806 247.441 75.704 251.175 68.9358L251.183 68.9279Z" fill="#404596"/>
<path d="M305.62 133.537C299.347 132.2 293.42 129.268 288.286 125.07C285.134 122.5 282.281 119.442 279.836 115.983C278.956 114.741 278.138 113.444 277.375 112.1C277.061 111.542 276.361 111.314 275.803 111.613C274.726 112.186 273.476 112.485 272.132 112.414C269.011 112.234 266.331 109.867 265.773 106.786C265.105 103.084 267.447 99.6876 270.874 98.8308C271.48 98.6814 271.904 98.0997 271.81 97.4866L271.794 97.3922C269.774 87.7391 270.654 78.2352 273.799 69.9655C274.451 68.2519 272.643 66.6404 271 67.4422C270.269 67.8038 269.546 68.1811 268.831 68.582C260.097 73.4636 252.598 81.3403 247.929 91.5201C247.04 93.4539 246.286 95.4113 245.665 97.3844C244.957 99.6169 244.658 101.959 244.816 104.294V104.333V104.381C244.973 106.755 243.047 108.728 240.665 108.657C236.562 108.539 232.419 108.618 228.229 108.893C163.62 113.169 114.372 163.856 118.239 222.074C118.389 224.314 118.617 226.531 118.915 228.724C119.426 232.474 120.15 236.161 121.093 239.777C123.317 248.408 129.087 257.59 134.519 265.631C136.657 268.791 134.566 273.076 130.762 273.335H130.707C122.146 273.909 113.68 268.438 109.144 261.08C107.973 259.178 104.994 259.979 104.986 262.22C104.939 274.255 111.919 288.467 124.497 299.488C124.528 299.52 124.567 299.551 124.607 299.583C129.795 304.103 136.233 306.885 143.033 307.947C148.928 308.858 154.918 310.949 160.625 314.196C160.838 314.314 161.05 314.455 161.254 314.573C167.079 317.105 173.674 321.766 179.767 328.039C186.936 335.428 191.857 343.454 193.735 350.002C194.144 351.433 195.826 352.07 197.037 351.205C200.763 348.54 202.933 343.997 202.618 339.233V339.178C205.81 342.362 210.534 344.225 215.675 343.879C220.51 343.556 224.731 341.348 227.49 338.109C228.268 337.197 227.506 335.837 226.311 335.986C221.815 336.56 216.791 334.768 213.097 330.822C211.902 329.548 210.943 328.141 210.22 326.679C209.339 324.887 207.877 323.448 206.069 322.591C203.381 321.318 200.016 319.526 198.02 318.441C197.454 318.142 196.88 317.828 196.282 317.49C196.282 317.49 196.966 317.867 198.02 318.441C201.345 320.202 204.033 321.2 206.171 321.735C209.764 322.631 213.608 321.57 216.155 318.881C216.163 318.873 216.178 318.858 216.186 318.85C217.287 317.686 218.261 316.405 219.095 315.029C220.407 312.875 221.367 310.501 221.893 307.986C222.333 305.973 222.498 303.875 222.357 301.713C222.145 298.569 221.319 295.629 219.975 292.987C219.26 291.58 218.214 290.346 216.902 289.473C216.902 289.466 216.894 289.473 216.886 289.458C213.341 287.084 209.976 284.474 206.808 281.644C203.695 278.861 200.779 275.858 198.067 272.675C198.35 273.186 198.649 273.681 198.963 274.176C198.083 272.808 196.054 271.59 194.883 270.45C191.479 267.156 188.28 263.643 185.301 259.964C176.89 249.548 169.901 237.34 167.912 223.937C166.269 212.9 166.317 199.144 171.78 189.129C171.788 189.113 171.796 189.098 171.811 189.074C172.487 187.84 174.382 188.642 173.989 190.002C173.344 192.179 172.81 194.412 172.653 195.001C171.709 198.476 171.049 202.021 170.664 205.598C169.893 212.751 170.239 220.03 171.701 227.074C174.468 240.374 181.763 252.417 190.308 262.825C190.512 263.069 190.717 263.32 190.921 263.564C192.226 265.12 194.726 264.02 194.498 262.007C193.24 250.711 196.322 238.519 199.631 229.314C202.092 222.491 203.546 215.369 203.939 208.184C204.018 206.777 203.404 205.377 202.233 204.591C200.527 203.444 198.303 203.805 197.037 205.322C191.794 211.603 185.112 214.559 180.183 212.13C177.959 211.037 176.607 208.695 176.811 206.226C177.322 200.221 178.43 194.357 180.073 188.72C181.056 185.34 182.235 182.031 183.595 178.823C192.509 157.756 209.206 140.556 230.344 131.029C240.319 126.533 252.071 127.68 260.718 134.378C268.257 140.218 277.824 143.426 288.027 142.75C294.677 142.309 300.84 140.266 306.186 137.019C307.656 136.123 307.286 133.898 305.604 133.545L305.62 133.537Z" fill="#404596"/>
<path d="M198.727 318.559C199.839 318.559 200.74 317.658 200.74 316.546C200.74 315.435 199.839 314.534 198.727 314.534C197.616 314.534 196.715 315.435 196.715 316.546C196.715 317.658 197.616 318.559 198.727 318.559Z" fill="#7ECBF3"/>
<path d="M233.071 121.195C235.815 120.668 238.212 120.377 240.17 120.291C242.127 120.205 245.531 118.648 245.484 117.799C245.484 117.776 245.484 117.752 245.476 117.728C245.421 117.516 245.146 117.382 244.611 117.359C243.196 117.304 240.484 117.933 238.417 118.436C236.263 118.963 234.03 119.623 231.79 120.354C227.05 121.895 221.995 123.813 217.515 125.833C217.578 125.802 217.648 125.778 217.727 125.746C222.215 123.891 227.757 122.209 233.079 121.187L233.071 121.195Z" fill="#7ECBF3"/>
</svg>
