<svg width="366" height="286" viewBox="0 0 366 286" fill="none" xmlns="http://www.w3.org/2000/svg">
<g filter="url(#filter0_d_21_188)">
<path d="M229.592 29.4514C229.239 29.396 228.873 29.396 228.52 29.396Z" fill="#404596"/>
<path d="M2.44823 35.1851C19.9393 25.0132 47.1855 28.9318 60.3227 40.2915C61.4837 41.2882 60.979 43.3635 59.5151 43.5957C43.9548 46.0533 29.442 55.5834 20.4946 71.1348C17.857 75.7497 15.8631 80.5967 14.4875 85.5529C13.7556 88.188 16.7086 90.2087 18.6395 88.3928C37.2285 70.889 64.9416 67.7077 86.9379 82.5355C94.4341 87.6009 100.517 94.2775 104.972 101.91C105.022 101.91 105.06 102.005 105.11 102.101C109.035 107.945 111.849 114.567 113.414 121.475C116.809 136.262 111.812 151.281 109.843 166.163C104.442 207.028 130.287 242.882 163.25 263.649C180.312 274.422 199.28 281.085 216.783 282.395C218.929 282.546 221.112 282.641 223.257 282.641C236.117 284.048 249.418 283.078 262.682 279.556C285.814 273.371 305.589 260.181 320.632 242.596C323.85 253.75 323.938 268.687 316.656 281.29C316.656 281.344 316.606 281.44 316.606 281.535C316.556 286.601 321.881 286.833 325.629 284.867C342.729 275.896 353.986 263.431 360.46 242.65C366.568 223.044 367.111 201.731 364.549 181.373C363.325 171.625 361.356 161.985 358.731 152.564C358.605 152.1 358.466 151.636 358.34 151.185C355.828 142.447 350.503 134.719 348.496 125.899C334.917 66.1922 284.287 26.8701 229.592 29.4779C227.22 29.5735 215.395 32.3315 212.758 33.3965C211.559 33.8744 210.347 34.4615 209.274 35.0895C200.92 39.8273 195.784 48.429 195.923 57.017C195.923 58.5189 197.122 62.3556 197.525 63.8575C190.976 70.7115 180.956 68.4723 173.813 66.3424C165.774 78.2756 170.557 95.9022 183.946 104.941C196.226 113.256 211.319 111.317 218.638 100.79C244.85 94.5096 263.022 123.155 259.804 148.96C258.732 157.37 254.718 164.948 249.039 170.696C242.793 177.127 234.931 182.629 226.576 185.087C224.254 185.77 220.014 186.63 216.304 186.343C212.77 186.097 211.609 181.073 214.524 178.957C217.376 176.786 220.557 174.942 222.475 171.666C230.425 157.903 228.103 140.317 217.831 129.394C217.162 131.278 216.266 133.217 215.193 135.047C207.331 148.714 191.973 154.23 178.495 149.301C176.223 148.482 173.939 147.362 171.844 145.915C169.838 144.563 168.008 143.02 166.354 141.273C164.701 139.443 163.187 137.409 161.887 135.238C161.837 135.088 161.748 134.951 161.622 134.76C150.744 119.086 148.245 98.906 141.191 81.3203C134.313 64.1851 128.23 45.7256 116.721 31.2529C106.612 18.5278 96.5037 9.83053 81.8774 4.76508C34.8307 -11.5645 9.37651 18.3503 0.302859 32.6592C-0.681487 34.2157 0.921231 36.0726 2.44823 35.1851ZM214.865 62.3419C213.351 65.0453 210.044 65.8645 207.546 64.1715C205.047 62.4785 204.29 58.9558 205.854 56.2525C207.419 53.5491 210.726 52.7299 213.174 54.4229C215.673 56.1159 216.43 59.6385 214.865 62.3419Z" fill="#404596"/>
</g>
<defs>
<filter id="filter0_d_21_188" x="-7.99976" y="0.0197754" width="373.993" height="293.993" filterUnits="userSpaceOnUse" color-interpolation-filters="sRGB">
<feFlood flood-opacity="0" result="BackgroundImageFix"/>
<feColorMatrix in="SourceAlpha" type="matrix" values="0 0 0 0 0 0 0 0 0 0 0 0 0 0 0 0 0 0 127 0" result="hardAlpha"/>
<feOffset dx="-4" dy="4"/>
<feGaussianBlur stdDeviation="2"/>
<feComposite in2="hardAlpha" operator="out"/>
<feColorMatrix type="matrix" values="0 0 0 0 0 0 0 0 0 0 0 0 0 0 0 0 0 0 0.25 0"/>
<feBlend mode="normal" in2="BackgroundImageFix" result="effect1_dropShadow_21_188"/>
<feBlend mode="normal" in="SourceGraphic" in2="effect1_dropShadow_21_188" result="shape"/>
</filter>
</defs>
</svg>
