<svg width="491" height="423" viewBox="0 0 491 423" fill="none" xmlns="http://www.w3.org/2000/svg">
<path d="M252.176 135.088C246.401 130.841 247.523 127.504 253.765 122.959C254.993 122.068 254.613 120.035 253.165 119.7C247.214 118.319 246.181 114.963 248.671 108.482C249.209 107.092 248.052 105.654 246.71 106.037C240.344 107.868 237.368 106.392 237.024 99.7668C236.936 98.1465 235.099 97.4466 234.11 98.6738C229.007 105.021 225.819 105.893 222.782 99.0765C222.058 97.4562 219.832 97.8589 219.638 99.6518C218.473 110.793 216.407 114.139 209.29 108.76C207.806 107.638 205.979 109.527 206.932 111.186C216.115 127.168 215.064 134.609 201.237 158.52C200.875 159.143 201.625 159.805 202.12 159.306C220.168 140.697 226.208 139.278 239.549 150.361C240.98 151.55 242.878 149.767 242.004 148.06C237.898 140.016 241.156 138.223 251.196 138.377C252.829 138.396 253.509 136.095 252.158 135.098L252.176 135.088ZM237.598 135.471C232.097 135.395 230.313 136.373 232.565 140.783C233.042 141.723 232 142.701 231.214 142.049C223.903 135.97 220.592 136.756 210.702 146.948C210.438 147.226 210.023 146.862 210.217 146.516C217.802 133.41 218.376 129.335 213.343 120.572C212.822 119.661 213.819 118.626 214.632 119.239C218.534 122.192 219.665 120.352 220.3 114.254C220.406 113.276 221.625 113.046 222.022 113.937C223.691 117.677 225.439 117.197 228.23 113.717C228.768 113.046 229.775 113.429 229.828 114.321C230.013 117.955 231.647 118.76 235.134 117.763C235.867 117.552 236.503 118.338 236.212 119.105C234.843 122.653 235.417 124.494 238.675 125.251C239.47 125.433 239.673 126.555 239.002 127.044C235.576 129.527 234.967 131.358 238.128 133.688C238.869 134.235 238.499 135.5 237.598 135.491V135.471Z" fill="#404596"/>
<path d="M171.896 89.7189C178.465 92.8349 180.09 95.0305 175.242 98.9615C174.209 99.7956 174.96 101.56 176.213 101.243C187.895 98.2999 191.436 101.157 198.129 119.029C198.314 119.518 198.977 119.316 198.915 118.798C196.407 98.8273 197.74 93.6499 208.045 86.2003C209.122 85.4237 208.442 83.6116 207.171 83.8704C201.087 85.0977 200.645 82.2597 202.906 74.6375C203.268 73.4103 201.935 72.4323 201.025 73.2569C197.202 76.718 195.365 75.1265 193.767 69.3738C193.458 68.2617 192.072 68.1274 191.577 69.1533C189.555 73.3527 187.224 73.3623 183.577 70.1409C182.809 69.4601 181.67 70.0258 181.644 71.1092C181.511 76.114 179.922 77.9644 175.684 76.9673C174.651 76.7276 173.856 77.9261 174.412 78.904C177.247 83.8513 177.061 86.3824 172.161 87.2933C171.013 87.5042 170.827 89.23 171.896 89.7381V89.7189ZM181.688 90.8503C184.372 90.3517 184.478 88.9615 182.924 86.2482C182.615 85.7113 183.057 85.0593 183.622 85.1935C185.944 85.74 186.818 84.7333 186.889 81.9817C186.906 81.3872 187.524 81.0804 187.948 81.4543C189.944 83.2185 191.224 83.2185 192.328 80.9174C192.602 80.3518 193.361 80.4285 193.529 81.0421C194.403 84.1964 195.409 85.0689 197.502 83.1705C198.005 82.7199 198.738 83.2568 198.535 83.928C197.29 88.0986 197.537 89.6614 200.866 88.9903C201.564 88.8465 201.935 89.8436 201.343 90.2654C195.692 94.3498 194.959 97.1878 196.337 108.137C196.372 108.425 196.001 108.53 195.904 108.262C192.239 98.4725 190.297 96.9001 183.895 98.5109C183.207 98.6834 182.8 97.7151 183.366 97.2549C186.023 95.1072 185.132 93.8992 181.529 92.1926C180.946 91.9145 181.043 90.9749 181.679 90.8503H181.688Z" fill="#404596"/>
<path d="M267.496 66.6316C261.721 62.3843 262.842 59.0478 269.085 54.5032C270.312 53.6115 269.933 51.5789 268.484 51.2434C262.533 49.8627 261.5 46.507 263.99 40.0257C264.529 38.6355 263.372 37.1974 262.03 37.5809C255.664 39.4121 252.688 37.9356 252.344 31.3105C252.255 29.6902 250.419 28.9903 249.43 30.2175C244.326 36.5646 241.139 37.4371 238.101 30.6202C237.377 28.9999 235.152 29.4026 234.958 31.1955C233.792 42.3364 231.726 45.6825 224.609 40.3038C223.126 39.182 221.298 41.0708 222.252 42.7295C231.435 58.7122 230.384 66.1522 216.557 90.064C216.195 90.6872 216.945 91.3487 217.44 90.8502C235.488 72.2404 241.527 70.8215 254.869 81.9048C256.299 83.0937 258.198 81.3104 257.324 79.6038C253.218 71.5597 256.476 69.7668 266.515 69.9202C268.149 69.9394 268.829 67.6383 267.478 66.6412L267.496 66.6316ZM252.918 67.0151C247.417 66.9384 245.633 67.9164 247.885 72.3267C248.361 73.2663 247.32 74.2443 246.534 73.5923C239.223 67.5137 235.911 68.2999 226.022 78.4916C225.757 78.7697 225.342 78.4053 225.536 78.0602C233.121 64.9538 233.695 60.879 228.662 52.1158C228.141 51.205 229.139 50.1695 229.951 50.7832C233.854 53.7362 234.984 51.8953 235.62 45.7975C235.726 44.8196 236.945 44.5895 237.342 45.4812C239.011 49.2204 240.759 48.741 243.549 45.2606C244.088 44.5895 245.094 44.973 245.147 45.8647C245.333 49.4984 246.966 50.3038 250.454 49.3066C251.187 49.0957 251.823 49.8819 251.531 50.6489C250.163 54.1964 250.737 56.0372 253.995 56.7946C254.789 56.9768 254.993 58.0986 254.322 58.5875C250.896 61.0708 250.286 62.902 253.447 65.2318C254.189 65.7783 253.818 67.0439 252.918 67.0343V67.0151Z" fill="#404596"/>
<path d="M187.215 21.2626C193.785 24.3787 195.409 26.5742 190.562 30.5052C189.529 31.3393 190.279 33.1035 191.533 32.7871C203.215 29.8436 206.756 32.7008 213.449 50.5723C213.634 51.0612 214.296 50.8599 214.234 50.3422C211.727 30.371 213.06 25.1936 223.364 17.744C224.442 16.9674 223.762 15.1553 222.49 15.4141C216.407 16.6414 215.965 13.8034 218.225 6.18119C218.587 4.95396 217.254 3.97601 216.345 4.80056C212.521 8.26172 210.685 6.67016 209.087 0.917536C208.778 -0.194638 207.391 -0.328866 206.897 0.697018C204.875 4.89643 202.544 4.90602 198.897 1.68455C198.129 1.00383 196.99 1.5695 196.963 2.65291C196.831 7.65769 195.242 9.50812 191.003 8.511C189.97 8.27131 189.175 9.46977 189.732 10.4477C192.566 15.395 192.381 17.9261 187.48 18.837C186.332 19.0479 186.147 20.7737 187.215 21.2818V21.2626ZM197.007 22.394C199.692 21.8954 199.798 20.5052 198.244 17.7919C197.935 17.255 198.376 16.603 198.941 16.7372C201.263 17.2837 202.138 16.277 202.208 13.5254C202.226 12.9309 202.844 12.6241 203.268 12.998C205.263 14.7622 206.544 14.7622 207.647 12.4611C207.921 11.8955 208.68 11.9722 208.848 12.5858C209.722 15.7401 210.729 16.6126 212.822 14.7142C213.325 14.2636 214.058 14.8005 213.855 15.4717C212.61 19.6423 212.857 21.2051 216.186 20.534C216.883 20.3902 217.254 21.3873 216.663 21.8091C211.012 25.8935 210.279 28.7315 211.656 39.6806C211.691 39.9683 211.321 40.0737 211.223 39.8053C207.559 30.0162 205.617 28.4438 199.215 30.0546C198.526 30.2272 198.12 29.2588 198.685 28.7986C201.343 26.6509 200.451 25.4429 196.849 23.7363C196.266 23.4582 196.363 22.5186 196.999 22.394H197.007Z" fill="#404596"/>
<path d="M284.422 101.004C279.434 102.116 274.86 101.33 279.84 107.686C279.963 107.849 279.813 108.079 279.628 108.012C275.266 106.287 273.641 107.034 275.16 113.506C275.213 113.736 274.921 113.861 274.816 113.659C271.972 108.214 270.736 109.038 268.961 112.825C268.864 113.027 268.591 112.94 268.608 112.72C268.864 107.926 268.176 105.874 263.911 110.265C263.761 110.419 263.522 110.237 263.611 110.035C265.897 104.666 263.831 105.884 260.573 106.363C260.379 106.392 260.282 106.124 260.432 105.999C264.255 102.854 261.05 102.317 257.174 101.512C256.962 101.464 256.971 101.138 257.182 101.109C262.542 100.342 262.339 98.1178 260.458 95.625C260.352 95.4812 260.458 95.2703 260.626 95.2894C263.602 95.6058 264.635 94.7046 262.348 88.8369C262.26 88.626 262.524 88.4438 262.666 88.626C266.719 93.765 268.44 93.928 268.67 89.3547C268.679 89.1437 268.935 89.0862 269.023 89.2684C270.789 92.7679 272.449 93.4869 275.089 87.5617C275.186 87.3412 275.487 87.4563 275.442 87.6864C273.924 96.4687 275.16 95.7017 279.107 93.6787C279.283 93.5828 279.46 93.8225 279.336 93.9855C276.449 98.0603 276.202 100.361 284.396 100.601C284.617 100.601 284.652 100.956 284.431 101.004H284.422Z" fill="#E84B4F"/>
<path d="M194.827 49.0767C189.838 50.1889 185.264 49.4027 190.244 55.7593C190.368 55.9223 190.217 56.1524 190.032 56.0853C185.67 54.3595 184.045 55.1074 185.564 61.5791C185.617 61.8092 185.326 61.9338 185.22 61.7325C182.377 56.2867 181.14 57.1112 179.366 60.8984C179.269 61.0997 178.995 61.0134 179.013 60.7929C179.269 55.999 178.58 53.9473 174.315 58.3384C174.165 58.4918 173.927 58.3097 174.015 58.1083C176.302 52.7392 174.236 53.9569 170.977 54.4362C170.783 54.465 170.686 54.1965 170.836 54.0719C174.659 50.9271 171.454 50.3902 167.578 49.5849C167.366 49.5369 167.375 49.2109 167.587 49.1822C172.946 48.4152 172.743 46.1908 170.863 43.698C170.757 43.5542 170.863 43.3433 171.03 43.3624C174.006 43.6788 175.039 42.7776 172.752 36.9099C172.664 36.699 172.929 36.5168 173.07 36.699C177.123 41.838 178.845 42.001 179.074 37.4276C179.083 37.2167 179.339 37.1592 179.428 37.3414C181.193 40.8409 182.853 41.5599 185.494 35.6347C185.591 35.4142 185.891 35.5293 185.847 35.7594C184.328 44.5417 185.564 43.7747 189.511 41.7517C189.688 41.6558 189.864 41.8955 189.741 42.0585C186.853 46.1333 186.606 48.4343 194.8 48.674C195.021 48.674 195.056 49.0288 194.835 49.0767H194.827Z" fill="#E84B4F"/>
<g filter="url(#filter0_d_25_216)">
<path d="M154.289 149.038C152.152 148.578 150.554 151.147 151.764 153.113C155.463 159.096 160.558 164.033 166.642 166.986C170.686 168.952 175.039 169.978 179.436 170.16C180.195 170.189 180.937 169.911 181.538 169.402C190.385 161.886 193.979 148.961 189.944 137.581C189.272 135.682 188.442 133.928 187.48 132.317C186.597 130.841 184.593 131.023 183.842 132.576C181.705 136.986 178.191 141.167 173.573 144.35C167.172 148.76 160.09 150.275 154.298 149.038H154.289Z" fill="#404596"/>
<path d="M213.095 173.602C212.981 182.634 210.129 191.646 204.778 198.578C195.842 210.131 180.452 215.251 167.092 211.09C163.869 210.083 160.708 208.587 157.53 207.149C157.159 206.977 156.779 206.814 156.39 206.632C159.19 215.893 160.735 226.075 160.735 236.756C160.735 244.992 159.816 252.921 158.103 260.361C150.951 291.627 129.945 314.282 105.142 314.282C98.317 314.282 91.7742 312.566 85.7434 309.421C84.5426 308.971 83.3594 308.501 82.1762 308.022C76.3044 305.653 70.4856 303.007 64.3312 301.905C62.9714 301.665 61.594 301.502 60.1989 301.425C57.082 301.262 54.1417 303.4 53.3293 306.679C51.8106 312.825 59.0157 315.931 64.4725 316.909C74.927 318.798 85.5227 321.617 94.2377 328.156C107.615 338.204 114.917 356.986 112.197 374.407C109.469 391.818 96.8778 406.938 81.2049 411.636C95.1472 392.528 92.3393 361.588 75.2448 345.778C81.2402 358.53 81.6111 374.253 76.2338 387.331C70.8564 400.399 59.8192 410.581 47.0602 414.244C57.497 394.762 53.7443 367.657 38.5041 352.355C30.7869 344.608 20.7121 339.814 13.7719 331.243C-1.72436 312.087 4.47415 282.921 23.2551 269.805C25.7804 268.031 28.4028 266.449 31.0606 264.925C37.1267 261.445 43.3517 258.261 48.9409 253.947C49.5325 253.487 50.1241 253.007 50.698 252.528C67.9249 238.089 76.5075 213.794 78.0968 190.112C78.5737 183.027 78.5118 175.913 78.3794 168.798C78.3352 166.526 78.2999 164.254 78.2646 161.982C78.1322 152.375 78.1851 142.787 79.6244 133.314C81.8672 118.549 87.7036 104.129 97.5665 93.6788C107.447 83.2282 121.592 77.1592 135.243 79.3164C144.064 80.7162 153.742 88.3576 151.852 97.8303C151.508 99.5273 150.792 101.263 151.19 102.941C151.552 104.446 152.717 105.558 153.927 106.402C159.543 110.275 167.366 109.949 172.673 105.606C175.224 113.506 172.072 123.123 165.468 127.466C159.675 131.291 151.781 130.697 146.369 126.354C145.362 125.548 143.905 126.133 143.72 127.475C141.486 144.379 150.404 162.557 164.832 169.566C179.127 176.507 197.334 171.79 207.524 158.981C208.539 157.706 210.446 158.089 210.985 159.671C212.46 164.12 213.157 168.866 213.104 173.592L213.095 173.602Z" fill="#404596"/>
<path d="M141.486 101.148C143.095 101.148 144.4 99.7312 144.4 97.9838C144.4 96.2364 143.095 94.8198 141.486 94.8198C139.877 94.8198 138.572 96.2364 138.572 97.9838C138.572 99.7312 139.877 101.148 141.486 101.148Z" fill="white"/>
</g>
<g filter="url(#filter1_d_25_216)">
<path d="M483.56 296.804C473.98 252.931 441.319 222.087 404.658 218.156C400.119 217.667 395.536 217.59 390.918 217.955C390.141 218.012 389.356 218.089 388.57 218.175C388.19 218.213 387.801 218.261 387.413 218.319C379.228 219.335 370.963 221.79 362.822 225.596C362.248 225.864 361.665 226.133 361.091 226.411C360.217 226.842 359.325 227.207 358.407 227.523C347.785 231.119 335.485 225.922 330.796 214.733C326.735 205.05 329.136 193.381 334.32 184.772C337.33 179.767 341.286 175.078 345.887 171.742C351.017 168.012 356.95 165.548 361.498 160.917C367.528 154.781 369.736 145.673 368.561 136.939C366.742 123.314 354.778 110.227 341.516 116.804C341.516 116.804 341.507 116.804 341.498 116.804C340.288 117.408 338.876 117.274 337.851 116.363C334.69 113.554 332.686 109.335 332.686 104.618C332.686 102.404 333.128 100.304 333.922 98.4055C334.443 97.1495 333.657 95.7209 332.395 95.7209H332.298C320.607 95.7209 311.124 105.817 311.124 118.281C311.124 123.391 312.722 128.108 315.406 131.886C316.033 132.768 315.874 134.033 315.026 134.666L281.164 159.997C258.419 174.695 243.311 200.668 243.311 230.246C243.311 238.376 244.45 246.229 246.569 253.65C242.419 269.383 240.547 285.481 241.157 295.442C241.907 307.552 245.863 318.712 252.185 327.552C252.618 328.165 253.068 328.76 253.527 329.354C262.092 340.332 274.498 347.302 288.917 347.302C293.323 347.302 297.596 346.65 301.649 345.442C303.989 344.742 304.625 341.818 303.389 339.968C303.362 339.92 303.336 339.881 303.3 339.843C302.991 339.412 302.568 339.047 302.047 338.788C301.658 338.597 301.252 338.395 300.863 338.184C296.219 335.711 292.316 332.336 289.323 328.453C289.12 328.184 288.917 327.926 288.731 327.657C283.831 320.917 281.588 312.767 282.824 305.155C283.08 303.554 284.714 302.7 286.047 303.439C294.223 307.945 303.239 311.051 312.793 312.451C316.58 313.017 320.457 313.295 324.395 313.295H324.616C335.247 313.266 345.419 308.683 353.162 300.783C359.979 293.832 369.021 288.271 379.502 285.203C398.468 279.652 417.125 283.717 428.48 294.34C429.725 295.5 430.882 296.746 431.942 298.069C432.427 298.664 432.886 299.278 433.328 299.901C435.677 303.256 437.434 307.044 438.467 311.185C442.899 329.028 432.568 348.29 414.388 359.297C413.841 359.623 413.496 360.246 413.496 360.926C413.496 361.636 413.858 362.288 414.45 362.595C418.715 364.781 423.483 365.998 428.507 365.998C428.886 365.998 429.266 365.998 429.646 365.979C446.396 365.366 459.985 351.195 461.389 333.247C461.433 332.643 461.777 332.087 462.307 331.885C462.908 331.665 463.543 331.904 463.879 332.432C464.85 333.927 465.768 335.5 466.634 337.12C471.614 346.487 475.711 361.262 476.523 372.623C476.664 374.608 479.163 375.088 479.87 373.256C488.214 351.511 488.858 321.157 483.534 296.775L483.56 296.804Z" fill="#404596"/>
</g>
<path d="M322.876 95.7209C338.247 95.7209 350.708 82.1908 350.708 65.5005C350.708 48.8102 338.247 35.28 322.876 35.28C307.505 35.28 295.045 48.8102 295.045 65.5005C295.045 82.1908 307.505 95.7209 322.876 95.7209Z" fill="#F8B369"/>
<path d="M344.836 129.009C346.235 129.009 347.37 127.777 347.37 126.258C347.37 124.738 346.235 123.506 344.836 123.506C343.436 123.506 342.302 124.738 342.302 126.258C342.302 127.777 343.436 129.009 344.836 129.009Z" fill="white"/>
<path d="M321.816 131.32C322.402 131.32 322.876 130.805 322.876 130.17C322.876 129.534 322.402 129.019 321.816 129.019C321.231 129.019 320.757 129.534 320.757 130.17C320.757 130.805 321.231 131.32 321.816 131.32Z" fill="white"/>
<path d="M323.424 126.258C324.009 126.258 324.483 125.743 324.483 125.107C324.483 124.472 324.009 123.957 323.424 123.957C322.838 123.957 322.364 124.472 322.364 125.107C322.364 125.743 322.838 126.258 323.424 126.258Z" fill="white"/>
<path d="M317.499 124.657C318.084 124.657 318.558 124.141 318.558 123.506C318.558 122.871 318.084 122.355 317.499 122.355C316.914 122.355 316.439 122.871 316.439 123.506C316.439 124.141 316.914 124.657 317.499 124.657Z" fill="white"/>
<path d="M320.757 117.983C321.342 117.983 321.816 117.468 321.816 116.833C321.816 116.197 321.342 115.682 320.757 115.682C320.172 115.682 319.697 116.197 319.697 116.833C319.697 117.468 320.172 117.983 320.757 117.983Z" fill="white"/>
<path d="M156.223 126.775C156.808 126.775 157.282 126.26 157.282 125.625C157.282 124.989 156.808 124.474 156.223 124.474C155.638 124.474 155.163 124.989 155.163 125.625C155.163 126.26 155.638 126.775 156.223 126.775Z" fill="white"/>
<path d="M161.106 126.037C161.691 126.037 162.165 125.522 162.165 124.887C162.165 124.251 161.691 123.736 161.106 123.736C160.521 123.736 160.046 124.251 160.046 124.887C160.046 125.522 160.521 126.037 161.106 126.037Z" fill="white"/>
<path d="M159.746 119.575C160.331 119.575 160.805 119.06 160.805 118.424C160.805 117.789 160.331 117.274 159.746 117.274C159.161 117.274 158.686 117.789 158.686 118.424C158.686 119.06 159.161 119.575 159.746 119.575Z" fill="white"/>
<path d="M166.695 119.719C167.28 119.719 167.754 119.204 167.754 118.568C167.754 117.933 167.28 117.418 166.695 117.418C166.11 117.418 165.635 117.933 165.635 118.568C165.635 119.204 166.11 119.719 166.695 119.719Z" fill="white"/>
<defs>
<filter id="filter0_d_25_216" x="0" y="78.8831" width="216.107" height="343.361" filterUnits="userSpaceOnUse" color-interpolation-filters="sRGB">
<feFlood flood-opacity="0" result="BackgroundImageFix"/>
<feColorMatrix in="SourceAlpha" type="matrix" values="0 0 0 0 0 0 0 0 0 0 0 0 0 0 0 0 0 0 127 0" result="hardAlpha"/>
<feOffset dx="-1" dy="4"/>
<feGaussianBlur stdDeviation="2"/>
<feComposite in2="hardAlpha" operator="out"/>
<feColorMatrix type="matrix" values="0 0 0 0 0 0 0 0 0 0 0 0 0 0 0 0 0 0 0.25 0"/>
<feBlend mode="normal" in2="BackgroundImageFix" result="effect1_dropShadow_25_216"/>
<feBlend mode="normal" in="SourceGraphic" in2="effect1_dropShadow_25_216" result="shape"/>
</filter>
<filter id="filter1_d_25_216" x="237.044" y="95.7209" width="253.912" height="286.68" filterUnits="userSpaceOnUse" color-interpolation-filters="sRGB">
<feFlood flood-opacity="0" result="BackgroundImageFix"/>
<feColorMatrix in="SourceAlpha" type="matrix" values="0 0 0 0 0 0 0 0 0 0 0 0 0 0 0 0 0 0 127 0" result="hardAlpha"/>
<feOffset dy="4"/>
<feGaussianBlur stdDeviation="2"/>
<feComposite in2="hardAlpha" operator="out"/>
<feColorMatrix type="matrix" values="0 0 0 0 0 0 0 0 0 0 0 0 0 0 0 0 0 0 0.25 0"/>
<feBlend mode="normal" in2="BackgroundImageFix" result="effect1_dropShadow_25_216"/>
<feBlend mode="normal" in="SourceGraphic" in2="effect1_dropShadow_25_216" result="shape"/>
</filter>
</defs>
</svg>
