<svg width="858" height="764" viewBox="0 0 858 764" fill="none" xmlns="http://www.w3.org/2000/svg">
<path d="M509.98 205.719L492.607 245.307C492.607 245.307 444.859 262.382 436.735 262.943C428.611 263.493 425.386 260.068 423.632 253.061C422.658 249.221 420.792 247.57 419.301 246.875C418.662 246.574 421.472 244.55 423.865 242.806C425.792 241.394 427.151 239.318 427.699 236.962C422.192 239.412 413.723 239.256 413.622 236.692C413.612 236.485 413.622 236.287 413.652 236.08C413.723 235.955 413.825 235.768 413.946 235.53C414.869 233.724 416.259 231.015 415.904 229.323C415.244 226.209 408.815 227.091 406.867 222.794C406.34 221.631 405.478 220.105 406.421 219.431C416.076 212.58 417.547 201.972 417.547 201.972L414.788 192.765L471.299 153L510 205.719H509.98Z" fill="#F8B369"/>
<path d="M512 223.975C501.516 231.173 488.647 235.584 474.634 235.972C438.253 236.988 407.978 210.532 407.024 176.887C406.738 167.028 409.017 157.64 413.278 149.278C419.246 159.4 427.578 167.73 437.468 173.419C428.85 166.975 421.833 158.226 417.169 148C424.875 161.338 437.659 171.711 453.062 177.044C453.115 177.097 453.168 177.149 453.21 177.202C463.545 180.02 474.782 180.282 485.796 177.694C486.188 177.6 486.347 178.166 485.965 178.291C477.379 181.11 468.549 182.221 459.963 181.749C458.797 181.686 458.182 183.09 459.03 183.876C462.496 187.093 466.789 189.524 465.549 195.307C462.273 210.553 490.057 230.104 490.057 230.104L511.989 223.996L512 223.975Z" fill="#F8B369"/>
<path d="M505 114.931C506.442 113.455 508.046 112.06 509.8 110.776C525.986 98.9185 548.673 100.839 560.49 115.053C563.019 118.106 564.848 121.472 566 125C565.817 124.949 565.623 124.899 565.44 124.858C564.278 122.21 562.728 119.672 560.77 117.317C548.393 102.416 524.609 100.405 507.647 112.829C506.733 113.506 505.85 114.203 505.011 114.931H505Z" fill="#404596"/>
<path d="M647 175C645.839 174.324 644.484 173.657 643 173L644.419 173.186C644.419 173.186 645.516 173.843 647 175Z" fill="#404596"/>
<path d="M531 204.067C528.782 207.417 526.084 210.559 522.967 213.435C520.084 216.104 516.834 218.539 513.288 220.709L512 221C519.921 216.536 526.421 210.709 530.918 204C530.939 204.025 530.969 204.05 531 204.075V204.067Z" fill="#DCE4F4"/>
<path d="M567.432 195.885L565.977 195.049C560.055 191.645 556.372 185.295 556.602 178.476C556.707 175.239 557.502 171.437 559.448 167.083C563.351 158.352 563.906 148.828 563.529 141.633C563.309 137.424 562.755 134.02 562.378 132.025C562.19 131.304 561.97 130.594 561.729 129.895C557.063 116.235 543.91 106.586 528.687 107.014C519.008 107.285 510.387 111.577 504.391 118.261C494.535 113.426 483.256 110.825 471.317 111.16C448.476 111.807 428.617 123.033 417.003 139.68C417.003 139.649 416.982 139.628 416.972 139.596C415.904 141.257 414.91 142.98 414 144.734C414.638 145.998 415.318 147.23 416.03 148.442C421.921 158.53 430.145 166.832 439.907 172.503C431.4 166.08 424.474 157.36 419.87 147.168C427.477 160.462 440.095 170.8 455.298 176.116C455.35 176.168 455.403 176.22 455.445 176.273C465.646 179.082 476.737 179.343 487.608 176.763C487.995 176.669 488.152 177.233 487.776 177.359C479.301 180.168 470.585 181.275 462.11 180.805C460.959 180.742 460.352 182.142 461.189 182.925C464.61 186.131 468.848 188.554 467.624 194.318C464.391 209.513 491.814 229 491.814 229L511.977 223.329C511.014 223.058 510.062 222.776 509.121 222.452C525.171 211.184 535.519 192.418 535.174 171.354C534.996 161.109 532.296 151.47 527.682 143.095C534.243 152.306 538.187 163.542 538.396 175.73C538.553 184.961 536.555 193.723 532.861 201.555C532.882 201.576 532.903 201.608 532.935 201.639C533.479 202.172 534.148 202.662 534.964 203.08C542.174 206.746 574.756 228.238 574.756 228.238L576.995 216.802C580.364 203.748 574.777 200.125 567.453 195.906L567.432 195.885Z" fill="#404596"/>
<path d="M414.03 183.432C414.381 185.373 415.744 186.95 417.557 187.531C422.046 188.974 430.924 191.558 439.23 192.419L444 193C444 193 424.892 188.019 415.744 182.176C414.902 181.637 413.84 182.415 414.02 183.422L414.03 183.432Z" fill="#404596"/>
<path d="M442.99 209.47C443.109 209.946 442.116 210.221 441.811 209.772C436.075 201.102 431.055 199.079 421.742 200.26C421.742 200.26 421.702 200.26 421.689 200.269C421.583 200.278 421.49 200.287 421.384 200.306C420.364 200.388 419.596 200.141 419 199.72C419.026 199.619 419.106 199.509 419.212 199.417C420.311 198.566 421.981 197.605 424.352 197.202C426.087 196.9 428.154 196.9 430.631 197.458C430.723 197.476 430.816 197.504 430.909 197.522C436.883 198.914 441.215 202.512 442.301 206.806L442.977 209.461L442.99 209.47Z" fill="#404596"/>
<path d="M432 196.896V196.919C432 196.919 431.479 197.757 425.361 198.879C425.274 198.901 425.17 198.913 425.083 198.924C425.083 198.924 425.031 198.924 425.013 198.935C424.874 198.947 424.753 198.958 424.614 198.98C423.275 199.082 422.267 198.777 421.485 198.256C419.122 196.659 419 193 419 193C421.259 195.56 425.344 195.56 428.246 195.152C428.333 195.141 428.42 195.129 428.489 195.141C430.193 194.982 431.791 195.752 431.983 196.896H432Z" fill="#404596"/>
<path d="M427.874 205.872C428.703 205.841 429.352 204.906 429.323 203.778C429.3 202.65 428.613 201.766 427.784 201.807C427.65 201.807 427.53 201.878 427.411 201.929C428.068 200.242 429.345 199.063 430.846 199.002C433.079 198.921 434.939 201.309 434.999 204.347C435.058 207.386 433.303 209.916 431.07 209.998C429.054 210.079 427.351 208.118 427 205.496C427.254 205.729 427.538 205.892 427.866 205.882L427.874 205.872Z" fill="#404596"/>
<path d="M427 214C427 214 431.814 205.214 441.841 208.906L443 209.808C443 209.808 435.608 207.185 427.009 214H427Z" fill="#404596"/>
<path d="M460 195.462C460 195.462 468.187 180.336 475.919 186.459C483.64 192.583 480.266 200.074 480.266 200.074C480.266 200.074 476.198 208.002 473.828 213.983C472.7 216.832 469.15 217.907 466.593 216.143L464.016 214.369L460 195.472V195.462Z" fill="#F8B369"/>
<path d="M484.097 198.934C484.097 198.934 479.223 207.852 476.4 214.598C475.049 217.813 470.825 219.013 467.786 217.046L464.737 215.05L464.539 214.204L466.612 215.65C469.049 217.351 472.434 216.328 473.509 213.555C475.769 207.754 479.647 200.064 479.647 200.064C479.647 200.064 482.864 192.808 475.502 186.859C468.457 181.185 461.007 194.371 460.375 195.512L460 193.801C460 193.801 469.789 176.76 478.966 183.633C488.153 190.507 484.117 198.944 484.117 198.944L484.097 198.934Z" fill="#404596"/>
<path d="M575.959 269.245C575.303 267.539 573.113 267.019 571.726 268.225L546.644 290.142C544.866 291.422 542.707 289.112 544.178 287.49C556.454 273.926 583.961 250.521 583.961 250.521L584.056 250.729C581.611 240.213 575.049 218.712 560.264 205.731C551.903 198.397 539.754 196.993 529.678 201.83C510.48 211.056 474.55 228.958 469.057 236.354C465.3 241.42 457.627 254.152 451.086 270.379C450.419 272.032 452.6 273.364 453.817 272.053C470.74 253.839 487.715 260.809 487.715 260.809C487.715 260.809 471.078 255.972 455.902 273.405C445.996 284.785 441.847 302.77 440.154 313.89C439.847 317.863 439.339 321.868 439.519 325.81L439 338.969L461.215 339L603 338.927L575.97 269.224L575.959 269.245ZM490.181 248.763C495.102 249.367 501.664 252.05 508.607 260.164C518.661 271.908 526.313 283.485 529.996 289.372C530.091 289.518 529.869 289.653 529.774 289.508C523.096 280.063 505.051 256.19 489.694 250.75C488.52 250.334 488.954 248.607 490.192 248.753L490.181 248.763ZM533.615 332.343C533.393 331.219 533.15 330.086 532.864 328.952C525.382 298.339 502.342 277.545 481.386 282.486C469.067 285.399 460.22 296.571 456.547 311.508C458.854 294.417 468.633 280.791 482.91 277.421C503.305 272.615 525.159 290.506 531.732 317.395C532.97 322.461 533.573 327.495 533.605 332.353L533.615 332.343Z" fill="#E62841"/>
<path d="M465 190.483C465 190.483 471.92 181.316 475.071 189.199C478.232 197.082 472.313 206.902 472.313 206.902L469.78 214C469.78 214 469.056 209.756 472.462 198.092C475.869 186.429 470.195 186.191 465 190.483Z" fill="#404596"/>
<path d="M529.493 325.217C540.538 361.087 523.694 380.17 503.996 385.184C484.299 390.199 463.169 371.571 456.818 343.574C450.467 315.578 461.287 288.817 480.995 283.802C500.693 278.788 521.066 297.849 529.493 325.217Z" fill="#F8B369"/>
<path d="M431.691 338.99C431.082 324.585 428.358 310.724 423.476 297.869C420.431 289.808 416.532 282.145 411.778 274.963C406.95 267.667 402.954 259.889 399.931 251.807C398.831 248.865 394.408 249.577 394.301 252.707C393.179 286.971 395.231 315.959 396.662 331.096C396.78 332.331 394.931 332.635 394.643 331.421C386.139 296.508 389.59 246.97 392.699 218.6C393.041 215.523 393.254 212.445 393.446 209.357C393.446 209.346 393.446 209.325 393.446 209.315C393.927 201.871 394.974 194.271 396.609 186.608C399.974 170.801 405.529 156.26 412.643 143.572C425.976 119.808 444.788 102.566 465 95.7196C461.646 87.3447 455.247 80.1214 446.401 75.7769C439.244 72.2699 431.499 71.1498 424.128 72.1129C424.704 71.1602 425.249 70.1657 425.762 69.1712C438.763 43.722 428.23 12.7453 402.249 0.00498248C401.416 -0.403294 408.702 24.3655 399.087 42.7379C393.746 52.9344 386.834 60.2729 376.899 64.4812C385.595 83.5132 372.444 109.13 346.613 122.603C332.693 129.868 317.833 132.182 305.324 129.973C310.313 130.486 315.611 130.318 321.017 129.45C320.996 129.45 320.964 129.45 320.942 129.45C317.257 129.45 314.265 126.518 314.265 122.907C314.265 119.295 317.257 116.364 320.942 116.364C324.628 116.364 327.619 119.295 327.619 122.907C327.619 125.744 325.781 128.141 323.207 129.052C329.766 127.775 336.454 125.482 342.938 122.09C349.145 118.845 354.614 114.909 359.229 110.522C379.997 90.7994 366.868 56.1063 338.003 54.4C337.853 54.4 337.704 54.379 337.554 54.379C329.35 53.9184 320.761 53.9917 312.62 55.2898C308.999 55.8656 305.399 56.3995 301.841 57.2788C301.307 57.4149 300.762 57.5615 300.218 57.708C298.156 58.2838 296.126 58.9329 294.118 59.6761C286.266 62.5445 278.895 66.575 272.207 71.5371C262.187 78.9698 253.726 88.245 246.291 98.1169C236.43 111.203 228.215 125.451 220.727 139.929C220.652 140.065 220.588 140.201 220.513 140.347C207.608 165.315 198.378 191.947 192.748 219.385C191.253 226.682 189.768 234.188 188.304 241.914C183.668 266.411 179.438 291.368 176.831 313.488C175.805 322.135 174.78 330.751 174 339H431.702L431.691 338.99Z" fill="#404596"/>
<path d="M172.404 339C172.404 338.851 172.383 338.702 172.383 338.553C171.853 325.535 172.446 310.926 173.974 295.513C174.442 290.773 168.39 288.12 164.948 291.568C152.302 304.238 141.247 320.367 133 339H172.404Z" fill="#404596"/>
<path d="M178.167 276.974C189.042 271.707 200.188 268.426 210.907 267.007C221.844 265.566 226.021 251.835 217.323 245.138C217.073 244.943 216.813 244.758 216.542 244.573C214.115 242.937 211.157 241.96 207.792 242.001C198.907 242.094 189.229 248.183 182.146 253.038C174.771 258.089 168.177 264.198 162.281 270.874C149.813 284.997 139.229 302.226 133 320C133.083 319.753 133.219 319.496 133.375 319.239C141.313 302.771 157.063 287.188 178.156 276.963L178.167 276.974Z" fill="#7ECBF3"/>
<path d="M638.356 365.713C594.186 363.259 608.759 372.394 625.554 379.49C631.687 382.073 631.086 391.047 624.659 392.744C613.226 395.764 601.467 397.29 589.698 397.29C585.947 397.29 582.185 397.13 578.423 396.82L552.556 394.675C565.021 398.773 580.32 404.984 589.013 416.349C592.553 420.98 594.513 426.241 595.177 431.545C595.251 432.121 595.314 432.719 595.345 433.295C596.441 448.693 584.882 458.426 573.555 455.939C570.163 455.192 566.801 453.357 563.809 450.251C551.049 437.04 535.718 425.441 518.427 416.562C516.088 415.367 513.749 414.225 511.41 413.158C507.511 411.376 503.465 415.164 504.782 419.283C504.793 419.326 504.814 419.369 504.824 419.411C505.003 419.977 505.172 420.532 505.298 421.108C507.954 431.395 504.213 440.156 497.838 444.489C492.191 448.341 484.478 448.715 477.323 443.614C475.869 442.579 474.405 441.565 472.908 440.583C459.052 431.331 443.437 423.851 426.631 418.856C425.798 418.6 424.966 418.376 424.134 418.142C407.517 413.489 391.354 411.707 376.36 412.507C376.539 412.56 376.718 412.592 376.897 412.646C380.575 413.585 384.231 414.695 387.845 415.975C398.055 419.539 410.752 424.566 420.246 432.665C421.363 433.626 422.437 434.618 423.459 435.664C424.892 437.126 426.22 438.684 427.4 440.349C430.888 445.215 432.742 450.668 433.269 456.131C433.322 456.718 433.364 457.327 433.385 457.924C434.091 474.699 420.393 484.496 408.307 479.843C407.749 479.63 407.201 479.384 406.643 479.096H406.622C405.747 478.189 404.82 477.346 403.861 476.535C402.67 475.5 401.416 474.518 400.131 473.59C399.825 473.366 399.52 473.152 399.214 472.949C390.711 467.069 380.617 463.142 372.251 460.208C358.953 455.534 345.213 453.175 331.505 452.482C319.904 451.884 308.019 452.29 296.207 453.73C257.158 458.479 217.582 456.345 179.017 448.512L141.338 440.85C134.246 440.018 133.625 429.827 140.568 428.119L232.08 405.688C238.023 403.906 236.885 395.07 230.689 394.889L165.277 393.085C155.299 392.819 145.595 396.66 138.619 403.885L138.503 404.002C126.491 416.477 108.516 408.548 106.967 391.463C106.83 390.065 106.809 388.603 106.914 387.077C106.956 386.501 107.009 385.914 107.083 385.327C107.736 380.024 109.685 374.763 113.226 370.131C113.363 369.961 113.489 369.779 113.637 369.608C102.647 375.659 92.5103 382.83 83.3855 390.802C79.6344 394.078 76.0519 397.493 72.6486 401.035C59.6567 414.535 39.6685 404.13 41.0699 384.121C41.112 383.545 41.1647 382.948 41.2279 382.371C41.8918 377.068 43.8305 371.796 47.3709 367.165C56.7064 354.925 73.6706 348.65 86.5571 344.542C97.4205 341.084 108.526 339.131 119.632 338.363C122.256 338.171 124.89 338.053 127.503 338H127.65L137.987 338.053L671.01 340.444C671.01 340.444 708.447 369.608 638.378 365.713H638.356Z" fill="#7ECBF3"/>
<path d="M203 404C204.312 403.656 205.624 403.328 207 403C205.899 403.408 204.587 403.752 203 404Z" fill="#7ECBF3"/>
<path d="M207 403C205.899 403.408 204.587 403.752 203 404C204.312 403.656 205.624 403.328 207 403Z" fill="#7ECBF3"/>
<path d="M206.143 230.588C216.183 228.035 226.134 227.08 235.413 227.557C244.883 228.035 250.648 217.78 244.379 211.168C244.2 210.971 244.01 210.784 243.809 210.608C242.029 208.947 239.689 207.733 236.835 207.266C229.313 206.02 220.157 209.404 213.385 212.206C206.333 215.123 199.774 218.984 193.718 223.395C180.891 232.737 169.16 244.829 161 258C161.112 257.813 161.269 257.637 161.437 257.45C170.817 245.566 186.644 235.549 206.132 230.588H206.143Z" fill="#7ECBF3"/>
</svg>
