<svg width="697" height="591" viewBox="0 0 697 591" fill="none" xmlns="http://www.w3.org/2000/svg">
<path d="M616 199C615.67 198.68 615.34 198.34 615 198.04V198C615 198 615.4 198.32 616 199Z" fill="#008E76"/>
<path d="M487 255.979C484.588 257.467 482.118 258.998 479.577 260.55C479.577 260.55 471.873 262.456 460.609 258.42C449.346 254.383 423.037 240.85 423.037 240.85C423.037 240.85 422.218 234.63 421 231.824C423.845 229.908 424.911 228.58 427.042 226C429.606 228.591 434.64 233.805 434.547 235.55C434.406 238.248 473.137 252.242 487 255.968V255.979Z" fill="#F8B369"/>
<path d="M434.988 208.49C434.988 215.843 432.247 222.636 427.617 228.079C425.494 230.582 422.964 232.805 420.129 234.664C416.992 236.721 413.481 238.351 409.703 239.432C406.169 240.449 402.401 241 398.494 241C386.843 241 376.474 236.139 369.779 228.567C364.904 223.041 362 216.072 362 208.5C362 190.552 378.34 176 398.494 176C418.648 176 435 190.552 435 208.5L434.988 208.49Z" fill="#E62841"/>
<path d="M563.04 396.147C561.573 394.755 560.84 392.949 560.84 391.153C560.84 389.357 561.515 387.679 562.889 386.308C565.554 383.609 565.927 379.614 563.785 376.543L560.118 371.294L554.031 324.074C554.031 324.074 555.218 304.491 562.016 295.013C568.837 285.535 582.467 249.386 569.815 231.025C557.756 213.525 554.52 214.311 553.414 203.664C553.356 203.133 553.309 202.58 553.262 201.996C552.296 189.553 554.892 183.922 554.892 183.922L547.431 154.893L517.248 154L501.348 159.323L492.897 165.72C492.979 166.995 493.188 168.281 493.444 169.513L499.52 175.241L501.778 177.376L505.736 181.106C505.736 181.106 506.306 184.719 505.398 188.555C504.793 191.115 503.548 193.772 501.045 195.546C500.603 195.865 500.533 196.46 500.905 196.853C501.883 197.894 503.897 199.637 506.423 199.828C506.714 199.85 506.923 200.041 506.923 200.296C506.9 200.901 506.644 202.049 505.224 203.42C504.851 203.781 505.398 204.323 505.678 204.567C506.074 204.907 506.597 205.067 507.121 205.173C507.459 205.237 507.796 205.269 508.146 205.269C508.588 205.269 509.019 205.215 509.449 205.088C509.973 204.939 510.474 204.727 510.962 204.482C510.462 204.886 509.88 205.226 509.24 205.417C508.949 205.513 508.634 205.566 508.332 205.598C508.274 205.959 508.239 206.406 508.308 206.777C508.413 207.426 509.077 208.138 509.868 207.925C510.648 207.713 511.544 207.659 511.789 208.042C512.068 208.488 513.884 211.145 515.467 213.121C516.654 214.587 518.901 214.885 520.496 213.812C522.265 212.632 524.628 211.208 526.793 210.422C527.107 210.167 534.347 207.681 538.084 206.395C539.422 205.938 540.272 204.78 540.272 203.484L540.249 201.985H540.412L540.645 203.175C541.005 204.929 539.876 206.65 538.002 207.192C538.002 207.192 530.18 209.455 529.005 209.816C528.923 209.838 528.876 209.933 528.923 209.997C529.482 211.442 534.324 224.129 530.075 228.634C530.075 228.634 512.138 240.238 485.366 256.76C482.968 258.237 480.512 259.757 477.986 261.298C477.986 261.298 470.327 263.189 459.129 259.183C447.931 255.177 421.776 241.746 421.776 241.746C421.776 241.746 421.625 238.421 420.414 235.637C419.751 234.128 418.808 232.778 417.388 232.194C413.337 230.515 404.677 224.352 402.267 219.337C402.186 219.178 402.128 219.029 402.058 218.869C402.058 218.869 400.556 220.973 400.719 223.279C400.789 224.15 401.092 225.043 401.802 225.861C404.456 228.911 403.932 228.677 403.885 228.645C404.118 228.889 408.646 233.745 406.563 237.422C405.771 238.792 404.06 240.014 400.836 240.758C389.952 243.266 374.378 232.895 370.153 229.399C369.71 229.017 369.384 228.73 369.21 228.539C369.21 228.539 368.185 232.151 370.665 233.862C372.504 235.148 384.225 247.484 386.46 254.455C386.844 255.634 388.707 255.762 389.894 255.188C389.894 255.188 395.807 252.468 403.536 252.468C406.947 252.468 410.718 252.999 414.478 254.529C426.77 259.523 459.746 276.63 465.95 285.524L466.788 286.183C467.976 287.118 469.652 287.33 471.06 286.703C477.113 284.026 493.479 276.917 501.895 274.516V274.495C501.895 274.495 538.631 263.274 542.041 254.274C542.041 254.274 542.798 258.142 536.431 261.499C529.016 265.42 524.628 267.163 524.628 267.163L507.715 273.326C506.923 273.613 506.33 274.229 506.12 274.983C504.991 279.234 501.511 293.185 503.303 297.807C505.41 303.29 511.09 316.179 509.635 332.914L402.058 381.123L402.105 381.186C398.147 382.929 395.411 385.628 394.829 389.283C392.804 402.076 396.389 414.636 411.871 421.936C422.37 426.877 433.777 427.195 441.937 423.529C443.112 422.998 444.323 422.594 445.557 422.191C470.99 414.062 538.549 395.584 542.484 398.453C546.616 401.481 557.825 411.321 561.108 414.232C561.818 414.859 562.237 415.698 562.295 416.602C562.365 417.792 562.179 419.555 561.038 421.415C560.537 422.212 561.154 423.189 562.144 423.2L563.936 423.221C565.822 423.243 567.335 421.808 567.254 420.087L567.231 419.47C567.207 418.907 568.744 416.038 569.093 415.56C571.537 413.669 573.353 411.214 574.354 408.43L574.447 408.154C575.297 406.985 574.133 404.51 573.062 403.49L563.04 396.126V396.147ZM501.557 386.138C498.694 386.159 495.865 386.223 492.99 386.202C487.054 386.159 480.966 386.319 475.286 387.923C460.933 391.971 451.761 405.232 435.907 406.167C423.336 406.911 419.087 399.059 419.087 399.059C425.28 403.5 429.005 404.541 436.256 404.393C442.077 404.276 448.479 399.654 453.03 397.072C459.525 393.374 465.717 389.049 472.911 386.329C479.15 383.97 487.345 384.47 494.014 384.65C499.718 384.799 502.512 384.884 508.169 385.447C506.865 385.745 505.166 386.117 501.569 386.149L501.557 386.138Z" fill="#F8B369"/>
<path d="M544.977 184.346C544.724 186.031 543.721 187.549 542.212 188.583L541.028 189.316C540.328 189.761 539.893 190.463 539.869 191.217L539.845 192.23C539.809 193.573 538.335 194.235 536.862 193.925L534 192.984L535.993 193.377C537.466 193.677 538.879 192.736 538.915 191.445L538.939 190.474C538.963 189.74 539.386 189.058 540.086 188.645L541.27 187.942C542.779 186.94 543.782 185.483 544.035 183.861C544.265 182.456 543.709 181.04 542.526 180.048L539.929 177.827C539.483 177.444 539.036 177.165 538.577 177C539.338 177 540.111 177.372 540.859 178.044L543.456 180.358C544.627 181.402 545.17 182.869 544.953 184.336L544.977 184.346Z" fill="#233E92"/>
<path d="M508 179C508 179 509.139 181.988 511.929 182.406C514.719 182.825 521 184 521 184L519.824 183.064C518.635 182.118 517.084 181.52 515.42 181.351C513.092 181.112 509.689 180.514 508 179.01V179Z" fill="#233E92"/>
<path d="M512 189C512 189 514.003 184.592 520.235 184L521 184.114C521 184.114 516.41 184.592 512 189Z" fill="#404596"/>
<path d="M360.624 246.884C341.792 255.968 326.842 275.661 319.426 298.134C318.124 302.079 317.054 306.108 316.24 310.191C314.985 316.42 314.322 322.755 314.322 329.037V329.396C314.369 341.04 318.135 352.367 325.052 362.002C327.214 365.026 329.691 367.871 332.446 370.526C338.944 376.734 343.989 384.92 346.93 394.29C348.79 400.212 349.802 406.611 349.802 413.295C349.802 426.684 345.721 438.962 338.921 448.533C338.037 449.771 335.968 449.39 335.631 447.952C333.248 437.756 323.308 430.11 311.393 430.11C303.011 430.11 295.618 433.886 291.119 439.671C291.072 439.724 291.014 439.776 290.968 439.84C290.503 440.422 290.073 441.067 289.677 441.775C289.619 441.87 289.561 441.966 289.503 442.061C288.027 444.578 287.062 447.38 286.725 450.352C285.772 454.963 285.376 460.114 285.179 464.82C285.144 465.476 285.132 466.142 285.132 466.819C285.132 477.416 288.573 486.786 293.804 492.36L268.601 519L236.098 480.187C215.766 506.51 193.644 520.671 175.184 516.092C140.169 507.398 131.474 434.637 155.782 353.573C172.917 296.431 201.863 250.458 229.728 231.316C237.028 226.303 244.259 223.13 251.176 222.073C255.303 221.449 259.336 221.576 263.208 222.528C265.66 223.13 267.985 223.86 270.171 224.717C270.845 224.981 271.496 225.256 272.147 225.542C277.006 227.699 280.668 231.707 281.854 236.509C281.877 236.583 281.877 236.636 281.9 236.71C282.4 238.835 284.435 240.369 286.841 240.369H286.946C289.468 240.369 291.828 239.174 293.072 237.186C296.606 231.485 298.85 224.188 299.14 216.171C299.233 213.676 299.117 211.243 298.838 208.885C298.64 207.214 300.233 205.775 302.07 206.029C312.276 207.415 320.728 213.707 324.436 222.179C325.75 225.161 326.459 228.418 326.459 231.813C326.459 236.414 325.157 240.739 322.855 244.483C329.388 239.967 337.549 237.27 346.384 237.27C351.243 237.27 355.893 238.085 360.183 239.555C363.752 240.781 363.972 245.266 360.601 246.884H360.624Z" fill="#404596"/>
<path d="M513.5 186C514.881 186 516 185.328 516 184.5C516 183.672 514.881 183 513.5 183C512.119 183 511 183.672 511 184.5C511 185.328 512.119 186 513.5 186Z" fill="#233E92"/>
<path d="M508.518 177.335C509.485 175.296 513.534 174.731 517.571 176.064C520.266 176.962 522.26 178.476 522.998 180C523.082 178.102 520.762 175.882 517.256 174.721C513.232 173.389 509.17 173.954 508.203 175.993C507.889 176.669 507.95 177.416 508.312 178.163C508.324 177.88 508.385 177.598 508.518 177.335Z" fill="#233E92"/>
<path d="M511.607 197.815C511.269 194.926 511.491 192.203 512.119 190C511.173 192.193 510.767 195.113 511.134 198.252C511.655 202.731 513.615 206.41 516 208C513.857 206.057 512.119 202.294 511.597 197.815H511.607Z" fill="#404596"/>
<path d="M570 174.447C570 185.082 565.327 194.616 557.923 201.115C556.343 202.497 553.809 202.217 552.565 200.576L549.427 196.419C546.951 193.136 542.859 191.247 538.547 191.377H538.396L532.015 187.436C530.759 186.658 529.957 185.395 529.818 184.002C529.376 179.392 528.144 169.102 525.878 168.929C523.89 168.767 516.742 169.351 512.418 169.739C510.174 169.934 508.012 170.603 506.095 171.683L500.992 174.555C500.667 174.738 500.341 174.943 500.05 175.159L498.667 176.174L497.005 177.394C496.087 178.075 494.727 177.686 494.355 176.649C493.809 175.095 493.1 172.827 492.6 170.355C492.344 169.102 492.147 167.796 492.054 166.5C491.821 163.11 492.298 159.784 494.413 157.744C500.248 152.108 521.635 141.257 521.635 141.257H522.193C526.064 139.799 530.26 139 534.63 139C539.535 139 544.208 140.004 548.439 141.829C548.834 141.991 549.217 142.164 549.601 142.347C549.624 142.369 549.647 142.369 549.682 142.39C549.915 142.52 550.182 142.682 550.473 142.865C550.496 142.865 550.508 142.887 550.531 142.898C552.239 144.031 554.448 146.094 554.866 149.365C555.296 149.484 555.738 149.549 556.215 149.549C556.575 149.549 556.924 149.516 557.249 149.441C558.47 149.182 559.76 149.506 560.573 150.391C566.408 156.707 569.977 165.161 569.977 174.447H570Z" fill="#404596"/>
<path d="M533.838 186.955L534.982 182.579L536.011 179.04C537.259 176.588 538.902 176.498 540.431 177.964L542.667 180.107C543.675 181.074 544.154 182.439 543.956 183.785C543.738 185.35 542.875 186.755 541.575 187.712L540.556 188.39C539.952 188.789 539.588 189.447 539.568 190.155L539.547 191.091C539.516 192.337 538.299 193.235 537.03 192.946L534.919 192.467L532.091 188.161C531.55 187.344 533.598 187.772 533.827 186.945L533.838 186.955Z" fill="#F8B369"/>
<path d="M482 344.56L509.816 332.058L554.02 325C554.02 325 576.843 362.211 559.486 370.736C542.13 379.261 508.202 385 508.202 385L482 344.56Z" fill="#E62841"/>
<path d="M406 427.368C406 427.368 433.998 474.436 421.622 507L624.742 501.075L628 425L406 427.368Z" fill="#E62841"/>
<path d="M361.933 390.308C361.428 391.365 359.668 391.164 359.516 390.023C359.129 387.21 358.343 384.387 357.146 381.649C356.477 380.094 355.668 378.572 354.729 377.091C354.518 376.774 354.307 376.447 354.096 376.14C349.474 369.362 342.259 364.435 334.011 362.067L333.952 362.046C329.436 360.756 325.658 357.869 323.593 354.021C319.323 346.027 317.047 337.209 317 328.201V327.841C317 321.561 317.669 315.228 318.936 309C325.083 310.628 331.019 313.113 336.498 316.391C345.438 321.741 353.193 329.184 358.73 338.446C368.866 355.364 369.382 374.501 361.933 390.308Z" fill="#404596"/>
<path d="M271 261C273.761 261 276 258.985 276 256.5C276 254.015 273.761 252 271 252C268.239 252 266 254.015 266 256.5C266 258.985 268.239 261 271 261Z" fill="#7ECBF3"/>
<path d="M104.41 557.449C109.641 560.098 115.465 561.846 121.65 562.471C123.951 562.694 126.288 562.779 128.66 562.683C129.171 562.662 129.694 562.63 130.206 562.588C131.054 562.524 131.903 562.44 132.74 562.323C140.54 553.211 146.062 542.424 148.527 530.652C153.293 533.841 159.082 535.77 165.336 535.886C166.638 535.908 167.906 535.844 169.149 535.727C174.811 524.962 178.066 512.851 184.355 502.467C186.517 498.907 189.028 495.548 191.841 492.422C187.098 484.072 178.694 476.549 168.812 472.703C168.777 472.692 168.754 472.682 168.731 472.671C166.022 471.59 163.116 470.711 160.047 470.033C154.235 468.751 148.166 468.115 141.912 468.221C138.32 468.284 134.739 468.592 131.205 469.143C126.974 469.8 122.812 470.806 118.778 472.152C102.55 477.588 88.7161 488.491 80.2299 502.467C70.9996 517.693 68.3143 536.639 54.9688 549.629C47.3195 557.068 37.1011 561.793 26.0923 562.577C25.5808 562.62 25.0693 562.652 24.5461 562.673C22.1746 562.768 19.838 562.683 17.5363 562.461C11.3518 561.846 5.51601 560.087 0.296387 557.438C15.1648 578.026 40.9374 591.419 69.9766 590.921C84.5776 590.678 98.2254 586.937 109.955 580.601C113.687 578.588 117.221 576.32 120.534 573.809C114.326 569.115 108.885 563.595 104.433 557.438L104.41 557.449Z" fill="#7ECBF3"/>
<path d="M272.938 472.703C272.938 472.703 272.88 472.682 272.856 472.671C270.148 471.59 267.242 470.711 264.173 470.033C258.36 468.751 252.292 468.115 246.038 468.221C242.445 468.284 238.865 468.592 235.331 469.143C231.099 469.8 226.938 470.806 222.904 472.152C210.814 476.2 200.049 483.288 191.842 492.422C194.62 497.328 196.143 502.53 195.945 507.436C195.364 522.027 184.379 534.212 169.161 535.727C166.523 540.76 163.349 545.497 159.106 549.629C152.049 556.495 142.796 561.041 132.752 562.323C129.137 566.54 125.045 570.397 120.522 573.82C135.03 584.797 153.758 591.282 174.102 590.932C188.703 590.688 202.351 586.948 214.08 580.612C233.866 569.931 248.223 551.865 252.675 530.652C257.442 533.841 263.231 535.77 269.485 535.886C286.655 536.194 299.454 523.224 300.082 507.436C300.617 494.181 288.643 478.806 272.949 472.703H272.938Z" fill="#7ECBF3"/>
<path d="M132.74 562.334C131.903 562.44 131.054 562.535 130.206 562.598C129.694 562.641 129.183 562.673 128.659 562.694C126.288 562.789 123.951 562.704 121.65 562.482C115.465 561.867 109.629 560.108 104.41 557.459C108.862 563.626 114.303 569.136 120.51 573.83C125.021 570.408 129.124 566.551 132.74 562.334Z" fill="#7ECBF3"/>
<path d="M169.15 535.738C184.367 534.222 195.352 522.037 195.934 507.447C196.131 502.541 194.608 497.338 191.83 492.432C189.017 495.558 186.506 498.917 184.343 502.477C178.054 512.861 174.799 524.962 169.138 535.738H169.15Z" fill="#7ECBF3"/>
<path d="M399.983 507.304C399.361 523.127 386.671 536.136 369.648 535.818C363.459 535.701 357.708 533.768 352.983 530.572C348.568 551.821 334.335 569.938 314.718 580.643C303.089 586.994 289.57 590.732 275.083 590.987C246.293 591.486 220.741 578.052 206 557.429C211.186 560.083 216.961 561.836 223.092 562.462C225.374 562.685 227.691 562.77 230.042 562.675C230.549 562.653 231.068 562.622 231.575 562.579C242.501 561.793 252.631 557.057 260.215 549.602C273.446 536.582 276.109 517.605 285.26 502.334C293.662 488.327 307.388 477.399 323.478 471.951C327.489 470.603 331.603 469.594 335.798 468.935C339.302 468.383 342.852 468.065 346.413 468.011C352.602 467.905 358.63 468.542 364.393 469.827C367.435 470.507 370.317 471.388 373.002 472.461C373.002 472.461 373.06 472.482 373.083 472.493C388.642 478.62 400.513 494.019 399.983 507.304Z" fill="#7ECBF3"/>
<path d="M497.983 507.304C497.354 523.127 484.534 536.136 467.335 535.818C461.082 535.701 455.272 533.768 450.498 530.572C446.038 551.821 431.658 569.938 411.839 580.643C400.09 586.994 386.432 590.732 371.795 590.987C342.708 591.486 316.893 578.052 302 557.429C307.24 560.083 313.074 561.836 319.268 562.462C321.574 562.685 323.914 562.77 326.29 562.675C326.802 562.653 327.326 562.622 327.838 562.579C338.877 561.793 349.112 557.057 356.774 549.602C370.142 536.582 372.831 517.605 382.077 502.334C390.565 488.327 404.434 477.399 420.689 471.951C424.741 470.603 428.898 469.594 433.136 468.935C436.676 468.383 440.263 468.065 443.861 468.011C450.114 467.905 456.204 468.542 462.026 469.827C465.1 470.507 468.011 471.388 470.724 472.461C470.724 472.461 470.782 472.482 470.805 472.493C486.525 478.62 498.518 494.019 497.983 507.304Z" fill="#7ECBF3"/>
<path d="M594.983 507.304C594.354 523.127 581.534 536.136 564.335 535.818C558.082 535.701 552.272 533.768 547.498 530.572C543.038 551.821 528.658 569.938 508.839 580.643C497.09 586.994 483.432 590.732 468.795 590.987C439.708 591.486 413.893 578.052 399 557.429C404.24 560.083 410.074 561.836 416.268 562.462C418.574 562.685 420.914 562.77 423.29 562.675C423.802 562.653 424.326 562.622 424.838 562.579C435.877 561.793 446.112 557.057 453.774 549.602C467.142 536.582 469.831 517.605 479.077 502.334C487.565 488.327 501.434 477.399 517.689 471.951C521.741 470.603 525.898 469.594 530.136 468.935C533.676 468.383 537.263 468.065 540.861 468.011C547.114 467.905 553.204 468.542 559.026 469.827C562.1 470.507 565.011 471.388 567.724 472.461C567.724 472.461 567.782 472.482 567.805 472.493C583.525 478.62 595.518 494.019 594.983 507.304Z" fill="#7ECBF3"/>
<path d="M696.983 507.304C696.354 523.127 683.534 536.136 666.335 535.818C660.082 535.701 654.272 533.768 649.498 530.572C645.038 551.821 630.658 569.938 610.839 580.643C599.09 586.994 585.432 590.732 570.795 590.987C541.708 591.486 515.893 578.052 501 557.429C506.24 560.083 512.074 561.836 518.268 562.462C520.574 562.685 522.914 562.77 525.29 562.675C525.802 562.653 526.326 562.622 526.838 562.579C537.877 561.793 548.112 557.057 555.774 549.602C569.142 536.582 571.831 517.605 581.077 502.334C589.565 488.327 603.434 477.399 619.689 471.951C623.741 470.603 627.898 469.594 632.136 468.935C635.676 468.383 639.263 468.065 642.861 468.011C649.114 467.905 655.204 468.542 661.026 469.827C664.1 470.507 667.011 471.388 669.724 472.461C669.724 472.461 669.782 472.482 669.805 472.493C685.525 478.62 697.518 494.019 696.983 507.304Z" fill="#7ECBF3"/>
<path d="M585.999 566.752C571.375 559.579 572.607 556.527 585.255 552.352C586.382 551.981 586.01 550.445 584.813 550.54C576.989 551.187 577.466 549.491 586.08 544.289C587.033 543.706 586.382 542.35 585.266 542.604C576.606 544.532 576.978 542.032 582.453 535.664C583.127 534.88 582.139 533.788 581.174 534.254C576.455 536.533 575.211 535.526 577.175 530.609C577.536 529.709 576.35 528.967 575.548 529.582C569.875 533.926 570.956 526.106 573.281 517.587C573.583 516.506 571.933 515.934 571.375 516.93C566.806 525.1 562.144 531.764 561.517 521.116C561.458 520.194 560.122 519.886 559.61 520.681C555.111 527.59 554.414 512.724 552.856 502.615C552.682 501.481 550.868 501.566 550.81 502.71C550.287 513.561 550.88 530.08 543.719 520.035C543.172 519.261 541.847 519.59 541.824 520.512C541.708 527.198 534.151 520.406 527.49 513.561C526.688 512.734 525.247 513.645 525.816 514.62C531.443 524.273 537.116 533.587 525.526 527.229C524.607 526.721 523.549 527.674 524.107 528.511C529.292 536.289 528.327 537.921 521.155 534.89C520.108 534.445 519.178 535.674 520.004 536.405C527.734 543.261 528.525 545.931 518.283 544.395C517.132 544.225 516.621 545.666 517.655 546.154C528.316 551.187 529.153 552.988 520.852 553.052C519.643 553.052 519.434 554.63 520.608 554.895C533.872 557.862 536.035 560.426 524.282 566.922C523.259 567.483 523.945 568.914 525.095 568.628C545.253 563.51 549.264 565.311 547.706 582.805C547.613 583.917 549.334 584.225 549.706 583.165C556.146 565.004 561.703 563.118 585.255 568.479C586.429 568.744 587.057 567.271 585.987 566.742L585.999 566.752ZM557.425 557.926C555.704 561.666 550.996 563.436 546.881 561.867C542.777 560.299 540.836 556.008 542.556 552.257C543.556 550.085 545.555 548.58 547.869 548.008C545.846 548.612 544.114 549.968 543.23 551.897C541.626 555.404 543.44 559.441 547.288 560.903C551.135 562.365 555.565 560.712 557.169 557.205C558.157 555.054 557.843 552.702 556.576 550.869C558.11 552.861 558.529 555.51 557.413 557.915L557.425 557.926ZM564.818 561.052C569.003 557.777 571.665 552.924 571.665 547.499C571.665 537.624 562.888 529.624 552.054 529.624C541.219 529.624 532.442 537.624 532.442 547.499C532.442 553.56 534.593 557.64 539.65 560.871C533.791 557.491 531.059 552.808 531.059 546.026C531.059 535.505 540.417 526.975 551.961 526.975C563.504 526.975 572.863 535.505 572.863 546.026C572.863 552.13 569.701 557.565 564.806 561.052H564.818Z" fill="#404596"/>
<path d="M550.194 561.529C554.399 561.529 557.808 558.421 557.808 554.588C557.808 550.755 554.399 547.648 550.194 547.648C545.989 547.648 542.58 550.755 542.58 554.588C542.58 558.421 545.989 561.529 550.194 561.529Z" fill="#7ECBF3"/>
<path d="M123.905 502.997C111.048 496.692 112.14 494.011 123.242 490.334C124.23 490.006 123.905 488.65 122.859 488.745C115.988 489.317 116.395 487.823 123.975 483.246C124.823 482.737 124.242 481.54 123.254 481.762C115.64 483.458 115.965 481.254 120.778 475.67C121.371 474.981 120.51 474.017 119.65 474.43C115.5 476.433 114.407 475.543 116.139 471.23C116.453 470.446 115.407 469.789 114.71 470.329C109.722 474.144 110.664 467.278 112.722 459.786C112.977 458.833 111.536 458.335 111.048 459.204C107.025 466.388 102.945 472.247 102.387 462.88C102.341 462.065 101.166 461.8 100.713 462.499C96.7606 468.57 96.1445 455.495 94.7843 446.626C94.6332 445.63 93.029 445.704 92.9825 446.711C92.5291 456.247 93.0406 470.764 86.7515 461.937C86.2632 461.259 85.1007 461.545 85.0891 462.361C84.9845 468.231 78.3466 462.266 72.4876 456.247C71.7785 455.516 70.5113 456.322 71.0112 457.18C75.9635 465.667 80.9506 473.847 70.7555 468.263C69.9533 467.818 69.0233 468.655 69.5116 469.386C74.0686 476.221 73.22 477.662 66.9076 475.002C65.9892 474.61 65.1638 475.691 65.8962 476.337C72.6852 482.366 73.3827 484.708 64.385 483.362C63.3736 483.214 62.9202 484.475 63.827 484.909C73.1967 489.328 73.9407 490.917 66.6402 490.97C65.5707 490.97 65.3963 492.358 66.431 492.591C78.0908 495.198 79.9857 497.455 69.6627 503.166C68.7676 503.664 69.3605 504.914 70.3718 504.66C88.0883 500.157 91.6223 501.746 90.2506 517.121C90.1692 518.096 91.6805 518.371 92.006 517.439C97.6673 501.471 102.55 499.818 123.254 504.533C124.289 504.766 124.835 503.473 123.893 503.007L123.905 502.997ZM98.7833 495.24C97.2721 498.525 93.1336 500.083 89.5182 498.705C85.9145 497.328 84.2056 493.556 85.7168 490.26C86.5887 488.353 88.3557 487.028 90.3901 486.52C88.6115 487.05 87.0886 488.247 86.3097 489.942C84.8915 493.026 86.4957 496.575 89.8786 497.857C93.2615 499.15 97.1558 497.688 98.5625 494.605C99.4343 492.708 99.1553 490.642 98.0393 489.031C99.3878 490.779 99.7482 493.111 98.7833 495.23V495.24ZM105.282 497.985C108.955 495.103 111.303 490.843 111.303 486.075C111.303 477.397 103.584 470.361 94.0636 470.361C84.5427 470.361 76.8237 477.397 76.8237 486.075C76.8237 491.405 78.7186 494.986 83.1593 497.826C78.0095 494.859 75.6147 490.737 75.6147 484.782C75.6147 475.532 83.8452 468.03 93.9938 468.03C104.142 468.03 112.373 475.532 112.373 484.782C112.373 490.154 109.595 494.922 105.293 497.995L105.282 497.985Z" fill="#404596"/>
<path d="M92.4243 498.419C96.1224 498.419 99.1203 495.686 99.1203 492.316C99.1203 488.945 96.1224 486.212 92.4243 486.212C88.7262 486.212 85.7283 488.945 85.7283 492.316C85.7283 495.686 88.7262 498.419 92.4243 498.419Z" fill="#7ECBF3"/>
</svg>
