<svg width="258" height="373" viewBox="0 0 258 373" fill="none" xmlns="http://www.w3.org/2000/svg">
<g clip-path="url(#clip0_22_137)">
<path d="M185.98 12.97C189.44 6.7 195.6 2.38 202.64 1.05L203.55 0.88C209.89 -0.33 216.49 -0.309999 223.08 1.09L225.62 1.63C227.13 1.95 227.08 4.1 225.56 4.36C219.41 5.44 213.39 7.61 207.78 10.75C196.67 16.96 187.13 26.98 181.19 39.93C180.68 41.03 180.21 42.14 179.77 43.25C179.15 44.81 176.79 44.25 176.95 42.58C176.95 42.54 176.95 42.51 176.96 42.47C178.03 31.61 181.22 21.59 185.97 12.98L185.98 12.97Z" fill="#404596"/>
<path d="M255.23 95.16C247.25 93.46 239.71 89.73 233.18 84.39C229.17 81.12 225.54 77.23 222.43 72.83C221.31 71.25 220.27 69.6 219.3 67.89C218.9 67.18 218.01 66.89 217.3 67.27C215.93 68 214.34 68.38 212.63 68.29C208.66 68.06 205.25 65.05 204.54 61.13C203.69 56.42 206.67 52.1 211.03 51.01C211.8 50.82 212.34 50.08 212.22 49.3L212.2 49.18C209.63 36.9 210.75 24.81 214.75 14.29C215.58 12.11 213.28 10.06 211.19 11.08C210.26 11.54 209.34 12.02 208.43 12.53C197.32 18.74 187.78 28.76 181.84 41.71C180.71 44.17 179.75 46.66 178.96 49.17C178.06 52.01 177.68 54.99 177.88 57.96V58.01V58.07C178.08 61.09 175.63 63.6 172.6 63.51C167.38 63.36 162.11 63.46 156.78 63.81C74.5901 69.25 11.9401 133.73 16.8601 207.79C17.0501 210.64 17.3401 213.46 17.7201 216.25C18.3701 221.02 19.2901 225.71 20.4901 230.31C23.3201 241.29 30.6601 252.97 37.5701 263.2C40.2901 267.22 37.6301 272.67 32.7901 273H32.7201C21.8301 273.73 11.0601 266.77 5.29006 257.41C3.80006 254.99 0.0100579 256.01 5.79416e-05 258.86C-0.0599421 274.17 8.82006 292.25 24.8201 306.27C24.8601 306.31 24.9101 306.35 24.9601 306.39C31.5601 312.14 39.7501 315.68 48.4001 317.03C55.9001 318.19 63.5201 320.85 70.7801 324.98C71.0501 325.13 71.3201 325.31 71.5801 325.46C78.9901 328.68 87.3801 334.61 95.1301 342.59C104.25 351.99 110.51 362.2 112.9 370.53C113.42 372.35 115.56 373.16 117.1 372.06C121.84 368.67 124.6 362.89 124.2 356.83V356.76C128.26 360.81 134.27 363.18 140.81 362.74C146.96 362.33 152.33 359.52 155.84 355.4C156.83 354.24 155.86 352.51 154.34 352.7C148.62 353.43 142.23 351.15 137.53 346.13C136.01 344.51 134.79 342.72 133.87 340.86C132.75 338.58 130.89 336.75 128.59 335.66C125.17 334.04 120.89 331.76 118.35 330.38C117.63 330 116.9 329.6 116.14 329.17C116.14 329.17 117.01 329.65 118.35 330.38C122.58 332.62 126 333.89 128.72 334.57C133.29 335.71 138.18 334.36 141.42 330.94C141.43 330.93 141.45 330.91 141.46 330.9C142.86 329.42 144.1 327.79 145.16 326.04C146.83 323.3 148.05 320.28 148.72 317.08C149.28 314.52 149.49 311.85 149.31 309.1C149.04 305.1 147.99 301.36 146.28 298C145.37 296.21 144.04 294.64 142.37 293.53C142.37 293.52 142.36 293.53 142.35 293.51C137.84 290.49 133.56 287.17 129.53 283.57C125.57 280.03 121.86 276.21 118.41 272.16C118.77 272.81 119.15 273.44 119.55 274.07C118.43 272.33 115.85 270.78 114.36 269.33C110.03 265.14 105.96 260.67 102.17 255.99C91.4701 242.74 82.5801 227.21 80.0501 210.16C77.9601 196.12 78.0201 178.62 84.9701 165.88C84.9801 165.86 84.9901 165.84 85.0101 165.81C85.8701 164.24 88.2801 165.26 87.7801 166.99C86.9601 169.76 86.2801 172.6 86.0801 173.35C84.8801 177.77 84.0401 182.28 83.5501 186.83C82.5701 195.93 83.0101 205.19 84.8701 214.15C88.3901 231.07 97.6701 246.39 108.54 259.63C108.8 259.94 109.06 260.26 109.32 260.57C110.98 262.55 114.16 261.15 113.87 258.59C112.27 244.22 116.19 228.71 120.4 217C123.53 208.32 125.38 199.26 125.88 190.12C125.98 188.33 125.2 186.55 123.71 185.55C121.54 184.09 118.71 184.55 117.1 186.48C110.43 194.47 101.93 198.23 95.6601 195.14C92.8301 193.75 91.1101 190.77 91.3701 187.63C92.0201 179.99 93.4301 172.53 95.5201 165.36C96.7701 161.06 98.2701 156.85 100 152.77C111.34 125.97 132.58 104.09 159.47 91.97C172.16 86.25 187.11 87.71 198.11 96.23C207.7 103.66 219.87 107.74 232.85 106.88C241.31 106.32 249.15 103.72 255.95 99.59C257.82 98.45 257.35 95.62 255.21 95.17L255.23 95.16Z" fill="#404596"/>
<path d="M119.25 330.53C120.664 330.53 121.81 329.384 121.81 327.97C121.81 326.556 120.664 325.41 119.25 325.41C117.836 325.41 116.69 326.556 116.69 327.97C116.69 329.384 117.836 330.53 119.25 330.53Z" fill="#7ECBF3"/>
<path d="M162.94 79.46C166.43 78.79 169.48 78.42 171.97 78.31C174.46 78.2 178.79 76.22 178.73 75.14C178.73 75.11 178.73 75.08 178.72 75.05C178.65 74.78 178.3 74.61 177.62 74.58C175.82 74.51 172.37 75.31 169.74 75.95C167 76.62 164.16 77.46 161.31 78.39C155.28 80.35 148.85 82.79 143.15 85.36C143.23 85.32 143.32 85.29 143.42 85.25C149.13 82.89 156.18 80.75 162.95 79.45L162.94 79.46Z" fill="#7ECBF3"/>
</g>
<defs>
<clipPath id="clip0_22_137">
<rect width="257.14" height="372.56" fill="white"/>
</clipPath>
</defs>
</svg>
