<svg width="303" height="403" viewBox="0 0 303 403" fill="none" xmlns="http://www.w3.org/2000/svg">
<g clip-path="url(#clip0_22_143)">
<path d="M116.594 380.47C113.957 387.128 108.394 392.194 101.58 394.406L100.699 394.69C94.5633 396.694 88.0141 397.511 81.2997 396.957L78.7118 396.744C77.1734 396.618 76.9504 394.479 78.4252 394.028C84.3887 392.177 90.085 389.261 95.2517 385.436C105.485 377.867 113.677 366.719 117.928 353.12C118.294 351.964 118.62 350.804 118.916 349.647C119.333 348.021 121.745 348.277 121.798 349.954C121.803 349.994 121.807 350.023 121.802 350.064C122.117 360.972 120.223 371.316 116.603 380.459L116.594 380.47Z" fill="#404596"/>
<path d="M37.4836 307.722C45.6147 308.397 53.5668 311.141 60.721 315.61C65.1132 318.345 69.2071 321.743 72.8498 325.714C74.1611 327.139 75.4019 328.644 76.5808 330.217C77.0676 330.871 77.9872 331.045 78.6433 330.578C79.9097 329.681 81.4387 329.102 83.1463 328.975C87.1134 328.7 90.8775 331.253 92.0787 335.051C93.519 339.616 91.1107 344.278 86.924 345.912C86.1843 346.198 85.7425 347.001 85.9604 347.759L85.9955 347.876C90.1015 359.731 90.5233 371.866 87.8892 382.808C87.3423 385.075 89.8836 386.817 91.8274 385.541C92.6916 384.966 93.5433 384.374 94.3813 383.752C104.614 376.184 112.807 365.035 117.058 351.437C117.867 348.853 118.503 346.262 118.969 343.672C119.501 340.741 119.5 337.737 118.925 334.816L118.919 334.766L118.912 334.707C118.33 331.737 120.442 328.936 123.459 328.641C128.656 328.128 133.871 327.361 139.114 326.338C219.938 310.504 273.91 238.612 259.639 165.763C259.09 162.96 258.444 160.2 257.714 157.48C256.464 152.831 254.957 148.296 253.184 143.885C248.985 133.352 240.223 122.697 232.072 113.426C228.864 109.783 230.812 104.04 235.571 103.099L235.64 103.09C246.35 100.985 257.915 106.524 264.825 115.077C266.61 117.288 270.24 115.796 269.889 112.968C268.008 97.7736 256.907 80.9652 239.259 69.0868C239.214 69.0521 239.159 69.0188 239.105 68.9855C231.829 64.1186 223.256 61.6454 214.505 61.4029C206.918 61.2031 199.023 59.5305 191.298 56.3542C191.011 56.2397 190.72 56.0954 190.443 55.9795C182.685 53.7249 173.611 48.9064 164.912 41.9733C154.674 33.8053 147.17 24.4713 143.743 16.5115C142.996 14.7721 140.771 14.2399 139.383 15.5263C135.111 19.4898 133.106 25.5731 134.271 31.5335L134.28 31.6029C129.739 28.1003 123.477 26.5113 117.046 27.7769C110.997 28.9633 106.027 32.4314 103.068 36.9631C102.233 38.2392 103.414 39.8323 104.898 39.4511C110.479 38.0019 117.107 39.4534 122.405 43.8371C124.118 45.2513 125.555 46.8722 126.704 48.6006C128.104 50.7202 130.181 52.2996 132.6 53.0892C136.198 54.2626 140.732 55.9816 143.427 57.0285C144.189 57.3141 144.964 57.6183 145.773 57.9485C145.773 57.9485 144.849 57.5827 143.427 57.0285C138.947 55.3428 135.394 54.5166 132.609 54.1869C127.932 53.6355 123.252 55.5945 120.472 59.3977C120.463 59.4088 120.446 59.4312 120.437 59.4424C119.236 61.0879 118.213 62.862 117.383 64.7323C116.074 67.6619 115.247 70.8122 114.988 74.0713C114.757 76.6816 114.887 79.3567 115.414 82.0617C116.189 85.9952 117.705 89.5719 119.827 92.688C120.957 94.3482 122.475 95.7369 124.272 96.6263C124.274 96.6362 124.282 96.625 124.295 96.6436C129.151 99.0674 133.818 101.818 138.271 104.878C142.648 107.888 146.813 111.206 150.748 114.786C150.309 114.187 149.852 113.61 149.375 113.036C150.707 114.62 153.463 115.831 155.124 117.08C159.951 120.687 164.554 124.605 168.907 128.767C181.201 140.554 191.988 154.831 196.659 171.423C200.512 185.085 202.671 202.451 197.392 215.97C197.385 215.991 197.377 216.012 197.361 216.044C196.707 217.71 194.187 217.004 194.464 215.225C194.926 212.373 195.241 209.47 195.344 208.7C195.974 204.164 196.235 199.584 196.145 195.009C195.963 185.858 194.353 176.728 191.372 168.076C185.735 151.739 174.588 137.719 162.127 125.964C161.83 125.689 161.531 125.405 161.234 125.13C159.337 123.377 156.36 125.169 156.972 127.671C160.381 141.722 158.459 157.604 155.767 169.754C153.763 178.76 153.076 187.982 153.739 197.111C153.867 198.9 154.866 200.566 156.471 201.369C158.808 202.543 161.557 201.727 162.91 199.609C168.513 190.838 176.468 186.031 183.079 188.301C186.062 189.321 188.146 192.059 188.286 195.206C188.61 202.867 188.157 210.446 186.993 217.823C186.298 222.247 185.344 226.613 184.145 230.879C176.294 258.901 157.999 283.297 132.863 298.728C121 306.01 105.986 306.457 93.9946 299.401C83.5401 293.246 70.951 290.742 58.1848 293.241C49.864 294.869 42.4169 298.442 36.1953 303.4C34.485 304.768 35.3099 307.516 37.4897 307.691L37.4836 307.722Z" fill="#404596"/>
<path d="M143.177 62.091C144.579 61.9118 145.571 60.6296 145.392 59.2271C145.212 57.8247 143.93 56.8331 142.528 57.0123C141.125 57.1916 140.134 58.4738 140.313 59.8762C140.492 61.2787 141.774 62.2703 143.177 62.091Z" fill="#7ECBF3"/>
<path d="M131.019 311.595C127.642 312.702 124.664 313.456 122.208 313.881C119.752 314.306 115.708 316.819 115.904 317.882C115.908 317.912 115.912 317.942 115.926 317.97C116.029 318.229 116.398 318.354 117.076 318.297C118.871 318.138 122.192 316.907 124.719 315.939C127.352 314.927 130.063 313.734 132.772 312.45C138.505 309.741 144.573 306.506 149.902 303.234C149.827 303.284 149.742 303.325 149.648 303.377C144.283 306.442 137.561 309.459 131.011 311.607L131.019 311.595Z" fill="#7ECBF3"/>
</g>
<defs>
<clipPath id="clip0_22_143">
<rect width="257.14" height="372.56" fill="white" transform="translate(0.421875 32.8023) rotate(-7.28322)"/>
</clipPath>
</defs>
</svg>
