<svg width="607" height="491" viewBox="0 0 607 491" fill="none" xmlns="http://www.w3.org/2000/svg">
<g clip-path="url(#clip0_49_99)">
<path d="M585.211 12.4389V232.992L323.239 282.62V0L585.211 12.4389Z" fill="#7ECBF3"/>
<path d="M606.236 131.268C609.605 146.661 601.559 162.088 586.381 165.678C580.858 166.987 575.278 166.431 570.288 164.427C571.643 185.923 563.492 206.62 548.731 221.421C539.979 230.2 528.911 236.895 516.118 240.439C496.193 245.963 475.921 242.801 459.331 233.235C455.603 231.081 456.946 225.463 461.23 225.023C461.786 224.965 462.353 224.896 462.908 224.815C464.981 224.514 467.065 224.062 469.126 223.437C469.577 223.298 470.017 223.159 470.457 222.997C479.95 219.742 487.777 212.862 492.651 203.944C501.172 188.378 498.821 169.477 503.163 152.672C507.157 137.245 516.616 123.59 529.548 114.66C532.766 112.436 536.182 110.525 539.736 108.939C542.711 107.607 545.779 106.495 548.928 105.626C554.393 104.109 559.903 103.345 565.333 103.264C568.204 103.229 570.983 103.414 573.634 103.831C573.634 103.831 573.68 103.831 573.715 103.843C589.044 106.194 603.4 118.32 606.224 131.245L606.236 131.268Z" fill="#404596"/>
<path d="M560.007 144.97C554.983 138.762 548.754 133.342 541.866 128.906C534.838 124.377 538.914 116.791 548.546 116.919C548.824 116.919 549.102 116.93 549.391 116.942C551.95 117.081 554.555 117.695 556.928 118.911C563.191 122.107 566.942 128.257 569.478 132.925C572.117 137.789 573.669 142.85 574.421 147.9C576.019 158.602 574.688 170.01 569.987 180.121C570.057 179.982 570.091 179.819 570.115 179.646C572.939 169.512 569.756 156.992 560.019 144.958L560.007 144.97Z" fill="#7ECBF3"/>
<path d="M343.592 186.189C343.199 180.259 341.74 174.283 339.459 168.62C337.132 162.84 342.863 159.991 348.663 164.195C348.837 164.323 348.999 164.439 349.161 164.578C350.654 165.759 351.974 167.253 352.901 169.013C355.332 173.646 354.984 178.997 354.51 182.923C354.024 187.012 352.796 190.753 351.094 194.158C347.471 201.35 341.763 207.72 334.562 211.843C334.666 211.785 334.759 211.704 334.84 211.611C340.906 206.666 344.345 197.679 343.592 186.178V186.189Z" fill="#404596"/>
<path d="M506.543 223.309C512.297 215.897 516.835 207.303 520.077 198.223C523.377 188.957 533.148 191.598 535.579 202.659C535.649 202.983 535.718 203.307 535.776 203.632C536.309 206.608 536.297 209.747 535.544 212.793C533.553 220.819 527.533 226.761 522.867 230.918C518.005 235.25 512.633 238.377 507.053 240.601C495.232 245.303 481.814 246.832 468.986 244.145C469.16 244.18 469.357 244.18 469.554 244.156C481.907 244.678 495.383 237.682 506.555 223.298L506.543 223.309Z" fill="#7ECBF3"/>
<path d="M404.709 121.806C406.434 116.015 407.152 110.247 406.978 104.85C406.793 99.3372 413.299 96.1407 417.351 99.8584C417.467 99.9627 417.583 100.078 417.699 100.194C418.717 101.248 419.447 102.626 419.701 104.283C420.384 108.661 418.15 113.942 416.321 117.833C414.411 121.887 411.91 125.651 409.062 129.103C403.053 136.422 395.331 143.07 386.984 147.633C387.1 147.576 387.215 147.483 387.331 147.39C394.891 142.109 401.363 133.04 404.72 121.794L404.709 121.806Z" fill="#404596"/>
<path d="M396.813 230.119C400.437 222.765 402.706 215.213 403.69 207.952C404.698 200.551 414.11 197.736 418.695 203.643C418.833 203.817 418.961 203.991 419.077 204.176C420.188 205.821 420.859 207.824 420.825 210.106C420.744 216.117 416.564 222.672 413.218 227.455C409.745 232.447 405.543 236.906 400.958 240.879C391.256 249.299 379.424 256.445 367.222 260.637C367.395 260.579 367.569 260.487 367.743 260.383C379.042 255.032 389.763 244.388 396.802 230.108L396.813 230.119Z" fill="#404596"/>
<path d="M429.137 123.161C431.001 120.358 432.321 117.405 433.108 114.498C433.907 111.533 437.889 110.884 439.441 113.537C439.487 113.618 439.533 113.687 439.568 113.768C439.939 114.498 440.101 115.343 439.973 116.27C439.626 118.714 437.577 121.157 435.968 122.941C434.289 124.794 432.344 126.381 430.272 127.759C425.872 130.678 420.686 132.959 415.487 134.025C415.557 134.013 415.638 133.979 415.719 133.944C420.604 132.357 425.525 128.593 429.149 123.15L429.137 123.161Z" fill="#404596"/>
<path d="M492.257 192.42C488.216 210.013 472.355 222.07 454.874 218.352C449.884 217.298 445.427 215.04 441.71 211.947C440.228 210.708 437.982 211.287 437.183 213.048C427.609 234.069 409.896 250.052 388.663 257.696C388.605 257.719 388.559 257.73 388.501 257.753C386.926 258.321 385.919 256.039 387.412 255.252C388.13 254.87 388.848 254.487 389.566 254.082C396.709 250.109 403.436 245.164 409.305 239.002C414.943 233.096 422.121 224.815 423.58 215.271C424.136 211.658 423.673 208.114 422.515 204.917C422.388 204.57 422.26 204.222 422.11 203.875C417.189 192.108 403.702 191.737 400.668 203.029C397.693 214.09 392.9 224.942 386.301 234.798C379.852 244.423 371.135 254.997 360.229 259.595C348.408 264.575 335.164 263.961 323.239 259.63V219.8C328.877 218.294 334.261 215.711 339.1 212.191C355.528 200.227 362.336 179.507 375.036 164.219C386.706 150.193 403.181 140.673 420.94 137.754C425.351 137.024 429.82 136.712 434.289 136.804C438.017 136.874 441.745 137.233 445.426 137.858C451.829 138.97 457.907 140.87 463.568 143.441C466.555 144.807 469.345 146.348 471.881 148.097C471.904 148.108 471.939 148.131 471.962 148.143C486.7 158.069 495.649 177.654 492.257 192.42Z" fill="#404596"/>
<path d="M329.26 62.1249C352.785 65.8542 372.478 63.0746 350.944 85.0221C350.377 85.6012 351.06 86.3772 351.893 86.0877C370.787 79.4165 377.468 81.5476 371.216 103.148C370.984 103.924 372.2 104.236 372.651 103.507C384.101 85.0221 388.894 87.3501 395.632 98.7813C395.98 99.372 396.999 99.0246 396.952 98.3412C396.003 83.4818 398.562 76.9959 413.705 89.5506C414.226 89.9791 415.036 89.3769 414.735 88.7862C406.77 73.0002 413.983 76.4284 424.842 77.4244C425.467 77.4824 425.803 76.6948 425.294 76.3358C412.524 67.3946 423.279 65.6457 435.597 63.2135C436.246 63.0861 436.223 62.148 435.574 62.0669C418.347 59.8664 419.03 53.3111 425.213 46.1419C425.56 45.7481 425.213 45.1227 424.68 45.1575C414.77 45.7366 411.216 42.8759 418.996 25.8969C419.273 25.2831 418.394 24.6924 417.93 25.1788C403.864 39.7024 397.577 39.8877 396.732 25.6537C396.698 25.0051 395.76 24.7387 395.412 25.2831C388.732 35.8341 382.237 37.7914 371.552 17.7549C371.158 17.0021 369.908 17.2453 370.07 18.0444C376.31 47.1959 371.251 44.5321 354.255 37.0386C353.456 36.6796 352.681 37.444 353.225 38.0462C365.821 52.2224 366.886 59.8664 329.433 60.654C328.322 60.6771 328.183 61.9395 329.271 62.1133L329.26 62.1249Z" fill="#E62841"/>
<path d="M405.693 401.438C408.761 401.889 409.548 410.981 407.765 420.142L393.931 491.011L391.001 490.583L398.295 418.752C399.233 409.464 402.625 400.997 405.693 401.449V401.438Z" fill="#DC5F68"/>
<path d="M438.052 338.097C438.052 338.097 437.994 338.016 437.959 337.992C435.019 334.622 431.661 331.425 427.945 328.403C420.917 322.693 413.056 317.771 404.443 313.821C393.583 308.841 381.925 305.621 370.035 304.382C344.009 301.672 317.37 308.586 295.905 323.538C272.507 339.822 255.442 365.87 228.004 376.166C212.294 382.061 194.974 382.281 179.368 376.189C178.638 375.911 177.909 375.622 177.191 375.309C173.88 373.884 170.731 372.228 167.767 370.387C161.041 366.206 155.206 361.029 150.39 355.133C149.903 354.543 149.88 353.663 150.39 353.026C150.841 352.435 151.663 352.273 152.358 352.539C179.298 362.708 209.886 350.42 222.065 323.851C226.742 313.659 228.039 302.795 226.464 292.487C226.291 291.399 224.971 291.005 224.195 291.769C214.146 301.718 198.401 304.66 184.971 297.607C169.677 289.557 163.009 270.771 169.759 254.87C177.18 237.416 197.463 229.633 214.586 237.485C227.147 243.241 234.441 255.796 234.117 268.791C234.094 269.625 235.043 270.123 235.703 269.613C239.292 266.822 242.279 263.162 244.305 258.75C245.301 256.584 246.007 254.348 246.447 252.102C246.62 251.198 247.686 250.781 248.415 251.337C250.568 252.97 252.93 254.395 255.489 255.576C258.256 256.85 261.092 257.753 263.963 258.321C273.098 260.128 282.429 258.437 290.244 253.897C292.907 252.345 291.888 248.291 288.808 248.106C285.729 247.909 282.638 247.156 279.674 245.789C268.432 240.636 262.644 228.451 265.133 216.846C271.442 212.144 276.502 206.133 279.813 198.906L279.975 198.559C281.862 194.331 283.066 189.942 283.599 185.448C285.601 169.083 278.968 151.479 265.966 136.781C265.908 136.723 265.862 136.665 265.816 136.608C256.878 126.543 244.826 119.768 231.663 116.953C215.825 113.571 199.813 112.425 184.01 113.351C182.922 113.421 181.949 114.069 181.452 115.042C180.514 116.861 179.182 118.853 177.388 119.212C175.165 119.663 172.78 118.019 171.078 116.224C170.187 115.285 168.879 114.868 167.605 115.054C162.013 115.899 156.479 116.988 150.992 118.343C146.859 119.362 142.76 120.532 138.697 121.841C129.11 124.922 119.212 126.96 109.163 127.62C65.1341 130.573 25.8637 154.154 7.88411 193.382C4.2141 201.396 1.60919 209.666 0.0230988 218.051C-0.5905 221.259 3.07952 223.541 5.70757 221.595C10.7206 217.889 15.9883 214.6 21.4875 211.739C25.528 209.631 29.9158 213.916 27.9013 217.993C27.0909 219.649 26.2921 221.317 25.5164 223.008C15.9767 243.809 10.489 265.409 8.74084 286.905C4.17936 342.451 24.5208 397.187 64.069 435.175C78.1123 448.68 94.5868 460.053 113.238 468.601C132.178 477.287 152.601 482.649 173.371 484.294C199.86 486.413 226.719 482.487 251.587 473.141C289.132 459.011 312.878 432.79 334.539 399.978C341.798 388.976 349.971 378.436 360.171 370.028H360.067C374.423 357.01 397.786 359.106 397.786 359.106C393.491 359.801 389.67 360.693 386.313 361.689C371.204 366.125 361.537 381.274 364.605 396.724C367.256 410.043 375.743 422.065 388.628 428.574C411.875 440.329 438.55 429.686 450.579 406.927C460.697 387.806 455.186 357.369 438.04 338.073L438.052 338.097ZM252.374 188.529C255.084 188.656 257.376 190.289 258.487 192.583C258.001 192.351 257.457 192.212 256.89 192.189C254.516 192.073 252.49 193.926 252.374 196.312C252.259 198.709 254.088 200.736 256.473 200.852C256.704 200.852 256.936 200.852 257.156 200.829C255.767 202.253 253.81 203.099 251.68 202.995C247.709 202.798 244.652 199.416 244.838 195.42C245.034 191.424 248.403 188.344 252.374 188.54V188.529Z" fill="#414595"/>
<path d="M406.897 392.879C403.54 393.539 401.294 390.319 401.896 385.686L417.919 259.746C421.473 261.054 425.572 260.012 429.334 257.267L430.098 257.116L414.041 383.312C413.45 387.945 410.255 392.218 406.886 392.879H406.897Z" fill="#DC5F68"/>
<path d="M426.197 304.231C428.593 283.917 430.943 264.066 433.34 243.821C438.828 243.925 444.246 243.948 449.652 244.168C454.55 244.353 459.366 245.187 463.892 247.191C469.785 249.808 473.664 253.897 472.969 260.718C472.193 268.305 479.383 272.96 484.801 273.922C488.564 274.593 492.419 274.698 496.205 275.207C499.91 275.705 503.464 276.725 506.393 279.261C508.801 281.334 510.156 284.009 510.572 287.102C511.742 295.869 512.841 304.648 513.964 313.416C513.988 313.589 513.953 313.775 513.941 314.134C512.552 312.964 511.302 311.817 509.947 310.821C508.558 309.802 507.099 308.841 505.582 308.019C502.734 306.467 499.956 306.409 496.969 308.1C491.308 311.331 485.368 313.925 478.862 315.014C472.136 316.137 466.266 314.736 461.542 309.466C459.447 307.127 457.062 305.042 454.758 302.899C452.199 300.514 449.108 299.529 445.693 300.166C442.115 300.826 438.584 301.788 435.019 302.552C432.194 303.154 429.357 303.629 426.185 304.231H426.197Z" fill="#414595"/>
</g>
<defs>
<clipPath id="clip0_49_99">
<rect width="607" height="491" fill="white"/>
</clipPath>
</defs>
</svg>
