<svg width="294" height="322" viewBox="0 0 294 322" fill="none" xmlns="http://www.w3.org/2000/svg">
<g filter="url(#filter0_d_30_218)">
<path d="M242.025 290.577C199.537 326.941 144.151 331.234 101.6 306.271C110.256 302.607 118.143 297.166 124.869 290.153C126.497 288.431 125.21 285.328 122.926 285.492C99.0506 287.159 68.6007 277.412 68.6007 277.412C51.0475 270.276 34.7815 257.562 22.175 239.667C21.9857 239.394 21.7964 239.148 21.6198 238.861C15.0326 229.373 9.99756 219.175 6.47682 208.621C1.56799 194.158 -0.539401 179.01 0.116793 164.273C0.621558 152.435 2.88038 140.883 6.84278 130.069C11.1964 118.176 17.6195 107.226 26.0491 97.8884C28.6486 95.0176 31.4248 92.2834 34.3903 89.7543L34.9203 89.3169C37.2801 87.3209 39.7282 85.4891 42.2268 83.8076C42.9082 83.3428 43.5896 82.9053 44.2837 82.4542C49.0537 79.3919 54.0382 76.8765 59.1616 74.9079C62.695 73.5409 65.9633 71.5723 68.8026 69.0705C71.97 66.3227 74.6579 62.9461 76.6138 59.1046C78.7338 55.017 80.0841 50.3963 80.4374 45.4339C81.0305 37.3955 79.1377 29.3981 74.5569 22.8635L74.4938 22.7815C72.5883 20.0747 74.4938 16.1922 77.5098 16.7254C84.0843 17.8874 90.4822 21.2367 96.0473 26.5956C98.9749 29.3708 101.461 32.4604 103.581 35.7413C108.641 43.6567 111.493 52.8571 112.225 62.4266C112.225 62.4266 113.234 99.6793 94.6718 117.889C93.0187 119.351 91.4287 120.855 89.9396 122.455C86.7596 125.818 83.9582 129.536 81.5858 133.487C79.7308 136.549 78.1407 139.748 76.7779 143.056V143.084C74.9607 147.472 73.5979 152.038 72.6767 156.713C72.6767 156.741 72.6767 156.741 72.6767 156.741C71.6798 161.758 71.2002 166.898 71.2002 172.079C71.2002 175.442 71.44 178.819 71.869 182.168C72.2602 185.162 72.8029 188.156 73.56 191.123C74.1783 193.515 74.885 195.921 75.7305 198.272C76.2605 199.804 76.841 201.307 77.5224 202.797C79.5667 207.637 82.1284 212.312 85.2327 216.728C87.5546 220.036 90.091 223.071 92.8168 225.819C93.9651 226.995 95.1639 228.129 96.388 229.209H96.4132C99.4292 230.768 102.13 231.055 104.073 229.66C109.323 226.079 107.367 212.394 99.7068 199.134C95.2649 191.396 89.8639 185.504 85.0939 182.633C89.9775 180.282 94.6213 175.333 98.1042 168.648C99.997 165.053 101.574 160.965 102.685 156.467C106.206 142.072 103.985 128.005 97.7508 120.65C97.7508 120.65 122.32 122.988 123.532 154.69C120.894 158.409 118.938 162.606 117.689 166.98C114.231 178.969 115.998 192.476 123.481 203.139C135.608 220.364 158.184 223.427 173.869 209.988C189.58 196.55 193.341 176.017 180.343 154.444C169.024 135.62 136.504 141.307 136.504 141.307C136.504 141.307 112.641 118.299 110.849 103.999L124.049 109.7H124.062C129.021 111.997 134.927 113.828 141.362 114.854C151.975 116.535 161.805 116.768 168.317 114.088C171.8 113.541 174.639 110.739 176.519 107.786C181.277 100.349 177.365 88.0318 167.787 80.3215C161.048 74.8669 153.262 73.1581 147.634 75.236C147.811 72.0234 147.193 68.7698 145.868 65.8579C144.782 63.4656 143.243 61.2919 141.274 59.5694C141.274 59.5694 135.974 54.1011 127.671 54.771C121.904 52.2966 116.389 47.8809 112.048 41.7291C104.313 30.7379 102.369 17.1902 106.067 6.84145C106.584 5.36502 108.464 5.35135 109.045 6.80044C109.638 8.27688 110.357 9.65762 111.266 10.929C119.342 22.3987 137.589 21.6332 152.089 9.20649C152.669 8.71434 153.262 8.18118 153.805 7.67537C153.805 7.67537 157.124 4.87287 159.95 1.90633C162.209 -0.472378 165.705 -0.663768 168.266 1.55089C173.491 6.14425 183.826 11.8859 201.556 9.43889C204.647 9.02877 207.487 8.61865 210.048 8.2222C215.437 7.38828 218.831 14.9892 214.78 18.899C208.143 25.3653 199.461 28.6052 203.133 32.1049C211.449 40.0613 258.279 76.6715 264.02 88.9068V88.9341C265.85 91.1761 267.642 93.5275 269.333 95.9472C310.862 154.936 298.622 242.06 241.975 290.55L242.025 290.577Z" fill="#7ECBF3"/>
</g>
<path d="M159.724 26.903C162.54 25.4083 163.655 21.6132 162.214 18.4265C160.773 15.2398 157.322 13.8682 154.505 15.3629C151.689 16.8576 150.574 20.6527 152.015 23.8394C153.456 27.0261 156.907 28.3977 159.724 26.903Z" fill="#233E92"/>
<path d="M119.612 37.9711C120.619 37.4363 121.019 36.0794 120.504 34.9403C119.988 33.8013 118.754 33.3114 117.746 33.8462C116.739 34.3809 116.339 35.7379 116.855 36.8769C117.37 38.016 118.604 38.5059 119.612 37.9711Z" fill="#233E92"/>
<path d="M128.713 47.4545C129.721 46.9197 130.12 45.5628 129.605 44.4237C129.09 43.2847 127.856 42.7948 126.848 43.3296C125.84 43.8643 125.441 45.2213 125.956 46.3603C126.471 47.4994 127.706 47.9893 128.713 47.4545Z" fill="#233E92"/>
<path d="M133.328 35.6364C134.335 35.1016 134.735 33.7447 134.22 32.6056C133.705 31.4665 132.47 30.9767 131.462 31.5114C130.455 32.0462 130.056 33.4031 130.571 34.5422C131.086 35.6813 132.32 36.1712 133.328 35.6364Z" fill="#233E92"/>
<path d="M94.7601 93.9651C96.6782 109.536 88.5515 123.562 88.5515 123.562C88.5515 123.562 90.9996 90.4517 68.8152 69.057C71.9826 66.3092 74.6705 62.9325 76.6264 59.0911C76.904 59.0911 77.1943 59.0911 77.4845 59.1184C77.4845 59.1184 92.8293 78.3804 94.7601 93.9651Z" fill="#233E92"/>
<path d="M73.0427 114.198C76.7401 123.685 77.2953 134.266 76.7906 143.056V143.084C74.9734 147.472 73.6106 152.038 72.6894 156.713C69.3832 143.453 58.0638 109.755 26.0618 97.8883C28.6613 95.0175 31.4375 92.2833 34.403 89.7543L34.933 89.3168C37.2928 87.3209 39.7409 85.489 42.2395 83.8075C42.9209 83.3427 43.6023 82.9052 44.2964 82.4541C53.8238 89.1254 67.7932 100.691 73.0553 114.198H73.0427Z" fill="#233E92"/>
<path d="M71.2004 172.079C71.2004 175.442 71.4401 178.819 71.8692 182.168C72.2604 185.162 72.803 188.156 73.5602 191.123C74.1785 193.515 74.8852 195.921 75.7306 198.273C68.2475 186.625 40.7379 149.783 0.116943 164.26C0.621708 152.435 2.88053 140.869 6.84293 130.056C17.9982 129.509 42.8326 130.069 56.1963 144.369C63.0989 151.765 67.8942 162.141 71.2004 172.066V172.079Z" fill="#233E92"/>
<path d="M92.8168 225.819C77.0303 219.995 46.2523 213.543 21.6324 238.875C15.0453 229.387 10.0102 219.189 6.4895 208.635C17.3546 200.255 37.9111 187.104 55.439 191.205C63.2629 193.037 70.7965 197.507 77.5225 202.798C79.5668 207.637 82.1284 212.312 85.2327 216.728C87.5547 220.036 90.0911 223.071 92.8168 225.819Z" fill="#233E92"/>
<defs>
<filter id="filter0_d_30_218" x="-5" y="0" width="301.958" height="330.034" filterUnits="userSpaceOnUse" color-interpolation-filters="sRGB">
<feFlood flood-opacity="0" result="BackgroundImageFix"/>
<feColorMatrix in="SourceAlpha" type="matrix" values="0 0 0 0 0 0 0 0 0 0 0 0 0 0 0 0 0 0 127 0" result="hardAlpha"/>
<feOffset dx="-1" dy="4"/>
<feGaussianBlur stdDeviation="2"/>
<feComposite in2="hardAlpha" operator="out"/>
<feColorMatrix type="matrix" values="0 0 0 0 0 0 0 0 0 0 0 0 0 0 0 0 0 0 0.25 0"/>
<feBlend mode="normal" in2="BackgroundImageFix" result="effect1_dropShadow_30_218"/>
<feBlend mode="normal" in="SourceGraphic" in2="effect1_dropShadow_30_218" result="shape"/>
</filter>
</defs>
</svg>
