<svg width="91" height="95" viewBox="0 0 91 95" fill="none" xmlns="http://www.w3.org/2000/svg">
<g clip-path="url(#clip0_133_21)">
<path d="M45.69 62.6199C46.3 62.9299 47.05 62.67 47.35 62.06L55.66 45.34C54.83 45.27 54.1 44.86 53.59 44.27L53.45 44.2L45.13 60.95C44.82 61.56 45.08 62.31 45.69 62.61V62.6199Z" fill="#E84B4F"/>
<path d="M63.6 39.79C64.08 39.44 64.67 39.24 65.31 39.24C66.26 39.24 67.2 39.57 67.82 40.17C68.6 40.93 67.49 42.11 66.65 41.42C65.94 40.84 65.03 40.49 64.04 40.49C63.6 40.49 63.17 40.57 62.77 40.7C62.98 40.34 63.27 40.03 63.61 39.79H63.6Z" fill="#F6A640"/>
<path d="M32.6999 6.36996C32.1199 7.83996 32.3899 8.58996 33.8499 8.86996C34.2099 8.93996 34.3099 9.38996 34.0099 9.59996C32.4999 10.65 32.2499 11.41 33.6799 12.34C34.0199 12.56 33.8599 13.08 33.4599 13.08C31.0099 13.1 30.2199 13.51 31.2599 15.31C31.4799 15.69 31.0299 16.1 30.6699 15.84C27.3599 13.41 25.8899 13.76 21.5599 18.04C21.4399 18.16 21.2599 18.01 21.3399 17.87C24.6099 12.42 24.8399 10.74 22.5199 7.18996C22.2799 6.81996 22.7199 6.38996 23.0799 6.62996C24.8399 7.80996 25.3299 7.03996 25.5699 4.52996C25.6099 4.12996 26.1499 4.01996 26.3299 4.37996C27.0999 5.89996 27.8799 5.68996 29.0999 4.22996C29.3299 3.94996 29.7899 4.09996 29.8199 4.45996C29.9299 5.94996 30.6699 6.26996 32.2099 5.81996C32.5399 5.72996 32.8199 6.03996 32.6999 6.35996V6.36996Z" fill="#E62841"/>
<path d="M76.72 27.83C73 28.59 69.6 28.05 73.31 32.41C73.4 32.52 73.29 32.68 73.15 32.63C69.9 31.45 68.69 31.96 69.82 36.4C69.86 36.56 69.64 36.65 69.56 36.5C67.44 32.77 66.52 33.33 65.2 35.93C65.13 36.07 64.93 36.01 64.93 35.86C65.12 32.57 64.61 31.16 61.43 34.17C61.32 34.28 61.14 34.15 61.21 34.01C62.92 30.33 61.37 31.16 58.95 31.49C58.81 31.51 58.73 31.33 58.85 31.24C61.7 29.08 59.31 28.71 56.42 28.16C56.26 28.13 56.27 27.9 56.42 27.88C60.41 27.35 60.26 25.83 58.86 24.12C58.78 24.02 58.86 23.88 58.98 23.89C61.2 24.11 61.97 23.49 60.26 19.46C60.2 19.31 60.39 19.19 60.5 19.32C63.52 22.84 64.8 22.95 64.97 19.82C64.97 19.68 65.17 19.64 65.23 19.76C66.54 22.16 67.78 22.66 69.75 18.59C69.82 18.44 70.05 18.52 70.01 18.68C68.88 24.7 69.8 24.18 72.74 22.79C72.87 22.73 73 22.89 72.91 23C70.76 25.8 70.57 27.37 76.68 27.53C76.85 27.53 76.87 27.77 76.7 27.81L76.72 27.83Z" fill="#F6A640"/>
<path d="M51.45 2.4C52.61 8.75 54.33 9.24 61.6 6.51C61.76 6.45 61.89 6.67 61.75 6.77C56.4 11.05 57.07 13.1 61.75 15.8C61.88 15.88 61.8 16.08 61.66 16.05C58.92 15.51 57.7 15.59 57.21 16.42C56.65 17.39 56 18.32 55.13 19.04C55.01 19.14 54.89 19.26 54.76 19.38C54.21 19.91 53.58 20.35 52.88 20.66C52.24 20.95 51.55 21.16 50.86 21.26C49.03 21.53 47.12 21.05 45.62 19.89C45.2 19.56 44.81 19.19 44.47 18.75C42.88 16.77 41.95 13.88 42.8 11.66C42.83 11.58 42.86 11.51 42.89 11.44C43.28 10.48 44.14 9.83 45.14 9.62C45.35 9.57 45.56 9.55 45.77 9.55C47.21 9.52 47.73 8.35 46.59 6.74C46.53 6.65 46.64 6.53 46.73 6.6C49.43 8.48 50.76 7.23 51.24 2.41C51.25 2.28 51.44 2.27 51.46 2.41L51.45 2.4Z" fill="#404596"/>
<path d="M54.57 0.189985C55.29 -0.070015 56.05 -0.060015 56.73 0.169985C56.94 0.239985 57.14 0.329985 57.34 0.439985C58 0.819985 58.06 1.77999 57.43 2.20999C57.43 2.20999 57.43 2.20999 57.42 2.20999C57.1 2.41999 56.74 2.49998 56.37 2.48998C55.8 2.47998 55.31 2.45999 54.79 2.70999C54.25 2.96999 53.77 3.36998 53.41 3.84998C53.1 4.25998 52.93 4.66998 52.88 5.04998C52.81 4.93998 52.75 4.81998 52.69 4.69998C52.65 4.60998 52.61 4.50998 52.57 4.41998C51.96 2.68998 52.86 0.799985 54.59 0.189985H54.57Z" fill="#404596"/>
<path d="M45.4501 10.38C46.1701 10.12 46.9301 10.13 47.6101 10.36C47.8201 10.43 48.0201 10.52 48.2201 10.63C48.8801 11.01 48.9401 11.97 48.3101 12.4C48.3101 12.4 48.3101 12.4 48.3001 12.4C47.9801 12.61 47.6201 12.69 47.2501 12.68C46.6801 12.67 46.1901 12.65 45.6701 12.9C45.1301 13.16 44.6501 13.56 44.2901 14.04C43.9801 14.45 43.8101 14.86 43.7601 15.24C43.6901 15.13 43.6301 15.01 43.5701 14.89C43.5301 14.8 43.4901 14.7 43.4501 14.61C42.8401 12.88 43.7401 10.99 45.4701 10.38H45.4501Z" fill="#7ECBF3"/>
<path d="M42.6899 9.95998C42.6899 9.95998 42.6999 9.95998 42.7099 9.95998C42.9099 9.86998 43.0799 10.15 42.9099 10.29C42.5599 10.59 42.2799 10.96 42.0999 11.41C42.0699 11.48 42.0399 11.55 42.0099 11.63C41.1699 13.84 42.0899 16.73 43.6799 18.72C43.6799 18.72 43.6799 18.72 43.6899 18.73C44.0299 19.15 43.6399 19.77 43.1199 19.62C41.7199 19.23 40.5399 18.33 39.9099 16.85C38.7799 14.19 40.0199 11.11 42.6799 9.96998L42.6899 9.95998Z" fill="#404596"/>
<path d="M70.91 28.59C70.91 28.59 70.91 28.6 70.91 28.61C70.89 28.83 70.58 28.85 70.53 28.63C70.42 28.19 70.22 27.76 69.91 27.4C69.86 27.34 69.81 27.29 69.76 27.22C68.18 25.46 65.19 24.96 62.69 25.46C62.69 25.46 62.68 25.46 62.67 25.46C62.14 25.57 61.77 24.94 62.14 24.55C63.13 23.48 64.47 22.85 66.07 22.97C68.96 23.18 71.13 25.69 70.92 28.58L70.91 28.59Z" fill="#7ECBF3"/>
<path d="M30.78 16.94C30.97 17.23 30.76 17.62 30.41 17.62C30.26 17.62 30.13 17.55 30.05 17.43C29.64 16.84 29.07 16.33 28.36 15.98C27.46 15.53 26.28 15.28 25.33 15.4C25.29 15.4 25.25 15.38 25.24 15.34C25.24 15.34 25.24 15.27 25.28 15.25C26.08 14.86 27.01 14.74 27.92 14.95C29.06 15.21 30.16 15.96 30.77 16.94H30.78Z" fill="#E62841"/>
<path d="M22.1601 7.89995C21.8901 7.67995 21.4901 7.82995 21.4401 8.16995C21.4201 8.30995 21.4701 8.45995 21.5801 8.55995C22.1101 9.04995 22.5401 9.67995 22.7901 10.4299C23.1101 11.3799 23.2101 12.5799 22.9601 13.5099C22.9501 13.5499 22.9601 13.5899 23.0101 13.5999C23.0101 13.5999 23.0801 13.5999 23.1001 13.5699C23.5901 12.8199 23.8401 11.9299 23.7501 10.9899C23.6401 9.82995 23.0401 8.63995 22.1601 7.89995Z" fill="#E62841"/>
<path d="M60.28 37.31C58.38 37.18 57.09 39.4 56.89 41.04C56.89 41.08 56.85 41.11 56.81 41.11C56.77 41.11 56.74 41.08 56.74 41.05C56.56 40.18 56.66 39.25 57.09 38.41C57.24 38.13 57.42 37.86 57.63 37.6C56.77 37.86 55.95 38.28 55.22 38.84C54.24 39.12 53.43 39.88 53.11 40.92C52.87 41.72 52.98 42.55 53.34 43.23C53.7 43.92 54.33 44.47 55.12 44.72C55.18 44.74 55.25 44.76 55.31 44.78C56.92 45.18 58.56 44.17 59.03 42.57L59.42 41.25C59.83 39.85 60.66 38.62 61.79 37.7L62.13 37.42C62.13 37.42 60.27 37.29 60.26 37.29L60.28 37.31Z" fill="#F6A640"/>
<path d="M72.3099 48.71C70.9899 48.65 69.3499 50.23 69.3899 51.52C69.4099 52.06 69.7399 52.41 70.2799 52.46C72.9299 52.72 75.2399 53.76 76.8799 55.62C78.9699 57.99 80.2799 61.79 79.8999 65.57C79.8799 65.73 79.9999 65.81 80.1699 65.76C80.3199 65.72 80.4799 65.58 80.5499 65.42C82.1199 61.62 82.5299 57.95 81.4599 55C80.1299 51.36 76.6699 48.9 72.3099 48.71Z" fill="#404596"/>
<path d="M85.2699 34.9799C83.3799 31.3099 81.0299 28.1499 78.4399 25.6099C75.7999 23.0199 77.3199 18.2599 80.9299 18.0699C81.0399 18.0699 81.1399 18.0699 81.2499 18.0699C82.2099 18.0799 83.1899 18.3899 84.0799 19.0699C86.4299 20.8699 87.8499 24.5299 88.8099 27.3299C89.8099 30.2499 90.3999 33.3099 90.6899 36.3899C91.3099 42.9199 90.8299 49.9599 89.0799 56.2899C89.0999 56.1999 89.1199 56.0999 89.1299 55.9999C90.1699 49.6999 88.9599 42.0999 85.2899 34.9799H85.2699Z" fill="#404596"/>
<path d="M88.1401 52.83V53.02C88.1401 54.34 88.0701 55.64 87.9501 56.92C86.7701 69.67 79.7901 80.75 69.6901 87.49C63.1201 91.88 55.2201 94.43 46.7201 94.43C44.7501 94.43 42.8301 94.3 40.9401 94.03C36.3501 93.39 32.0101 92.01 28.0301 89.98C23.3901 87.63 19.2601 84.44 15.8201 80.6C10.9101 75.11 7.16012 67.05 5.70012 59.4C5.59012 58.83 4.87012 58.66 4.53012 59.12C3.57012 60.36 2.80012 62.01 2.09012 63.51C1.87012 63.98 1.30012 64.05 0.950119 63.76C-0.109881 59.73 -0.279881 55.05 0.390119 51.04C1.07012 46.97 2.74012 43.33 5.07012 40.35C5.14012 40.26 5.19012 40.17 5.25012 40.08C7.09012 38.24 9.18012 36.77 11.4001 35.68C11.8701 35.45 12.2501 35.08 12.4601 34.62C12.4801 34.56 12.5001 34.52 12.5401 34.46C14.6501 29.93 18.9801 25.45 23.3801 22.69C24.3301 22.1 25.3101 21.57 26.3101 21.13C30.3501 19.32 35.3601 19.01 39.5001 20.65C44.3501 22.57 48.9001 27.85 46.3001 33.3C46.3101 33.4 46.3301 33.49 46.3701 33.55C47.0201 34.68 48.1701 35.6 49.6301 35.99C51.2401 36.43 52.8601 36.12 54.0301 35.3C54.2401 35.14 54.4401 34.98 54.6201 34.79C54.4901 36.49 53.6801 38 52.4501 39.05C51.6201 39.75 50.6101 40.26 49.4801 40.46C49.9201 41.01 50.2201 41.68 50.3201 42.4C50.3501 42.6 50.3601 42.8 50.3601 43C50.3601 43.55 50.2601 44.07 50.0601 44.55C50.0201 44.66 49.9701 44.77 49.9101 44.89C48.2101 42.6 45.4901 41.11 42.4401 41.11C40.4501 41.11 38.6001 41.75 37.0701 42.83C36.1301 43.43 35.3201 44.2 34.6701 45.11C34.5801 45.24 34.4801 45.38 34.3901 45.51C33.9101 46.29 33.5401 47.15 33.3301 48.06C33.2001 48.66 33.1201 49.28 33.1201 49.92C33.1201 50.01 33.1301 50.1 33.1301 50.19C33.1301 50.31 33.1201 50.42 33.1201 50.55C33.1201 55.76 37.3001 59.97 42.4401 59.97C46.4201 59.97 49.8101 57.47 51.1501 53.92C51.4201 53.22 52.4101 53.2 52.6701 53.91C52.9201 54.58 53.1201 55.31 53.2801 56.01C53.5001 56.99 53.6401 57.94 53.6401 58.6C53.6401 58.85 53.6301 59.08 53.6101 59.32C53.5501 59.76 53.4901 60.19 53.4101 60.62C52.1601 66.02 46.0301 69.67 40.5001 69.11C40.6001 75.17 50.1301 78.16 54.8701 78.53C61.5201 79.06 68.8501 77.74 73.7501 74.16C82.5601 67.73 84.6701 56.99 79.9101 51.49C79.0201 50.45 77.8801 49.66 76.5701 49.1C75.7301 48.7 74.8201 48.43 73.8401 48.31C73.8001 48.31 73.7501 48.31 73.7201 48.3C73.0801 48.23 72.4201 48.22 71.7501 48.26C71.8201 48.22 71.9101 48.17 71.9801 48.11C72.5801 47.73 73.2001 47.32 73.7901 46.86C79.7301 42.34 82.6901 35.82 81.4901 30.82C82.3401 32.09 83.1201 33.42 83.8301 34.79C85.0101 37.13 85.7301 39.08 86.0801 40.13C86.0801 40.13 88.0101 45.91 88.1101 52.84L88.1401 52.83Z" fill="#404596"/>
<path d="M43.8 33.1001C43.8 33.5601 43.43 33.9301 42.98 33.9301C42.53 33.9301 42.15 33.5601 42.15 33.1001C42.15 32.6401 42.52 32.2801 42.98 32.2801H43C41.5 31.5501 39.38 32.5301 37.79 32.7501C39.23 31.6101 42.86 30.4401 43.7 32.7401C43.72 32.7801 43.74 32.8301 43.76 32.8901C43.78 32.9601 43.79 33.0201 43.79 33.1001H43.8Z" fill="#7ECBF3"/>
<path d="M26.31 7.07002C26.79 6.72002 27.38 6.52002 28.02 6.52002C28.97 6.52002 29.91 6.85002 30.53 7.45002C31.31 8.21002 30.2 9.39002 29.36 8.70002C28.65 8.12002 27.74 7.77002 26.75 7.77002C26.31 7.77002 25.88 7.85002 25.48 7.98002C25.69 7.62002 25.98 7.31002 26.32 7.07002H26.31Z" fill="#F6A640"/>
</g>
<defs>
<clipPath id="clip0_133_21">
<rect width="90.93" height="94.43" fill="white"/>
</clipPath>
</defs>
</svg>
