<svg width="1920" height="852" viewBox="0 0 1920 852" fill="none" xmlns="http://www.w3.org/2000/svg">
<path d="M1919 0H0V852H1919V426V0Z" fill="#5BB8E3"/>
<path d="M1472.15 143.829C1465.74 132.921 1455.49 123.626 1442.53 115.896C1436.46 112.292 1427.82 110.727 1423.84 105.795C1419.8 100.673 1417.92 94.2231 1416.87 88.5323C1415.62 81.8455 1415.76 75.0638 1416.52 68.3771C1417.29 61.6903 1416.04 55.0983 1416.73 48.459C1417.43 41.9145 1419.94 35.0854 1421.47 28.5883C1423.01 21.9015 1425.52 15.6416 1429.35 9.3816C1431.16 6.44131 1433.53 3.50102 1434.93 0.465885C1423.7 -0.292899 1411.85 0.371037 1400.56 0.371037C1398.33 0.371037 1393.87 -0.198051 1392.33 0.892701C1391.08 1.74633 1390.94 5.25571 1390.59 6.48873C1389.61 10.0455 1389.06 13.6023 1388.43 17.2066C1385.78 32.3822 1382.85 47.7476 1384.32 63.0656C1385.01 70.606 1388.08 78.3835 1390.03 85.8291C1391.78 92.3736 1393.8 98.8707 1397.21 105.131C1404.05 117.651 1415.76 126.519 1428.24 136.525C1440.78 146.627 1450.96 158.435 1457.72 170.86C1460.86 176.646 1461.14 182.906 1463.86 188.692C1467.06 195.616 1469.92 202.682 1470.55 209.985C1471.11 216.719 1470.06 224.402 1464.63 230.188C1460.16 234.93 1453.19 238.155 1446.5 241.285C1430.61 248.778 1412.41 254.516 1393.24 256.508C1382.43 257.646 1371.91 255.939 1361.24 258.168C1350.44 260.397 1339.7 262.958 1328.97 265.424C1307.35 270.403 1286.65 273.77 1263.65 273.391C1242.45 273.012 1221.4 271.447 1201.95 265.282C1183.89 259.591 1166.4 252.003 1150.78 243.609C1135.65 235.499 1122.9 226.062 1113.97 214.49C1110.14 209.463 1105.33 204.105 1102.61 198.366C1101.08 195.236 1100.45 191.917 1098.92 188.787C1097.38 185.609 1094.94 183.048 1094.25 179.586C1091.53 165.691 1091.94 149.662 1095.71 135.861C1099.26 122.915 1106.38 108.308 1119.41 98.3016C1124.92 94.0809 1131.82 90.7612 1139.7 88.9117C1148.83 86.6827 1158.8 86.7302 1168.14 85.1177C1186.47 81.8929 1207.25 78.8578 1222.65 70.9854C1226.14 69.1833 1229.49 67.2389 1231.86 64.7254C1233.88 62.6388 1235.2 60.2201 1237.99 58.5129C1241.69 56.2365 1243.92 54.5293 1246.22 51.3044C1248.31 48.2693 1249.91 45.0444 1251.72 41.9145C1255.63 35.2277 1257.86 28.2564 1261.28 21.4273C1263.02 17.9653 1264.9 14.5034 1266.99 11.1363C1268.46 8.76509 1272.36 4.78147 1272.22 2.12573C1272.08 -0.198051 1270.34 0.323613 1267.2 0.323613H1196.86C1193.72 0.323613 1188.29 -0.435171 1185.36 0.371037C1182.57 1.12982 1179.64 3.88041 1177.41 5.20829C1172.18 8.33827 1166.82 11.4208 1161.38 14.4085C1139.63 26.2645 1117.18 37.5515 1090.9 44.1908C1064.9 50.6879 1035.69 46.8466 1010.24 40.966C996.37 37.7886 982.218 35.1803 968.136 32.4771C956.006 30.1533 940.879 28.5409 930.213 23.7511C925.194 21.4747 920.314 18.9138 915.294 16.5426C910.275 14.124 905.605 11.326 901.282 8.29085C899.052 6.72585 896.96 5.11344 894.939 3.4536C892.289 1.27209 891.662 0.323613 887.34 0.323613C879.95 0.276189 872.561 0.323613 865.172 0.323613C861.477 0.323613 857.712 0.133917 854.018 0.371037C856.109 4.82889 864.614 8.196 868.797 11.8951C874.513 16.8746 882.46 20.9531 888.804 25.648C895.357 30.5327 901.491 35.7019 906.79 41.298C911.879 46.7043 918.083 51.4941 922.963 57.0427C927.634 62.3542 931.607 67.9502 934.814 73.6886C949.174 99.5821 921.081 98.5387 891.104 102.665C880.648 104.135 870.748 106.648 860.431 108.593C850.114 110.49 839.587 112.007 829.13 113.667C811.075 116.512 793.438 120.543 774.685 119.026C762.904 118.077 753.702 114.284 747.567 107.36C743.524 102.854 741.363 97.7799 738.296 92.9901C734.462 87.0147 729.373 81.4187 723.865 76.1072C713.478 66.1956 699.675 57.2798 692.634 45.9455C689.009 40.1124 688.87 34.8009 689.009 28.5883C689.079 25.3161 687.615 22.1861 687.406 18.9612C687.197 15.689 688.661 12.4642 690.125 9.3816C691.589 6.25161 693.889 3.4536 695.702 0.465885C686.918 -0.103203 677.577 0.418461 668.653 0.418461C659.73 0.418461 650.389 -0.198051 641.605 0.513309C642.302 13.7446 652.899 28.5409 662.379 39.8752C672.976 52.5849 686.988 63.6821 699.327 75.5855C752.238 126.851 786.815 223.786 714.175 274.102C688.73 291.697 631.915 303.648 597.617 310.334C558.369 318.017 507.34 311.473 467.465 307.584C415.529 302.509 337.731 294.352 333.896 249.869C332.642 235.025 328.668 220.324 328.877 205.385C329.086 190.304 331.108 173.801 336.824 159.241C347.699 131.688 375.026 109.399 402.981 89.0065C417.063 78.7155 429.053 67.7131 438.813 55.3355C448.503 43.0526 455.823 29.3945 461.539 16.0684C462.515 13.6972 463.212 11.8951 464.188 9.28675C465.304 6.39389 468.092 3.50102 467.953 0.465885C461.4 -0.103203 454.289 0.418461 447.736 0.418461C441.183 0.418461 434.073 0.039069 427.45 0.513309C424.452 11.7054 418.596 24.3202 407.094 32.9988C404.724 34.7534 401.587 37.3143 398.171 38.168C394.406 39.069 389.248 38.168 385.204 38.3102C376.072 38.5474 367.079 39.733 358.365 41.5825C340.38 45.4713 324.485 53.0117 305.454 54.8612C289.281 56.4262 274.711 45.2816 266.136 37.2669C260.838 32.3348 256.725 26.8811 254.006 21.0479C252.821 18.487 251.636 15.689 251.079 12.9858C251.009 12.5116 250.939 12.0373 250.869 11.5631C250.451 7.86403 252.682 4.16496 252.194 0.513309C246.756 0.039069 240.831 0.418461 235.324 0.418461C229.816 0.418461 223.891 -0.00835496 218.453 0.513309C216.432 13.5075 229.956 28.2564 239.785 38.6896C250.869 50.4508 264.463 60.9789 278.754 70.9854C292.209 80.3753 305.245 88.9117 311.519 101.716C314.726 108.261 316.608 114.283 311.519 120.591C306.569 126.756 302.735 133.111 300.225 139.987C297.716 146.627 296.322 153.456 295.346 160.237C294.3 167.019 293.673 174.891 290.326 181.341C282.867 196.042 255.192 191.205 240.482 185.894C221.521 179.017 204.023 170.528 186.456 162.087C170.282 154.357 154.318 147.006 135.008 143.449C114.094 139.608 91.438 140.367 69.897 140.13C65.1566 140.082 60.6253 139.371 55.8849 138.944C51.1445 138.565 46.2647 137.284 41.6637 136.288C31.904 134.202 22.2837 131.593 13.2212 128.274C8.89904 126.709 4.99517 124.669 0.742739 123.104C-0.512077 132.921 0.603319 143.165 0.603319 153.029C0.603319 162.893 -0.651501 173.184 0.742739 183.001C8.41106 183.191 16.9159 178.78 24.3751 177.595C33.6468 176.077 42.9185 174.939 52.5388 175.081C71.6398 175.366 90.3924 174.085 109.145 176.931C126.852 179.634 144.559 182.147 161.499 186.605C177.951 190.921 193.706 196.374 209.46 201.876C224.379 207.092 239.925 211.408 251.567 219.944C273.805 236.258 286.98 258.832 306.5 276.9C316.608 286.243 326.298 295.87 333.618 306.351C340.519 316.215 346.166 327.407 346.305 338.457C346.445 350.929 336.406 358.659 327.901 368.903C319.327 379.194 311.101 391.145 310.194 403.143C309.218 416.327 315.98 429.795 318.56 442.79C320.721 453.792 319.954 464.225 311.589 474.042C281.961 508.851 228.771 506.006 190.638 479.496C168.052 463.846 149.09 438.521 114.094 435.06C83.1423 431.977 46.9618 445.398 26.8847 460.668C16.4977 468.588 11.6875 478.5 11.8269 489.028C11.8967 497.185 20.053 509.8 10.851 516.629C9.52646 517.625 7.85337 518.526 6.18028 519.237C5.06489 519.664 1.43986 520.28 0.812453 520.802C-0.930347 522.415 0.673032 528.864 0.673032 530.998V541.242C0.673032 542.617 0.0456243 544.846 0.673032 546.079C1.57929 547.881 3.53122 547.692 6.52883 548.213C24.0265 551.059 41.9425 552.576 59.3008 555.659C91.3683 561.35 120.996 572.637 142.467 590.089C153.83 599.289 160.174 609.864 167.773 620.582C174.953 630.731 183.109 643.061 197.679 649.131C212.946 655.486 229.398 656.719 246.687 658.474C261.744 659.992 276.105 664.07 287.538 671.041C299.459 678.297 306.778 687.877 319.745 694.564C333.548 701.63 349.163 704.807 364.43 709.882C370.704 711.968 378.373 714.909 382.277 719.082C386.599 723.682 381.789 726.67 376.072 728.946C360.736 735.064 344.353 739.237 329.993 746.493C323.579 749.718 317.305 753.227 311.867 757.306C307.615 760.483 303.781 763.945 298.901 766.696C286.213 773.714 270.877 767.929 257.631 764.324C239.855 759.487 224.1 755.456 204.581 756.073C185.898 756.642 168.54 760.625 150.763 764.087C133.056 767.502 114.513 770.11 96.1088 767.597C77.5654 765.036 61.9499 758.112 46.0555 751.472C38.8752 748.437 31.416 745.687 24.0963 742.889C17.1251 740.233 8.89905 736.818 0.95188 735.965C-0.44236 742.889 0.812453 750.524 0.812453 757.495C0.812453 759.108 0.673029 760.72 0.812453 762.333C1.0913 764.893 1.30044 765.036 5.1346 765.51C9.8053 766.079 14.5457 765.984 19.2164 766.079C36.7141 766.553 55.8152 772.908 70.1062 779.547C100.082 793.395 124.133 814.262 142.746 835.128C145.395 838.164 147.905 841.246 149.996 844.471C151.042 846.083 151.739 847.838 152.854 849.45C154.527 851.869 155.085 851.49 159.128 851.49C170.701 851.49 182.9 852.201 194.403 851.395C191.335 845.325 185.41 839.634 181.227 833.848C177.114 828.11 173.629 822.182 171.607 815.922C169.725 810.136 169.028 804.113 170.631 798.28C172.025 793.206 175.371 785.713 182.482 782.962C188.407 780.638 196.145 782.345 202.28 783.389C209.391 784.622 216.292 786.424 222.566 789.08C234.696 794.107 243.689 801.789 249.615 810.42C253.797 816.491 256.725 823.035 258.329 829.627C260.002 836.788 262.163 844.186 262.72 851.395C271.853 852.248 283.913 852.154 293.045 851.395C293.673 839.823 289.141 828.916 292.348 817.25C294.997 807.67 301.132 798.659 309.776 790.929C319.048 782.63 331.526 774.995 344.423 769.256C350.976 766.316 357.808 764.419 364.082 761.194C370.425 757.97 376.7 754.65 383.81 752.231C387.365 751.046 391.06 750.097 394.894 749.481C398.659 748.864 401.168 747.109 405.072 746.635C413.856 745.497 424.173 746.113 433.097 746.398C452.616 746.967 471.02 750.903 490.33 751.899C506.852 752.753 519.539 755.503 531.739 763.281C541.638 769.588 549.585 777.319 552.653 786.377C554.605 792.162 555.999 796.336 550.77 801.694C545.96 806.627 538.292 809.14 532.506 813.361C520.515 822.087 512.917 829.912 509.849 841.91C509.083 844.898 508.107 848.454 509.152 851.395C512.15 851.679 515.357 851.49 518.354 851.49C522.746 851.49 524.001 851.964 524.977 849.024C526.162 845.419 527.696 841.863 529.857 838.401C533.97 831.761 539.895 825.691 546.727 820.19C550.143 817.392 554.256 814.926 557.114 811.891C560.182 808.666 563.458 805.631 567.013 802.643C573.915 796.762 581.095 789.696 580.747 781.824C580.049 766.98 567.641 756.073 552.234 746.54C535.852 736.392 525.814 722.686 503.994 717.422C486.426 713.249 465.443 714.387 454.498 702.341C443.065 689.726 445.924 672.274 451.222 658.664C457.496 642.539 468.092 627.174 481.268 613.137C493.955 599.573 515.845 590.278 534.667 580.983C552.653 572.115 577.61 562.583 582.35 546.648C586.742 532.136 587.23 515.206 605.843 505.152C621.18 496.9 644.672 496.142 662.031 501.927C670.814 504.82 677.158 509.468 682.805 514.732C689.916 521.371 698.142 527.441 705.671 533.891C735.159 558.931 739.272 593.408 773.291 616.456C789.325 627.316 808.914 634.904 825.993 644.863C843.212 654.917 855.97 669.524 862.244 684.32C865.59 692.192 864.962 700.444 862.592 708.411C860.431 715.43 857.712 723.065 851.438 728.946C847.953 732.171 844.467 734.921 841.469 738.478C838.402 742.035 835.335 745.592 832.337 749.196C826.481 756.31 821.044 763.613 817.558 771.391C811.214 785.713 811.563 801.031 820.347 814.878C825.017 822.134 831.78 828.252 838.89 834.464C842.933 838.021 846.907 841.673 850.881 845.277C852.554 846.795 854.366 849.308 856.597 850.494C859.316 851.917 862.941 851.442 866.496 851.442C879.253 851.442 892.429 852.106 905.117 851.347C906.441 843.38 911.739 839.823 924.078 839.729C936.417 839.681 938.718 844.186 941.088 851.347C946.038 851.679 951.266 851.442 956.285 851.442C959.492 851.442 968.415 852.391 970.088 850.731C971.901 849.024 970.925 844.234 970.994 842.195C971.134 839.444 971.134 836.646 972.249 833.943C974.062 829.295 976.99 824.031 980.127 819.668C983.124 815.542 987.237 811.843 992.605 809.045C998.112 806.152 1005.71 803.165 1012.26 801.837C1020.35 800.177 1028.72 799.56 1036.8 797.663C1054.09 793.585 1070.19 787.657 1087.06 782.962C1122.69 773.003 1156.92 762.475 1196.3 763.139C1215.68 763.423 1235.41 766.079 1254.3 768.83C1263.16 770.11 1271.73 772.102 1279.89 774.71C1287.35 777.129 1295.5 779.5 1302.27 782.725C1330.43 796.098 1339.91 822.608 1351.34 843.19C1352.88 845.894 1353.43 848.549 1354.13 851.347C1360.68 851.916 1367.8 851.442 1374.42 851.442C1381.04 851.442 1388.08 851.822 1394.63 851.347C1392.33 841.009 1386.27 831.761 1387.94 820.901C1389.27 812.839 1406.76 807.907 1417.08 806.437C1443.64 802.69 1466.65 813.788 1482.33 827.303C1486.79 831.145 1490.84 835.223 1494.95 839.254C1498.92 843.19 1503.73 846.652 1505.41 851.347C1517.61 852.201 1531.9 852.106 1544.17 851.347C1536.29 843.76 1530.5 836.361 1528.27 827.066C1525.9 817.06 1527.02 806.674 1527.64 796.62C1528.83 777.176 1528.27 754.84 1542.35 737.34C1548.35 729.847 1556.71 723.303 1566.33 717.896C1571.7 714.909 1577.77 712.822 1584.6 712.016C1591.57 711.162 1598.68 712.016 1605.72 711.447C1634.03 709.218 1651.66 693.615 1656.12 675.262C1658.63 664.829 1655.71 653.874 1653.61 643.535C1651.38 632.486 1648.46 621.483 1645.46 610.528C1641.28 595.353 1636.12 568.653 1663.23 561.16C1674.53 558.03 1687.08 561.065 1697.95 563.673C1711.68 566.993 1724.65 571.593 1736.99 576.857C1760.76 586.959 1781.4 598.767 1796.38 615.034C1810.54 630.399 1817.09 648.515 1832.91 663.169C1849.64 678.629 1872.58 688.256 1897.4 696.745C1903.04 698.642 1911.69 702.341 1918.24 701.061C1919.77 692.904 1918.38 683.988 1918.38 675.736V471.197C1918.38 466.928 1919.77 461.427 1918.38 457.254C1917.33 453.982 1910.92 452.606 1910.15 448.765C1914.06 447.105 1918.1 454.361 1918.38 447.911C1918.66 441.841 1918.38 435.723 1918.38 429.653C1918.38 426.571 1918.38 423.488 1918.38 420.358C1918.38 416.564 1916.85 415.948 1912.45 413.719C1905.62 410.257 1898.65 406.89 1891.4 403.807C1878.64 398.401 1862.12 394.085 1847.27 398.401C1834.87 402.005 1832.29 410.541 1828.1 418.271C1823.15 427.424 1815 432.024 1803.43 437.099C1797.71 439.612 1793.39 443.264 1790.25 447.295C1786.07 452.512 1786.62 457.633 1786.83 463.419C1787.6 484.997 1813.53 503.492 1832.7 519.095C1853.62 536.12 1875.86 552.718 1892.17 572.067C1899.28 580.509 1906.95 589.757 1901.23 599.621C1896.77 607.303 1885.69 614.038 1874.6 617.262C1844.14 626.083 1822.39 605.217 1806.07 590.8C1788.09 574.865 1767.94 561.729 1741.59 552.292C1717.19 543.518 1688.89 540.341 1667.35 528.105C1656.61 522.035 1649.36 514.352 1641.76 506.527C1633.75 498.323 1626.98 489.265 1625.94 479.306C1624.75 468.019 1631.79 456.495 1638 446.252C1642.88 438.095 1649.43 430.934 1660.86 426.381C1666.16 424.247 1672.02 422.824 1678.01 421.923C1685.75 420.785 1692.51 418.698 1699.62 416.232C1712.45 411.822 1726.74 406.558 1732.46 397.073C1736.92 389.627 1734.69 381.423 1730.23 374.214C1725 365.82 1716.29 355.197 1704.43 350.502C1697.53 347.752 1689.38 345.618 1681.64 344.337C1673.13 342.915 1665.33 343.768 1656.82 344.717C1639.95 346.519 1623.22 349.08 1606.21 350.597C1578.19 353.111 1549.46 352.21 1524.93 341.776C1503.38 332.624 1482.75 316.167 1479.75 298.573C1477.87 287.761 1481.57 277.28 1485.26 266.847C1489.16 255.702 1492.79 244.415 1499.83 233.934C1506.59 223.88 1516.84 215.439 1524.37 205.67C1531.9 195.9 1537.2 185.704 1540.82 174.939C1548.56 151.606 1558.18 128.7 1563.96 105.036C1569.82 81.1815 1566.68 57.517 1559.15 33.9947C1555.6 22.8974 1552.04 11.5631 1547.86 0.608157C1539.91 -0.055779 1531.34 0.513309 1523.32 0.513309C1515.31 0.513309 1506.8 -0.00835499 1498.85 0.608157C1499.83 6.44131 1505.69 12.559 1509.31 17.7756C1513.42 23.7511 1516.21 29.9162 1519.21 36.1762C1525.41 49.0755 1533.36 62.3542 1536.29 75.8701C1539.15 89.1488 1533.57 102.238 1532.04 115.374C1530.5 128.416 1533.57 142.216 1525.97 154.499C1521.09 162.324 1508.68 171.477 1495.44 168.062C1479.82 164.031 1478.43 153.361 1472.92 143.971L1472.15 143.829ZM1860.59 503.066C1843.58 501.832 1825.18 489.597 1822.6 477.883C1822.11 475.797 1821.41 473.805 1820.99 471.718C1820.23 468.019 1822.11 464.462 1823.08 460.953C1824.27 456.685 1831.03 457.444 1835.07 455.736C1841.63 452.986 1848.11 450.615 1854.8 450.33C1866.24 450.235 1882.13 458.629 1884.57 465.174C1884.99 466.312 1885.69 467.355 1884.78 468.399C1877.67 476.935 1875.23 486.183 1874.46 495.905C1873.97 501.975 1869.65 503.777 1860.52 503.066H1860.59ZM1042.24 157.534C1052.21 159.194 1061.48 163.178 1065.38 170.007C1070.33 178.448 1065.73 187.174 1064.83 195.805C1063.85 204.816 1063.43 214.206 1069.01 222.6C1075.98 233.175 1091.53 239.72 1104.14 246.881C1121.22 256.556 1137.95 267.937 1145.41 282.591C1153.99 299.427 1150.36 318.017 1145.69 335.137C1143.6 342.915 1142.49 351.688 1136.21 358.517C1132.31 362.785 1124.64 369.14 1116.13 367.623C1098.92 364.54 1098.71 349.554 1093.34 340.306C1087.62 330.347 1071.87 323.992 1057.65 320.483C1041.89 316.831 1026.21 317.638 1009.96 318.871C996.091 319.914 981.591 319.487 971.97 311.662C964.581 305.687 961.444 297.625 960.677 290.037C960.259 286.433 960.538 281.785 968.485 266.04C976.083 250.959 978.732 249.537 986.401 235.547C990.932 227.342 995.882 219.185 998.531 210.554C1001.46 201.212 1001.6 191.632 1002.09 182.147C1002.09 181.673 1002.09 181.246 1002.09 180.772C1002.23 174.227 1001.53 166.308 1008.78 161.423C1016.86 155.969 1031.78 155.827 1042.1 157.534H1042.24ZM961.583 112.813C973.365 102.997 981.869 92.5159 983.194 79.3794C983.961 71.839 995.882 66.8121 1007.31 66.1956C1030.6 64.9151 1054.09 64.1089 1076.96 61.1686C1090.41 59.4139 1103.59 55.288 1115.37 49.7868C1122.55 46.4197 1130.43 44.0011 1139.21 43.2423C1145.69 43.8114 1153.15 41.0134 1157.96 46.6569C1163.96 53.6756 1161.66 59.2242 1149.53 65.1522C1146.53 67.2389 1142.49 67.6183 1138.65 67.9977C1117.18 70.2266 1101.15 79.0475 1085.67 88.3426C1065.66 100.388 1051.09 115.611 1034.92 129.933C1026.55 137.379 1017.77 144.635 1003.55 146.532C974.898 150.421 956.634 141.979 955.588 123.436C955.309 119.358 957.958 115.801 961.444 112.861L961.583 112.813ZM726.236 301.608C728.745 299.806 731.255 297.957 733.695 296.107C741.921 289.752 749.38 282.923 755.236 275.335C767.366 259.591 777.822 244.083 781.726 226.346C783.051 220.418 784.863 214.585 786.676 208.705C788.419 202.966 791.416 197.797 793.996 192.249C802.5 174.322 817.837 155.969 840.145 144.208C851.787 138.043 864.962 135.861 878.975 133.301C894.729 130.455 912.645 132.826 927.355 137.379C952.102 144.967 960.259 165.027 963.396 181.863C965.627 193.624 966.812 205.48 963.535 217.194C960.259 228.718 954.612 240.005 949.802 251.291C945.062 262.531 939.066 273.77 932.792 284.631C926.448 295.585 918.153 305.782 910.763 316.357C903.862 326.364 897.448 335.896 886.852 344.48C877.301 352.21 865.729 358.991 852.484 363.686C837.566 368.998 823.065 370.515 807.171 366.2C791.556 361.979 777.962 355.245 762.765 350.502C750.914 346.803 736.483 346.614 726.584 340.306C720.031 336.133 718.149 330.205 716.964 324.372C715.151 315.124 716.406 308.485 726.236 301.513V301.608ZM83.6303 541.432C79.0293 539.44 74.8466 536.12 71.0124 533.275C63.0653 527.441 56.3032 520.897 51.1445 513.783C41.3848 500.268 38.0387 480.587 59.9282 471.529C68.8514 467.83 80.2841 465.553 90.6712 465.553C103.568 465.553 113.049 470.153 122.599 475.512C133.753 481.82 145.186 488.222 155.782 495.003C162.056 499.034 167.424 505.247 168.33 511.128C169.585 519.474 159.338 521.561 149.648 523.742C143.652 525.07 137.797 526.54 132.01 528.2C120.438 531.52 110.26 535.836 100.361 541.052C94.2265 544.277 88.7193 543.613 83.7 541.432H83.6303ZM378.233 564.29C386.529 570.455 393.709 577.237 398.589 584.919C407.652 599.147 408 615.128 409.464 630.636C410.789 644.579 412.81 659.375 403.608 671.847C402.563 673.27 399.426 676.163 393.988 678.155C386.041 681.095 377.745 680.099 372.238 679.435C362.13 678.202 355.159 675.262 346.584 671.563C342.75 669.903 335.569 666.773 328.668 662.173C314.795 652.973 311.798 644.436 306.709 638.746C288.235 617.974 241.389 633.529 210.576 613.042C189.802 599.194 186.734 575.767 193.496 558.789C195.17 554.615 202.698 535.788 228.352 525.876C228.352 525.876 261.187 513.167 308.033 527.062C317.514 529.86 326.577 533.891 326.577 533.891C332.92 537.069 338.985 540.436 345.12 543.85C356.553 550.205 368.264 556.844 378.233 564.242V564.29ZM556.069 505.579C544.148 516.676 534.737 529.149 517.657 537.401C497.022 547.36 475.342 555.422 449.13 555.327C440.765 555.327 432.818 554.046 425.08 551.96C399.356 548.213 378.582 539.44 364.639 523.932C357.041 515.491 356.204 505.721 355.995 496.331C355.577 477.694 354.392 459.341 346.654 441.177C341.913 429.89 347.351 418.698 356.832 408.976C362.199 403.38 371.611 401.436 380.534 399.586C387.226 398.164 394.267 397.595 401.168 396.646C412.95 395.034 424.592 394.085 436.582 393.184C447.109 392.425 457.635 390.481 466.279 386.165C484.195 377.202 493.049 361.505 508.037 350.55C522.328 340.117 537.804 330.3 559.694 329.351C573.636 328.735 587.299 327.929 600.684 325.273C608.701 323.661 616.648 321.811 624.526 319.961C632.473 318.112 640.699 318.159 648.855 318.491C657.848 318.871 664.68 322.096 669.978 326.98C675.555 332.102 681.55 336.939 686.848 342.156C695.493 350.692 708.041 355.861 720.868 360.888C735.298 366.579 748.892 372.602 757.676 382.941C767.993 395.128 766.18 409.024 748.892 416.469C727.839 425.527 715.221 438.901 702.882 452.606C694.517 461.901 684.757 469.632 669.978 474.279C665.586 475.702 661.334 476.603 656.454 476.698C642.093 476.982 627.732 476.603 613.372 475.607C601.869 474.801 592.737 478.31 584.372 483.385C573.497 489.977 566.247 498.608 556.069 505.579ZM926.727 657.004C920.244 655.866 913.9 654.727 907.766 653.779C873.467 648.373 838.681 631.916 814.073 615.176C786.676 596.491 781.169 570.408 762.765 548.261C753.144 536.642 738.505 527.109 738.017 512.93C736.901 482.768 752.378 456.353 778.31 432.546C788.907 422.777 803.546 415.853 819.022 410.067C833.243 404.756 852.763 401.294 865.311 394.417C882.251 385.122 896.124 372.602 913.691 364.161C944.643 349.317 986.61 336.56 1024.88 344.574C1061.83 352.352 1083.44 378.862 1084.42 404.092C1084.9 417.181 1083.79 430.27 1085.11 443.311C1087.55 466.454 1101.15 489.028 1129.59 502.781C1143.11 509.325 1158.45 513.783 1172.25 519.948C1195.12 530.239 1205.85 547.454 1209.13 565.428C1211.64 579.181 1213.03 595.59 1208.5 609.248C1203.34 624.898 1174.07 629.498 1153.92 629.64C1113.83 629.925 1080.09 632.011 1043.7 644.484C1003.2 658.332 971.482 664.876 926.658 657.051L926.727 657.004ZM993.442 770.584C982.218 780.923 965.975 787.42 952.242 795.909C950.638 798.802 947.432 800.604 943.179 801.457C930.352 804.018 917.246 805.346 904.28 802.264C899.261 801.03 896.054 798.659 894.102 794.676C889.501 785.381 885.039 776.18 883.436 766.411C882.39 760.246 883.576 754.318 886.294 748.437C896.054 713.296 922.823 690.817 981.172 691.955C1005.15 692.24 1026.76 697.978 1047.26 705.851C1056.53 709.455 1066.08 712.869 1072.77 718.845C1084.76 729.515 1078.7 734.068 1065.38 740.944C1059.11 744.169 1051.16 745.971 1043.22 747.489C1029.9 750.05 1020.14 756.831 1009.34 762.333C1004.04 765.036 999.995 768.972 993.442 770.537V770.584ZM1536.78 375.353C1542.98 376.538 1549.19 377.724 1555.32 379.052C1563.48 380.759 1571.63 382.609 1579.65 384.553C1586.62 386.26 1593.59 387.967 1600.56 389.58C1606.91 391.05 1614.51 391.856 1620.29 394.133C1632 398.78 1628.8 406.842 1624.54 413.814C1619.04 422.919 1614.02 432.167 1607.67 440.988C1601.33 449.808 1595.47 457.633 1592.06 467.26C1588.57 477.219 1585.65 486.562 1586.48 496.853C1588.02 517.103 1594.15 536.737 1599.24 556.655C1601.89 566.803 1602.59 577.142 1604.75 587.338C1606.91 597.676 1610.39 607.825 1612.83 618.164C1614.09 623.38 1614.85 628.549 1615.06 633.813C1615.34 638.556 1616.6 643.773 1615.48 648.467C1613.67 656.53 1603.84 663.833 1594.85 668.765C1584.39 674.551 1571.49 674.646 1559.64 678.25C1547.79 681.901 1539.57 688.541 1532.39 695.892C1516.84 711.731 1510.57 729.657 1502.55 747.631C1498.71 756.215 1494.39 764.04 1483.17 769.351C1472.43 774.426 1458.84 776.749 1446.29 778.599C1419.73 782.535 1389.61 783.247 1363.47 777.556C1351.83 774.995 1340.96 771.011 1331.54 765.747C1327.08 763.234 1322.97 758.728 1318.09 756.784C1315.72 755.883 1313.07 756.025 1310.56 754.84C1308.61 753.844 1307.08 752.468 1305.33 751.33C1288.74 740.28 1263.99 738.431 1246.91 727.95C1228.79 716.853 1224.26 700.255 1223.91 684.273C1223.49 663.785 1232.41 644.484 1245.38 626.226C1257.93 608.584 1270.9 591.037 1287.35 574.96C1295.43 567.088 1299.2 556.939 1302.89 547.786C1306.8 538.017 1309.93 528.105 1312.51 518.146C1317.81 497.849 1319.14 477.409 1321.72 456.922C1324.16 437.668 1328.06 417.513 1345.21 401.483C1361.31 386.497 1384.39 376.443 1410.39 371.132C1451.59 362.738 1495.86 367.765 1536.5 375.305L1536.78 375.353ZM1396.66 277.849C1404.6 278.655 1411.85 281.833 1419.1 283.919C1426.42 286.053 1433.88 288.282 1439.46 292.266C1445.18 296.392 1449.36 301.608 1450.89 307.157C1453.61 317.258 1448.38 324.988 1440.71 332.813C1423.56 350.218 1400.21 362.216 1372.19 370.421C1362.08 375.542 1350.72 379.431 1341.37 385.264C1330.36 393.137 1319.97 401.388 1310.21 409.972C1302.82 416.469 1302.27 424.484 1299.34 431.977C1294.11 445.066 1296.97 458.724 1294.11 472.003C1293.2 476.176 1293.06 480.444 1291.81 484.523C1288.11 496.806 1275.43 503.113 1254.37 502.022C1234.3 500.979 1213.87 500.03 1195.47 493.723C1170.23 485.044 1148.06 474.089 1141.79 453.602C1138.86 444.023 1142.9 434.633 1145 425.195C1150.57 399.918 1169.6 378.862 1190.1 358.185C1203.83 344.337 1219.03 331.391 1236.46 319.629C1248.87 312.563 1260.79 305.118 1274.8 299.522C1277.24 298.526 1279.4 296.818 1281.77 295.633C1284.21 294.4 1286.72 293.214 1289.37 292.124C1294.53 289.989 1299.9 288.187 1305.47 286.67C1311.05 285.152 1316.77 283.872 1322.62 282.781C1326.46 282.117 1330.36 281.69 1334.26 281.169C1338.59 280.552 1342.49 278.987 1346.88 278.418C1353.99 277.375 1361.52 276.9 1368.77 276.711C1378.11 276.426 1387.52 276.9 1396.8 277.801L1396.66 277.849Z" fill="#7FCAF1"/>
<g clip-path="url(#clip0_41_221)">
<path d="M346.37 237.75V432.11H292.19L290.16 292.79C275.51 293.05 258.71 288.25 241.15 270.96C197.03 227.53 188.66 218.38 172.72 211.89L173.12 432.12H118.84V200.25C118.84 198.33 119.16 196.41 119.82 194.66C120.29 193.2 120.96 191.79 121.8 190.5C123.08 188.49 124.76 186.72 126.79 185.3C137.79 177.63 152.86 169.55 179.34 171.22C197.1 172.34 209.48 181.21 221.62 193.39C236.97 208.8 255.28 222.67 276.45 228.73C299.02 235.19 322.99 237.19 346.37 237.75Z" fill="#404596"/>
<path d="M870.23 239.61C868.91 236.34 867.41 233.13 865.72 230.01C851.61 203.96 826.6 189.57 797.74 185.52C783.15 183.52 768.31 183.61 753.58 183.91C746.12 184.05 738.63 184.25 731.16 184.25V184.31H679.46V432.13H732.97V341.56C733.36 341.95 733.81 342.32 734.27 342.66C755.59 359.22 784.42 365.3 810.56 358.66L815.32 357.48V357.28C829.09 352.91 841.09 345.62 851.37 335.46C859.96 326.67 866.41 316.85 870.69 306C879.03 284.94 878.63 260.75 870.24 239.62L870.23 239.61ZM843.11 303.42C840.97 317.56 833.54 330.76 822.67 339.89C798.06 360.53 761.81 357.8 741.71 333.81C737.99 329.39 735.09 324.57 732.98 319.5V224.77C739.06 220.74 746.58 218.32 753.59 217C767.11 214.47 781.02 216.61 793.49 222.32C806.3 228.21 816.72 238.12 825.42 249.02C828.18 252.48 830.77 256.12 833.05 259.89C841.02 273.01 845.41 288.08 843.1 303.43L843.11 303.42Z" fill="#404596"/>
<path d="M551.95 184.35H474.45L395.04 432.11H445.93L460.77 383.45C465.78 371.33 467.84 363.05 475.28 359.09C483.65 354.63 495.3 355.91 502.79 360.9C511.83 366.95 519.49 376.9 526.78 386.5C534.61 396.81 542.27 407.31 550.49 416.89C558.99 426.77 569.56 432.01 580.4 431.82L580.48 432.13H631.37L551.95 184.35ZM524.3 344.84C507.69 338.14 490.39 337.1 473.61 341.4L513.2 211.66L561.1 368.66C549.58 358.41 537.3 350.07 524.29 344.84H524.3Z" fill="#404596"/>
<path d="M1142.55 429.85C1111.04 434.48 1064.88 437.46 1025.46 381.01C1025.4 380.95 1025.38 380.89 1025.32 380.81C1016.82 368.65 1010.06 355.36 1005.16 341.33L1003.5 336.64C1002.74 334.44 1002.06 332.24 1001.47 330.04C999.96 324.45 996.07 316.84 991.31 312.56C987.97 309.55 982.63 312.01 982.62 316.5L982.54 431.96H931.26V178.91H982.54L982.62 294.39C982.62 298.89 987.97 301.34 991.31 298.33C996.06 294.04 999.96 286.42 1001.47 280.84C1002.06 278.64 1002.74 276.44 1003.5 274.24L1005.16 269.55C1010.06 255.51 1016.82 242.22 1025.32 230.07C1025.38 229.98 1025.4 229.93 1025.46 229.87C1064.89 173.45 1111.04 176.43 1142.55 181.06C1122.36 183.23 1106.22 193.65 1096.39 211.63C1091.02 221.45 1086.82 232.1 1085.05 243.26C1083.89 250.6 1084.66 257.93 1084.56 265.32C1084.39 278.24 1079.4 290.6 1067.42 296.19C1060.67 299.31 1053.15 300.3 1045.93 298.72C1043.15 298.11 1040.28 299.29 1038.72 301.68C1037.22 303.97 1037.22 306.94 1038.72 309.23C1040.28 311.64 1043.16 312.82 1045.95 312.21C1053.17 310.62 1060.68 311.6 1067.43 314.74C1076.32 318.88 1082.92 327.72 1084.25 337.66C1085.7 348.45 1083.47 359.18 1085.7 369.93C1087.86 380.29 1091.32 389.96 1096.4 399.26C1106.23 417.24 1122.36 427.66 1142.56 429.86L1142.55 429.85Z" fill="#404596"/>
<path d="M341.14 594.05C331.94 594.08 323.2 592.5 314.9 589.33C306.6 586.16 299.22 581.58 292.74 575.58C286.27 569.58 281.3 562.73 277.86 555.01C274.41 547.3 272.67 539.15 272.64 530.58C272.61 522.01 274.3 502.55 277.7 494.81C281.1 487.08 286.02 480.19 292.46 474.16C298.89 468.13 306.25 463.5 314.53 460.29C322.81 457.07 331.54 455.45 340.74 455.43C349.93 455.41 358.68 456.98 366.98 460.15C375.28 463.32 382.66 467.9 389.14 473.9C395.61 479.9 400.57 486.75 404.02 494.47C407.47 502.19 409.21 521.64 409.24 530.21C409.27 538.78 407.57 546.92 404.14 554.63C400.72 562.34 395.79 569.22 389.35 575.25C382.91 581.28 375.57 585.92 367.31 589.15C359.05 592.39 350.33 594.02 341.13 594.04L341.14 594.05ZM367.13 477.3C359.5 470.23 350.7 466.63 340.71 466.5C330.72 466.69 321.93 470.34 314.35 477.45C312.98 478.73 311.7 480.09 310.52 481.54C302.02 491.99 297.71 515.86 297.58 530.52C297.65 538.8 299.18 546.56 302.16 553.81C305.14 561.05 309.34 567.18 314.75 572.19C322.42 579.3 331.18 582.9 341.04 582.99C351.07 582.76 359.86 579.11 367.4 572.04C368.81 570.72 370.15 569.29 371.43 567.77C379.88 557.37 384.18 544.87 384.31 530.29C384.24 522.01 382.71 502.94 379.73 495.69C376.75 488.45 372.55 482.32 367.14 477.31L367.13 477.3Z" fill="#404596"/>
<path d="M535.72 484.46C535 482.8 534.18 481.17 533.26 479.58C525.57 466.34 511.93 459.03 496.19 456.97C488.24 455.95 480.14 456 472.11 456.15C468.04 456.22 463.96 456.32 459.89 456.32V456.35H431.7V593.61H460.88V547.58C461.1 547.78 461.34 547.97 461.59 548.14C473.21 556.56 488.94 559.65 503.19 556.27L505.79 555.67V555.57C513.3 553.35 519.84 549.64 525.45 544.48C530.13 540.01 533.65 535.02 535.98 529.51C540.53 518.8 540.31 495.2 535.73 484.46H535.72ZM520.93 528.2C519.76 535.38 515.71 542.1 509.78 546.73C496.36 557.22 476.59 555.83 465.63 543.64C463.6 541.39 462.02 538.95 460.87 536.37V476.91C464.19 474.86 468.29 473.63 472.11 472.96C479.48 471.67 487.07 472.76 493.87 475.66C500.86 478.65 506.54 483.69 511.28 489.23C512.78 490.99 514.2 492.84 515.44 494.75C519.79 501.42 522.18 520.39 520.92 528.19L520.93 528.2Z" fill="#404596"/>
<path d="M977.34 456.14V594.42H946.54V470.49C934.36 483.77 924.75 519.9 898.44 563.37C892.07 573.9 884.86 581 877.4 585.78C869.37 590.91 861.06 593.34 853.21 594.41H846.59L846.98 455.71H876.81L877.39 543.28C893.78 514.91 906.2 474.69 941.59 460.34C943.21 459.69 944.87 459.09 946.54 458.56C956.42 455.4 966.98 454.53 977.34 456.13V456.14Z" fill="#404596"/>
<path d="M817.82 593.1C800.84 595.43 775.97 596.92 754.73 568.58C754.7 568.55 754.68 568.52 754.65 568.48C750.07 562.37 746.43 555.7 743.79 548.65L742.89 546.3C742.48 545.2 742.12 544.09 741.8 542.99C740.53 538.59 736.08 531.68 731.65 532.67L731.6 594.17H703.97V455.78H731.6L731.65 528.61C736.08 529.6 740.53 511.37 741.8 506.96C742.12 505.86 742.48 504.75 742.89 503.65L743.79 501.3C746.43 494.25 750.07 487.58 754.65 481.47C754.68 481.43 754.7 481.4 754.73 481.37C775.97 453.04 800.84 454.54 817.82 456.86C806.94 457.95 798.25 463.18 792.95 472.21C790.06 477.14 787.79 482.49 786.84 488.09C786.21 491.77 786.63 495.46 786.57 499.17C786.48 505.66 783.79 523.18 777.33 525.98C772.95 527.87 767.95 528.2 763.37 526.59L760.53 530.63L763.37 534.69C767.95 533.08 772.94 533.4 777.33 535.3C782.12 537.38 785.67 541.82 786.39 546.81C787.17 552.23 785.97 557.62 787.17 563.02C788.33 568.22 790.2 573.08 792.94 577.75C798.24 586.78 806.93 592.01 817.81 593.11L817.82 593.1Z" fill="#404596"/>
<path d="M670.74 565.71C670.72 573.12 666.23 580.15 659.98 584.74C653.66 589.38 645.71 591.77 637.75 592.85C619.17 595.37 599.57 590.94 584.46 580.56C569.35 570.19 558.96 553.95 556.6 536.6C554.41 520.46 559.27 492.25 569.89 479.33C579.6 467.52 592.77 458.9 608.38 455.15C622.4 451.78 637.53 452.57 651.05 457.38C655.75 459.05 660.43 461.32 663.44 465.07C667.07 469.59 667.76 475.71 666.66 481.26C665.55 486.81 662.84 491.96 660.16 497.02C658.06 488.11 649.68 481.68 641.03 477.4C632.29 473.07 622.58 470.14 612.68 470.13C602.78 470.11 592.68 473.2 585.54 479.59C577.63 486.66 573.96 508.57 574.45 518.77C574.94 528.97 579.28 538.78 585.39 547.25C594.58 559.99 608.24 570.22 624.15 574.2C640.06 578.17 658.15 575.36 670.74 565.46C670.74 565.54 670.74 565.63 670.74 565.71Z" fill="#404596"/>
<path d="M662.52 571.73L662.67 571.67C662.61 571.7 662.56 571.71 662.52 571.73Z" fill="#404596"/>
<path d="M247.63 455.44V593.81H216.83V489.27C200.34 500.69 188.34 528.28 183.65 547.06V547.09C183.04 549.49 182.57 551.94 182.22 554.41H182.2C182.12 554.51 182.05 554.56 181.96 554.62C181.85 554.57 181.76 554.48 181.69 554.4C181.34 551.93 180.87 549.51 180.26 547.11C175.28 527.1 161.99 498.6 143.8 487.12V593.81H113V455.49L125.91 455.24C132.12 455.12 138.25 456.34 143.8 458.77C145.29 459.42 146.74 460.16 148.14 460.98C148.17 461.01 148.22 461.02 148.25 461.05C167.88 472.66 177.53 485.48 181.96 497.84C186.38 485.49 196.03 472.67 215.66 461.05C215.71 461.02 215.74 461.01 215.77 460.98C216.12 460.77 216.47 460.57 216.83 460.38C223.19 456.88 230.53 455.11 238 455.25L247.63 455.44Z" fill="#404596"/>
<path d="M1081.87 536.05C1089.59 519.7 1095.07 495.72 1099.93 486.02C1105.12 475.63 1109.63 468.63 1115.45 464.16C1115.92 463.81 1116.41 463.51 1116.91 463.26C1119.55 461.63 1122.83 460.66 1126.39 460.66C1127.19 460.66 1127.97 460.72 1128.74 460.82V460.74C1128.51 460.57 1128.28 460.43 1128.04 460.29C1118.88 454.8 1108.21 458.25 1099.74 463.34C1085.48 471.9 1075.96 483.94 1068.26 497.21C1060.49 483.51 1050.9 471.08 1036.41 462.25C1027.94 457.1 1017.28 453.61 1008.11 459.17C1007.87 459.31 1007.64 459.45 1007.41 459.62V459.7C1008.18 459.6 1008.96 459.54 1009.76 459.54C1013.33 459.54 1016.6 460.53 1019.24 462.17C1019.74 462.44 1020.23 462.74 1020.7 463.09C1026.53 467.62 1031.03 474.71 1036.22 485.25C1041.11 495.13 1046.61 519.37 1054.41 536.07C1051.51 542.22 1048.57 548.32 1045.37 554.18C1042.27 559.84 1039.16 564.59 1036.01 568.56C1035.98 568.59 1035.95 568.62 1035.93 568.64C1022.61 583.05 1013.2 584.73 1005.77 585.86C1005.18 585.94 1004.6 585.97 1004.02 585.96C1000.86 586.13 997.51 585.44 994.43 583.77C993.73 583.39 993.09 582.98 992.47 582.53L992.42 582.61C992.53 582.85 992.65 583.09 992.78 583.32C997.03 590.35 1005.13 593.12 1013.51 593.76C1023.28 594.5 1034.52 593.42 1043.37 589.28C1054.61 584.02 1062.47 574.32 1068.03 564.02" fill="#404596"/>
<path d="M1080.99 535.48C1083.89 541.63 1086.83 547.73 1090.03 553.59C1093.13 559.25 1096.24 564 1099.39 567.97C1099.42 568 1099.45 568.03 1099.47 568.05C1112.79 582.46 1122.2 584.14 1129.63 585.27C1130.22 585.35 1130.8 585.38 1131.38 585.37C1134.54 585.54 1137.89 584.85 1140.97 583.18C1141.67 582.8 1142.31 582.39 1142.93 581.94L1142.98 582.02C1142.87 582.26 1142.75 582.5 1142.62 582.73C1138.37 589.76 1130.27 592.53 1121.89 593.17C1112.12 593.91 1100.88 592.83 1092.03 588.69C1080.79 583.43 1072.93 573.73 1067.37 563.43" fill="#404596"/>
<path d="M190.3 714.66V659.38C190.3 656.93 190.52 652.57 190.95 646.3H190.73C189.61 649.65 188.71 652.05 188.03 653.49L160.2 714.66H157.34L129.4 653.92C128.54 652.05 127.71 649.45 126.91 646.14H126.69C126.94 649.17 127.07 653.33 127.07 658.62V714.66H120.26V635.17H128.04L155.71 695.96C156.79 698.27 157.78 700.84 158.68 703.69H159C160.19 700.27 160.97 698.09 161.35 697.15C161.73 696.21 171.14 675.55 189.59 635.17H197.05V714.66H190.3Z" fill="#404596"/>
<path d="M264.66 714.66V641.6H240.67C239.16 653.6 237.46 665.43 235.56 677.1C233.67 688.77 231.96 697 230.43 701.77C228.9 706.54 226.89 710.07 224.4 712.36C221.91 714.65 218.76 715.79 214.94 715.79C212.67 715.79 210.6 715.47 208.73 714.82V708.12C210.46 708.99 212.3 709.42 214.24 709.42C216.62 709.42 218.71 708.14 220.51 705.58C222.31 703.02 223.94 698.74 225.4 692.72C226.86 686.7 228.42 678.74 230.07 668.83C231.73 658.92 233.33 647.7 234.88 635.16H271.52V714.65H264.66V714.66Z" fill="#404596"/>
<path d="M292.11 714.66V635.17H330.48V641.49H299.03V671.37H328.16V677.58H299.03V708.38H332.26V714.65H292.11V714.66Z" fill="#404596"/>
<path d="M390.57 714.66L357.88 677.21C357.05 676.27 356.51 675.55 356.26 675.05H356.04V714.66H349.12V635.17H356.04V672.57H356.26L357.07 671.44L357.93 670.36L389.22 635.18H398.03L363.45 673.6L400.25 714.67H390.58L390.57 714.66Z" fill="#404596"/>
<path d="M443.63 716.07C436.42 716.07 430 714.37 424.37 710.96C418.73 707.55 414.36 702.77 411.27 696.61C408.18 690.45 406.62 683.52 406.62 675.81C406.62 667.42 408.17 660.04 411.27 653.68C414.37 647.32 418.84 642.42 424.67 638.98C430.51 635.54 437.3 633.82 445.04 633.82C452.14 633.82 458.45 635.5 463.98 638.87C469.51 642.24 473.78 646.96 476.79 653.03C479.8 659.1 481.3 666.03 481.3 673.81C481.3 682.13 479.77 689.52 476.71 695.97C473.65 702.42 469.28 707.38 463.61 710.86C457.94 714.34 451.28 716.07 443.64 716.07H443.63ZM444.22 640.09C438.28 640.09 432.99 641.56 428.36 644.49C423.73 647.43 420.15 651.58 417.61 656.95C415.07 662.32 413.8 668.35 413.8 675.05C413.8 681.75 415.02 687.86 417.45 693.15C419.88 698.45 423.33 702.54 427.8 705.44C432.27 708.34 437.53 709.79 443.58 709.79C453.09 709.79 460.55 706.67 465.95 700.41C471.35 694.16 474.06 685.63 474.06 674.82C474.06 667.79 472.89 661.65 470.55 656.39C468.21 651.13 464.79 647.1 460.31 644.29C455.83 641.48 450.47 640.08 444.23 640.08L444.22 640.09Z" fill="#404596"/>
<path d="M548.09 714.66V641.44H504.16V714.66H497.24V635.17H554.95V714.66H548.09Z" fill="#404596"/>
<path d="M630.12 714.66V654.24C630.12 650.67 630.23 647.85 630.44 645.76H630.12C629.58 646.99 628.61 648.64 627.2 650.73L582.24 714.66H575.49V635.17H582.41V695.05C582.41 698.8 582.3 701.64 582.09 703.59H582.31C583.32 701.75 584.43 700.01 585.66 698.35L629.97 635.18H637.1V714.67H630.13L630.12 714.66Z" fill="#404596"/>
<path d="M680.16 641.5V714.67H673.3V641.5H650.39V635.18H703.13V641.5H680.16Z" fill="#404596"/>
<path d="M767.92 714.66L759.06 690.88H724.85L716.2 714.66H708.53L738.68 635.17H745.6L775.59 714.66H767.92ZM742.04 643.11H741.82C741.6 644.3 741.31 645.48 740.93 646.65C740.55 647.82 735.99 660.46 727.23 684.56H756.73L743.65 648.84C742.93 646.89 742.39 644.99 742.03 643.11H742.04Z" fill="#404596"/>
<path d="M884.59 673.81C884.59 686.96 881.37 697.29 874.92 704.8C868.47 712.31 859.7 716.07 848.6 716.07C841.61 716.07 835.43 714.42 830.06 711.13C824.69 707.83 820.55 703.15 817.63 697.08C814.71 691.01 813.23 684.14 813.2 676.46H795.26V714.67H788.34V635.18H795.26V670.2H813.47C814.44 658.92 818.17 650.04 824.66 643.56C831.15 637.08 839.59 633.83 850 633.83C856.77 633.83 862.8 635.5 868.08 638.83C873.36 642.16 877.43 646.87 880.29 652.96C883.15 659.05 884.59 666 884.59 673.82V673.81ZM877.4 674.84C877.4 663.89 874.9 655.36 869.89 649.25C864.88 643.14 857.98 640.09 849.19 640.09C843.53 640.09 838.51 641.53 834.11 644.41C829.71 647.29 826.33 651.38 823.95 656.68C821.57 661.98 820.38 668.06 820.38 674.94C820.38 685.75 822.87 694.26 827.86 700.47C832.85 706.68 839.72 709.79 848.48 709.79C857.24 709.79 864.6 706.7 869.72 700.52C874.84 694.34 877.39 685.78 877.39 674.82L877.4 674.84Z" fill="#404596"/>
<path d="M985.7 735.96V714.67H900.59V635.18H907.51V708.4H937.72V635.18H944.64V708.4H974.96V635.18H981.93V708.4H992.25V735.96H985.71H985.7Z" fill="#404596"/>
<path d="M1060.16 714.66V654.24C1060.16 650.67 1060.27 647.85 1060.48 645.76H1060.16C1059.62 646.99 1058.65 648.64 1057.24 650.73L1012.28 714.66H1005.53V635.17H1012.45V695.05C1012.45 698.8 1012.34 701.64 1012.13 703.59H1012.35C1013.36 701.75 1014.47 700.01 1015.7 698.35L1060.01 635.18H1067.14V714.67H1060.17L1060.16 714.66Z" fill="#404596"/>
<path d="M1131.01 714.66L1112.75 684.29C1111.81 682.71 1110.97 681.07 1110.21 679.37H1109.94C1109.4 680.49 1108.93 681.41 1108.54 682.13C1108.14 682.85 1101.48 693.69 1088.54 714.66H1080.11L1105.83 674.62L1081.89 635.17H1090.27L1107.51 664.3C1108.27 665.53 1109.22 667.34 1110.37 669.76H1110.64C1111.61 667.74 1112.59 665.91 1113.56 664.25L1130.96 635.18H1138.96L1114.7 674.52L1139.45 714.67H1131.02L1131.01 714.66Z" fill="#404596"/>
</g>
<path d="M1769.89 288.135C1768.81 289.085 1767.72 289.99 1766.6 290.836C1768.93 287.359 1771.1 283.691 1773.06 279.837C1783.86 258.822 1787.15 236.086 1783.85 215.222C1783.59 213.531 1783.26 211.832 1782.92 210.132C1782.92 210.132 1782.92 210.132 1782.93 210.113C1782.54 208.31 1782.85 206.434 1784.17 205.136C1788.36 201.011 1792.33 197.607 1795.63 192.965L1795.67 192.979C1805.93 229.52 1794.7 266.502 1769.88 288.154L1769.89 288.135Z" fill="#404596"/>
<path d="M1649.35 303.056C1650.67 303.642 1651.98 304.157 1653.3 304.634C1650.01 301.999 1646.87 299.174 1643.81 296.081C1627.19 279.285 1617.23 258.587 1614.11 237.702C1613.84 236.004 1613.65 234.296 1613.45 232.581C1613.45 232.581 1613.45 232.581 1613.46 232.562C1613.3 230.731 1612.43 229.012 1610.79 228.18C1605.55 225.508 1600.73 223.464 1596.19 220.025L1596.17 220.082C1597.34 258.008 1619.18 289.897 1649.36 303.082L1649.35 303.056Z" fill="#404596"/>
<path d="M1792.08 585.724C1792.83 584.026 1793.52 582.334 1794.19 580.608C1792.5 584.558 1790.7 588.467 1788.77 592.244C1789.87 590.221 1790.9 588.151 1791.93 586.081C1763.16 652.602 1697.17 696.257 1622.4 702.31C1596.97 704.374 1570.52 702.093 1544.16 694.875C1518.82 687.915 1495.37 677.621 1475.13 663.684C1452.51 646.428 1433.71 624.177 1420.41 599.048C1409.54 578.539 1399.75 557.512 1395.9 534.744C1395.24 530.876 1389.84 530.566 1388.63 534.277C1382.37 553.389 1378.81 581.28 1385.68 608.645C1387.08 614.229 1389.03 619.538 1391.33 624.521C1392.99 628.125 1389.11 631.692 1385.62 629.803C1319.77 593.909 1328.98 492.734 1336.8 447.795C1340.62 425.748 1333.89 402.888 1318 387.114C1300.12 369.321 1281.96 370.882 1275.65 372.124C1274.69 372.338 1273.86 371.346 1274.24 370.404C1276.68 364.672 1280.27 359.722 1284.6 355.691C1287.99 352.53 1292.99 351.788 1297.13 353.847C1300.45 355.5 1304.03 356.947 1307.79 358.199C1296.62 352.407 1287.65 344.799 1282.01 336.62C1281.95 336.554 1281.93 336.482 1281.87 336.417C1280.21 333.938 1278.81 331.357 1277.65 328.71C1277.5 328.398 1277.39 328.054 1277.25 327.723C1274.52 321.115 1273.37 314.129 1274.1 307.281C1274.39 304.208 1275.08 301.152 1276.17 298.151C1276.73 296.603 1277.37 295.128 1278.12 293.694C1278.56 292.837 1279.8 292.875 1280.16 293.803C1280.75 295.464 1281.44 297.076 1282.31 298.686C1282.43 298.946 1282.54 299.161 1282.7 299.39C1287.58 308.116 1296.34 315.584 1307.58 319.648C1311.38 321.024 1315.23 321.918 1319.03 322.361C1322.21 322.692 1325.34 322.765 1328.37 322.52C1331.4 322.256 1334.09 320.633 1335.8 318.162C1335.64 318.73 1335.5 319.305 1335.39 319.894C1333.05 334.153 1343.92 348.374 1361.09 355.578C1344.59 344.835 1335.58 327.633 1340.29 313.279L1340.31 313.241C1341.34 310.072 1343.29 307.318 1345.64 304.947C1349.7 300.902 1354.33 297.586 1359.37 295C1362.74 293.214 1366.32 291.999 1370.07 290.827C1396.78 282.699 1430.39 289.534 1453.5 302.54C1453.63 302.607 1453.79 302.688 1453.91 302.775C1471.9 313.105 1485.82 329.229 1493.82 348.353L1494.42 349.802L1500.99 365.534C1500.99 365.534 1502.35 368.751 1503.94 372.61C1505.99 377.504 1509.58 381.632 1514.11 384.396C1522.62 389.568 1531.11 394.906 1539.14 400.491C1540.3 401.279 1541.42 402.072 1542.56 402.872C1542.63 402.919 1542.68 402.959 1542.74 403.025C1552.58 410.712 1561.23 418.833 1567.59 427.532C1581.81 446.916 1589.43 463.787 1589.12 480.837C1589.09 483.312 1586.67 484.922 1584.48 484.301C1583.77 483.917 1583.06 483.552 1582.35 483.206C1567.5 474.337 1555.3 470.962 1549.84 475.126C1542.05 465.715 1534.45 454.625 1527.63 442.282C1522.64 433.257 1518.47 424.292 1515.08 415.565C1517.21 423.405 1519.93 431.562 1523.31 439.832C1530.99 458.711 1540.81 475.489 1551.16 488.526C1562.53 503.987 1577.92 516.425 1596.59 523.975C1597.82 524.508 1599.06 524.977 1600.32 525.433C1656.65 545.803 1719.55 514.819 1741.49 456.182L1741.93 454.959C1751.18 429.384 1751.52 400.91 1742.29 375.267C1738.16 363.788 1732.18 351.575 1723.5 342.818C1711.75 330.961 1699.64 319.21 1682.94 315.008C1674.77 312.982 1666.89 309.722 1659.59 305.333C1649.47 299.252 1640.49 290.969 1633.41 280.606C1625.45 268.973 1620.79 256.093 1619.22 242.988C1618.8 239.377 1622.95 237.096 1625.77 239.411C1636.16 248.077 1648.78 254.086 1662.43 257.144C1670.79 259.02 1679.59 259.783 1688.52 259.295C1691.73 259.138 1694.94 258.807 1698.18 258.355C1699.51 258.145 1700.78 258.974 1701.03 260.318C1701.47 262.875 1702.62 265.321 1704.48 267.445C1708.87 272.423 1716.27 273.761 1722.13 270.649C1729.14 266.936 1731.71 258.617 1728.68 251.815C1728.14 250.625 1728.55 249.131 1729.69 248.504L1729.86 248.392C1748.53 239.174 1763.15 225.289 1772.78 209.317C1774.23 206.904 1777.27 206.704 1779.14 208.204C1779.86 208.788 1780.39 209.605 1780.61 210.659C1780.95 212.358 1781.27 214.051 1781.54 215.749C1784.84 236.613 1781.55 259.348 1770.75 280.364C1768.78 284.211 1766.61 287.879 1764.29 291.363C1764.19 291.521 1764.1 291.641 1764.01 291.78C1761.21 295.869 1757.73 299.408 1753.65 302.192L1753.58 302.254L1753.48 302.303C1749.36 305.137 1748.57 310.904 1751.8 314.773C1757.35 321.426 1762.62 328.413 1767.63 335.734C1821.77 414.88 1828.12 511.241 1791.98 585.709L1792.08 585.724Z" fill="#404596"/>
<path d="M1358.94 354.109C1361.68 355.098 1364.69 353.683 1365.68 350.949C1366.67 348.215 1365.26 345.197 1362.52 344.208C1359.79 343.219 1356.77 344.634 1355.78 347.368C1354.79 350.102 1356.21 353.12 1358.94 354.109Z" fill="#7ECBF3"/>
<defs>
<clipPath id="clip0_41_221">
<rect width="1029.98" height="564.96" fill="white" transform="translate(113 171)"/>
</clipPath>
</defs>
</svg>
