<svg width="102" height="90" viewBox="0 0 102 90" fill="none" xmlns="http://www.w3.org/2000/svg">
<g clip-path="url(#clip0_6_52)">
<path d="M31.8866 65.503C31.1383 64.4853 29.7772 63.6087 27.5775 63.0394C21.0839 61.3516 29.2298 51.2201 29.2298 51.2201C29.2298 51.2201 29.2449 51.2302 29.2851 51.2453C29.501 53.9608 29.7873 56.893 30.405 59.9611C30.7917 61.8706 31.319 63.7246 31.8916 65.503H31.8866Z" fill="#434595"/>
<path d="M31.8866 65.503C31.1383 64.4853 29.7772 63.6087 27.5775 63.0394C21.0839 61.3516 29.2298 51.2201 29.2298 51.2201C29.2298 51.2201 29.2449 51.2302 29.2851 51.2453C29.501 53.9608 29.7873 56.893 30.405 59.9611C30.7917 61.8706 31.319 63.7246 31.8916 65.503H31.8866Z" fill="#434595"/>
<path d="M20.7273 30.2164C20.416 31.093 20.1598 31.9998 19.969 32.9168C19.9891 32.7455 20.1498 31.5716 20.7273 30.2164Z" fill="#434595"/>
<path d="M81.9173 60.6715C81.7315 60.4498 81.5457 60.2382 81.3599 60.0165C81.1389 59.7545 80.7673 59.679 80.4559 59.8301C79.2958 60.4045 78.1407 60.9788 76.9655 61.5582C76.5487 61.6741 75.1776 62.3391 75.1123 61.5985C75.1123 61.5934 76.6692 61.14 77.1212 60.7622C77.5531 60.4045 79.6875 58.3691 79.793 58.2985C79.4866 57.8552 79.0095 57.6738 78.5425 58.0063C76.5738 59.3968 73.907 60.7974 71.5566 60.0921C70.6828 59.8301 70.9941 58.7973 70.9992 58.6966C71.1247 56.8526 72.3049 56.1775 73.0934 54.9281C73.2089 54.7417 73.3445 54.4394 73.0382 54.3789C72.7167 54.3185 72.325 54.4747 72.0287 54.5805C71.5868 54.7316 71.1549 54.923 70.743 55.1397C70.3262 55.3614 69.9395 55.6284 69.5327 55.8702C69.372 55.9659 69.2063 56.0516 69.0456 56.1423C68.915 56.2128 68.7944 56.2632 68.704 56.3841C67.9557 57.3212 67.1371 58.1927 66.2432 58.9888C65.3492 59.7848 64.39 60.5103 63.3956 61.1753C62.3611 61.8705 61.2863 62.5003 60.1865 63.0797C59.0615 63.6691 57.9064 64.2032 56.7312 64.6818C55.556 65.1705 54.3608 65.5987 53.1504 65.9866C51.9702 66.3645 50.7749 66.697 49.5696 66.9741C48.4246 67.2462 47.2695 67.4678 46.1094 67.6442C45.0396 67.8054 43.9699 67.9213 42.8851 67.9817C42.3176 68.0119 41.7552 68.0271 41.1877 68.022C40.4142 68.022 39.6509 67.8709 38.9277 67.6039C36.9188 66.8431 34.3525 65.8405 32.2783 64.7473C32.0775 64.7725 31.8766 64.8027 31.6757 64.8228C31.5602 64.838 31.4346 64.848 31.3191 64.8631C27.5425 65.2763 23.6503 65.0999 20.3306 63.8203C20.3206 63.8203 20.3105 63.8152 20.3005 63.8102C19.6225 63.5432 19.9088 62.5154 20.6269 62.6262C21.7871 62.8076 22.9673 62.9285 23.2786 62.9688C24.9812 63.2006 26.6987 63.3013 28.4163 63.2711C28.5569 63.2711 28.7026 63.2711 28.8432 63.2711C29.1847 63.261 29.5212 63.2459 29.8627 63.2308C30.2996 63.2056 30.7365 63.1754 31.1735 63.1351C34.1064 62.8781 37.0042 62.2534 39.7814 61.276C46.4157 58.9434 52.0908 54.3739 56.8467 49.2653C56.9572 49.1444 57.0727 49.0235 57.1832 48.9026C57.8913 48.1267 57.1581 46.9176 56.1436 47.1695C55.8825 47.235 55.6163 47.2954 55.3451 47.3508C51.3324 48.2023 47.0033 48.041 43.1212 47.4919C41.6798 47.2904 40.3038 47.0334 39.0281 46.7614C35.362 45.9654 31.6154 45.6983 27.904 45.9855C27.2763 46.0309 26.6937 46.3432 26.3321 46.847C25.5085 46.3785 24.7752 45.8696 24.1324 45.3155C24.0721 45.391 24.0069 45.4515 23.9315 45.517C23.9315 45.517 23.9315 45.517 23.9315 45.522C20.3909 47.6229 17.4479 48.6557 15.0976 49.1041C15.0373 51.3259 15.1126 53.5275 15.429 55.6888C15.7404 57.835 16.2828 59.9309 17.1566 61.936C17.684 63.1351 18.3268 64.2334 19.0701 65.236V65.2612C19.1052 65.3065 19.1454 65.3468 19.1906 65.3921C23.7306 70.0322 30.6612 72.7074 36.3915 74.3901C37.0092 74.5765 37.6169 74.7428 38.2045 74.9091H38.2597C41.5492 74.8284 44.899 74.3851 48.2337 73.6294C53.2609 72.4857 60.9699 69.4528 66.2934 67.1101C66.7705 66.9036 68.1165 66.3242 69.1761 66.173C72.0639 65.7801 75.4739 65.901 78.5425 66.8028C78.8538 66.8985 79.1953 66.7675 79.3611 66.4804C79.8281 65.6642 80.2651 64.8329 80.717 64.0167C81.159 63.2157 81.5859 62.4298 82.0228 61.6337C82.1936 61.3214 82.1534 60.9335 81.9274 60.6564L81.9173 60.6715ZM31.1383 90.1039C30.8621 90.1039 30.5909 90.1039 30.3147 90.1039C30.9525 90.1139 31.5853 90.1089 32.2231 90.0988H32.2783C33.2928 90.0736 34.3073 90.0182 35.3268 89.9275C34.1717 90.0232 33.0166 90.0837 31.8665 90.1039C31.6255 90.1089 31.3794 90.1089 31.1383 90.1089V90.1039ZM24.2077 89.6252C23.4343 89.5194 22.6609 89.3935 21.8925 89.2524C22.6609 89.3985 23.4293 89.5245 24.2077 89.6252ZM19.969 32.9168C20.1599 31.9998 20.416 31.093 20.7274 30.2164C20.1498 31.5766 19.9891 32.7455 19.969 32.9168Z" fill="#404596"/>
<path d="M82.0127 61.6438C81.5758 62.4398 81.1489 63.2258 80.707 64.0268C80.255 64.843 79.8181 65.6743 79.351 66.4904C79.1853 66.7776 78.8438 66.9036 78.5324 66.8129C75.4638 65.9111 72.0588 65.7952 69.1661 66.1831C68.1064 66.3343 66.7604 66.9136 66.2833 67.1202C60.9599 69.4629 53.2508 72.4958 48.2237 73.6395C44.889 74.3952 41.5392 74.8385 38.2497 74.9191H38.1944C37.6068 74.7579 37.0042 74.5866 36.3814 74.4002C30.6511 72.7175 23.7206 70.0423 19.1805 65.4022C19.1353 65.3569 19.0952 65.3166 19.055 65.2712V65.246C18.3167 64.2435 17.6739 63.1452 17.1466 61.9461C16.2727 59.941 15.7303 57.8401 15.4189 55.6989C15.4792 55.4974 15.5495 55.2908 15.6299 55.0893C17.1466 51.1697 21.9327 47.1191 23.9215 45.5371C23.9968 45.4716 24.0621 45.4112 24.1223 45.3356C24.273 45.1542 24.3734 44.9426 24.4186 44.7159C24.4789 44.4288 24.4488 44.1214 24.3232 43.8393C22.7764 40.4436 21.8774 36.9472 23.1882 33.4155C25.0715 28.3271 28.803 25.007 34.2269 25.9794C39.7412 26.9668 41.8556 30.1207 42.6943 35.0126C42.8249 35.7784 42.9253 36.5845 43.0056 37.4359C43.0408 37.7886 42.9504 38.1413 42.7244 38.4083C42.0565 39.2144 41.8857 40.5646 42.3779 41.8845C42.9002 43.2851 44.0101 44.2172 45.0999 44.2978C45.0446 44.4036 44.9743 44.5043 44.899 44.6001C44.452 45.1593 43.9799 45.4464 43.2467 45.391C43.2015 45.391 43.1613 45.3507 43.1161 45.3759C42.7646 45.5724 43.2417 46.182 43.4376 46.2928C43.995 46.6052 43.6686 47.1292 43.3572 47.4113C43.2768 47.4818 43.1915 47.507 43.1061 47.5171C42.9504 47.5322 42.7897 47.4869 42.629 47.4969C42.9002 47.7892 43.0157 48.0965 43.0358 48.4542C43.0458 48.6104 42.9203 48.7413 42.7596 48.7363C42.3277 48.7262 41.9661 48.6607 41.9259 49.351C41.9108 49.6784 42.398 50.4392 42.0816 50.8825C41.8807 51.1596 41.7401 51.1747 41.278 51.1647C38.8724 51.1193 35.0104 49.8145 32.3637 49.6532C32.1929 49.6432 32.0322 49.7137 31.9167 49.8396C31.2086 50.6205 30.2544 52.0161 29.4659 53.6484C28.0095 56.6461 27.0955 60.4498 29.2349 62.7169C29.2399 62.722 29.25 62.7321 29.26 62.7421C29.4308 62.9134 29.6216 63.0847 29.8376 63.261C30.2996 63.6288 30.8671 63.9966 31.4949 64.3593C31.7359 64.4954 31.9921 64.6364 32.2482 64.7725C34.3223 65.8657 36.8836 66.8683 38.8975 67.6291C39.6207 67.9011 40.3841 68.0422 41.1575 68.0472C41.725 68.0522 42.2875 68.0371 42.855 68.0069C43.9347 67.9465 45.0095 67.8306 46.0792 67.6694C47.2393 67.493 48.3944 67.2713 49.5395 66.9993C50.7498 66.7172 51.9401 66.3897 53.1203 66.0118C54.3306 65.6289 55.5259 65.1957 56.7011 64.707C57.8763 64.2233 59.0314 63.6893 60.1563 63.1049C61.2562 62.5255 62.3309 61.8957 63.3655 61.2005C64.3599 60.5355 65.3141 59.81 66.213 59.014C67.107 58.2179 67.9256 57.3464 68.6739 56.4093C68.7693 56.2934 68.8848 56.238 69.0154 56.1675C69.1761 56.0768 69.3418 55.9861 69.5025 55.8954C69.9093 55.6536 70.296 55.3866 70.7129 55.1649C71.1247 54.9482 71.5566 54.7618 71.9986 54.6057C72.2949 54.4999 72.6866 54.3437 73.008 54.4041C73.3194 54.4595 73.1788 54.7669 73.0633 54.9533C72.2748 56.2078 71.0946 56.8778 70.969 58.7218C70.964 58.8175 70.6476 59.8553 71.5265 60.1173C73.8768 60.8226 76.5436 59.422 78.5123 58.0315C78.9844 57.699 79.4565 57.8804 79.7628 58.3237C79.6574 58.3943 77.5229 60.4297 77.091 60.7874C76.639 61.1602 75.0822 61.6136 75.0822 61.6237C75.1475 62.3643 76.5185 61.6992 76.9353 61.5834C78.1105 61.004 79.2606 60.4297 80.4257 59.8553C80.7371 59.7042 81.1037 59.7797 81.3297 60.0417C81.5155 60.2634 81.7014 60.475 81.8872 60.6967C82.1182 60.9687 82.1584 61.3567 81.9826 61.6741L82.0127 61.6438Z" fill="#F8B369"/>
<path d="M23.9315 45.527L19.0651 65.246C18.3218 64.2435 17.6789 63.1452 17.1516 61.9461C16.2778 59.9409 15.7354 57.8401 15.424 55.6989C15.1126 53.5426 15.0323 51.3359 15.0925 49.1141C17.4379 48.6658 20.3859 47.6329 23.9265 45.5321L23.9315 45.527Z" fill="#F8B369"/>
<path d="M19.1906 65.4022C19.1454 65.3569 19.1052 65.3166 19.0651 65.2712V65.246C19.1103 65.3015 19.1504 65.3518 19.1906 65.4073V65.4022Z" fill="#233E92"/>
<path d="M41.5793 37.5719C41.7149 37.6324 41.8455 37.4963 41.7752 37.3654C41.5542 36.9673 41.0771 36.4283 40.0978 36.524C38.566 36.6701 38.0889 37.5618 38.0889 37.5618L37.5716 38.8062C37.5264 38.912 37.662 38.9977 37.7374 38.9171C38.4505 38.1614 39.9873 36.8515 41.5793 37.577V37.5719Z" fill="#404596"/>
<path d="M41.3684 38.8163C41.4638 38.8314 41.524 38.7256 41.4588 38.6551C41.2579 38.4384 40.8712 38.1765 40.2685 38.3931C39.3243 38.7306 39.1686 39.3705 39.1686 39.3705L39.0431 40.237C39.0331 40.3076 39.1285 40.3428 39.1636 40.2824C39.4901 39.6929 40.2534 38.6198 41.3734 38.8163H41.3684Z" fill="#404596"/>
<path d="M40.9766 38.3528C40.9766 38.3528 41.514 38.6047 41.7952 38.0807C41.7952 38.0807 41.8053 38.9322 41.3131 38.8113C40.8209 38.6904 40.7808 38.5896 40.7808 38.5896L40.9766 38.3578V38.3528Z" fill="#404596"/>
<path d="M40.9967 39.7383C40.846 39.7383 40.7205 39.6123 40.7205 39.4612C40.7205 39.31 40.846 39.1841 40.9967 39.1841C41.0218 39.1841 41.0419 39.1942 41.067 39.1992C40.9415 38.9725 40.7004 38.8214 40.4242 38.8214C40.0124 38.8214 39.6809 39.1539 39.6809 39.567C39.6809 39.9801 40.0124 40.3126 40.4242 40.3126C40.7958 40.3126 41.1022 40.0406 41.1574 39.6829C41.1122 39.7181 41.057 39.7383 41.0017 39.7383H40.9967Z" fill="#404596"/>
<path d="M42.0413 34.1057C42.0062 33.8186 41.9509 33.5163 41.8706 33.2241C41.7048 32.6447 40.9415 32.6497 40.7557 33.2241C40.4694 34.1158 40.153 35.0932 39.8969 35.8338C39.2641 37.6576 31.9568 36.9019 31.0378 41.1691C30.3447 44.3784 32.6198 45.1038 33.7849 45.2651C33.9305 45.2852 33.9456 45.5069 33.805 45.5472C32.7704 45.8394 30.6762 45.9956 29.2549 43.2398C28.9887 42.7259 28.7929 42.2321 28.6573 41.7686C28.6422 42.5999 28.7226 43.5572 28.9435 44.6504C28.9737 44.7965 28.8029 44.8872 28.7125 44.7713C28.1601 44.0459 27.5574 43.3657 27.1004 42.5697C26.7539 41.9651 26.5329 41.2951 26.4174 40.6099C26.3571 40.2572 26.322 39.9046 26.3069 39.5469C26.3069 39.4713 26.2165 38.7357 26.2065 38.7458C24.8304 40.0305 24.2529 42.1767 24.504 44.8066C24.519 44.9628 23.9867 44.9275 23.9214 44.7864C22.696 42.0306 18.8691 32.9067 27.3616 26.8963C28.9687 25.7627 30.8871 25.2337 32.7855 25.4705C33.9004 25.6116 35.4874 26.0045 37.0594 26.7905C37.3506 26.9366 37.6721 26.997 37.9935 26.9769C39.6207 26.8912 42.4331 27.0373 43.769 28.851C45.0396 30.5741 43.8594 32.8966 43.0056 34.3677C42.0062 36.0958 42.1066 34.6347 42.0464 34.1158L42.0413 34.1057Z" fill="#404596"/>
<path d="M101.705 39.7887C101.589 39.6627 101.464 39.5418 101.343 39.431C100.695 38.8365 99.9418 38.373 99.1282 38.0606C97.9028 37.5921 96.5368 37.4611 95.1909 37.7332H95.1607C96.5117 35.9648 97.1495 33.5516 96.7477 31.0628C96.7327 30.9419 96.7075 30.8209 96.6824 30.7C96.1903 28.2314 94.769 26.2161 92.9259 25.0171C92.4036 24.6795 91.7607 25.1632 91.9214 25.7678C92.4086 27.6016 92.1223 29.7176 91.0626 31.6069C90.8115 32.0603 90.5152 32.4936 90.1737 32.9117C89.5962 33.612 88.9433 34.2015 88.2452 34.6751C87.3864 35.2494 86.7486 36.1008 86.4322 37.0883C85.9652 38.5594 85.2721 40.4084 84.8502 41.5117C85.5282 39.6829 85.8547 38.2319 85.9903 37.0933C86.2062 35.1839 85.4027 33.2795 83.8508 32.156C83.8458 32.151 83.8358 32.146 83.8307 32.1409C83.1578 31.6522 82.4346 31.2391 81.6762 30.9066C80.486 30.3776 79.2003 30.0501 77.8694 29.9494C76.9052 29.8637 75.9108 29.9091 74.9114 30.0854H74.9064C74.8109 30.1005 74.7155 30.1206 74.6251 30.1408C73.0281 30.4632 71.5767 31.093 70.3161 31.9595C69.6381 32.423 69.0807 33.0427 68.7191 33.7783C68.7191 33.7783 68.7191 33.7833 68.714 33.7884C68.4077 34.4181 68.0863 35.0328 67.7498 35.6474C67.0266 36.9724 66.2381 38.2622 65.3894 39.5066C64.179 41.3001 62.8331 43.003 61.3867 44.6152C61.6278 44.4338 61.8638 44.2474 62.0948 44.0509C61.452 44.6 60.9649 45.7235 60.4626 46.4037C59.0062 48.3786 57.4242 50.2628 55.7368 52.0463C50.9708 57.0844 45.1852 61.5128 38.4455 63.4525C36.527 64.0016 34.4328 64.4702 32.2833 64.7624C34.3575 65.8556 36.9188 66.8582 38.9327 67.619C39.6558 67.891 40.4192 68.0321 41.1926 68.0371C41.7601 68.0422 42.3226 68.0271 42.8901 67.9968C43.9699 67.9364 45.0446 67.8205 46.1143 67.6593C47.2745 67.4829 48.4296 67.2613 49.5746 66.9892C50.7849 66.7071 51.9752 66.3796 53.1554 66.0018C54.3657 65.6189 55.561 65.1856 56.7362 64.6969C57.9114 64.2132 59.0665 63.6792 60.1914 63.0948C61.2913 62.5154 62.366 61.8856 63.4006 61.1904C64.395 60.5254 65.3492 59.7999 66.2482 59.0039C67.1421 58.2079 67.9607 57.3363 68.709 56.3992C68.8044 56.2833 68.92 56.2279 69.0505 56.1574C69.2112 56.0667 69.377 55.976 69.5377 55.8853C69.9445 55.6435 70.3312 55.3765 70.748 55.1548C71.1598 54.9382 71.5917 54.7518 72.0337 54.5956C72.33 54.4898 72.7217 54.3336 73.0431 54.394C73.3545 54.4495 73.2139 54.7568 73.0984 54.9432C72.3099 56.1977 71.1297 56.8677 71.0042 58.7117C70.9991 58.8074 70.6827 59.8452 71.5616 60.1072C73.912 60.8125 76.5787 59.412 78.5474 58.0215C79.0195 57.6889 79.4916 57.8703 79.7979 58.3137C79.6925 58.3842 77.5581 60.4196 77.1262 60.7773C76.6742 61.1501 75.1173 61.6035 75.1173 61.6136C75.1826 62.3542 76.5536 61.6892 76.9705 61.5733C78.1457 60.9939 79.2957 60.4196 80.4609 59.8452C80.7722 59.6941 81.1389 59.7697 81.3649 60.0316C81.5507 60.2533 81.7365 60.4649 81.9223 60.6866C82.1533 60.9586 82.1935 61.3466 82.0177 61.664C81.5808 62.46 81.1539 63.2459 80.712 64.047C80.26 64.8631 79.8231 65.6944 79.356 66.5106C79.1903 66.7978 78.8488 66.9237 78.5374 66.833C75.4688 65.9312 72.0638 65.8153 69.1711 66.2033C68.1114 66.3544 66.7655 66.9338 66.2883 67.1404C60.9649 69.4831 53.2558 72.516 48.2287 73.6596C44.894 74.4153 41.5442 74.8587 38.2547 74.9393H38.1994C37.6118 74.7781 37.0092 74.6068 36.3864 74.4204C30.6561 72.7376 23.7256 70.0624 19.1855 65.4224C19.1403 65.377 19.1002 65.3367 19.06 65.2914V65.2662C18.3217 64.2636 17.6789 63.1653 17.1516 61.9663C16.2777 59.9611 15.7353 57.8602 15.4239 55.7191C15.1126 53.5628 15.0322 51.3561 15.0925 49.1343C17.4378 48.6859 20.3858 47.6531 23.9265 45.5522C24.0018 45.4867 24.0671 45.4263 24.1273 45.3507C20.0795 41.9248 19.4216 37.1236 20.3607 32.6195C20.3607 32.6195 20.3607 32.6145 20.3607 32.5994C20.3808 32.423 20.5365 31.2542 21.1191 29.8939C22.0833 27.6419 24.2177 24.8609 28.8532 25.2035C29.0641 25.2186 29.27 25.1985 29.4609 25.1229C29.8024 24.9969 30.405 24.7853 31.0629 24.6443C31.2739 24.5989 31.304 24.3118 31.1031 24.2312C28.818 23.3243 20.8881 21.0169 11.0697 27.7628C10.8287 27.9241 10.5876 28.0903 10.3516 28.2717C6.16811 31.3399 2.76309 36.4434 1.54773 40.8971C0.472987 44.8318 -0.0242061 48.4391 0.000904671 51.8045C0.0561484 61.0997 4.0337 68.5611 10.3265 76.6371C11.5418 78.1939 10.0703 77.8462 9.57313 77.7606C9.07092 77.6749 8.02129 76.8739 7.3885 76.3197C6.52469 75.564 5.76634 74.8687 5.09337 74.2138C4.34005 73.4934 3.15482 74.3851 3.65201 75.3071C3.74241 75.4834 3.83783 75.6547 3.93325 75.831C7.51405 82.3553 13.5858 87.0306 20.6018 88.9904C20.6018 88.9904 20.6068 88.9904 20.6118 88.9904C22.4047 89.4892 24.2529 89.8066 26.1412 89.9376C26.6083 89.9678 27.0753 89.993 27.5374 90.0182C28.3711 90.0635 29.2047 90.0837 30.0334 90.0938C30.1288 90.0938 30.2242 90.0938 30.3146 90.0938C30.5909 90.0938 30.8621 90.0938 31.1383 90.0938C31.3793 90.0938 31.6254 90.0938 31.8665 90.0887C32.0824 90.0887 32.2984 90.0837 32.5143 90.0736C32.439 90.0787 32.3587 90.0787 32.2833 90.0837C33.4937 90.0686 34.709 90.0283 35.9143 89.9578C37.9935 89.8419 40.3188 89.3885 42.6541 88.7234C43.1814 88.5975 43.7037 88.4614 44.221 88.3204C46.1093 87.8015 47.9525 87.1767 49.7403 86.4462C52.9696 85.1363 56.2189 82.7684 59.2322 80.2393C61.1205 78.8992 62.9486 77.6901 64.3649 77.2014C65.2789 77.418 66.0674 78.1284 66.2833 79.1864V79.2166C67.1622 83.5796 64.9324 88.3103 61.4721 91.1417C60.5731 91.8722 61.1909 93.3484 62.3359 93.2023C68.5132 92.4063 75.3232 87.8468 80.1143 80.6222C80.1294 80.6071 80.1395 80.587 80.1545 80.5618C82.1182 77.5843 83.1075 74.0828 83.1879 70.5108C83.2582 67.4174 83.9211 64.1931 85.1968 61.0342C85.242 60.9183 85.3022 60.8025 85.3524 60.6816C86.0104 58.359 87.2257 55.7543 88.9332 53.1245C89.556 52.1622 90.244 51.1949 90.9923 50.2427C94.2919 46.051 98.0736 42.9728 101.308 41.5621C102.011 41.2548 102.222 40.3479 101.7 39.7837L101.705 39.7887ZM19.969 32.9168C19.9891 32.7455 20.1498 31.5716 20.7273 30.2164C20.416 31.093 20.1598 31.9998 19.969 32.9168ZM10.9542 35.5265C10.5374 33.9546 8.63901 35.5668 6.75068 37.3352C6.18318 37.8642 5.31435 37.184 5.69101 36.5089C9.83429 29.2138 16.6494 26.1758 20.1799 25.0423C20.5717 24.9163 20.8177 25.4453 20.4813 25.672C11.1802 31.8689 11.4414 37.3704 10.9542 35.5215V35.5265ZM21.8925 89.2524C22.6609 89.3935 23.4293 89.5194 24.2077 89.6252C23.4343 89.5194 22.6609 89.3935 21.8925 89.2524ZM84.7649 41.7233C84.6293 42.0155 84.3631 42.2422 84.0216 42.3128C83.4591 42.4236 82.9117 42.0609 82.7962 41.4916C82.6807 40.9273 83.0473 40.3781 83.6098 40.2623C84.1773 40.1514 84.7247 40.5142 84.8352 41.0835C84.8703 41.2699 84.8603 41.4513 84.8 41.6175C84.79 41.6528 84.7749 41.688 84.7598 41.7233H84.7649Z" fill="#404596"/>
<path d="M84.805 41.6125C84.795 41.6477 84.7799 41.683 84.7649 41.7183C84.6293 42.0105 84.3631 42.2372 84.0216 42.3077C83.4591 42.4185 82.9117 42.0558 82.7962 41.4865C82.6807 40.9222 83.0473 40.3731 83.6098 40.2572C84.1773 40.1464 84.7247 40.5091 84.8352 41.0784C84.8703 41.2648 84.8603 41.4462 84.8 41.6125H84.805Z" fill="#404596"/>
<path d="M84.805 41.6125C84.795 41.6477 84.7799 41.683 84.7649 41.7183C84.6293 42.0105 84.3631 42.2372 84.0216 42.3077C83.4591 42.4185 82.9117 42.0558 82.7962 41.4865C82.6807 40.9222 83.0473 40.3731 83.6098 40.2572C84.1773 40.1464 84.7247 40.5091 84.8352 41.0784C84.8703 41.2648 84.8603 41.4462 84.8 41.6125H84.805Z" fill="#7ECBF3"/>
<path d="M63.5454 16.1369C61.2854 16.8977 60.6828 15.9556 60.8385 13.3862C60.8686 12.8773 60.281 12.5952 59.8993 12.9227C58.3224 14.2829 57.2677 13.9252 56.1578 12.0057C55.9218 11.5926 55.3191 11.6329 55.1383 12.0712C54.2795 14.157 53.2952 14.686 51.5625 13.5171C51.1407 13.23 50.5832 13.5978 50.6887 14.1016C51.226 16.7062 50.7841 17.7441 48.4488 17.2705C47.8913 17.1597 47.5348 17.8448 47.9466 18.2378C50.4978 20.6863 50.9097 21.8904 48.0872 22.8023C47.4996 22.9937 47.595 23.8502 48.2077 23.9107C54.1138 24.4598 55.7611 26.1677 58.8899 34.5108C58.9702 34.7274 59.2916 34.6518 59.2665 34.4201C58.3374 25.941 59.2314 24.0165 64.7658 22.495C65.3584 22.3338 65.3082 21.4723 64.6955 21.3866C61.8328 20.9684 62.0538 19.7392 64.1681 17.0287C64.5147 16.5853 64.0727 15.9606 63.5454 16.142V16.1369ZM60.6275 20.1875C59.4674 21.6738 59.3469 22.3489 60.9138 22.5756C61.2503 22.626 61.2754 23.0945 60.954 23.1852C57.9206 24.0215 57.4284 25.0745 57.9407 29.7196C57.9557 29.8455 57.78 29.8858 57.7348 29.7699C56.0172 25.1954 55.1182 24.2583 51.8789 23.9611C51.5424 23.9308 51.4922 23.4573 51.8136 23.3565C53.3605 22.8577 53.1345 22.1977 51.7383 20.8576C51.5123 20.641 51.7082 20.2631 52.0145 20.3286C53.2952 20.5856 53.5362 20.0213 53.245 18.5905C53.1897 18.3134 53.491 18.1119 53.7271 18.268C54.6763 18.9129 55.2136 18.6207 55.6857 17.4771C55.7862 17.2352 56.1126 17.2151 56.2432 17.4418C56.8509 18.4948 57.4284 18.6912 58.2922 17.9456C58.5032 17.7642 58.8246 17.9204 58.8095 18.1975C58.7241 19.6082 59.0556 20.1221 60.2961 19.7039C60.5873 19.6082 60.8284 19.9508 60.6376 20.1926L60.6275 20.1875Z" fill="#404596"/>
<path d="M50.0257 6.94247C48.2428 6.50416 48.2328 5.63761 49.3979 4.02543C49.629 3.70803 49.3628 3.2798 48.9761 3.33522C47.3891 3.56697 46.8517 2.8969 46.917 1.189C46.9321 0.821221 46.5253 0.599546 46.2239 0.811145C44.8027 1.81372 43.9439 1.74823 43.301 0.267034C43.1454 -0.0957067 42.6281 -0.0856305 42.4874 0.287186C41.7643 2.20669 41.0461 2.70042 39.7202 1.42075C39.4038 1.11847 38.8866 1.41571 38.992 1.84395C39.6449 4.49397 39.4139 5.4512 37.2041 4.87686C36.7421 4.75595 36.4508 5.35548 36.8275 5.64769C40.4485 8.45389 40.8151 10.2474 39.4139 16.9833C39.3787 17.1597 39.6198 17.2403 39.7002 17.0791C42.5879 11.1694 43.964 10.2877 48.1976 11.5926C48.6496 11.7337 48.9711 11.1493 48.6095 10.8419C46.917 9.38089 47.5699 8.67557 50.0609 7.78383C50.4677 7.63772 50.4425 7.04827 50.0207 6.94751L50.0257 6.94247ZM46.455 8.36824C45.0889 8.85694 44.7324 9.24487 45.6564 10.0459C45.8523 10.2172 45.6815 10.5346 45.4304 10.459C43.1102 9.74363 42.3569 10.2273 40.7749 13.4668C40.7297 13.5524 40.5991 13.5071 40.6192 13.4113C41.3876 9.72348 41.1867 8.73602 39.203 7.19941C38.997 7.03819 39.1578 6.71072 39.4089 6.77621C40.6242 7.09361 40.7498 6.56965 40.3882 5.11365C40.3329 4.8819 40.6142 4.71565 40.7849 4.8819C41.5131 5.58219 41.9049 5.31014 42.3016 4.26222C42.377 4.0607 42.6582 4.05566 42.7486 4.25214C43.1002 5.06327 43.5722 5.09854 44.3507 4.54939C44.5164 4.43351 44.7374 4.55443 44.7273 4.75595C44.6872 5.69303 44.9835 6.06081 45.8573 5.93486C46.0682 5.90463 46.2139 6.14142 46.0883 6.31271C45.4505 7.19437 45.4555 7.66795 46.4349 7.90978C46.6659 7.9652 46.6809 8.28763 46.455 8.36824Z" fill="#404596"/>
</g>
<defs>
<clipPath id="clip0_6_52">
<rect width="102" height="90" fill="white"/>
</clipPath>
</defs>
</svg>
