<svg width="116" height="137" viewBox="0 0 116 137" fill="none" xmlns="http://www.w3.org/2000/svg">
<path d="M35.2267 47.0066C35.2267 47.0066 35.2514 47.0016 35.2612 46.9966C35.2464 46.9966 35.2366 47.0066 35.2267 47.0066Z" fill="#7ECBF3"/>
<path d="M70.454 109.135C69.1249 111.685 66.0348 112.717 63.3765 111.578C63.2261 111.515 63.0806 111.447 62.9351 111.369C62.8187 111.311 62.7071 111.242 62.6004 111.179C60.4029 109.821 57.8562 109.145 55.3191 109.417C54.0967 109.544 52.8064 109.802 51.5015 110.191C50.085 110.615 48.7801 111.15 47.6256 111.768C46.1364 112.561 44.9042 113.486 44.0262 114.445C42.3914 116.231 40.2376 117.492 37.8267 117.915C34.5621 118.485 31.0743 118.008 27.8969 116.319C25.8547 115.234 24.1471 113.764 22.8228 112.041C21.8866 110.829 23.0702 109.189 24.5255 109.661C24.5449 109.666 24.5595 109.67 24.5789 109.675C28.3189 110.873 31.6612 110.834 32.2967 108.726C32.6071 107.689 32.2142 106.755 31.3459 105.932C26.8491 105.587 22.3329 104.321 18.0689 102.053C4.8793 95.0447 -1.86833 80.6332 0.450412 66.9226C0.998566 63.6908 2.04636 60.4931 3.63747 57.4463C8.17792 48.7342 16.1819 43.0056 25.161 41.0052C28.2219 40.3238 31.4672 40.7521 34.2759 42.2366L34.3244 42.2609C34.4359 42.3193 34.5427 42.3778 34.6542 42.441C35.4692 42.8888 36.4636 42.5822 36.8905 41.784C36.9681 41.6379 37.0554 41.4919 37.1428 41.3459C39.2238 37.9487 43.2889 36.4447 47.3248 37.1845C47.6353 37.243 47.7323 37.6323 47.4801 37.8173C45.6028 39.2044 44.2494 41.7742 43.8904 44.9086C43.8516 45.2445 43.6527 45.5316 43.3713 45.7166C43.1288 45.8772 42.9396 46.14 42.8862 46.4953C42.8232 46.8847 43.0124 47.2838 43.3374 47.5223C43.3519 47.532 43.3616 47.5418 43.3762 47.5515C43.6624 47.751 43.8613 48.0528 43.9001 48.3984C44.3173 51.8394 45.8938 54.8229 48.0428 56.4388C48.3193 56.6481 48.1883 57.0813 47.8487 57.0959C45.661 57.1884 43.3616 56.6189 41.2757 55.3291C38.5301 53.6256 36.7256 51.0217 36.0901 48.267C35.9931 47.8386 36.2356 47.4201 36.6528 47.2838C37.3416 47.0648 38.21 46.8312 39.2772 46.6219L39.2384 46.5245C38.535 46.5732 37.8413 46.6559 37.1573 46.7727C36.6577 46.8458 36.2065 46.9285 35.9203 47.0161C35.9106 47.0161 35.8961 47.0161 35.8864 47.0258C30.4388 48.2767 25.7188 51.6058 23.0799 56.6627C20.4556 61.6904 20.3974 67.458 22.4202 72.6755C24.1811 77.2068 27.5088 81.3146 32.093 84.1619C32.5732 84.4588 33.0631 84.7411 33.5676 85.0088C33.7665 85.1158 33.9703 85.218 34.174 85.3202C36.7983 86.6198 39.5876 87.5542 42.4545 88.0799C45.0595 88.5569 47.7275 88.625 50.3567 88.6786C51.3656 88.698 52.3019 88.5715 53.2235 88.1675C54.1016 87.783 54.9262 87.2574 55.8673 87.014C57.5506 86.576 59.3551 86.4981 61.0723 86.9167C61.7951 87.0967 62.5131 87.345 63.2213 87.6662C63.4347 87.7635 63.653 87.8706 63.8616 87.9826C68.3924 90.3869 70.7596 95.2248 69.9738 99.7172C69.9301 99.9605 69.8816 100.199 69.8185 100.442C69.6924 100.944 69.5226 101.44 69.314 101.922C69.251 102.073 69.1831 102.219 69.1151 102.36L69.1006 102.384C67.7472 104.779 64.9579 106.161 62.0765 105.65C61.2761 105.509 60.5339 105.236 59.8645 104.862C60.6843 105.499 61.6641 105.967 62.7507 106.195C64.0556 106.468 65.3508 106.341 66.5102 105.908C66.4811 106.224 66.6315 106.555 66.9516 106.726H66.9613C68.0576 107.315 69.3334 107.149 70.1581 106.414C70.3473 106.249 70.6286 106.229 70.8421 106.39C70.9876 106.497 71.0652 106.682 71.0604 106.857C71.0264 107.631 70.8324 108.405 70.454 109.13V109.135Z" fill="#7ECBF3"/>
<path d="M32.9516 45.8139C34.1061 45.5608 35.12 45.4099 35.9543 45.3515C36.8032 45.2931 38.2003 44.5971 38.1615 44.237C38.1615 44.2272 38.1615 44.2175 38.1566 44.2078C38.1275 44.1202 38.0111 44.0666 37.7783 44.0618C37.1768 44.052 36.0319 44.3489 35.1636 44.5874C34.2565 44.8356 33.3203 45.1374 32.3841 45.4732C30.4 46.1789 28.2899 47.0453 26.4271 47.9506C26.4514 47.936 26.4805 47.9262 26.5144 47.9116C28.3869 47.0794 30.7056 46.3006 32.9516 45.809V45.8139Z" fill="#404596"/>
<path d="M66.7818 105.397C66.6217 105.538 66.5344 105.718 66.515 105.908C65.3556 106.341 64.0605 106.463 62.7556 106.195C61.669 105.971 60.6891 105.504 59.8693 104.862C60.5387 105.236 61.2809 105.509 62.0813 105.65C64.9579 106.161 67.7472 104.784 69.1054 102.384C69.0763 102.443 69.0472 102.501 69.0181 102.56C68.4408 103.664 67.6792 104.613 66.7867 105.392L66.7818 105.397Z" fill="#404596"/>
<path d="M60.3508 106.158C60.6148 105.75 60.49 105.198 60.0721 104.926C59.6541 104.654 59.1012 104.764 58.8372 105.172C58.5732 105.58 58.698 106.132 59.1159 106.404C59.5339 106.676 60.0868 106.566 60.3508 106.158Z" fill="#404596"/>
<path d="M52.753 81.9522H52.7433C52.2 82.3221 51.453 81.9766 51.3899 81.3244C51.3463 80.8717 51.4481 80.4045 51.7149 79.9957C51.7441 79.9519 51.7732 79.9129 51.8023 79.8691C50.1044 80.4824 48.232 79.5966 47.6111 77.8882C47.5723 77.786 47.6547 77.6838 47.7615 77.6935C47.7615 77.6935 47.7615 77.6935 47.7663 77.6935C48.0622 77.7227 48.329 77.8687 48.5279 78.0878C48.7559 78.336 49.0178 78.5647 49.3137 78.7545C50.4149 79.4749 51.7392 79.582 52.8889 79.1682C52.3844 80.0638 52.3504 81.1102 52.7482 81.9522H52.753Z" fill="#7ECBF3"/>
<path d="M49.6921 84.5513L49.6823 84.561C48.9741 85.0331 48.0088 84.5854 47.9312 83.7434C47.873 83.1593 48.0088 82.5509 48.3532 82.0204C48.392 81.962 48.426 81.9085 48.4696 81.8598C46.2722 82.658 43.8467 81.5094 43.0414 79.2948C42.9929 79.1634 43.0997 79.0271 43.2355 79.0417C43.2355 79.0417 43.2403 79.0417 43.2452 79.0417C43.6284 79.0758 43.9728 79.2705 44.2299 79.5528C44.5258 79.8789 44.8654 80.166 45.2486 80.4191C46.6796 81.3487 48.392 81.4899 49.8764 80.9545C49.2264 82.1177 49.1779 83.4708 49.6969 84.561L49.6921 84.5513Z" fill="#7ECBF3"/>
<path d="M79.1906 123.22C81.5627 120.583 84.3665 120.256 86.0401 120.354C86.0886 120.354 86.1031 120.286 86.0498 120.271C84.6236 119.921 81.2716 119.517 78.2107 122.349C78.2107 122.349 77.5898 122.817 77.0756 123.805H77.095C77.8372 123.994 78.6182 123.775 79.1663 123.24C79.1809 123.225 79.1906 123.22 79.1906 123.22Z" fill="#7ECBF3"/>
<path d="M98.8949 131.981C97.4202 134.259 95.3538 135.885 93.0981 136.746C93.0932 136.722 93.0835 136.697 93.0787 136.678C92.8943 136.079 92.6809 135.481 92.4432 134.887C91.9484 133.655 91.3663 132.497 90.7066 131.412C90.3961 130.901 90.367 130.273 90.6338 129.742C90.6387 129.728 90.6484 129.718 90.6532 129.703C90.9249 129.124 90.7502 128.414 90.2409 128.024C89.9062 127.766 89.4987 127.693 89.1252 127.771C88.5431 127.898 87.9416 127.737 87.5244 127.314C86.4475 126.223 85.2833 125.269 84.0511 124.476C82.9451 123.761 81.7906 123.172 80.6021 122.719C80.4517 122.661 80.4178 122.456 80.5439 122.354C82.5279 120.772 84.609 120.475 86.0885 120.529C86.5833 120.548 87.0732 120.655 87.5292 120.845H87.5341C87.5341 120.845 87.5632 120.86 87.5826 120.87C91.3372 122.461 95.5429 122.247 98.0072 119.205C98.1964 119.006 98.371 118.796 98.5408 118.572C98.6378 118.446 98.73 118.31 98.8173 118.173C98.992 117.906 99.1423 117.633 99.2782 117.351C99.4964 116.893 99.6614 116.426 99.7778 115.949V115.939C99.9039 115.584 100.02 115.224 100.127 114.859C101.796 109.13 101.199 103.455 98.9143 99.4495C98.7057 99.0844 99.1229 98.6805 99.477 98.9141L99.4867 98.9189C100.816 99.7853 102.48 99.9654 103.964 99.3959C104.066 99.357 104.158 99.284 104.216 99.1915L104.372 98.953C104.638 98.5442 104.478 98.0769 104.017 97.9163C103.828 97.8725 103.639 97.8238 103.45 97.7752C98.4972 96.4805 93.8839 94.1248 89.8577 90.9515C88.7711 90.0949 87.7184 89.2529 86.7676 88.3768C84.4101 86.2012 82.2272 85.5831 81.5626 86.756C80.3887 88.8392 83.4496 93.02 86.2874 93.5116C84.5071 96.1398 80.0491 96.3199 76.0326 94.0032C75.824 93.8815 75.6154 93.7549 75.4068 93.6187C74.912 93.2974 74.4512 92.9519 74.0243 92.5868C72.4526 91.2484 71.4048 89.4086 70.9245 87.3985C70.7984 86.868 70.6335 86.3472 70.4346 85.841C69.639 83.8455 68.2662 82.0885 66.3695 80.8522C65.9718 80.5943 65.5594 80.3655 65.1422 80.166C65.1277 80.166 65.1083 80.166 65.0889 80.1708C63.5463 79.4116 61.5768 79.0271 59.4618 79.178C59.3842 79.1828 59.3066 79.1877 59.229 79.1974C57.2886 79.3726 55.5423 79.9616 54.1743 80.823C54.0579 80.896 53.8978 80.8425 53.8493 80.7111C53.5971 80.0005 53.6262 79.1828 53.9609 78.4382C54.0045 78.3408 53.9172 78.2386 53.8154 78.2678C52.7336 78.5744 51.5354 78.4284 50.5167 77.7665C50.1626 77.5329 49.8522 77.2554 49.5999 76.944C49.5223 76.8466 49.5756 76.7006 49.7018 76.6811C50.507 76.5546 51.2589 76.1019 51.7392 75.3621C51.9623 75.0166 52.1078 74.6418 52.1709 74.2573C52.1709 74.2524 52.1709 74.2476 52.1709 74.2427C51.8119 73.8095 51.4966 73.352 51.225 72.8751C50.8902 72.291 50.6234 71.6729 50.4197 71.0353C49.5756 68.3876 49.8764 65.3943 51.5063 62.878C53.534 59.7436 57.3032 58.0498 60.985 58.6193C64.6232 59.1839 67.3834 62.1479 70.7451 63.5302C74.4754 65.0633 78.7491 65.8129 82.785 65.9638L87.0829 66.1244C92.1861 66.4553 97.3232 68.0809 101.966 71.1083C115.941 80.2147 120.195 98.5247 111.469 112.011C111.027 112.693 110.566 113.345 110.076 113.973C108.718 115.725 107.035 117.19 105.172 118.383C104.231 118.986 103.377 119.745 102.64 120.646C102.397 120.943 102.169 121.259 101.956 121.59C101.466 122.349 101.083 123.143 100.801 123.965C100.496 124.856 100.311 125.781 100.248 126.715C100.185 127.635 100.205 128.56 100.108 129.48C100.098 129.577 100.074 129.669 100.04 129.762C99.739 130.521 99.3606 131.271 98.8949 131.991V131.981Z" fill="#7ECBF3"/>
<path d="M59.2387 72.6415C58.2637 73.3326 57.1285 73.8631 55.9013 74.1649C54.5867 74.4861 53.3109 74.4958 52.1709 74.2525C52.1709 74.2476 52.1709 74.2428 52.1709 74.2379C51.8119 73.8047 51.4966 73.3472 51.225 72.8702C52.6997 73.7317 54.6497 74.0335 56.7065 73.5857C57.6088 73.391 58.4625 73.0649 59.2435 72.6463L59.2387 72.6415Z" fill="#404596"/>
<path d="M59.5444 74.1552C59.9811 74.1552 60.3351 73.8 60.3351 73.3618C60.3351 72.9237 59.9811 72.5685 59.5444 72.5685C59.1077 72.5685 58.7537 72.9237 58.7537 73.3618C58.7537 73.8 59.1077 74.1552 59.5444 74.1552Z" fill="#404596"/>
</svg>
