<svg width="115" height="88" viewBox="0 0 115 88" fill="none" xmlns="http://www.w3.org/2000/svg">
<g clip-path="url(#clip0_6_53)">
<path d="M66.6549 23.6654C67.2552 24.9344 67.8977 25.2199 68.9666 24.4427C69.2247 24.2523 69.5827 24.4638 69.5354 24.7863C69.3037 26.4042 69.6354 27.0334 71.0993 26.6686C71.4416 26.584 71.6891 27.0017 71.4469 27.266C69.9671 28.868 69.7618 29.6294 71.5469 30.0471C71.926 30.137 71.9155 30.6815 71.5311 30.7503C67.9556 31.4165 67.2868 32.5849 67.429 37.9937C67.429 38.1418 67.2237 38.1735 67.1868 38.0307C65.6544 32.5902 64.7013 31.4217 61.0047 30.7608C60.6203 30.6921 60.6045 30.1422 60.9889 30.0524C62.8161 29.6241 62.6213 28.8416 61.1416 27.1603C60.9046 26.8906 61.1679 26.4729 61.5102 26.5734C62.9583 26.9964 63.2953 26.3619 63.0952 24.6912C63.0584 24.3686 63.427 24.1624 63.6797 24.3686C64.7118 25.204 65.3595 24.9185 66.0125 23.6443C66.1494 23.3746 66.5286 23.3852 66.6602 23.6549L66.6549 23.6654Z" fill="#E62841"/>
<path d="M54.1591 41.4516C53.9116 41.8322 53.5219 42.16 53.0111 42.4297C50.9048 41.1978 48.7405 39.8548 46.7237 38.5753C46.2709 38.2845 45.4231 37.74 44.1593 37.2112C40.4995 35.6779 36.9819 35.8048 34.5965 36.1485L33.3801 33.193L32.3954 29.217L33.5749 29.1007L37.1241 31.5962C37.2715 31.665 39.0777 32.5056 39.1251 32.1144C39.1146 32.1144 37.1978 31.0094 37.1978 31.0094C37.1399 30.9353 34.8282 28.1649 34.7703 28.0908C35.1336 27.7842 35.6602 27.7842 36.0183 28.0908C37.519 29.3703 40.8944 31.665 42.5479 31.1944C43.2009 31.0094 43.4378 30.2004 43.4378 30.063C43.4378 29.8568 43.4273 29.6611 43.3957 29.4814C43.8117 29.6823 44.2172 29.8885 44.6174 30.1105C44.5963 30.137 44.5753 30.1634 44.5595 30.1846C49.8727 33.9808 55.7757 38.9296 54.1644 41.441L54.1591 41.4516Z" fill="#404596"/>
<path d="M96.2489 34.4355C96.3331 36.9998 94.627 39.6698 92.5154 41.9803C88.7503 46.0832 84.1322 48.2456 79.2139 49.0017C79.8194 47.9654 80.346 46.8815 80.7778 45.7712C84.743 45.0574 88.7029 43.4766 91.5991 41.3987C91.8624 41.2137 92.0678 41.018 92.2416 40.796C92.231 40.0293 92.1889 39.2574 92.1415 38.5066C91.8729 34.5254 91.22 30.5811 90.8408 26.6157C91.2832 23.3271 91.2937 19.8851 92.0836 16.6811C93.142 18.2197 94.1109 19.8164 94.9798 21.4819C94.5111 21.9841 93.9951 22.4441 93.4316 22.846C93.4316 22.846 93.4527 22.8565 93.4158 22.9041C94.4532 25.3468 96.1172 29.9149 96.2541 34.4408L96.2489 34.4355Z" fill="#404596"/>
<path d="M93.4054 22.8988C94.4427 25.3415 96.1067 29.9097 96.2437 34.4355C96.3279 36.9998 94.6218 39.6698 92.5102 41.9803C88.7451 46.0832 84.127 48.2456 79.2087 49.0017C73.4689 49.8952 67.3184 48.8748 61.6208 46.8181C60.4939 46.411 59.1458 45.7871 57.6714 45.0257C57.466 44.92 57.2607 44.8143 57.05 44.7032C55.7704 44.0265 54.4013 43.2545 53.0111 42.435C50.9048 41.2031 48.7405 39.8602 46.7237 38.5807C46.2709 38.2899 45.4231 37.7453 44.1593 37.2166C40.4995 35.6833 36.9819 35.8102 34.5965 36.1538L33.3801 33.1983L32.3954 29.2223L33.5749 29.106L37.1241 31.6016C37.2716 31.6703 39.0777 32.511 39.1251 32.1197C39.1146 32.1197 37.1978 31.0147 37.1978 31.0147C37.1399 30.9407 34.8282 28.1702 34.7703 28.0962C35.1336 27.7895 35.6602 27.7895 36.0183 28.0962C37.519 29.3757 40.8944 31.6703 42.5479 31.1997C43.2009 31.0147 43.4378 30.2057 43.4378 30.0683C43.4378 29.8621 43.4273 29.6664 43.3957 29.4867C43.1008 27.4881 41.0577 26.9383 41.2946 26.2985C41.5053 25.7275 41.421 25.3574 44.0381 27.2079C44.2962 27.393 44.5068 27.5516 44.6701 27.6996C45.0439 28.0327 45.2124 28.2706 45.2862 28.3764C47.7716 31.9347 52.4424 35.9899 57.6082 38.8344C61.0573 40.7378 64.7224 42.0913 68.1188 42.4139C76.5968 43.2228 86.7125 37.8193 87.6445 32.1091C87.8131 31.1151 87.4866 29.4867 86.1385 27.4511C82.9527 28.6037 79.8774 28.4715 78.8032 28.3658C78.5399 28.3394 78.3293 28.149 78.3029 27.8847C78.2503 27.467 78.3661 26.8537 78.4715 26.6157C78.74 26.013 77.4393 25.9707 77.4393 25.9707C77.3235 25.2516 77.8922 24.908 77.8922 24.908C77.7711 24.908 77.4078 24.908 77.1761 24.7229C76.8443 24.4691 76.6284 23.5862 77.1181 23.6708C77.234 23.6919 77.5131 23.3218 77.571 23.0575C77.3867 23.031 77.1971 22.9676 77.0234 22.8671C76.6969 22.6821 76.3967 22.3648 76.2071 21.9577C76.007 21.5347 75.9491 21.0853 76.0281 20.6941C76.0439 20.6941 76.065 20.6941 76.0808 20.6888C76.3441 20.6518 76.6126 20.6306 76.8654 20.5355C77.1919 20.4139 77.4867 20.2288 77.729 19.9856C77.7711 19.9433 77.8185 19.901 77.8554 19.8534C78.2872 19.3829 78.5346 18.759 78.5346 18.1087C78.5346 17.7174 78.4451 17.3473 78.2871 17.0195C78.1344 16.697 78.0081 16.3639 77.9607 16.0149C77.9027 15.6025 77.8764 15.1795 77.8764 14.7513C77.8764 9.10457 82.5893 4.55758 88.2764 4.85895C93.121 5.12331 97.1388 9.0094 97.5601 13.8577C97.8234 16.8027 96.7913 19.515 94.9693 21.4819C94.5007 21.9842 93.9846 22.4441 93.4212 22.846C93.4212 22.846 93.4422 22.8565 93.4054 22.9041V22.8988Z" fill="#F8B369"/>
<path d="M78.3345 13.6621C78.3345 13.6621 79.2402 14.5715 80.7726 14.8887C82.3049 15.206 82.9842 15.9197 82.9842 15.9197C82.9842 15.9197 80.3197 14.8517 78.6189 15.6818C78.6189 15.6818 78.0501 14.4552 78.3345 13.6621Z" fill="#404596"/>
<path d="M78.6663 15.777C78.6663 15.777 79.0085 16.9137 79.8511 17.0723C80.6936 17.231 82.5946 17.6804 82.5946 17.6804L82.2418 17.3261C81.8837 16.9666 81.415 16.734 80.9095 16.6705C80.2039 16.5806 79.177 16.3533 78.6663 15.777Z" fill="#404596"/>
<path d="M79.6404 19.33C79.6404 19.33 80.3144 17.8601 82.4102 17.6645L82.6682 17.7068C82.6682 17.7068 81.1253 17.8654 79.6456 19.3352L79.6404 19.33Z" fill="#404596"/>
<path d="M80.0565 18.521C80.4462 18.521 80.7621 18.2038 80.7621 17.8125C80.7621 17.4213 80.4462 17.1041 80.0565 17.1041C79.6667 17.1041 79.3508 17.4213 79.3508 17.8125C79.3508 18.2038 79.6667 18.521 80.0565 18.521Z" fill="#404596"/>
<path d="M100.304 4.46765C92.8947 4.46765 87.0075 9.70726 86.4335 17.8918C86.6178 18.0452 90.8779 21.725 90.6567 23.1367C90.6567 23.1367 90.7094 23.7976 90.1512 23.9985C90.1512 23.9985 90.683 22.9834 89.572 21.6933C88.7347 20.7205 87.1128 19.1449 86.3598 18.4258C86.3493 18.6955 86.344 18.9757 86.344 19.2506C86.344 27.8265 92.168 34.8373 99.5349 35.3871C99.3295 34.2874 99.219 33.1507 99.219 31.9875C99.219 23.0521 105.543 15.814 113.342 15.814C113.653 15.814 113.963 15.8298 114.274 15.851C112.91 8.54936 107.091 4.47294 100.309 4.47294L100.304 4.46765Z" fill="#404596"/>
<path d="M96.9387 19.4569C96.8439 23.4487 90.4038 23.8558 90.4038 23.8558C91.4307 22.6503 88.5029 19.79 86.9758 18.4365C86.1332 17.691 85.4065 16.8133 84.8852 15.8193C83.6688 13.4929 83.8426 11.6107 84.643 10.1197C83.5635 10.3999 82.4419 10.6431 81.3308 10.7066C77.2445 10.9762 75.8701 7.9731 75.8701 7.9731C77.1076 8.31148 79.1771 7.13244 80.4198 6.30764C81.7573 5.41939 83.237 4.74792 84.8115 4.43069C90.9357 3.19348 94.8008 7.11658 94.8008 7.11658C94.8008 7.11658 94.6902 7.24876 94.5112 7.46553C95.4538 8.28505 95.9645 9.11514 94.8429 9.51696C92.2943 10.4264 97.0335 15.4651 96.9335 19.4569H96.9387Z" fill="#404596"/>
<path d="M86.2859 19.3247C86.4123 20.6677 86.7388 22.0529 87.2811 23.2795C88.1711 25.2887 90.2458 26.4994 92.3311 26.9753C92.5522 27.0281 92.7734 27.0652 92.9998 27.1022C91.3253 26.859 89.9299 26.4466 88.5923 25.3574C86.3017 23.5016 86.2859 19.3247 86.2859 19.3247Z" fill="#F8B369"/>
<path d="M94.9748 21.4764C94.5061 21.9787 93.9901 22.4387 93.4266 22.8405C93.4266 22.8405 93.4477 22.8511 93.4108 22.8987C94.4482 25.3414 96.1122 29.9095 96.2491 34.4354C96.3334 36.9996 94.6272 39.6697 92.5156 41.9802C88.7505 46.083 84.1324 48.2455 79.2141 49.0016C77.6344 51.7245 75.4859 54.1407 72.8635 55.9701C68.6403 58.9256 63.9695 59.8297 59.8095 58.8939C57.2556 58.3282 54.8965 57.0645 52.9587 55.1611C51.6843 53.9187 50.5943 52.3959 49.7465 50.6194C49.3042 49.6995 48.9619 48.7478 48.6775 47.7749C47.2189 52.0417 47.0872 56.5411 48.4932 60.6915C48.9145 61.9552 49.4832 63.1871 50.1994 64.3661C51.7791 66.9727 53.9328 69.1035 56.4604 70.7319C57.0449 71.1073 57.6558 71.4616 58.2824 71.7841C57.5979 71.5832 56.9238 71.3558 56.2603 71.102C51.9371 69.4683 48.0825 66.7771 45.418 63.2981C43.5381 60.8449 42.2479 57.9951 41.8004 54.8492C40.9315 48.7425 37.7141 46.9396 33.0643 44.6449C32.9432 44.5709 31.3266 43.6985 31.216 43.6245C28.1934 41.6735 24.4284 38.2633 25.571 32.7699C26.0871 35.9158 28.1355 39.1885 30.7158 40.854C34.3334 43.1909 48.4458 44.8723 53.0113 42.4402C50.905 41.2082 48.7407 39.8653 46.7239 38.5858C46.271 38.295 45.4232 37.7504 44.1594 37.2217C40.4997 35.6884 36.9821 35.8153 34.5967 36.159L33.3803 33.2034L32.3956 29.2275L33.5751 29.1112L37.1243 31.6067C37.2717 31.6754 39.0779 32.5161 39.1253 32.1248C39.1148 32.1248 37.198 31.0198 37.198 31.0198C37.1401 30.9458 34.8284 28.1753 34.7705 28.1013C35.1338 27.7946 35.6604 27.7946 36.0185 28.1013C37.5192 29.3808 40.8946 31.6754 42.5481 31.2049C43.2011 31.0198 43.438 30.2109 43.438 30.0734C43.438 29.8672 43.4275 29.6716 43.3959 29.4918C43.101 27.4933 41.0579 26.9434 41.2948 26.3037C41.5055 25.7326 41.4212 25.3625 44.0383 27.2131C44.2964 27.3981 44.507 27.5567 44.6702 27.7048C44.4438 26.679 44.6702 25.5476 45.4917 24.7862C45.4917 24.7862 46.6291 23.9984 48.3195 23.438C49.7096 22.9727 51.479 22.6661 53.2904 23.0838C54.3962 23.3428 55.5179 23.8715 56.5868 24.8074C56.8501 24.2416 56.9976 23.6125 56.9976 22.9463C56.9976 22.0263 56.7185 21.1751 56.234 20.4719C55.8601 19.922 55.3599 19.4673 54.7806 19.1395C55.5231 19.351 56.3183 19.462 57.145 19.462C57.6768 19.462 58.1929 19.4144 58.6932 19.3246C61.2734 18.8751 63.3587 17.3154 64.1696 15.2851C59.7937 15.3433 55.9339 13.5351 54.1909 12.0494C53.4852 11.4466 53.0745 10.5637 53.064 9.63843C52.9692 9.25246 52.8586 8.87707 52.727 8.50697C51.2473 4.24549 47.5454 1.04146 43.0115 0.285387C43.0115 0.274813 42.9641 0.274813 42.9641 0.274813C40.4102 -0.142875 37.7509 -0.0318443 35.197 0.327685C31.3319 0.856404 27.5299 1.97729 23.9966 3.60046C21.2741 4.84823 18.6939 6.41324 16.3137 8.23203C13.9915 9.99267 11.8693 12.0018 9.96837 14.2066C8.10426 16.3479 6.46132 18.6795 5.06061 21.1592C3.71255 23.5385 2.5962 26.0393 1.72207 28.6247C1.66414 28.8098 1.60095 28.9948 1.53776 29.1905C1.52723 29.2169 1.5167 29.238 1.51143 29.2592C0.531988 32.2782 -0.00512695 35.5034 -0.00512695 38.8607C-0.00512695 41.8744 0.421406 44.7877 1.22181 47.5317C1.56936 48.7319 3.25969 48.7213 3.62303 47.5317C4.45504 44.793 5.65565 42.2287 7.16694 39.8917C7.87783 38.792 9.5787 39.2996 9.5787 40.6108V40.6584V40.78C9.54184 41.3933 9.52077 41.9749 9.52077 42.5036C9.52077 50.905 11.8272 58.8093 15.845 65.6086C21.153 74.5863 29.4414 81.613 39.3307 85.2558C43.8382 86.9213 48.6775 87.8836 53.7169 88.0052C79.2352 88.6079 100.109 68.0196 100.109 42.53C100.109 34.9376 98.2501 27.7894 94.9695 21.4976L94.9748 21.4764ZM47.3716 9.42165C49.6464 9.33706 49.4306 11.2775 49.4306 11.2775C49.4306 11.9542 48.7934 12.4829 48.093 12.2873C47.7665 12.1974 47.498 11.9436 47.3927 11.6211C47.2242 11.0977 47.4611 10.6007 47.8666 10.3628C47.2242 10.0508 46.4132 10.1196 45.6865 10.2465C43.9646 10.5425 42.2532 10.9602 40.5681 11.3938C40.8367 11.2827 45.1705 9.50096 47.3716 9.41636V9.42165Z" fill="#404596"/>
<path d="M49.4304 11.2776C49.4304 11.5789 49.304 11.8539 49.0987 12.0442C49.0987 12.0442 49.0952 12.0477 49.0881 12.0548C48.8775 12.3667 48.5142 12.5782 48.1034 12.5782C47.4399 12.5782 46.9028 12.0389 46.9028 11.3727C46.9028 10.881 47.1977 10.458 47.619 10.2677C47.0239 10.0774 46.3288 10.1408 45.6864 10.2518C43.9592 10.5479 42.2531 10.9656 40.5627 11.3992C40.8366 11.2881 45.1651 9.50634 47.3715 9.42175C49.6463 9.33715 49.4304 11.2828 49.4304 11.2828V11.2776Z" fill="#7ECBF3"/>
</g>
<defs>
<clipPath id="clip0_6_53">
<rect width="114.269" height="88" fill="white"/>
</clipPath>
</defs>
</svg>
