<svg width="314" height="306" viewBox="0 0 314 306" fill="none" xmlns="http://www.w3.org/2000/svg">
<g filter="url(#filter0_d_25_217)">
<path d="M276.362 107.545C272.283 103.87 266.334 108.433 268.279 113.775C271.651 123.079 273.104 133.299 272.194 143.751C272.005 145.991 271.702 148.232 271.285 150.473L271.26 150.637C270.148 156.607 263.088 158.397 259.526 153.683C259.172 153.219 258.819 152.768 258.452 152.317C252.491 144.994 244.345 139.666 234.809 137.63C234.493 137.562 234.165 137.493 233.836 137.439C231.904 137.083 230.11 137.48 228.607 138.395C234.354 148.669 236.728 161.17 234.493 173.877C231.058 193.387 217.518 208.156 200.871 213.088C199.495 213.498 198.408 211.817 199.191 210.533C202.172 205.601 204.155 199.904 204.875 193.742C205.027 192.485 204.332 192.867 204.332 192.867C199.583 196.106 192.321 196.789 187.016 196.502C177.556 195.996 168.879 190.504 161.617 182.785C160.783 181.896 161.553 180.366 162.703 180.653C166.062 181.5 169.51 181.896 172.971 181.842C174.31 181.815 174.866 179.997 173.83 179.082C170.496 176.104 167.464 172.592 164.863 168.575C155.819 154.694 153.71 137.78 157.764 122.642C158.623 119.431 159.773 116.289 161.187 113.283C161.945 111.084 162.652 108.857 163.309 106.63C163.978 104.375 164.597 102.107 165.153 99.8256C165.633 97.8718 166.075 95.8908 166.467 93.9097C166.643 92.9806 166.82 92.0379 166.972 91.1089C167.616 87.461 168.096 83.8541 168.437 80.2881C171.746 46.3777 162.198 17.0989 140.979 5.29443C116.4 -8.38178 83.3218 5.29443 57.7582 36.445C53.8176 41.2406 50.0664 46.446 46.5426 52.034C45.6458 53.4549 44.9006 54.9441 44.2944 56.488C43.3598 58.8926 42.7661 61.4338 42.5514 64.0024C42.2736 67.4317 42.6777 70.9293 43.8271 74.2356C44.5975 76.4216 45.6332 78.4437 46.9467 80.2198C48.5255 82.3922 50.5085 84.182 52.8451 85.4936C55.1564 86.7778 57.6319 87.4746 60.1579 87.6249C64.3386 87.8708 68.6455 86.6412 72.5735 84.141C77.0319 81.3128 80.9978 76.8725 83.7007 71.1752C86.5299 65.232 87.5403 58.8789 86.9214 53.1133C86.1131 45.5716 89.7758 38.2485 95.9646 34.6689C108.759 27.2501 123.486 27.619 133.363 36.9642C146.561 49.4654 146.208 73.4022 132.744 90.9996C132.466 91.3821 132.163 91.751 131.86 92.1199C127.97 96.9018 123.031 101.588 117.487 103.883C104.654 109.198 96.7477 120.497 89.6622 132.67C82.7913 144.447 77.9539 157.29 75.4532 170.98C73.4197 182.101 72.965 193.168 73.9249 203.907C73.9249 203.961 73.9249 204.03 73.9375 204.084C75.3016 219.004 82.0588 232.803 92.6681 242.449C95.1689 244.731 97.8971 246.944 100.878 249.089C111.184 256.549 123.221 262.369 136.015 266.454C148.292 270.375 145.298 282.07 131.708 286.347C130.344 286.77 129.308 288 129.031 289.503C128.702 291.32 129.523 293.164 131.064 293.998C139.299 298.465 148.228 301.826 157.701 303.862C158.358 303.999 159.027 304.135 159.684 304.272C164.37 305.269 169.182 305.747 173.931 305.952C178.604 306.157 183.138 305.693 187.799 305.57C189.618 305.515 191.525 305.802 193.331 305.502C224.111 300.515 250.988 278.969 264.149 247.982C264.793 246.479 266.902 247.203 266.599 248.816L266.574 248.939C264.414 260.757 260.17 271.55 254.36 280.977C250.369 287.44 257.366 295.296 263.505 291.279C287.78 275.389 306.031 248.939 311.979 216.449C319.671 174.409 304.755 133.217 276.349 107.572L276.362 107.545ZM58.4276 65.5053C57.9224 67.1584 56.3941 68.2651 54.8027 68.1421C52.3272 67.9509 50.7358 65.2047 51.7589 62.6771C52.302 61.3382 53.5397 60.4365 54.8911 60.3955C57.4425 60.3272 59.2107 62.9504 58.4276 65.5053Z" fill="#7ECBF3"/>
</g>
<path d="M64.2882 100.345C34.8977 118.352 0.871843 89.2508 8.17211 53.9604L15.4976 56.0781C13.5526 62.6088 13.3884 69.8637 15.144 76.6813C20.7139 99.1835 44.9134 110.469 64.2882 100.345Z" fill="#7ECBF3"/>
<path d="M59.8297 87.2833C59.2866 89.1414 58.5793 90.9858 57.6573 92.7756C51.5443 104.758 39.0025 110.113 28.873 105.454C34.6451 103.432 39.9371 98.8555 43.2968 92.2701C45.3302 88.2806 46.4164 84.0316 46.6185 79.8918C48.1973 82.0642 50.1802 83.854 52.5168 85.1656C54.8282 86.4499 57.3037 87.1467 59.8297 87.2969V87.2833Z" fill="#F6A640"/>
<path d="M19.6024 28.4251C20.0823 31.9773 21.4211 33.2479 24.6039 32.3872C25.3744 32.1823 26.0817 33.002 25.7154 33.7125C23.9093 37.333 24.2377 39.1228 28.0646 39.601C28.9614 39.7103 29.2266 40.9263 28.4435 41.3225C23.644 43.7681 22.5578 45.3803 26.5616 48.0035C27.4078 48.5637 26.9658 49.8479 25.9806 49.6567C16.8111 47.9762 14.3103 50.1212 10.5086 63.0596C10.4076 63.4148 9.87709 63.2919 9.88972 62.923C10.3318 48.632 8.92982 45.0114 0.492831 40.0655C-0.391285 39.5464 0.000251818 38.2348 0.985409 38.3714C5.73437 39.0409 5.86068 37.0051 3.56197 31.6631C3.1957 30.8023 4.14297 30.0646 4.90078 30.6111C8.0836 32.9337 9.37188 31.7451 10.1676 27.5916C10.3191 26.7856 11.3675 26.6489 11.8221 27.3594C13.6788 30.2695 15.4596 30.2012 18.0236 27.7829C18.5667 27.2774 19.4761 27.6326 19.5771 28.3977L19.6024 28.4251Z" fill="#E84B4F"/>
<defs>
<filter id="filter0_d_25_217" x="34.467" y="0" width="279.522" height="314.004" filterUnits="userSpaceOnUse" color-interpolation-filters="sRGB">
<feFlood flood-opacity="0" result="BackgroundImageFix"/>
<feColorMatrix in="SourceAlpha" type="matrix" values="0 0 0 0 0 0 0 0 0 0 0 0 0 0 0 0 0 0 127 0" result="hardAlpha"/>
<feOffset dx="-4" dy="4"/>
<feGaussianBlur stdDeviation="2"/>
<feComposite in2="hardAlpha" operator="out"/>
<feColorMatrix type="matrix" values="0 0 0 0 0 0 0 0 0 0 0 0 0 0 0 0 0 0 0.25 0"/>
<feBlend mode="normal" in2="BackgroundImageFix" result="effect1_dropShadow_25_217"/>
<feBlend mode="normal" in="SourceGraphic" in2="effect1_dropShadow_25_217" result="shape"/>
</filter>
</defs>
</svg>
