<svg width="207" height="64" viewBox="0 0 207 64" fill="none" xmlns="http://www.w3.org/2000/svg">
<g clip-path="url(#clip0_41_113)">
<path d="M64.6862 52.236C64.0286 53.7807 64.05 55.5301 63.7707 57.19C63.4913 58.8498 62.7434 60.6206 61.2047 61.2606C60.4654 61.5721 59.6445 61.5806 58.8408 61.5721H57.7576C53.4982 61.5636 49.2388 61.555 44.9708 61.555H44.8419C43.8233 61.5465 42.8003 61.5465 41.7817 61.5465C41.7344 61.5465 41.6871 61.5465 41.6226 61.555H36.8002V24.1424H44.8462C48.9681 24.1424 53.0942 24.1424 57.2161 24.1339C58.4539 24.1339 59.8422 24.2064 60.6632 25.1451C61.2907 25.8705 61.3766 26.9117 61.4411 27.876C61.5443 29.4676 61.6517 31.0634 61.7463 32.655C61.0887 32.9579 60.2935 32.5568 59.8637 31.968C59.4296 31.3706 59.2706 30.6367 59.0514 29.9327C58.729 28.8702 58.2175 27.7992 57.3063 27.1805C56.6058 26.6983 55.7461 26.5447 54.9037 26.438C53.4811 26.2588 52.0412 26.1948 50.6099 26.2418C49.6601 26.2844 48.6887 26.374 47.8592 26.8306C46.7803 27.428 46.0841 28.5715 45.7531 29.7705C45.4136 30.9738 45.4007 32.2283 45.3921 33.4742C45.3663 35.3218 45.3534 37.1779 45.3362 39.0298C46.5139 38.7311 48.2288 38.5988 49.6601 39.3584C54.388 41.8673 55.6817 50.1708 60.9038 43.0365C60.8222 43.3053 59.6273 50.4098 51.779 46.5908C49.4151 45.443 46.9566 43.1474 45.3104 44.611C45.3104 47.7472 45.3405 50.8877 45.4307 54.0239C45.478 55.7648 45.6886 57.7831 47.1199 58.7389C47.8592 59.2296 48.7747 59.3277 49.6601 59.3832C51.2976 59.4898 52.9395 59.4984 54.5771 59.4173C55.8708 59.3533 57.1989 59.2125 58.3551 58.6322C60.2763 57.6593 61.3852 55.6923 62.2191 53.6228C62.6145 52.6499 63.6159 52.0867 64.6389 52.2275L64.6776 52.236H64.6862Z" fill="#404596"/>
<path d="M32.7385 24.3046V61.6361H24.6968V42.7506C23.7211 41.6412 22.4962 40.7494 21.0778 40.5531C19.3328 40.2971 17.5921 41.1035 16.1823 42.1745C14.7639 43.2498 13.5733 44.5896 12.155 45.6649C10.9644 46.5695 9.52026 47.2864 8.04171 47.312V61.4654H0V24.1339H8.04171V41.1035C8.84546 40.8603 9.6406 40.5787 10.4701 40.2374C12.5375 39.3968 14.7037 38.505 16.9731 38.65C19.4016 38.8079 21.7698 40.152 24.138 39.64C24.3186 39.6016 24.4991 39.5674 24.6925 39.5418V24.3046H32.7342H32.7385Z" fill="#404596"/>
<path d="M147.953 60.4968C145.116 61.299 144.656 64.0043 144.656 64.0043C143.994 60.3133 144.179 53.9897 149.062 53.4692C152.165 53.1363 154.426 54.5487 156.88 56.2043C157.804 56.8273 158.711 57.4758 159.627 58.1116C160.4 58.6492 161.397 59.5752 162.326 59.716C162.747 59.78 163.177 59.6605 163.564 59.4728C165.609 58.4871 168.377 53.994 165.846 52.1293C164.294 50.9815 161.853 51.3485 160.095 51.5789C159.747 51.6258 159.403 51.6898 159.055 51.7197C158.582 51.7624 158.002 51.7965 157.288 51.8221C154.275 51.9416 151.164 51.677 148.602 50.0129C146.53 48.6688 144.841 46.6762 143.797 44.3592C143.547 43.8088 143.332 43.2455 143.152 42.661C142.993 42.1191 142.864 41.5814 142.765 41.0395C142.598 40.1093 142.55 39.1621 142.55 38.2276C142.55 38.2276 142.55 24.1467 142.559 24.1381C142.559 24.1381 150.467 24.1381 150.476 24.1467V39.7338C150.476 42.9426 152.548 45.7844 155.522 46.5183C156.648 46.7956 157.83 46.9407 159.003 46.8725C159.648 46.8725 160.233 46.5951 160.649 46.1556C161.066 45.7161 161.333 45.1017 161.333 44.4232C161.333 44.4232 161.333 24.3771 161.341 24.3686C161.341 24.3686 169.379 24.3686 169.387 24.3771V49.5265C169.387 51.7752 169.065 56.0848 167.986 58.086C166.83 60.0744 163.615 62.7114 157.572 61.4398C155.522 61.0089 153.338 60.5438 151.426 60.3304C150.57 60.2365 149.681 60.2152 148.825 60.3304" fill="#404596"/>
<path d="M207 24.1339V61.3972H198.958V47.2693C197.48 47.2437 196.036 46.5268 194.845 45.6265C193.427 44.5555 192.236 43.2157 190.831 42.1447C189.412 41.0737 187.68 40.2672 185.935 40.5232C184.504 40.7195 183.292 41.607 182.303 42.7165V61.5678H174.262V24.3046H182.303V39.5162C182.484 39.5418 182.677 39.576 182.858 39.6144C185.239 40.1264 187.594 38.7866 190.023 38.6287C192.296 38.4836 194.458 39.3712 196.526 40.2118C197.355 40.5531 198.15 40.8347 198.954 41.0779V24.1381H206.996L207 24.1339Z" fill="#404596"/>
<path d="M139.52 31.1957C136.095 28.0467 132.665 24.3003 127.726 24.1424C122.1 23.9589 119.427 28.6483 114.6 30.4191C112.352 31.2426 109.971 31.6608 107.594 31.8443C109.494 32.9537 111.681 33.5425 113.899 33.5425C115.915 33.5425 117.944 33.0689 119.775 32.1003V61.5721H127.829V28.5075C128.255 28.4648 128.689 28.4435 129.114 28.4435C131.01 28.4435 132.923 28.8574 134.676 29.7236L139 31.8443C139.451 32.0661 139.894 31.5242 139.524 31.1999L139.52 31.1957Z" fill="#404596"/>
<path d="M101.405 32.8854V61.5252H93.363L92.8945 34.3191C90.3715 34.8269 86.0906 34.0844 83.8513 31.6309C83.5032 31.2554 83.1679 30.8671 82.8155 30.4746C82.8155 30.4746 82.8069 30.466 82.7897 30.449C79.4587 27.3042 77.1162 27.3256 75.6248 28.1064L75.685 61.5209H67.6303V27.3554C67.6303 27.0738 67.6776 26.7879 67.7765 26.5319C67.957 25.9772 68.318 25.495 68.8123 25.1537C70.4456 24.0229 72.6849 22.8325 76.6133 23.0799C82.2051 23.4469 82.5533 27.6157 87.8442 30.1588C89.7698 31.6309 95.0349 32.7275 101.405 32.8811V32.8854Z" fill="#404596"/>
<path d="M120.626 14.3199C121 14.0553 120.682 13.475 120.252 13.6457C111.157 17.2854 110.955 14.913 115.855 5.70491C116.057 5.32515 115.58 4.94966 115.253 5.23555C108.638 11.0087 106.971 9.37876 107.095 0.396825C107.1 -0.00853522 106.558 -0.153612 106.36 0.204812C105.415 1.93293 104.568 3.27275 103.782 4.21575C102.754 5.4489 100.842 5.4489 99.8144 4.21575C99.0278 3.27275 98.1768 1.93293 97.2312 0.204812C97.0335 -0.153612 96.492 -0.00853522 96.4963 0.396825C96.6252 9.37876 94.9576 11.0087 88.3385 5.23555C88.0119 4.94966 87.5348 5.32515 87.7368 5.70491C92.6409 14.913 92.4346 17.2854 83.3398 13.6457C82.91 13.475 82.592 14.0511 82.9659 14.3199C92.3572 20.9849 94.532 23.2591 87.0018 23.2591C86.5161 23.2591 86.4645 23.9632 86.9416 24.0272C90.3715 24.5094 93.234 24.855 95.8344 25.0555C94.8845 24.6971 93.7713 24.3558 92.4561 23.9291C92.0134 23.784 92.0821 23.1311 92.5506 23.0927C96.4533 22.7983 96.4318 21.7572 94.1581 18.9111C93.8873 18.574 94.2355 18.0748 94.6481 18.2327C96.7842 19.0477 97.3043 18.2028 97.1281 15.7493C97.1023 15.3525 97.5794 15.1349 97.8674 15.4122C99.2384 16.7094 100.163 16.4278 101.16 14.7807C101.198 14.7252 101.228 14.6655 101.267 14.6015C101.323 14.5076 101.413 14.4436 101.504 14.418C101.598 14.4436 101.684 14.5076 101.74 14.6015C101.779 14.6655 101.817 14.7338 101.856 14.7935C102.857 16.432 103.777 16.7008 105.148 15.4122C105.436 15.1391 105.913 15.3568 105.883 15.7493C105.716 18.1985 106.236 19.0477 108.372 18.2327C108.776 18.0748 109.128 18.5698 108.853 18.9111C106.584 21.7572 106.567 22.7983 110.465 23.0927C110.929 23.1311 111.007 23.784 110.555 23.9291C109.176 24.3728 108.024 24.7312 107.044 25.1067C109.829 24.9147 112.893 24.552 116.633 24.0272C117.114 23.9589 117.058 23.2591 116.573 23.2591C109.047 23.2591 111.221 20.9849 120.609 14.3199H120.626Z" fill="#404596"/>
</g>
<defs>
<clipPath id="clip0_41_113">
<rect width="207" height="64" fill="white"/>
</clipPath>
</defs>
</svg>
