<svg width="95" height="96" viewBox="0 0 95 96" fill="none" xmlns="http://www.w3.org/2000/svg">
<g clip-path="url(#clip0_28_340)">
<path d="M27.4658 61.8372C27.4658 61.8372 45.0732 74.3535 55.7111 53.1169C68.2054 28.1663 81.0102 35.6572 81.0102 35.6572C81.0102 35.6572 76.4421 30.0895 65.367 35.5437C48.2665 43.9614 54.7227 67.4491 27.4722 61.8372H27.4658Z" fill="#7ECBF3"/>
<path d="M11.1067 68.2183C11.1067 68.2183 -0.145842 43.8983 29.9812 42.5994C65.3734 41.0798 59.2656 24.1434 59.2656 24.1434C59.2656 24.1434 65.1579 31.5334 55.1473 40.6321C39.6878 54.6806 11.3411 36.9687 11.1067 68.2183Z" fill="#7ECBF3"/>
<path d="M72.4823 56.4335C70.0747 52.026 72.9639 47.7383 71.4433 43.2678C70.6703 41.0104 69.4791 38.7279 67.9015 36.3381C63.4601 29.6102 56.3892 25.7261 49.236 25.3163C48.9573 24.6542 48.6785 24.0047 48.4187 23.3553C46.7587 19.2631 49.4578 13.2981 53.2593 15.5681C55.2361 16.7409 59.101 20.1458 61.0081 21.6402C63.7389 23.7651 66.1718 26.0666 68.3007 28.4627C68.5351 28.7401 68.9849 28.4374 68.8012 28.1159C68.1169 26.8737 67.3693 25.6315 66.5646 24.4083C64.0493 20.5998 60.9954 17.1633 57.5044 14.2061C55.743 12.718 53.8802 11.3561 51.9415 10.1013C50.3828 9.09241 47.6521 8.20335 46.632 6.65852C45.4662 4.893 46.4609 1.69616 48.9826 2.01143C49.5845 2.08709 50.1484 2.33931 50.725 2.52217C53.0439 3.26621 55.3692 2.73024 57.5931 1.89162C61.0144 0.61793 64.6259 -0.0630556 68.2753 -1.42166e-06C75.7073 0.138718 82.8858 3.31034 87.8785 8.7267C88.8669 9.79862 89.7729 10.9525 90.5713 12.1695C94.5692 18.2227 95.9441 25.7513 94.3538 32.8701C93.5681 36.376 92.0919 39.7241 90.0074 42.6814C86.2755 47.9842 79.8573 51.736 77.6081 58.0162C76.3916 61.4022 73.3314 57.9783 72.4823 56.4335Z" fill="#7ECBF3"/>
<path d="M60.8688 74.0256C64.3662 69.2776 64.5626 63.237 61.8065 58.962C61.7369 58.5963 61.6608 58.2305 61.5658 57.8774C61.9333 55.2481 63.0927 52.625 65.0442 50.4055C69.4286 45.4116 76.3284 44.119 81.359 47.0258C77.1267 46.4646 72.4952 48.1293 69.2512 51.8242C64.3346 57.4171 64.4549 65.5259 69.5173 69.9334C70.4487 70.7405 71.4751 71.3647 72.5712 71.8187C72.153 74.3157 71.0189 76.7874 69.1625 78.8934C64.2459 84.4926 56.1613 85.451 51.0989 81.0435C50.6808 80.6778 50.3006 80.2869 49.9458 79.877C53.9817 79.8203 58.1191 77.771 60.8688 74.0319V74.0256Z" fill="#7ECBF3"/>
<path d="M42.3994 86.5545C47.7849 84.1206 53.766 85.161 57.4091 88.7235C57.7576 88.8623 58.0997 89.0136 58.4292 89.1838C61.0902 89.3667 63.9097 88.774 66.4884 87.3237C72.2921 84.0701 74.9785 77.6197 73.1474 72.1214C72.8306 76.3586 70.2519 80.5265 65.9498 82.9352C59.4429 86.5797 51.4914 84.8079 48.1967 78.9754C47.5948 77.9034 47.1893 76.7748 46.9676 75.6146C44.4269 75.5137 41.7658 76.1127 39.3075 77.4873C32.8006 81.1318 30.1965 88.8118 33.4975 94.6443C33.77 95.1298 34.0741 95.5775 34.4099 96.0063C35.2906 92.0843 38.1544 88.4776 42.3931 86.5608L42.3994 86.5545Z" fill="#7ECBF3"/>
<path d="M24.6024 28.4185C29.1516 27.3844 33.612 29.1373 35.8612 32.4666C36.1083 32.6305 36.3491 32.8008 36.5772 32.9837C38.611 33.5448 40.8793 33.5322 43.1095 32.8197C48.1148 31.2244 51.2194 26.653 50.6872 22.1131C49.7685 25.3415 47.1074 28.1537 43.4009 29.3391C37.7873 31.1299 31.9203 28.5005 30.3047 23.4751C30.0069 22.5545 29.8739 21.615 29.8929 20.6818C27.9477 20.2026 25.7936 20.2467 23.671 20.9214C18.0575 22.7121 14.8198 28.2357 16.4418 33.2737C16.5749 33.6899 16.7396 34.0871 16.9297 34.4717C18.2349 31.5775 21.0226 29.2382 24.6087 28.4248L24.6024 28.4185Z" fill="#7ECBF3"/>
<path d="M9.37707 37.8388C12.8365 34.7176 13.9516 30.0831 12.5007 26.3377C12.507 26.0414 12.5007 25.7513 12.488 25.4613C13.1913 23.4877 14.5028 21.6402 16.3655 20.2341C20.5535 17.0688 26.0911 17.157 29.5188 20.1962C26.3382 19.0928 22.4923 19.6477 19.3941 21.9933C14.6992 25.5432 13.5017 31.8297 16.714 36.0355C17.3032 36.8047 18.0002 37.4542 18.7732 37.9712C18.0509 39.8313 16.7837 41.5653 15.0097 42.9084C10.3148 46.4583 3.91555 45.9287 0.696934 41.7166C0.430827 41.3698 0.1964 41.0041 -0.00634766 40.6321C3.12357 41.2248 6.64631 40.2916 9.37074 37.8388H9.37707Z" fill="#7ECBF3"/>
</g>
<defs>
<clipPath id="clip0_28_340">
<rect width="95" height="96" fill="white"/>
</clipPath>
</defs>
</svg>
