<svg width="341" height="268" viewBox="0 0 341 268" fill="none" xmlns="http://www.w3.org/2000/svg">
<g clip-path="url(#clip0_43_33)">
<path d="M98.3285 240.867C90.0664 247.877 80.4629 252.637 70.5096 254.808C69.6736 254.993 68.828 255.159 67.9921 255.295C52.2358 258.031 35.7894 254.39 22.4438 243.223C18.3419 239.816 14.8524 235.941 11.9752 231.774C10.3034 229.36 11.7808 226.381 14.2594 225.748C14.3178 225.719 14.3664 225.709 14.4344 225.709C15.0176 225.573 15.6786 225.582 16.3493 225.767C16.845 225.923 17.3699 226.05 17.885 226.196C23.9504 227.666 29.9671 227.812 35.4881 226.809C35.8769 226.731 36.2463 226.673 36.5962 226.575C44.1098 224.774 53.3828 220.822 57.125 213.481C57.2222 213.286 57.3097 213.092 57.3777 212.887C65.6787 223.343 76.4388 231.901 89.3179 237.528C92.2923 238.823 95.3152 239.933 98.3479 240.857L98.3285 240.867Z" fill="#414595"/>
<path d="M293.78 51.7736C306.066 62.7163 313.356 81.1846 307.437 96.0897C307.281 96.4986 307.116 96.8881 306.951 97.2969C305.512 100.588 302.878 106.507 297.24 110.615C294.625 112.514 293.099 113.623 291.982 113.623C294.003 109.262 295.189 104.443 295.384 99.3512C295.675 91.6893 293.644 84.4655 289.911 78.3711C289.697 78.0108 289.464 77.6506 289.231 77.3001C284.225 69.648 276.498 63.943 267.38 61.5578C264.785 60.8763 262.073 60.4674 259.274 60.3603C255.191 60.2045 251.225 60.7205 247.512 61.7914C238.278 64.4395 232.543 70.1835 229.695 73.0944C227.411 75.4504 223.543 79.8995 220.345 86.5294C210.002 108.113 214.182 137.826 210.537 170.839C210.09 174.918 209.089 183.038 204.724 192.15C201.847 198.216 199.66 201.818 195.792 206.092C192.001 210.268 186.917 213.5 183.69 218.154C182.184 220.335 180.346 223.431 183.107 225.475C189.386 230.099 198.912 229.525 206.046 227.86C206.387 227.782 206.727 227.675 207.086 227.578C212.199 226.079 217.234 223.401 221.744 219.575C222.123 219.235 222.502 218.913 222.872 218.573C223.368 218.134 223.912 217.842 224.466 217.716C224.515 217.687 224.563 217.677 224.621 217.677C226.983 217.151 229.501 219.059 229.112 221.805C228.432 226.565 227.12 231.326 225.088 235.96C218.498 251.099 206.105 261.175 191.593 265.547C190.815 265.78 190.028 265.994 189.24 266.199C177.819 269.1 165.241 268.555 153.198 264.232C143.323 260.669 128.645 251.917 115.348 240.916C110.294 240.361 105.259 239.339 100.292 237.82C97.2592 236.895 94.2363 235.785 91.2619 234.49C78.3828 228.863 67.6227 220.306 59.3217 209.85C57.7568 207.873 56.2696 205.819 54.8894 203.706C47.3466 192.277 42.506 179.056 40.7564 165.134L31.7847 118.91C31.5709 117.761 30.4336 117.05 29.2964 117.323C24.4072 118.569 19.1292 118.248 14.1816 116.096C2.14818 110.839 -3.2659 96.6349 2.08014 84.3487L2.12874 84.2416C2.70223 82.9273 4.42268 82.6742 5.39469 83.7548C6.86242 85.3904 8.69952 86.7534 10.8379 87.688C15.3189 89.6351 20.2178 89.3625 24.3294 87.318C25.7485 86.6171 26.6622 85.1665 26.6331 83.5504C26.5164 76.4531 29.7241 71.0889 34.5258 67.5743C40.9994 62.8234 50.4084 61.4409 58.4372 63.6509C67.4088 66.1043 75.1946 72.2669 78.3536 81.1749C79.8408 85.3417 80.2879 89.7422 80.6865 94.1329C80.9392 96.8102 81.1919 99.4972 81.6585 102.136C82.786 108.366 85.4882 114.49 88.9583 119.757C94.9069 128.84 105.064 136.268 116.262 136.093C124.748 135.947 132.543 131.177 137.102 124.099C142.701 115.434 141.913 104.793 143.264 94.9896C144.761 83.9787 147.094 72.9192 152.071 62.911C153.364 60.3019 154.792 57.7609 156.328 55.2978C163.54 43.7028 173.202 33.5584 183.525 24.7964C199.67 11.0887 227.071 -1.58695 258.389 0.165452C263.638 0.457518 273.115 1.07086 284.692 5.14031C302.382 11.3613 317.458 22.9856 328.043 37.9686C330.668 41.6486 333.02 45.5428 335.042 49.6123C337.472 54.4314 339.474 59.4938 341.01 64.7608C338.055 61.3046 319.762 40.5387 296.453 43.401C296.424 43.4107 296.395 43.4107 296.356 43.4107C292.293 43.9364 290.737 49.0671 293.79 51.7736H293.78Z" fill="#414595"/>
<path d="M35.6339 85.9745C37.2336 85.9745 38.5305 84.6756 38.5305 83.0733C38.5305 81.471 37.2336 80.1721 35.6339 80.1721C34.0341 80.1721 32.7373 81.471 32.7373 83.0733C32.7373 84.6756 34.0341 85.9745 35.6339 85.9745Z" fill="white"/>
<path d="M25.9722 104.862C32.8929 103.674 39.9691 106.497 45.5679 110.45C49.66 113.439 53.4411 117.343 57.1056 120.779C58.3109 122.006 59.5453 123.194 60.7215 124.45C59.3218 123.447 57.9804 122.376 56.6099 121.344C47.5605 114.062 38.375 104.793 25.9722 104.852V104.862Z" fill="white"/>
<path d="M21.2871 106.117C28.2953 106.468 34.5939 110.771 39.1915 115.853C42.5352 119.669 45.3735 124.294 48.202 128.46C49.106 129.921 50.0586 131.352 50.9334 132.832C49.7864 131.547 48.7075 130.213 47.5994 128.899C40.3579 119.815 33.4081 108.756 21.2871 106.117Z" fill="white"/>
<path d="M28.2759 102.213C34.7786 101.035 41.573 101.834 47.9007 103.635C52.5275 105.008 57.2126 107.305 61.5963 109.243C63.0738 109.963 64.561 110.644 66.019 111.404C64.4346 110.956 62.8891 110.421 61.3144 109.943C56.814 108.473 51.9248 106.458 47.4633 105.115C41.2425 103.294 34.7689 102.233 28.2759 102.223V102.213Z" fill="white"/>
</g>
<defs>
<clipPath id="clip0_43_33">
<rect width="341" height="268" fill="white"/>
</clipPath>
</defs>
</svg>
