<svg width="375" height="348" viewBox="0 0 375 348" fill="none" xmlns="http://www.w3.org/2000/svg">
<g clip-path="url(#clip0_21_205)" filter="url(#filter0_d_21_205)">
<g filter="url(#filter1_d_21_205)">
<path d="M362.869 5.46251C351.06 29.0332 329.642 47.6057 303.331 56.5779C331.425 42.8124 349.859 20.2932 348.911 0C340.541 21.2901 299.791 44.7516 266.463 44.7516C245.893 44.7516 227.458 39.1252 215.106 30.2623C214.309 29.7024 213.513 29.32 212.666 29.0332C205.686 21.2901 196.128 16.4968 185.47 16.4968C164.102 16.4968 146.756 35.8887 146.756 59.8008L147.059 63.3651C147.261 65.4272 147.464 67.4893 147.754 69.4967C147.805 69.8928 147.906 70.2751 147.957 70.6165C150.106 84.4367 155.126 97.533 162.61 108.909C166.252 114.426 169.539 119.219 170.93 121.008C170.93 121.008 185.558 139.99 185.571 140.018C191.197 147.31 197.165 154.138 201.615 162.455C213.133 183.977 217.837 212.683 202.816 233.495C198.176 239.927 192.765 245.731 186.443 250.005C182.233 252.846 169.425 255.809 158.388 255.754C154.101 255.727 153.065 248.885 157.161 247.451C164.368 244.925 171.107 240.828 175.823 234.096C180.577 227.322 182.992 218.282 181.525 209.747C178.604 192.717 165.569 184.947 151.573 181.505C137.185 177.955 122.329 176.972 107.902 173.721C98.6348 171.632 89.4431 169.01 80.3904 165.978C67.393 161.636 54.6105 156.323 42.4475 149.577C12.4953 132.875 3.32885 116.72 3.32885 116.72C1.73578 147.856 6.03453 173.872 13.9746 195.694C16.5538 200.884 19.171 205.786 21.8009 210.443C21.9273 209.596 22.0158 208.763 22.1675 207.917C22.3319 209.473 22.6227 211.017 22.9767 212.519C41.474 244.652 60.7931 263.976 75.8388 275.351C82.3122 280.24 77.6973 291.507 70.1998 289.076C61.7414 286.345 52.853 282.657 44.7613 278.984C37.7948 275.816 31.0305 284.255 34.7477 291.575C38.3637 298.703 42.5866 305.395 47.3405 311.581C66.078 335.944 95.6383 345.572 123.289 336.873C142.343 330.878 165.291 319.816 189.174 299.591C193.435 295.986 199.327 300.766 197.62 306.433C195.976 311.854 193.776 317.959 190.868 323.995C187.796 330.386 194.699 337.064 200.01 332.899C229.052 310.134 248.017 272.716 248.017 230.381C248.017 206.742 242.087 184.674 231.77 165.842L231.922 165.896C231.922 165.896 210.048 122.975 207.709 102.859C224.753 121.868 249.509 133.79 277.058 133.79C328.378 133.79 370.025 92.2617 370.025 41.1054C370.025 28.4597 367.484 16.4695 362.907 5.48982L362.869 5.46251Z" fill="#7ECBF3"/>
</g>
<path d="M310.715 109.209C308.882 112.596 304.242 115.068 300.36 113.347C297.515 112.009 296.276 108.977 295.669 107.365C295.075 108.991 293.811 112.022 290.979 113.347C287.072 115.068 282.457 112.596 280.674 109.209C279.663 107.311 279.271 104.634 280.004 104.074C280.763 103.528 281.8 105.303 283.494 105.645C287.122 106.437 290.448 100.196 292.976 97.451C287.072 94.2691 282.647 80.6947 282.647 64.4575C282.647 64.1434 282.621 62.7231 282.621 62.3817C291.94 60.9205 300.309 58.4487 308.022 54.147C308.439 57.4108 308.705 60.8249 308.705 64.4438C308.705 80.7084 304.267 94.2691 298.35 97.451C300.904 100.196 304.204 106.423 307.807 105.617C309.501 105.29 310.589 103.514 311.297 104.047C312.106 104.607 311.689 107.283 310.702 109.182L310.715 109.209Z" fill="#404596"/>
<path d="M193.599 53.4096C197.517 53.4096 200.692 49.8573 200.692 45.4753C200.692 41.0933 197.517 37.541 193.599 37.541C189.682 37.541 186.506 41.0933 186.506 45.4753C186.506 49.8573 189.682 53.4096 193.599 53.4096Z" fill="#404596"/>
</g>
<defs>
<filter id="filter0_d_21_205" x="0" y="0" width="375" height="348" filterUnits="userSpaceOnUse" color-interpolation-filters="sRGB">
<feFlood flood-opacity="0" result="BackgroundImageFix"/>
<feColorMatrix in="SourceAlpha" type="matrix" values="0 0 0 0 0 0 0 0 0 0 0 0 0 0 0 0 0 0 127 0" result="hardAlpha"/>
<feOffset dx="1" dy="4"/>
<feGaussianBlur stdDeviation="2"/>
<feComposite in2="hardAlpha" operator="out"/>
<feColorMatrix type="matrix" values="0 0 0 0 0 0 0 0 0 0 0 0 0 0 0 0 0 0 0.25 0"/>
<feBlend mode="normal" in2="BackgroundImageFix" result="effect1_dropShadow_21_205"/>
<feBlend mode="normal" in="SourceGraphic" in2="effect1_dropShadow_21_205" result="shape"/>
</filter>
<filter id="filter1_d_21_205" x="-6" y="0" width="376.025" height="348.019" filterUnits="userSpaceOnUse" color-interpolation-filters="sRGB">
<feFlood flood-opacity="0" result="BackgroundImageFix"/>
<feColorMatrix in="SourceAlpha" type="matrix" values="0 0 0 0 0 0 0 0 0 0 0 0 0 0 0 0 0 0 127 0" result="hardAlpha"/>
<feOffset dx="-5" dy="4"/>
<feGaussianBlur stdDeviation="2"/>
<feComposite in2="hardAlpha" operator="out"/>
<feColorMatrix type="matrix" values="0 0 0 0 0 0 0 0 0 0 0 0 0 0 0 0 0 0 0.25 0"/>
<feBlend mode="normal" in2="BackgroundImageFix" result="effect1_dropShadow_21_205"/>
<feBlend mode="normal" in="SourceGraphic" in2="effect1_dropShadow_21_205" result="shape"/>
</filter>
<clipPath id="clip0_21_205">
<rect width="367" height="340" fill="white" transform="translate(3)"/>
</clipPath>
</defs>
</svg>
