<svg width="193" height="267" viewBox="0 0 193 267" fill="none" xmlns="http://www.w3.org/2000/svg">
<g clip-path="url(#clip0_11_353)">
<path d="M62.0047 104.779C91.2784 104.779 115.009 81.3237 115.009 52.3897C115.009 23.4557 91.2784 0 62.0047 0C32.731 0 9 23.4557 9 52.3897C9 81.3237 32.731 104.779 62.0047 104.779Z" fill="#F8B369"/>
<path d="M141.398 160.525C138.261 162.361 135.056 163.961 131.79 165.308C148.546 151.799 157.31 131.169 156.274 110.416C155.96 104.236 155.097 98.0059 152.792 92.2274C150.882 87.4254 147.973 82.9447 144.534 79.0326C143.585 77.9387 142.587 76.9004 141.564 75.8992C133.078 67.6425 121.326 63.1556 109.562 62.9146C107.719 62.8775 105.876 62.9517 104.04 63.0691C102.407 62.4882 101.778 60.3127 103.152 58.9778C104.311 57.8468 105.63 56.8271 107.09 55.9742C107.737 55.5972 108.391 55.2635 109.056 54.9669C111.01 54.0831 113.037 53.5392 115.077 53.3106C114.418 52.7173 113.727 52.1672 113.013 51.6543C110.948 50.1834 108.674 49.0586 106.289 48.3108C102.789 47.2107 99.0419 46.914 95.3567 47.495C94.9253 47.5629 94.5001 47.6371 94.081 47.736C92.4294 48.0883 90.8025 48.6198 89.2187 49.3428C88.4545 49.6889 87.715 50.0721 86.9817 50.4986C84.2516 52.1054 81.9591 54.1634 80.1288 56.5243C76.8503 60.7701 75.1063 65.98 75.1001 71.2826C73.4054 70.2073 71.9264 68.7117 70.8418 66.8514C70.3426 65.9924 69.9544 65.1024 69.6647 64.1939C69.5846 64.2557 69.4922 64.3113 69.3936 64.367C67.0518 65.739 64.4696 66.2952 61.9614 66.1221C59.8168 65.9862 57.7277 65.3064 55.8974 64.1568C54.4985 63.2731 53.2413 62.1112 52.2368 60.6959C53.3276 60.7268 54.4245 60.6032 55.5092 60.3189C56.5198 60.0593 57.5243 59.6515 58.4734 59.0952C60.7844 57.7356 62.4483 55.7147 63.385 53.4156C63.5267 53.0695 63.65 52.7111 63.7609 52.3464C62.8489 51.4997 62.06 50.5356 61.376 49.4603C58.3008 44.6273 58.6644 38.6634 61.2959 33.7193C68.8697 19.5048 86.8338 10.0923 102.573 10.0923C108.81 10.0923 114.763 11.3098 120.204 13.5099C120.605 13.4358 120.999 13.3554 121.388 13.2689C134.822 10.2344 152.379 16.7669 159.06 28.2189C160.335 30.4005 161.278 32.6872 161.925 35.0171C161.987 35.2334 161.888 35.4559 161.703 35.5733C161.512 35.6784 161.284 35.6475 161.124 35.5053C158.789 33.3361 156.157 31.8528 153.612 31.1545C152.54 30.8578 151.671 31.6612 151.591 32.5759C158.505 38.2864 164.544 45.2886 169.339 53.496C191.093 90.7874 178.577 138.709 141.391 160.525H141.398Z" fill="#404596"/>
<path d="M178.829 228.347C171.101 238.124 157.642 240.923 147.856 233.402C144.3 230.664 141.841 226.969 140.578 222.902C136.48 226.715 131.913 229.861 127.045 232.296C117.129 237.277 105.969 239.329 94.9499 238.229C85.213 237.259 75.5808 233.816 67.0148 227.741C60.39 223.044 55.0285 217.216 51.0166 210.702C44.7184 200.486 41.7295 188.583 42.3458 176.717C43.8618 180.042 45.9324 183.138 48.5331 185.845C48.9953 186.334 49.4759 186.803 49.9751 187.261C51.1953 188.392 52.508 189.436 53.9254 190.388C54.2397 190.592 54.5416 190.796 54.8621 190.981C61.5978 195.177 69.714 196.531 77.6083 195.06C80.4801 194.522 83.2101 193.626 85.8416 192.489C90.1493 190.623 94.1919 188.113 98.1853 185.493C103.448 182.051 108.631 178.417 114.22 175.827C133.645 166.847 158.166 170.778 173.024 186.42C173.419 186.828 173.795 187.242 174.17 187.662C177.695 191.655 180.598 196.747 182.305 202.18C185.109 211.061 184.752 220.862 178.823 228.341L178.829 228.347Z" fill="#404596"/>
<path d="M124.568 234.651C121.264 236.647 117.77 238.309 114.116 239.607C104.903 242.907 94.7282 243.927 84.3997 242.11C63.8658 238.501 47.7136 224.571 40.3369 206.568C42.8759 208.712 45.7539 210.492 48.9091 211.796C52.8162 218.372 58.0729 224.293 64.6238 229.095C73.0851 235.306 82.6618 238.909 92.3803 240.04C103.381 241.325 114.572 239.453 124.568 234.644V234.651Z" fill="#404596"/>
<path d="M175.076 182.286C160.218 166.643 135.697 162.713 116.273 171.693C106.425 176.254 97.8588 184.028 87.8877 188.354C95.9731 182.539 102.253 173.602 110.209 167.607C126.398 155.42 149.705 155.797 165.672 169.925C169.333 173.157 172.648 177.465 175.076 182.279V182.286Z" fill="#404596"/>
<path d="M180.604 210.375C170.719 191.179 148.275 180.512 127.119 183.67C116.396 185.277 105.993 190.332 95.2148 191.686C104.607 188.379 113.13 181.569 122.441 178.052C141.391 170.908 163.651 177.823 175.033 195.876C177.64 200.01 179.618 205.078 180.604 210.381V210.375Z" fill="#7ECBF3"/>
<path d="M86.2299 188.274C76.4807 194.572 63.3789 195.956 53.3523 188.045C48.829 184.48 46.5488 179.789 44.1577 174.702C45.3101 177.001 49.9259 185.166 59.8601 187.804C61.2343 188.169 70.9405 190.567 79.4511 184.455C80.548 183.664 88.3745 177.861 88.3869 168.973C88.3869 166.699 87.8938 163.436 86.4641 161.026C84.8495 161.872 83.0131 162.342 81.0657 162.342C74.5764 162.342 69.3197 157.064 69.3197 150.562C69.3197 144.061 74.1327 139.234 80.2337 138.814C81.6573 138.641 82.8528 138.721 83.5245 138.764C89.2373 139.141 92.9534 142.806 94.5187 144.345C99.8432 149.598 100.878 156.118 101.18 158.016C103.122 170.246 96.1826 181.853 86.2299 188.28V188.274Z" fill="#404596"/>
<path d="M52.397 221.604C55.4105 223.631 58.5103 225.43 61.6902 226.975C45.803 212.445 38.3339 191.309 40.6572 170.667C41.3536 164.517 42.5984 158.356 45.2607 152.726C47.4669 148.047 50.6468 143.764 54.3197 140.068C55.3366 139.036 56.3965 138.06 57.4812 137.127C66.4601 129.414 78.4711 125.669 90.2293 126.163C92.0658 126.243 93.9084 126.429 95.7326 126.657C97.3965 126.181 98.1606 124.043 96.8726 122.628C95.7819 121.423 94.537 120.329 93.1319 119.383C92.5095 118.963 91.8809 118.592 91.2338 118.252C89.3419 117.251 87.3452 116.577 85.3239 116.225C86.0203 115.675 86.7413 115.168 87.487 114.699C89.6377 113.358 91.9795 112.381 94.4014 111.782C97.9634 110.898 101.716 110.836 105.359 111.652C105.784 111.745 106.203 111.85 106.622 111.973C108.249 112.431 109.839 113.055 111.373 113.877C112.113 114.272 112.828 114.699 113.53 115.168C116.155 116.942 118.319 119.142 119.995 121.608C123.002 126.052 124.426 131.354 124.099 136.651C125.862 135.68 127.427 134.284 128.622 132.498C129.177 131.676 129.621 130.81 129.96 129.921C130.04 129.989 130.126 130.05 130.219 130.112C132.468 131.632 135.013 132.343 137.527 132.325C139.672 132.325 141.804 131.775 143.702 130.742C145.157 129.951 146.476 128.864 147.573 127.516C146.482 127.479 145.397 127.288 144.331 126.942C143.339 126.62 142.359 126.151 141.447 125.533C139.222 124.031 137.688 121.911 136.893 119.556C136.769 119.198 136.671 118.839 136.578 118.469C137.54 117.684 138.39 116.769 139.142 115.737C142.507 111.108 142.513 105.125 140.196 100.033C133.516 85.3735 116.174 74.861 100.459 73.8783C94.235 73.489 88.2203 74.3295 82.6493 76.1959C82.2549 76.097 81.8667 75.9919 81.4784 75.8807C68.2596 72.0119 50.3325 77.4381 42.9497 88.4574C41.5446 90.5587 40.46 92.7774 39.6712 95.0641C39.5972 95.2742 39.6773 95.5091 39.8622 95.6327C40.0471 95.7501 40.2751 95.7377 40.4415 95.6018C42.9066 93.5808 45.6243 92.2645 48.2064 91.7268C49.2972 91.4981 50.1168 92.3572 50.1353 93.2718C42.8819 98.5436 36.4173 105.15 31.1298 113.042C7.10788 148.906 16.6291 197.514 52.397 221.604Z" fill="#404596"/>
<path d="M132.789 107.981C131.266 107.233 129.338 107.252 128.013 108.568C127.415 109.161 127.162 109.884 126.903 110.663C127.033 110.311 127.569 109.044 128.968 108.494C129.159 108.42 130.533 107.907 131.87 108.648C132.043 108.747 133.275 109.458 133.43 110.75C133.467 111.083 133.448 111.565 133.282 111.936C133.035 111.843 132.758 111.8 132.474 111.837C131.531 111.948 130.854 112.801 130.964 113.747C131.069 114.649 131.852 115.311 132.752 115.273C132.961 115.273 133.134 115.243 133.232 115.224C134.058 115.076 134.533 114.476 134.736 114.229C135.42 113.376 135.463 112.412 135.476 112.128C135.549 110.317 134.348 108.747 132.795 107.981H132.789Z" fill="#7ECBF3"/>
<path d="M70.6506 42.4334C72.1728 41.6856 74.1017 41.7041 75.4266 43.0205C76.0244 43.6138 76.2771 44.3369 76.5359 45.1156C76.4065 44.7633 75.8703 43.4964 74.4714 42.9463C74.2804 42.8722 72.9061 42.3592 71.5688 43.1008C71.3963 43.1997 70.1637 43.9104 70.0097 45.2021C69.9727 45.5358 69.9912 46.0179 70.1576 46.3887C70.4041 46.296 70.6814 46.2527 70.9649 46.2898C71.9078 46.4011 72.5857 47.2539 72.4747 48.1995C72.37 49.1018 71.5873 49.7631 70.6876 49.726C70.478 49.726 70.3055 49.6951 70.2069 49.6766C69.3811 49.5282 68.9066 48.9288 68.7032 48.6816C68.0191 47.8287 67.976 46.8646 67.9637 46.5803C67.8897 44.7695 69.0914 43.1997 70.6444 42.4334H70.6506Z" fill="#7ECBF3"/>
</g>
<defs>
<clipPath id="clip0_11_353">
<rect width="175" height="243" fill="white" transform="translate(9)"/>
</clipPath>
</defs>
</svg>
