<svg width="509" height="351" viewBox="0 0 509 351" fill="none" xmlns="http://www.w3.org/2000/svg">
<g filter="url(#filter0_d_11_480)">
<path d="M474.037 237L254.287 195.378V10.4254L474.037 0V237Z" fill="#7ECBF3"/>
</g>
<path d="M236.638 110.079C233.817 122.984 240.56 135.924 253.295 138.935C257.924 140.029 262.611 139.57 266.788 137.885C265.651 155.908 272.488 173.274 284.866 185.675C292.207 193.031 301.493 198.652 312.224 201.626C328.931 206.263 345.938 203.609 359.861 195.59C362.988 193.789 361.858 189.072 358.272 188.708C357.805 188.657 357.331 188.606 356.865 188.533C355.122 188.277 353.38 187.898 351.645 187.373C351.266 187.257 350.895 187.14 350.53 187.009C342.563 184.282 336.002 178.508 331.913 171.035C324.769 157.978 326.73 142.129 323.092 128.043C319.746 115.11 311.801 103.649 300.954 96.1691C298.25 94.31 295.392 92.7061 292.403 91.372C289.91 90.2492 287.337 89.3233 284.698 88.587C280.113 87.3112 275.492 86.6769 270.936 86.6113C268.53 86.5748 266.205 86.7352 263.974 87.0924C263.974 87.0924 263.93 87.0997 263.901 87.107C251.043 89.0755 239 99.2457 236.631 110.087L236.638 110.079Z" fill="#404596"/>
<path d="M275.426 121.569C279.64 116.364 284.866 111.822 290.647 108.096C296.544 104.298 293.118 97.9407 285.048 98.0427C284.815 98.0427 284.575 98.05 284.341 98.0646C282.191 98.1812 280.011 98.6989 278.021 99.7123C272.773 102.395 269.624 107.55 267.495 111.465C265.279 115.547 263.982 119.783 263.348 124.026C262.006 133.001 263.122 142.566 267.065 151.045C267.007 150.928 266.978 150.797 266.963 150.651C264.594 142.158 267.262 131.652 275.434 121.562L275.426 121.569Z" fill="#7ECBF3"/>
<path d="M456.958 156.134C457.286 151.161 458.51 146.153 460.427 141.407C462.381 136.566 457.57 134.167 452.708 137.696C452.569 137.798 452.423 137.907 452.285 138.017C451.031 139.008 449.923 140.262 449.15 141.735C447.109 145.621 447.408 150.104 447.795 153.407C448.203 156.841 449.231 159.976 450.667 162.826C453.706 168.863 458.488 174.199 464.531 177.662C464.444 177.611 464.371 177.546 464.298 177.466C459.21 173.317 456.323 165.786 456.958 156.134Z" fill="#404596"/>
<path d="M320.271 187.271C315.446 181.053 311.64 173.85 308.921 166.238C306.151 158.467 297.958 160.683 295.917 169.957C295.859 170.226 295.8 170.496 295.757 170.773C295.312 173.266 295.319 175.906 295.953 178.457C297.623 185.186 302.674 190.173 306.589 193.658C310.664 197.289 315.176 199.913 319.856 201.772C329.769 205.716 341.025 207 351.784 204.747C351.631 204.776 351.47 204.783 351.303 204.761C340.944 205.199 329.638 199.33 320.271 187.271Z" fill="#7ECBF3"/>
<path d="M405.69 102.14C404.24 97.2774 403.642 92.4438 403.788 87.9164C403.941 83.3015 398.488 80.6113 395.084 83.7316C394.982 83.8191 394.887 83.9139 394.792 84.016C393.94 84.9054 393.327 86.0573 393.109 87.4498C392.533 91.1242 394.406 95.5495 395.951 98.8157C397.555 102.213 399.655 105.37 402.038 108.271C407.083 114.41 413.556 119.987 420.561 123.808C420.466 123.757 420.364 123.684 420.269 123.596C413.935 119.164 408.504 111.567 405.69 102.133V102.14Z" fill="#404596"/>
<path d="M412.309 192.98C409.269 186.812 407.367 180.484 406.536 174.397C405.69 168.185 397.788 165.823 393.954 170.78C393.845 170.926 393.735 171.072 393.633 171.225C392.7 172.603 392.139 174.287 392.161 176.197C392.226 181.242 395.74 186.732 398.539 190.749C401.455 194.934 404.976 198.674 408.825 202.013C416.967 209.077 426.888 215.063 437.123 218.584C436.977 218.533 436.831 218.46 436.685 218.373C427.202 213.882 418.214 204.958 412.316 192.987L412.309 192.98Z" fill="#404596"/>
<path d="M385.199 103.277C383.632 100.923 382.524 98.451 381.868 96.016C381.197 93.5299 377.852 92.9904 376.554 95.2068C376.518 95.2724 376.481 95.338 376.445 95.4036C376.139 96.016 376 96.7305 376.109 97.5033C376.401 99.5519 378.121 101.608 379.477 103.095C380.884 104.641 382.517 105.982 384.259 107.141C387.948 109.591 392.299 111.508 396.659 112.398C396.6 112.383 396.535 112.361 396.469 112.332C392.372 111.005 388.239 107.841 385.207 103.277H385.199Z" fill="#404596"/>
<path d="M495.125 183.874C493.193 184.465 491.203 184.924 489.155 185.223C488.71 185.288 488.258 185.347 487.814 185.39C478.228 186.455 468.613 183.684 460.719 177.947C446.941 167.915 441.234 150.535 430.576 137.718C420.794 125.958 406.966 117.968 392.073 115.518C388.363 114.913 384.616 114.643 380.876 114.724C377.749 114.782 374.622 115.081 371.531 115.606C366.159 116.532 361.063 118.121 356.311 120.286C353.803 121.431 351.47 122.729 349.335 124.194C349.313 124.201 349.291 124.216 349.262 124.238C336.906 132.563 329.398 148.982 332.248 161.368C335.63 176.117 348.941 186.229 363.6 183.116C367.784 182.234 371.531 180.338 374.644 177.735C375.883 176.7 377.771 177.189 378.442 178.661C386.475 196.29 401.331 209.69 419.146 216.105C419.19 216.12 419.234 216.135 419.278 216.149C420.604 216.623 421.443 214.713 420.196 214.057C419.591 213.736 418.986 213.408 418.388 213.08C412.389 209.741 406.747 205.592 401.826 200.431C397.103 195.473 391.082 188.533 389.857 180.528C389.391 177.495 389.777 174.528 390.746 171.852C390.856 171.56 390.965 171.269 391.089 170.977C395.215 161.106 406.528 160.8 409.072 170.263C411.565 179.536 415.589 188.642 421.122 196.909C426.531 204.98 433.849 213.853 442.998 217.709C457.074 223.636 473.563 220.122 485.867 211.644C491.451 207.794 495.796 202.53 499.28 196.756C501.197 193.592 502.859 190.275 504.412 186.921C505.593 184.377 506.927 178.071 508.997 176.336C504.988 179.689 500.308 182.292 495.118 183.889L495.125 183.874Z" fill="#404596"/>
<path d="M468.97 52.098C449.237 55.2257 432.719 52.8927 450.783 71.294C451.264 71.7824 450.681 72.4313 449.988 72.1907C434.133 66.5989 428.535 68.385 433.776 86.502C433.966 87.1581 432.945 87.4133 432.573 86.8082C422.973 71.3085 418.949 73.2624 413.3 82.8494C413.008 83.3379 412.148 83.0536 412.185 82.4776C412.979 70.0108 410.836 64.5794 398.138 75.1069C397.7 75.4714 397.022 74.9611 397.27 74.458C403.947 61.2185 397.897 64.0909 388.793 64.9293C388.268 64.9804 387.991 64.3169 388.413 64.018C399.129 56.5161 390.105 55.0507 379.775 53.0166C379.236 52.9073 379.251 52.1272 379.797 52.0543C394.245 50.2025 393.669 44.7055 388.494 38.6981C388.202 38.3627 388.494 37.8451 388.946 37.867C397.256 38.3481 400.237 35.9568 393.713 21.7112C393.48 21.2008 394.216 20.7051 394.61 21.1134C406.404 33.2958 411.682 33.4562 412.389 21.507C412.418 20.9675 413.212 20.7415 413.497 21.1936C419.095 30.0369 424.555 31.6846 433.514 14.88C433.849 14.253 434.899 14.4498 434.753 15.1206C429.519 39.5656 433.769 37.3347 448.02 31.0503C448.691 30.7514 449.339 31.3857 448.88 31.896C438.318 43.7869 437.414 50.1952 468.839 50.8587C469.772 50.8805 469.889 51.9376 468.977 52.0835L468.97 52.098Z" fill="#E62841"/>
<path d="M140.496 252.903C142.379 253.842 144.677 253.072 145.608 251.178L171.145 199.661C168.586 199.427 166.351 198.191 164.793 196.368L164.363 196.148L138.769 247.772C137.831 249.666 138.6 251.963 140.489 252.903H140.496Z" fill="#E84B4F"/>
<path d="M195.555 182.537C197.036 181.47 198.855 180.841 200.815 180.827C203.741 180.813 206.611 181.838 208.522 183.682C210.933 186.014 207.513 189.675 204.919 187.541C202.733 185.746 199.934 184.672 196.881 184.693C195.513 184.7 194.202 184.933 192.968 185.343C193.623 184.234 194.505 183.272 195.541 182.53L195.555 182.537Z" fill="#F6A640"/>
<path d="M100.54 79.552C98.7559 84.0819 99.5808 86.3928 104.072 87.262C105.165 87.474 105.475 88.8803 104.566 89.5163C99.9334 92.76 99.1437 95.0921 103.536 97.9471C104.566 98.6185 104.093 100.23 102.859 100.237C95.3152 100.286 92.8968 101.572 96.0907 107.092C96.7676 108.265 95.3716 109.53 94.2787 108.724C84.0975 101.24 79.578 102.314 66.2805 115.494C65.9209 115.855 65.3427 115.402 65.6106 114.964C75.672 98.1732 76.3559 93.0003 69.2347 82.0466C68.4944 80.9018 69.8411 79.5661 70.9692 80.3294C76.3911 83.9617 77.9 81.6014 78.6192 73.8561C78.732 72.6123 80.403 72.2943 80.967 73.4038C83.3431 78.0821 85.7333 77.4319 89.4772 72.9515C90.1964 72.0894 91.5924 72.5417 91.677 73.6653C92.0296 78.2517 94.2787 79.234 99.0379 77.8701C100.039 77.5804 100.928 78.5626 100.547 79.5379L100.54 79.552Z" fill="#E62841"/>
<path d="M235.871 145.691C224.442 148.037 213.972 146.383 225.373 159.81C225.662 160.15 225.316 160.651 224.893 160.496C214.902 156.856 211.18 158.418 214.67 172.107C214.797 172.594 214.12 172.863 213.873 172.425C207.365 160.913 204.538 162.644 200.463 170.672C200.251 171.089 199.616 170.92 199.645 170.453C200.23 160.312 198.651 155.987 188.885 165.259C188.54 165.591 187.99 165.202 188.194 164.764C193.44 153.415 188.695 155.98 181.242 157.005C180.798 157.068 180.566 156.503 180.918 156.228C189.668 149.578 182.335 148.44 173.451 146.737C172.972 146.645 172.986 145.945 173.473 145.882C185.748 144.263 185.275 139.564 180.982 134.278C180.742 133.981 180.982 133.536 181.362 133.571C188.18 134.25 190.542 132.327 185.311 119.932C185.12 119.48 185.72 119.112 186.037 119.487C195.309 130.349 199.264 130.688 199.786 121.034C199.807 120.596 200.385 120.469 200.597 120.851C204.629 128.25 208.444 129.776 214.479 117.254C214.698 116.794 215.389 117.028 215.29 117.522C211.821 136.073 214.641 134.462 223.673 130.186C224.082 129.988 224.477 130.483 224.202 130.843C217.603 139.465 217.018 144.32 235.779 144.815C236.294 144.829 236.358 145.571 235.857 145.67L235.871 145.691Z" fill="#F6A640"/>
<path d="M158.207 67.3119C161.782 86.8801 167.049 88.3783 189.421 79.9828C189.921 79.7991 190.295 80.4634 189.879 80.7955C173.423 93.9753 175.489 100.3 189.865 108.625C190.267 108.858 190.034 109.487 189.576 109.395C181.143 107.734 177.392 107.975 175.905 110.526C174.17 113.522 172.175 116.377 169.524 118.596C169.15 118.907 168.776 119.261 168.396 119.628C166.711 121.268 164.772 122.617 162.628 123.571C160.647 124.455 158.546 125.098 156.424 125.409C150.783 126.243 144.924 124.773 140.299 121.183C139.008 120.179 137.817 119.013 136.752 117.678C131.859 111.565 129.011 102.668 131.612 95.8409C131.697 95.6077 131.789 95.3886 131.873 95.1696C133.086 92.2015 135.723 90.2086 138.783 89.5655C139.417 89.4242 140.066 89.3535 140.736 89.3394C145.171 89.2404 146.764 85.6363 143.253 80.6895C143.056 80.4068 143.401 80.0535 143.683 80.2514C151.989 86.0533 156.064 82.2018 157.545 67.326C157.587 66.9374 158.144 66.9091 158.215 67.2978L158.207 67.3119Z" fill="#404596"/>
<path d="M167.769 60.5066C169.997 59.7151 172.316 59.7504 174.396 60.443C175.045 60.655 175.672 60.9377 176.265 61.2769C178.295 62.45 178.472 65.411 176.54 66.7396C176.526 66.7466 176.519 66.7537 176.504 66.7608C175.538 67.4109 174.41 67.6441 173.261 67.6229C173.261 67.6229 173.261 67.6229 173.247 67.6229C171.505 67.5876 170.004 67.5311 168.382 68.3013C166.718 69.0999 165.237 70.3295 164.123 71.8065C163.179 73.0644 162.636 74.3365 162.495 75.4884C162.276 75.1492 162.079 74.7887 161.917 74.4071C161.776 74.1245 161.663 73.8347 161.557 73.5379C159.674 68.2236 162.452 62.3864 167.762 60.4995L167.769 60.5066Z" fill="#404596"/>
<path d="M139.742 91.9258C141.97 91.1343 144.289 91.1696 146.369 91.8622C147.018 92.0742 147.646 92.3569 148.238 92.6961C150.268 93.8692 150.445 96.8302 148.513 98.1588C148.499 98.1658 148.492 98.1729 148.478 98.18C147.512 98.8301 146.384 99.0633 145.234 99.0421C145.234 99.0421 145.234 99.0421 145.22 99.0421C143.479 99.0068 141.977 98.9502 140.355 99.7205C138.691 100.519 137.211 101.749 136.097 103.226C135.152 104.484 134.609 105.756 134.468 106.908C134.249 106.568 134.052 106.208 133.89 105.826C133.749 105.544 133.636 105.254 133.53 104.957C131.648 99.6428 134.426 93.8056 139.735 91.9187L139.742 91.9258Z" fill="#7ECBF3"/>
<path d="M131.253 90.6184C131.253 90.6184 131.288 90.6043 131.302 90.5972C131.929 90.3287 132.43 91.1696 131.908 91.6149C130.844 92.5335 129.983 93.6925 129.419 95.0635C129.335 95.2755 129.243 95.4946 129.158 95.7348C126.564 102.554 129.405 111.459 134.298 117.572C134.313 117.586 134.32 117.6 134.334 117.614C135.377 118.914 134.186 120.808 132.585 120.356C128.277 119.14 124.653 116.363 122.728 111.826C119.245 103.614 123.053 94.1236 131.245 90.6326L131.253 90.6184Z" fill="#404596"/>
<path d="M218.033 148.037C218.033 148.037 218.033 148.072 218.033 148.093C217.983 148.772 217.01 148.836 216.848 148.171C216.524 146.8 215.889 145.5 214.93 144.376C214.782 144.2 214.627 144.023 214.458 143.839C209.593 138.405 200.399 136.864 192.735 138.426C192.721 138.426 192.7 138.426 192.685 138.433C191.057 138.772 189.922 136.836 191.057 135.62C194.11 132.334 198.227 130.384 203.135 130.744C212.011 131.394 218.688 139.14 218.033 148.037Z" fill="#7ECBF3"/>
<path d="M94.6245 112.109C95.1956 113.013 94.561 114.194 93.4893 114.201C93.0451 114.201 92.6221 113.982 92.3683 113.614C91.0992 111.791 89.3435 110.236 87.1719 109.155C84.4081 107.784 80.7911 106.993 77.858 107.36C77.7381 107.374 77.6253 107.296 77.5971 107.183C77.5689 107.077 77.6253 106.964 77.724 106.915C80.1988 105.72 83.0332 105.332 85.8535 105.989C89.3506 106.802 92.7279 109.113 94.6174 112.109H94.6245Z" fill="#E62841"/>
<path d="M68.1422 84.2656C67.3243 83.5801 66.0693 84.0536 65.9213 85.1136C65.8578 85.5589 66.02 86.0041 66.3514 86.3009C67.9801 87.8061 69.2915 89.7566 70.0671 92.0604C71.0542 94.9861 71.3503 98.6891 70.5959 101.551C70.5677 101.671 70.6241 101.791 70.7369 101.834C70.8426 101.876 70.9555 101.834 71.0189 101.742C72.5278 99.4453 73.2963 96.6821 73.0213 93.7847C72.6829 90.2018 70.8497 86.5412 68.1422 84.2585V84.2656Z" fill="#E62841"/>
<path d="M185.346 174.891C179.501 174.481 175.524 181.315 174.918 186.396C174.904 186.516 174.805 186.608 174.678 186.608C174.565 186.608 174.474 186.53 174.452 186.417C173.895 183.725 174.206 180.877 175.524 178.283C175.968 177.407 176.539 176.58 177.181 175.796C174.523 176.594 172.013 177.887 169.771 179.626C166.767 180.488 164.25 182.827 163.298 186.05C162.565 188.53 162.889 191.067 164.01 193.18C165.131 195.3 167.042 196.996 169.496 197.781C169.686 197.851 169.891 197.901 170.095 197.957C175.059 199.201 180.093 196.078 181.545 191.152L182.751 187.082C184.02 182.785 186.565 178.969 190.041 176.135L191.092 175.287C191.092 175.287 185.367 174.884 185.353 174.884L185.346 174.891Z" fill="#F6A640"/>
<path d="M222.327 210.042C218.28 209.858 213.217 214.734 213.358 218.706C213.422 220.366 214.444 221.441 216.094 221.603C224.252 222.409 231.338 225.596 236.393 231.327C242.83 238.634 246.842 250.344 245.686 261.99C245.636 262.471 245.989 262.725 246.511 262.577C246.99 262.443 247.47 262.011 247.667 261.538C252.49 249.842 253.759 238.507 250.452 229.44C246.356 218.211 235.73 210.649 222.334 210.042H222.327Z" fill="#404596"/>
<path d="M271.004 222.713V223.299C271.004 227.363 270.8 231.362 270.419 235.32C266.774 274.619 245.333 308.759 214.268 329.528C194.06 343.069 169.764 350.92 143.648 350.92C137.599 350.92 131.69 350.51 125.88 349.683C111.758 347.719 98.4249 343.45 86.1849 337.217C71.9214 329.981 59.209 320.13 48.6542 308.321C33.5657 291.41 22.0237 266.577 17.5536 242.98C17.2081 241.221 15.0083 240.705 13.9437 242.118C10.9894 245.941 8.61334 251.037 6.44878 255.658C5.75781 257.107 4.00924 257.312 2.94459 256.414C-0.319875 243.977 -0.834575 229.582 1.22422 217.215C3.31828 204.678 8.43707 193.449 15.6217 184.283C15.8262 184.007 16.0025 183.732 16.1717 183.456C21.8404 177.774 28.2706 173.259 35.0745 169.888C36.5199 169.167 37.6833 168.029 38.339 166.616C38.4095 166.446 38.48 166.305 38.5787 166.135C45.0724 152.185 58.37 138.369 71.9144 129.868C74.8333 128.045 77.8581 126.426 80.9181 125.048C93.3273 119.458 108.747 118.504 121.481 123.571C136.386 129.5 150.381 145.754 142.393 162.559C142.428 162.87 142.499 163.146 142.597 163.315C144.593 166.792 148.132 169.619 152.631 170.828C157.58 172.17 162.565 171.237 166.168 168.693C166.824 168.213 167.437 167.697 167.987 167.11C167.571 172.347 165.103 176.997 161.317 180.234C158.772 182.403 155.648 183.951 152.172 184.573C153.512 186.262 154.443 188.325 154.753 190.565C154.859 191.187 154.894 191.802 154.894 192.424C154.894 194.113 154.584 195.731 153.963 197.208C153.822 197.554 153.688 197.894 153.519 198.24C148.294 191.18 139.946 186.601 130.562 186.601C124.442 186.601 118.738 188.565 114.063 191.908C111.18 193.767 108.67 196.148 106.674 198.933C106.399 199.342 106.089 199.759 105.814 200.169C104.333 202.579 103.205 205.229 102.55 208.021C102.134 209.879 101.894 211.773 101.894 213.738C101.894 214.013 101.929 214.289 101.929 214.564C101.929 214.946 101.894 215.285 101.894 215.667C101.894 231.716 114.747 244.705 130.555 244.705C142.788 244.705 153.202 236.988 157.326 226.069C158.151 223.9 161.211 223.864 162.001 226.034C162.755 228.098 163.376 230.338 163.891 232.507C164.574 235.539 164.99 238.465 164.99 240.5C164.99 241.256 164.955 241.984 164.885 242.705C164.715 244.047 164.504 245.39 164.264 246.698C160.415 263.333 141.582 274.598 124.569 272.873C124.879 291.544 154.196 300.773 168.763 301.911C189.21 303.529 211.751 299.466 226.804 288.442C253.885 268.633 260.379 235.532 245.742 218.585C242.992 215.384 239.488 212.939 235.469 211.215C232.888 209.978 230.075 209.151 227.086 208.77C226.945 208.77 226.811 208.77 226.705 208.734C224.745 208.529 222.721 208.494 220.656 208.593C220.86 208.459 221.135 208.317 221.375 208.148C223.229 206.975 225.119 205.703 226.945 204.289C245.192 190.374 254.301 170.255 250.621 154.863C253.23 158.793 255.641 162.891 257.806 167.089C261.451 174.29 263.651 180.318 264.715 183.555C264.715 183.555 270.659 201.364 270.969 222.72L271.004 222.713Z" fill="#404596"/>
<path d="M134.672 161.923C134.672 163.337 133.537 164.475 132.162 164.475C130.787 164.475 129.617 163.337 129.617 161.923C129.617 160.51 130.752 159.408 132.162 159.408H132.233C127.629 157.167 121.1 160.164 116.221 160.856C120.656 157.344 131.824 153.726 134.397 160.821C134.468 160.962 134.531 161.097 134.567 161.266C134.637 161.471 134.672 161.676 134.672 161.923Z" fill="#7ECBF3"/>
<path d="M80.9108 81.6932C82.3915 80.6261 84.2106 79.9972 86.1706 79.9831C89.0967 79.9689 91.9663 80.9936 93.877 82.8381C96.2884 85.1701 92.8688 88.8308 90.2741 86.6966C88.0884 84.9016 85.2893 83.8274 82.2364 83.8486C80.8685 83.8557 79.5571 84.0889 78.3232 84.4988C78.979 83.3893 79.8603 82.4282 80.8967 81.6862L80.9108 81.6932Z" fill="#F6A640"/>
<defs>
<filter id="filter0_d_11_480" x="246.287" y="0" width="227.75" height="245" filterUnits="userSpaceOnUse" color-interpolation-filters="sRGB">
<feFlood flood-opacity="0" result="BackgroundImageFix"/>
<feColorMatrix in="SourceAlpha" type="matrix" values="0 0 0 0 0 0 0 0 0 0 0 0 0 0 0 0 0 0 127 0" result="hardAlpha"/>
<feOffset dx="-4" dy="4"/>
<feGaussianBlur stdDeviation="2"/>
<feComposite in2="hardAlpha" operator="out"/>
<feColorMatrix type="matrix" values="0 0 0 0 0 0 0 0 0 0 0 0 0 0 0 0 0 0 0.25 0"/>
<feBlend mode="normal" in2="BackgroundImageFix" result="effect1_dropShadow_11_480"/>
<feBlend mode="normal" in="SourceGraphic" in2="effect1_dropShadow_11_480" result="shape"/>
</filter>
</defs>
</svg>
