<svg width="297" height="246" viewBox="0 0 297 246" fill="none" xmlns="http://www.w3.org/2000/svg">
<g clip-path="url(#clip0_11_389)">
<path d="M296.554 105.175C295.648 111.171 292.548 119.352 286.949 122.927C286.075 123.487 284.92 122.85 284.92 121.818V121.786C284.972 118.275 283.511 114.739 280.985 112.292C280.277 111.597 279.091 112.126 279.059 113.114C278.938 116.912 278.6 120.703 278.064 124.456C273.523 155.965 254.448 185.314 227.023 201.671C217.278 207.488 206.55 211.604 195.466 213.994C185.714 216.097 174.005 215.045 165.478 220.901C158.118 225.954 153.111 235.142 150.273 243.375C150.082 243.929 149.903 244.496 149.737 245.063C149.571 245.618 149.068 246 148.487 246C147.907 246 147.403 245.618 147.237 245.063C147.071 244.496 146.893 243.929 146.701 243.375C143.863 235.136 138.857 225.948 131.497 220.901C122.976 215.045 111.267 216.097 101.509 213.994C90.424 211.604 79.6966 207.482 69.9514 201.671C42.527 185.32 23.451 155.965 18.9101 124.456C18.3743 120.703 18.0363 116.912 17.9151 113.114C17.8833 112.12 16.6906 111.597 15.9891 112.292C13.4635 114.745 12.0093 118.275 12.054 121.786V121.818C12.054 122.857 10.906 123.487 10.0258 122.927C4.42616 119.352 1.32656 111.171 0.420918 105.175C-0.892902 96.4514 0.797207 87.3014 4.21569 79.2473C8.86509 68.294 16.8564 60.1953 25.46 56.6334C31.0151 48.1715 36.5574 39.6459 43.9173 32.7197C55.9139 21.435 72.5025 15.1651 88.9826 15.6748C99.4103 15.9934 111.471 20.6449 113.76 30.8145C113.881 31.3179 113.971 31.834 114.086 32.3437C114.137 32.5795 114.194 32.8216 114.264 33.0574C114.462 33.7519 114.749 34.3955 115.227 34.9244C116.688 37.5942 119.213 39.4866 122.262 39.8562C126.197 40.3213 129.902 38.0912 131.809 34.4974C132.524 35.5807 133.053 36.7786 133.346 38.0784C133.786 39.9836 133.742 42.0481 133.079 44.1445C131.631 48.7259 127.256 51.7525 122.46 51.7525H122.23C122.727 52.5554 123.155 53.3901 123.512 54.244C124.398 56.3977 124.851 58.7298 124.832 61.0491C124.819 61.7309 124.781 62.4 124.692 63.0754C124.692 62.5211 123.314 61.7246 121.675 60.9727C119.532 59.9914 116.93 59.0866 116.388 58.9018C116.158 58.8254 115.929 58.7425 115.705 58.6724C102.886 54.4542 87.4073 54.2758 75.6914 61.4315C68.2995 65.9491 61.0416 73.1876 57.5083 81.6049C56.9917 82.8538 56.5453 84.1282 56.1945 85.4153C55.9968 86.1608 56.9598 86.626 57.419 85.9888C61.335 80.5599 68.0444 76.9789 75.6658 76.9789C82.6559 76.9789 88.8742 79.9864 92.8795 84.6698C89.4418 86.575 86.2147 88.7605 83.2171 91.201C75.4171 97.541 69.2052 105.582 65.2318 114.707C62.0366 122.022 60.2635 130.05 60.2635 138.461C60.2635 139.404 60.2827 140.335 60.3337 141.271C60.372 142.042 60.423 142.807 60.4804 143.572C61.2776 136.715 63.3886 129.866 66.0801 123.634C66.112 123.564 66.1311 123.507 66.1566 123.443C66.1949 123.354 66.2331 123.264 66.2778 123.162C66.9155 121.735 69.0585 122.595 68.561 124.074C68.5227 124.195 68.4845 124.303 68.4398 124.424C67.3684 127.667 66.5839 131.044 66.0864 134.517C65.6974 137.257 65.4997 140.067 65.4997 142.915C65.4997 153.327 68.3378 163.675 73.5867 172.653C76.0868 176.935 79.0206 180.51 82.2924 183.702C89.1803 190.431 97.6564 195.407 106.917 198.077C110.457 199.096 114.111 199.848 117.868 200.294C118.116 200.326 118.365 200.352 118.614 200.371C125.546 201.104 131.644 195.439 131.165 188.481C131.165 188.423 131.152 188.372 131.152 188.315C130.636 181.497 125.668 177.776 121.937 172.704C120.476 170.722 119.105 168.626 117.906 166.453C113.716 158.96 111.12 150.415 111.12 141.934C111.12 139.921 111.247 137.958 111.528 136.04C114.143 115.918 130.004 101.536 146.638 100.657C146.906 100.638 147.186 100.625 147.441 100.625C147.601 100.625 147.767 100.638 147.939 100.644V100.682C148.105 100.651 148.264 100.644 148.423 100.644C148.621 100.644 148.819 100.663 149.017 100.701V100.644C149.182 100.631 149.355 100.625 149.514 100.625C149.776 100.625 150.05 100.638 150.318 100.657C166.957 101.543 182.819 115.918 185.427 136.04C185.708 137.958 185.835 139.921 185.835 141.934C185.835 150.421 183.246 158.96 179.05 166.453C177.85 168.626 176.479 170.722 175.019 172.704C171.281 177.776 166.319 181.497 165.803 188.315C165.803 188.372 165.79 188.423 165.79 188.481C165.312 195.439 171.409 201.104 178.354 200.371C178.603 200.352 178.839 200.32 179.088 200.294C182.423 199.899 185.695 199.262 188.852 198.408C199.796 195.458 209.733 189.386 217.297 180.956C219.523 178.477 221.557 175.743 223.369 172.653C228.611 163.675 231.456 153.321 231.456 142.915C231.456 140.067 231.258 137.257 230.869 134.517C230.371 131.044 229.587 127.667 228.515 124.424C228.477 124.303 228.439 124.195 228.394 124.074C227.897 122.595 230.046 121.729 230.678 123.162C230.716 123.264 230.754 123.354 230.799 123.443C230.831 123.5 230.85 123.564 230.875 123.634C233.567 129.866 235.684 136.715 236.475 143.572C236.532 142.807 236.583 142.042 236.622 141.271C236.673 140.341 236.692 139.404 236.692 138.461C236.692 130.044 234.925 122.022 231.724 114.707C227.75 105.576 221.532 97.541 213.738 91.201C210.741 88.7605 207.514 86.575 204.076 84.6698C208.081 79.9864 214.293 76.9789 221.289 76.9789C228.905 76.9789 235.62 80.5599 239.536 85.9888C239.995 86.626 240.959 86.1544 240.761 85.4153C240.41 84.1282 239.964 82.8538 239.447 81.6049C235.914 73.1876 228.649 65.9491 221.264 61.4315C209.542 54.2758 194.069 54.4542 181.25 58.6724C181.02 58.7425 180.791 58.819 180.567 58.9018C180.032 59.093 177.43 59.9914 175.28 60.9727C173.641 61.7246 172.264 62.5211 172.264 63.0754C172.174 62.4 172.136 61.7373 172.123 61.0491C172.104 58.7298 172.563 56.3977 173.443 54.244C173.801 53.3901 174.228 52.5554 174.725 51.7525H174.496C169.7 51.7525 165.331 48.7259 163.877 44.1445C163.214 42.0481 163.169 39.9836 163.609 38.0784C163.909 36.7786 164.432 35.5807 165.146 34.4974C167.053 38.0912 170.758 40.3213 174.694 39.8562C177.742 39.4866 180.268 37.5942 181.728 34.9244C182.207 34.3955 182.494 33.7519 182.691 33.0574C182.761 32.8216 182.819 32.5795 182.87 32.3437C182.991 31.8403 183.08 31.3242 183.195 30.8145C185.491 20.6449 197.545 15.9871 207.973 15.6748C224.453 15.1715 241.035 21.4414 253.038 32.7197C260.398 39.6459 265.94 48.1715 271.495 56.6334C280.099 60.1953 288.09 68.294 292.74 79.2473C296.158 87.3078 297.842 96.4514 296.534 105.175H296.554Z" fill="#404596"/>
<path d="M188.24 138.844C188.24 139.697 188.176 140.545 188.03 141.361C188.049 141.38 188.03 141.392 188.03 141.412C187.998 141.59 187.947 141.768 187.902 141.953L187.245 144.438L184.802 153.684C183.45 158.756 179.547 162.407 174.891 163.598C173.813 163.879 172.704 164.025 171.562 164.025C170.357 164.025 169.139 163.86 167.914 163.516C166.664 163.172 165.503 162.617 164.476 161.897C162.308 160.393 160.669 158.151 159.91 155.519L157.614 147.554C156.632 144.215 153.628 141.928 150.203 141.928H146.944C143.519 141.928 140.515 144.215 139.552 147.554L137.256 155.519C136.484 158.189 134.833 160.425 132.645 161.935C131.618 162.636 130.476 163.197 129.239 163.522C128.015 163.866 126.797 164.032 125.61 164.032C124.966 164.032 124.322 163.981 123.697 163.885C118.429 163.133 113.85 159.272 112.37 153.69L110.214 145.572L109.251 141.96C109.009 141.029 108.849 140.093 108.786 139.143C108.773 139.048 108.773 138.946 108.773 138.85C108.773 134.791 110.284 130.962 112.982 127.578C113.078 127.463 113.174 127.33 113.288 127.221C119.896 119.174 133.136 113.694 148.398 113.656H148.513C149.01 113.656 149.508 113.656 150.005 113.687C164.47 114.012 176.951 119.25 183.463 126.839C183.463 126.858 183.482 126.858 183.495 126.871C184.184 127.686 184.815 128.54 185.357 129.407C187.22 132.319 188.253 135.511 188.253 138.85L188.24 138.844Z" fill="#E84B4F"/>
<path d="M148.405 123.761C161.39 123.761 173.016 127.24 180.887 132.739C175.81 125.495 163.526 120.378 149.157 120.378C136.095 120.378 124.749 124.603 118.978 130.815C126.663 126.444 137.014 123.768 148.405 123.768V123.761Z" fill="#404596"/>
<path d="M164.234 173.762C164.234 182.039 158.048 188.863 150.107 189.679C149.578 189.73 149.049 189.762 148.5 189.762C139.807 189.762 132.766 182.593 132.766 173.762C132.766 164.93 139.807 157.743 148.5 157.743C149.049 157.743 149.578 157.775 150.107 157.826C158.048 158.641 164.234 165.466 164.234 173.762Z" fill="#E62841"/>
<path d="M148.5 182.58C153.287 182.58 157.167 178.629 157.167 173.755C157.167 168.881 153.287 164.93 148.5 164.93C143.713 164.93 139.833 168.881 139.833 173.755C139.833 178.629 143.713 182.58 148.5 182.58Z" fill="#404596"/>
<path d="M105.737 32.6879C105.737 33.2932 105.482 33.8412 105.074 34.2171C105.074 34.2171 105.068 34.2235 105.055 34.2362C104.628 34.8607 103.9 35.2812 103.078 35.2812C101.745 35.2812 100.667 34.198 100.667 32.8726C100.667 31.8914 101.26 31.0439 102.108 30.668C100.916 30.292 99.5189 30.4195 98.237 30.6361C94.7739 31.2287 91.3427 32.0634 87.9561 32.93C88.5045 32.7133 97.1911 29.1515 101.611 28.9794C106.171 28.8137 105.744 32.6879 105.744 32.6879H105.737Z" fill="#7ECBF3"/>
<path d="M191.257 32.6879C191.257 33.2932 191.512 33.8412 191.92 34.2171C191.92 34.2171 191.926 34.2235 191.939 34.2362C192.367 34.8607 193.094 35.2812 193.916 35.2812C195.249 35.2812 196.327 34.198 196.327 32.8726C196.327 31.8914 195.734 31.0439 194.886 30.668C196.078 30.292 197.475 30.4195 198.757 30.6361C202.22 31.2287 205.651 32.0634 209.038 32.93C208.49 32.7133 199.803 29.1515 195.383 28.9794C190.823 28.8137 191.25 32.6879 191.25 32.6879H191.257Z" fill="#7ECBF3"/>
<path d="M109.028 185.881C113.705 185.881 117.497 182.093 117.497 177.419C117.497 172.746 113.705 168.957 109.028 168.957C104.35 168.957 100.558 172.746 100.558 177.419C100.558 182.093 104.35 185.881 109.028 185.881Z" fill="#404596"/>
<path d="M92.9494 172.201C95.8236 172.201 98.1536 169.873 98.1536 167.001C98.1536 164.13 95.8236 161.802 92.9494 161.802C90.0751 161.802 87.7451 164.13 87.7451 167.001C87.7451 169.873 90.0751 172.201 92.9494 172.201Z" fill="#404596"/>
<path d="M99.576 159.623C101.552 159.623 103.154 158.022 103.154 156.048C103.154 154.074 101.552 152.473 99.576 152.473C97.5999 152.473 95.998 154.074 95.998 156.048C95.998 158.022 97.5999 159.623 99.576 159.623Z" fill="#404596"/>
<path d="M197.705 157.469C202.382 157.469 206.174 153.68 206.174 149.007C206.174 144.334 202.382 140.545 197.705 140.545C193.027 140.545 189.235 144.334 189.235 149.007C189.235 153.68 193.027 157.469 197.705 157.469Z" fill="#404596"/>
<path d="M211.5 127.846C214.374 127.846 216.704 125.518 216.704 122.646C216.704 119.775 214.374 117.447 211.5 117.447C208.625 117.447 206.295 119.775 206.295 122.646C206.295 125.518 208.625 127.846 211.5 127.846Z" fill="#404596"/>
<path d="M173.067 99.5354C175.941 99.5354 178.271 97.2075 178.271 94.3359C178.271 91.4644 175.941 89.1365 173.067 89.1365C170.193 89.1365 167.863 91.4644 167.863 94.3359C167.863 97.2075 170.193 99.5354 173.067 99.5354Z" fill="#404596"/>
<path d="M195.102 110.712C197.078 110.712 198.68 109.111 198.68 107.137C198.68 105.163 197.078 103.562 195.102 103.562C193.126 103.562 191.524 105.163 191.524 107.137C191.524 109.111 193.126 110.712 195.102 110.712Z" fill="#404596"/>
</g>
<defs>
<clipPath id="clip0_11_389">
<rect width="297" height="246" fill="white"/>
</clipPath>
</defs>
</svg>
