<svg width="429" height="260" viewBox="0 0 429 260" fill="none" xmlns="http://www.w3.org/2000/svg">
<g clip-path="url(#clip0_11_408)">
<path d="M387.216 201.308C394.13 200.012 398.645 208.237 393.762 213.302C372.43 235.407 342.221 249.19 308.738 249.19C288.806 249.19 270.047 244.312 253.617 235.685C247.924 232.698 242.521 229.275 237.445 225.436C236.626 224.826 235.822 224.189 235.01 223.551C231.924 221.091 228.97 218.493 226.161 215.735C224.892 214.508 223.651 213.24 222.437 211.93C211.376 200.116 202.811 186.021 197.561 170.451C197.263 169.591 196.527 169.169 195.778 169.169C195.029 169.169 194.225 169.633 193.948 170.555C191.756 178.094 190.986 187.296 192.047 197.053C192.817 203.955 194.419 210.364 196.604 215.936C197.332 217.8 195.05 219.352 193.545 218.021C190.078 214.938 186.617 211.016 183.15 206.726C172.324 193.311 165 177.491 159.23 161.352C153.446 145.193 150.111 128.243 142.524 112.846C139.236 106.194 134.964 96.8807 128.057 93.1803L128.001 93.0833V61.6305C128.057 61.582 128.085 61.5543 128.14 61.5058C132.891 61.88 137.829 60.3486 142.496 57.2719C151.026 51.7214 158.703 41.1124 162.816 27.7732C164.986 20.726 165.902 13.7342 165.701 7.33135C166.235 7.42143 166.769 7.54616 167.303 7.7194C173.621 9.6735 177.879 15.7783 179.301 23.6294C180.154 28.3761 185.639 30.5312 189.419 27.5446C189.467 27.5099 189.495 27.4891 189.53 27.4545C224.393 -0.0277336 263.764 -8.25992 277.447 9.0845C279.284 11.3989 280.567 14.0529 281.309 16.991C281.33 17.0811 281.261 17.1642 281.171 17.1642C272.155 17.2127 264.748 20.4419 261.523 26.6645C260.989 27.697 260.58 28.778 260.31 29.9006C258.507 37.2181 262.182 46.1224 269.707 53.7795C270.206 54.313 270.74 54.8258 271.288 55.3247C274.818 58.637 279.083 61.6721 283.91 64.1806C302.115 73.6324 321.623 72.1841 327.483 60.9237C333.344 49.6634 323.329 32.8664 305.118 23.4146C302.822 22.2227 300.492 21.2041 298.189 20.3518C298.065 20.3033 298.092 20.1231 298.224 20.1162C301.692 19.8113 305.201 19.6519 308.745 19.6519C323.718 19.6519 338.233 21.0794 351.389 26.0963C352.471 17.4276 356.146 11.6484 362.714 7.85798C368.657 4.42791 375.856 4.26853 383.152 6.79085C382.313 7.07496 381.494 7.44915 380.711 7.90649C377.451 9.77744 375.051 12.8195 373.498 16.7623C369.545 26.7061 373.158 37.9942 381.598 44.5772C390.558 51.569 398.444 59.822 404.984 69.0589C407.889 73.1681 410.539 77.4782 412.89 81.9616C412.91 82.0101 412.938 82.0516 412.959 82.1001C414.388 84.8234 415.705 87.6021 416.912 90.4501C419.693 97.7607 421.489 105.556 422.134 113.685C424.686 145.609 408.923 175.073 383.062 193.172C379.039 195.986 381.647 202.326 386.481 201.467C386.73 201.425 386.987 201.377 387.236 201.328L387.216 201.308Z" fill="#7ECBF3"/>
<path d="M101.308 50.9315H0V106.956H101.308V50.9315Z" fill="#404596"/>
<path d="M92.6463 105.799H9.08496V119.36H92.6463V105.799Z" fill="#404596"/>
<path d="M367.083 205.597C356.403 210.468 344.613 213.607 332.088 214.605C320.035 215.561 308.294 214.778 297.35 211.917C284.867 207.988 273.258 201.314 263.583 192.535C255.684 185.377 248.146 177.824 242.924 168.573C242.036 167.007 239.65 167.714 239.706 169.508C239.997 178.745 242.813 191.357 250.067 202.097C251.551 204.301 253.215 206.29 254.998 208.085C256.281 209.373 255.15 211.535 253.354 211.258C219.261 206.04 207.423 160.881 203.768 140.231C201.972 130.107 195.487 121.279 186.153 116.941C173.135 110.892 164.584 117.69 164.584 117.69C164.584 112.583 166.505 107.926 169.675 104.399C160.541 101.163 154.147 93.707 154.147 85.0243C154.147 83.8533 154.258 82.7238 154.487 81.6081C157.76 86.2647 163.974 89.3968 171.096 89.3968C172.962 89.3968 174.765 89.182 176.471 88.787C177.9 88.4475 179.266 87.9763 180.535 87.3942C181.957 86.7429 182.935 85.4124 183.177 83.8671C184.01 78.6146 186.333 74.2352 189.648 70.6665C190.827 69.3707 192.179 68.2828 193.622 67.1949C203.9 59.5101 219.511 57.2095 231.536 59.2191C231.605 59.2329 231.682 59.2399 231.751 59.2537C241.148 60.9099 249.685 65.6981 256.135 72.7107L261.926 79.0234C261.926 79.0234 263.015 80.2015 264.291 81.6012L264.318 81.6289C265.983 83.4236 268.16 84.6502 270.56 85.1352C282.974 87.6368 295.561 90.7273 304.202 96.4094C313.377 102.452 319.321 108.446 321.859 115.715C322.282 116.934 321.173 118.126 319.903 117.87C311.332 116.158 305.048 116.685 303.71 119.782C302.004 123.732 308.877 130.676 320.021 137.058C320.576 137.39 321.145 137.695 321.713 138C326.096 140.328 330.667 141.971 335.299 142.982C355.709 147.417 377.541 139.441 390.857 122.18C394.969 116.858 398.305 110.934 400.705 104.565C402.827 98.9387 404.214 92.9655 404.762 86.7567C404.935 84.7957 405.025 82.8069 405.025 80.7974C405.025 77.6861 404.81 74.6371 404.401 71.6366C404.595 71.8861 404.789 72.1356 404.97 72.385C408.07 76.4734 410.816 80.8182 413.16 85.3916C414.547 88.101 415.795 90.9075 416.898 93.7762C419.679 101.087 421.475 108.882 422.12 117.011C425.165 155.067 402.175 189.624 367.09 205.604L367.083 205.597Z" fill="#404596"/>
<path d="M370.752 238.068C383.256 230.605 393.922 221.548 402.397 211.681C411.038 201.619 427.807 206.505 428.938 219.719C428.972 220.107 428.993 220.488 429 220.876C429.076 224.403 428.14 228.034 425.893 231.395C419.97 240.279 407.418 246.003 397.813 249.918C387.812 253.992 377.25 256.598 366.577 258.101C343.975 261.296 319.446 260.534 297.191 255.025C297.503 255.101 297.843 255.142 298.217 255.149C320.243 258.074 346.486 252.544 370.759 238.054L370.752 238.068Z" fill="#7ECBF3"/>
<path d="M199.094 85.6619C205.273 83.8464 208.567 88.9534 207.61 94.6078C207.451 95.2938 207.326 95.9729 207.132 96.6382H207.062L207.243 94.587C207.548 88.9257 205.051 85.0868 199.094 85.655V85.6619Z" fill="#7ECBF3"/>
<path d="M201.167 91.8291C199.371 91.8291 197.921 93.2843 197.921 95.0721C197.921 96.8599 199.378 98.3151 201.167 98.3151C202.956 98.3151 204.413 96.8599 204.413 95.0721C204.413 93.2843 202.956 91.8291 201.167 91.8291ZM199.787 95.7165C198.969 95.5779 198.428 94.8018 198.566 93.9842C198.705 93.1665 199.482 92.626 200.3 92.7646C201.118 92.9032 201.659 93.6793 201.521 94.4969C201.382 95.3146 200.605 95.8551 199.787 95.7165Z" fill="#7ECBF3"/>
<path d="M140.88 75.0391C136.65 74.0135 132.385 76.6121 131.358 80.846C130.332 85.0729 132.932 89.3345 137.17 90.3601C141.4 91.3857 145.665 88.7871 146.692 84.5532C147.718 80.3263 145.117 76.0646 140.88 75.0391ZM146.31 84.4631C145.527 87.6923 142.274 89.6741 139.042 88.8911C135.81 88.108 133.827 84.8581 134.611 81.629C135.394 78.3999 138.647 76.418 141.879 77.2011C145.11 77.9841 147.094 81.234 146.31 84.4631Z" fill="#404596"/>
<path d="M150.43 96.4441C147.198 95.6611 143.945 97.6429 143.162 100.872C142.378 104.101 144.362 107.351 147.593 108.134C150.825 108.917 154.078 106.935 154.861 103.706C155.645 100.477 153.662 97.2271 150.43 96.4441ZM148.419 106.533C145.742 106.533 143.571 104.364 143.571 101.69C143.571 99.0149 145.742 96.846 148.419 96.846C151.096 96.846 153.266 99.0149 153.266 101.69C153.266 104.364 151.096 106.533 148.419 106.533Z" fill="#404596"/>
<path d="M333.788 71.2071C332.103 72.1633 331.506 74.3045 332.463 75.9884C333.42 77.6722 335.563 78.2682 337.248 77.3119C338.934 76.3556 339.53 74.2144 338.573 72.5306C337.616 70.8467 335.473 70.2508 333.788 71.2071ZM336.957 76.3071C335.82 77.3743 334.03 77.3119 332.962 76.1755C331.894 75.039 331.957 73.2512 333.094 72.1841C334.232 71.117 336.021 71.1793 337.089 72.3158C338.157 73.4522 338.094 75.24 336.957 76.3071Z" fill="#404596"/>
<path d="M342.616 107.767C340.931 108.723 340.334 110.864 341.291 112.548C342.248 114.232 344.391 114.828 346.077 113.872C347.762 112.915 348.358 110.774 347.401 109.09C346.444 107.407 344.301 106.811 342.616 107.767ZM345.785 112.867C344.648 113.934 342.859 113.872 341.791 112.735C340.723 111.599 340.785 109.811 341.922 108.744C343.06 107.677 344.849 107.739 345.917 108.876C346.985 110.012 346.923 111.8 345.785 112.867Z" fill="#404596"/>
<path d="M331.964 56.8422C332.65 60.0922 335.84 62.171 339.093 61.485C342.345 60.799 344.426 57.6114 343.739 54.3615C343.053 51.1116 339.863 49.0328 336.61 49.7188C333.357 50.4048 331.277 53.5923 331.964 56.8422ZM341.943 54.313C343.094 56.7244 342.068 59.614 339.655 60.7643C337.241 61.9146 334.349 60.889 333.198 58.4776C332.047 56.0661 333.073 53.1766 335.487 52.0263C337.9 50.876 340.792 51.9015 341.943 54.313Z" fill="#404596"/>
<path d="M351.736 103.575C352.332 106.395 355.099 108.196 357.915 107.601C360.737 107.005 362.541 104.24 361.944 101.426C361.348 98.6061 358.581 96.8045 355.765 97.4004C352.942 97.9963 351.139 100.761 351.736 103.575ZM360.391 101.378C361.389 103.471 360.502 105.972 358.407 106.97C356.313 107.968 353.809 107.081 352.811 104.988C351.812 102.895 352.7 100.394 354.794 99.3961C356.888 98.3982 359.392 99.2852 360.391 101.378Z" fill="#404596"/>
<path d="M339.648 69.2183C339.883 70.3409 340.986 71.0616 342.11 70.826C343.233 70.5904 343.954 69.4886 343.719 68.366C343.483 67.2434 342.38 66.5228 341.257 66.7584C340.133 66.994 339.412 68.0958 339.648 69.2183ZM343.094 68.3452C343.49 69.1768 343.136 70.1746 342.304 70.5765C341.472 70.9784 340.473 70.6181 340.071 69.7865C339.668 68.955 340.029 67.9572 340.861 67.5553C341.694 67.1534 342.692 67.5137 343.094 68.3452Z" fill="#404596"/>
<path d="M337.81 122.249C338.046 123.372 339.148 124.093 340.272 123.857C341.395 123.621 342.117 122.52 341.881 121.397C341.645 120.275 340.542 119.554 339.419 119.79C338.295 120.025 337.574 121.127 337.81 122.249ZM341.257 121.376C341.652 122.208 341.298 123.206 340.466 123.608C339.634 124.01 338.635 123.649 338.233 122.818C337.838 121.986 338.191 120.988 339.023 120.586C339.856 120.184 340.854 120.545 341.257 121.376Z" fill="#404596"/>
<path d="M92.8403 92.5844L97.5562 92.5636C106.468 92.529 115.192 95.0652 122.696 99.8742L127.988 103.263V56.5236L124.555 58.4985C115.269 63.8341 104.817 66.8069 94.1095 67.1603L92.8403 67.2018V92.5844Z" fill="#404596"/>
<path d="M270.498 177.533C268.618 178.177 267.252 179.778 267.162 181.711C267.092 183.194 267.793 184.545 268.937 185.46C269.409 185.834 269.374 186.527 268.875 186.86C267.654 187.67 266.836 188.952 266.766 190.435C266.676 192.375 267.897 194.094 269.714 194.905C269.457 194.316 269.332 193.671 269.36 193.006C269.45 191.003 270.9 189.354 272.876 188.758C273.306 188.627 273.785 188.703 274.125 189.001C276.15 190.789 280.2 192.119 284.909 192.327C289.93 192.556 294.306 191.433 296.345 189.645C296.754 189.278 296.698 188.62 296.22 188.343L295.984 188.218C295.596 187.996 295.623 187.421 296.026 187.248L296.712 186.936C297.128 186.742 297.323 186.222 297.073 185.834C295.61 183.547 290.977 181.718 285.401 181.469C280.692 181.254 276.538 182.217 274.36 183.811C274 184.074 273.514 184.109 273.098 183.942C271.184 183.166 269.887 181.399 269.977 179.397C270.005 178.731 270.185 178.101 270.498 177.533ZM289.313 185.64C289.34 184.961 289.916 184.441 290.595 184.469C291.275 184.497 291.809 185.072 291.774 185.751C291.747 186.43 291.164 186.95 290.485 186.922C289.805 186.894 289.285 186.319 289.313 185.64Z" fill="#EF7D56"/>
<path d="M372.083 114.281C372.174 116.283 370.877 118.05 368.963 118.826C368.546 118.993 368.061 118.965 367.7 118.695C365.523 117.094 361.369 116.138 356.66 116.352C351.084 116.602 346.451 118.431 344.988 120.718C344.738 121.106 344.932 121.633 345.348 121.82L346.035 122.132C346.437 122.305 346.465 122.88 346.077 123.102L345.841 123.226C345.369 123.504 345.307 124.162 345.716 124.529C347.755 126.31 352.131 127.433 357.152 127.211C361.861 126.996 365.911 125.673 367.936 123.885C368.269 123.587 368.755 123.511 369.184 123.642C371.161 124.238 372.61 125.887 372.701 127.89C372.728 128.555 372.61 129.2 372.347 129.789C374.157 128.978 375.378 127.259 375.294 125.319C375.225 123.836 374.414 122.554 373.186 121.744C372.687 121.411 372.652 120.725 373.124 120.344C374.268 119.429 374.968 118.071 374.899 116.595C374.809 114.662 373.443 113.061 371.563 112.417C371.875 112.978 372.056 113.608 372.083 114.281ZM351.576 121.806C350.897 121.834 350.314 121.314 350.286 120.635C350.259 119.956 350.786 119.388 351.465 119.353C352.145 119.325 352.714 119.845 352.748 120.524C352.776 121.203 352.256 121.771 351.576 121.806Z" fill="#DD5F67"/>
<path d="M204.454 38.9435C204.545 40.9461 203.248 42.7131 201.334 43.4892C200.918 43.6555 200.432 43.6278 200.071 43.3576C197.894 41.7568 193.74 40.8006 189.031 41.0154C183.455 41.2649 178.822 43.0942 177.359 45.381C177.109 45.769 177.303 46.2956 177.72 46.4827L178.406 46.7946C178.808 46.9678 178.836 47.5429 178.448 47.7647L178.212 47.8894C177.74 48.1666 177.678 48.8249 178.087 49.1922C180.126 50.973 184.502 52.0956 189.523 51.8739C194.232 51.659 198.282 50.3355 200.307 48.5477C200.64 48.2497 201.126 48.1735 201.556 48.3052C203.532 48.9011 204.982 50.5503 205.072 52.5529C205.099 53.2182 204.982 53.8626 204.718 54.4516C206.528 53.6409 207.749 51.9224 207.665 49.9821C207.596 48.4992 206.785 47.2173 205.557 46.4065C205.058 46.0739 205.023 45.3879 205.495 45.0068C206.639 44.0921 207.339 42.7339 207.27 41.2579C207.18 39.3246 205.814 37.7239 203.934 37.0795C204.246 37.6408 204.427 38.2713 204.454 38.9435ZM183.947 46.4689C183.268 46.4966 182.685 45.9769 182.657 45.2978C182.63 44.6187 183.157 44.0505 183.836 44.0159C184.516 43.9812 185.085 44.5078 185.119 45.1869C185.147 45.866 184.627 46.4342 183.947 46.4689Z" fill="#DD5F67"/>
<path d="M305.298 76.5358C303.419 77.1802 302.053 78.7809 301.962 80.7142C301.893 82.1971 302.594 83.5484 303.738 84.4631C304.209 84.8373 304.175 85.5302 303.675 85.8628C302.455 86.6736 301.637 87.9555 301.567 89.4384C301.477 91.3787 302.698 93.0972 304.515 93.9079C304.258 93.3189 304.133 92.6745 304.161 92.0092C304.251 90.0066 305.701 88.3574 307.677 87.7615C308.107 87.6298 308.586 87.706 308.925 88.004C310.95 89.7918 315.001 91.1223 319.709 91.3302C324.731 91.5588 329.107 90.4363 331.145 88.6485C331.555 88.2812 331.499 87.6229 331.021 87.3457L330.785 87.221C330.397 86.9992 330.424 86.4241 330.826 86.2509L331.513 85.939C331.929 85.745 332.123 85.2253 331.874 84.8373C330.41 82.5505 325.778 80.7212 320.202 80.4717C315.493 80.2569 311.339 81.2201 309.161 82.8139C308.801 83.0772 308.315 83.1118 307.899 82.9455C305.985 82.1694 304.688 80.4024 304.778 78.3998C304.806 77.7346 304.986 77.104 305.298 76.5358ZM324.113 84.6432C324.141 83.9641 324.717 83.4444 325.396 83.4721C326.076 83.4999 326.61 84.075 326.575 84.7541C326.548 85.4332 325.965 85.9529 325.285 85.9252C324.606 85.8975 324.086 85.3223 324.113 84.6432Z" fill="#EF7D56"/>
<path d="M60.981 47.7232L61.078 47.3351C61.1197 47.1826 61.1751 47.0441 61.2445 46.9055C61.3901 46.6283 61.5843 46.3858 61.8201 46.1779C62.7563 45.3394 64.1642 45.5542 65.3362 45.4919C66.6539 45.4226 67.9854 45.2078 69.1367 44.5287C69.1367 44.5287 69.1436 44.5287 69.1575 44.5148C69.317 44.3901 69.213 44.1337 69.0118 44.1545C68.8593 44.1683 68.7067 44.1753 68.5472 44.1753C67.604 44.1753 66.7649 43.8496 66.2308 43.3507C67.1047 43.0666 67.9785 42.5468 68.7344 41.7985C69.206 41.3342 69.5874 40.8214 69.8857 40.2948C70.3295 39.5117 70.3295 38.6802 70.4751 37.821C70.6347 36.8855 70.9329 35.8946 71.4877 35.1115C71.779 34.7027 72.1465 34.3285 72.5834 34.0721C72.7013 34.0098 72.8192 33.9474 72.9441 33.9058L73.0134 33.885L73.2215 33.8157C73.6029 33.691 74.0121 33.6494 74.4143 33.691L73.9774 33.9127C73.2353 34.2869 72.84 34.973 72.6597 35.7629C72.4031 36.8855 72.4447 38.0981 72.5141 39.2415C72.5487 39.8097 72.5973 40.371 72.6597 40.9392C72.6805 41.1471 72.6944 41.355 72.6944 41.5698C72.6944 41.7985 72.6874 42.0271 72.6666 42.2558C72.5765 43.2744 72.2575 44.3485 71.7027 45.3741C71.4599 45.8245 71.1756 46.2472 70.8774 46.6283C71.4877 46.559 72.2436 46.2125 72.9649 45.6443C72.7013 46.6768 72.1396 47.6816 71.2935 48.52C69.0951 50.689 65.8078 50.9176 63.9284 49.0397L63.9076 49.0259C63.7758 48.8873 63.651 48.7487 63.54 48.5963C63.2557 48.2151 63.0407 47.7994 62.8951 47.3559C62.8812 47.3212 62.8604 47.2935 62.8257 47.2866C62.4235 47.148 61.9103 47.1827 61.4387 47.4183C61.2653 47.5014 61.1127 47.6053 60.981 47.7232Z" fill="#404596"/>
<path d="M52.0205 36.2687L52.4019 36.1578C52.5476 36.1162 52.7071 36.0954 52.8597 36.0885C53.1717 36.0747 53.4838 36.1232 53.7751 36.2202C54.9749 36.6082 55.4881 37.9387 56.1261 38.9227C56.8404 40.0314 57.6934 41.0777 58.8585 41.736C58.8585 41.736 58.8655 41.736 58.8793 41.7499C59.0666 41.833 59.233 41.6044 59.1151 41.445C59.025 41.3202 58.9418 41.1886 58.8655 41.0569C58.4008 40.2323 58.2552 39.3523 58.4216 38.6455C59.1082 39.2622 59.9959 39.7542 61.0154 40.0383C61.6534 40.2115 62.2914 40.2878 62.8948 40.2808C63.7964 40.267 64.5176 39.8581 65.3359 39.5532C66.2306 39.2206 67.2362 38.985 68.1932 39.0751C68.6926 39.1236 69.2057 39.2483 69.6427 39.5047C69.7536 39.574 69.8646 39.6433 69.9686 39.7334L70.0241 39.7819L70.1905 39.9274C70.4957 40.1977 70.7315 40.5234 70.891 40.8976L70.4818 40.6273C69.7883 40.1769 68.9908 40.1769 68.221 40.4125C67.1183 40.752 66.0919 41.3965 65.1348 42.0271C64.6632 42.3389 64.1917 42.6646 63.7339 42.9972C63.5675 43.1219 63.3872 43.2328 63.1999 43.3436C63.0057 43.4614 62.7977 43.5654 62.5896 43.6624C61.6603 44.092 60.5715 44.3553 59.4064 44.3831C58.8932 44.3969 58.387 44.3623 57.9084 44.293C58.2691 44.785 58.9487 45.2631 59.8087 45.6096C58.7823 45.9006 57.631 45.9145 56.4798 45.6026C53.5046 44.785 51.6599 42.0548 52.3465 39.4909V39.4701C52.4019 39.2899 52.4644 39.1098 52.5406 38.9365C52.7279 38.5 52.9845 38.105 53.2966 37.7585C53.3174 37.7308 53.3312 37.6961 53.3243 37.6615C53.2411 37.2388 52.9637 36.8161 52.5198 36.5251C52.3603 36.4211 52.1939 36.338 52.0274 36.2825L52.0205 36.2687Z" fill="#404596"/>
<path d="M57.4716 22.7839L57.756 23.0611C57.8669 23.172 57.964 23.2898 58.0472 23.4215C58.2137 23.6848 58.3247 23.9758 58.3871 24.2807C58.6437 25.5141 57.756 26.6229 57.222 27.6623C56.6186 28.8334 56.1401 30.0945 56.154 31.4319C56.154 31.4319 56.154 31.4388 56.154 31.4527C56.1748 31.6536 56.4591 31.6883 56.5354 31.5012C56.5978 31.3626 56.6672 31.224 56.7504 31.0854C57.2289 30.2678 57.9293 29.7065 58.6229 29.4917C58.4287 30.3925 58.4495 31.4111 58.713 32.4297C58.8795 33.0673 59.1291 33.6563 59.4412 34.176C59.8989 34.9521 60.6202 35.3678 61.2929 35.9222C62.028 36.532 62.7354 37.2804 63.1307 38.1535C63.3387 38.6108 63.4844 39.1167 63.4844 39.6225C63.4844 39.7542 63.4705 39.8858 63.4497 40.0175L63.4358 40.0937L63.3942 40.3085C63.311 40.7035 63.1446 41.0777 62.9018 41.3965L62.9296 40.9114C62.9781 40.0868 62.5759 39.3938 61.9864 38.8464C61.1403 38.0634 60.0654 37.4952 59.0459 36.9824C58.5396 36.726 58.0195 36.4904 57.5063 36.2548C57.3191 36.1716 57.1249 36.0746 56.9446 35.9707C56.7504 35.8598 56.5562 35.7351 56.362 35.6034C55.5229 35.0144 54.7531 34.2037 54.1428 33.2058C53.8723 32.7693 53.6504 32.3189 53.4701 31.8615C53.2204 32.4228 53.1441 33.2474 53.2759 34.1621C52.513 33.4207 51.9235 32.4297 51.6184 31.2725C50.8417 28.2859 52.2842 25.3271 54.8502 24.641H54.871C55.0582 24.5856 55.2385 24.551 55.4258 24.5302C55.8974 24.4747 56.3689 24.4955 56.8267 24.5925C56.8613 24.5995 56.896 24.5925 56.9238 24.5717C57.2497 24.2946 57.4716 23.8372 57.5063 23.3037C57.5202 23.1166 57.5063 22.9295 57.4716 22.7562V22.7839Z" fill="#404596"/>
<path d="M71.8757 20.7606L71.7786 21.1486C71.737 21.3011 71.6815 21.4397 71.6122 21.5783C71.4666 21.8554 71.2724 22.098 71.0366 22.3059C70.1003 23.1443 68.6925 22.9295 67.5205 22.9919C66.2028 23.0612 64.8712 23.276 63.72 23.9551C63.72 23.9551 63.7131 23.9551 63.6992 23.9689C63.5397 24.0937 63.6437 24.35 63.8448 24.3293C63.9974 24.3154 64.15 24.3085 64.3095 24.3085C65.2527 24.3085 66.0918 24.6342 66.6258 25.1331C65.752 25.4172 64.8782 25.9369 64.1223 26.6853C63.6507 27.1495 63.2692 27.6623 62.971 28.189C62.5272 28.972 62.5272 29.8035 62.3815 30.6628C62.222 31.5983 61.9238 32.5892 61.369 33.3722C61.0777 33.781 60.7102 34.1552 60.2733 34.4116C60.1554 34.474 60.0375 34.5363 59.9126 34.5779L59.8433 34.5987L59.6352 34.668C59.2538 34.7927 58.8446 34.8343 58.4424 34.7927L58.8793 34.571C59.6214 34.1968 60.0167 33.5108 60.197 32.7208C60.4536 31.5983 60.412 30.3856 60.3426 29.2422C60.3079 28.674 60.2594 28.1127 60.197 27.5445C60.1762 27.3366 60.1623 27.1288 60.1623 26.9139C60.1623 26.6853 60.1692 26.4566 60.19 26.2279C60.2802 25.2093 60.5992 24.1352 61.154 23.1097C61.3967 22.6593 61.6811 22.2366 61.9793 21.8554C61.369 21.9247 60.6131 22.2712 59.8918 22.8394C60.1554 21.8069 60.7171 20.8022 61.5632 19.9637C63.7616 17.7948 67.0489 17.5661 68.9283 19.444L68.9491 19.4579C69.0809 19.5964 69.2057 19.735 69.3167 19.8875C69.601 20.2686 69.816 20.6844 69.9616 21.1279C69.9755 21.1625 69.9963 21.1902 70.031 21.1971C70.4332 21.3357 70.9464 21.3011 71.418 21.0655C71.5914 20.9823 71.744 20.8784 71.8757 20.7606Z" fill="#404596"/>
<path d="M80.8363 32.215L80.4549 32.3259C80.3092 32.3675 80.1497 32.3882 79.9971 32.3952C79.6851 32.409 79.373 32.3605 79.0817 32.2635C77.8819 31.8755 77.3687 30.545 76.7307 29.561C76.0164 28.4523 75.1634 27.406 73.9983 26.7477C73.9983 26.7477 73.9913 26.7477 73.9775 26.7338C73.7902 26.6507 73.6238 26.8793 73.7417 27.0387C73.8318 27.1634 73.915 27.2951 73.9913 27.4268C74.456 28.2514 74.6016 29.1314 74.4352 29.8382C73.7486 29.2215 72.8609 28.7295 71.8414 28.4454C71.2034 28.2721 70.5654 28.1959 69.962 28.2029C69.0605 28.2167 68.3392 28.6256 67.5209 28.9304C66.6262 29.2631 65.6206 29.4987 64.6636 29.4086C64.1643 29.3601 63.6511 29.2353 63.2141 28.979C63.1032 28.9097 62.9922 28.8404 62.8882 28.7503L62.8327 28.7018L62.6663 28.5563C62.3611 28.286 62.1253 27.9603 61.9658 27.5861L62.375 27.8564C63.0685 28.3068 63.866 28.3068 64.6358 28.0712C65.7385 27.7317 66.7649 27.0872 67.722 26.4566C68.1936 26.1448 68.6652 25.8191 69.1229 25.4865C69.2893 25.3618 69.4696 25.2509 69.6569 25.14C69.8511 25.0222 70.0591 24.9183 70.2672 24.8213C71.1965 24.3917 72.2853 24.1283 73.4504 24.1006C73.9636 24.0868 74.4699 24.1214 74.9484 24.1907C74.5878 23.6987 73.9081 23.2206 73.0482 22.8741C74.0746 22.5831 75.2258 22.5692 76.377 22.881C79.3522 23.6987 81.1969 26.4289 80.5103 28.9928V29.0136C80.4549 29.1938 80.3924 29.3739 80.3162 29.5472C80.1289 29.9837 79.8723 30.3787 79.5602 30.7252C79.5394 30.7529 79.5256 30.7875 79.5325 30.8222C79.6157 31.2449 79.8931 31.6676 80.337 31.9586C80.4965 32.0626 80.6629 32.1457 80.8294 32.2012L80.8363 32.215Z" fill="#404596"/>
<path d="M75.3848 45.6927L75.1005 45.4155C74.9895 45.3047 74.8924 45.1869 74.8092 45.0552C74.6428 44.7919 74.5318 44.5008 74.4694 44.1959C74.2128 42.9625 75.1005 41.8538 75.6345 40.8144C76.2378 39.6433 76.7164 38.3821 76.7025 37.0448C76.7025 37.0448 76.7025 37.0378 76.7025 37.024C76.6817 36.823 76.3974 36.7884 76.3211 36.9755C76.2587 37.114 76.1893 37.2526 76.1061 37.3912C75.6276 38.2089 74.9271 38.7702 74.2336 38.985C74.4278 38.0842 74.407 37.0655 74.1434 36.0469C73.977 35.4094 73.7273 34.8204 73.4153 34.3007C72.9575 33.5246 72.2363 33.1088 71.5636 32.5545C70.8284 31.9447 70.1211 31.1963 69.7258 30.3232C69.5177 29.8658 69.3721 29.36 69.3721 28.8541C69.3721 28.7225 69.3859 28.5908 69.4067 28.4592L69.4206 28.3829L69.4622 28.1681C69.5455 27.7731 69.7119 27.399 69.9546 27.0802L69.9269 27.5653C69.8783 28.3899 70.2806 29.0828 70.8701 29.6302C71.7161 30.4133 72.7911 30.9815 73.8106 31.4943C74.3168 31.7507 74.837 31.9863 75.3502 32.2219C75.5374 32.305 75.7316 32.402 75.9119 32.506C76.1061 32.6168 76.3003 32.7416 76.4944 32.8732C77.3336 33.4622 78.1034 34.273 78.7137 35.2708C78.9842 35.7074 79.2061 36.1578 79.3864 36.6151C79.6361 36.0538 79.7123 35.2292 79.5806 34.3145C80.3434 35.056 80.9329 36.0469 81.2381 37.2041C82.0148 40.1907 80.5723 43.1496 78.0063 43.8356H77.9855C77.7982 43.8911 77.6179 43.9257 77.4307 43.9465C76.9591 44.0019 76.4875 43.9811 76.0298 43.8841C75.9951 43.8772 75.9604 43.8841 75.9327 43.9049C75.6067 44.1821 75.3848 44.6394 75.3502 45.173C75.3363 45.3601 75.3501 45.5472 75.3848 45.7204V45.6927Z" fill="#404596"/>
<path d="M32.3936 46.2055L32.56 45.9561C32.6224 45.859 32.6987 45.7759 32.7819 45.6927C32.9484 45.5334 33.1495 45.4086 33.3645 45.3255C34.2314 44.9652 35.1607 45.4641 35.9998 45.7135C36.943 45.9907 37.9278 46.1709 38.9056 45.9768C38.9056 45.9768 38.9126 45.9768 38.9195 45.9768C39.0651 45.9283 39.0513 45.7205 38.9056 45.6858C38.7947 45.6581 38.6837 45.6234 38.5728 45.5888C37.9139 45.3532 37.4007 44.9236 37.1511 44.4454C37.8376 44.4593 38.5797 44.3069 39.2871 43.9742C39.7309 43.7664 40.1262 43.503 40.466 43.1981C40.9654 42.7547 41.1734 42.1726 41.4924 41.6044C41.8323 40.9876 42.29 40.364 42.8725 39.9552C43.1777 39.7403 43.5244 39.5671 43.8989 39.4978C43.996 39.484 44.0931 39.4701 44.1902 39.4701H44.2457H44.4121C44.7103 39.4701 45.0086 39.5463 45.279 39.678L44.9184 39.7265C44.3081 39.8096 43.8573 40.1908 43.5383 40.7035C43.0806 41.4311 42.8171 42.2904 42.5813 43.1081C42.4634 43.5169 42.3593 43.9257 42.2622 44.3346C42.2276 44.487 42.179 44.6395 42.1305 44.785C42.075 44.9444 42.0126 45.1037 41.9432 45.2631C41.6242 45.9561 41.1387 46.6282 40.4938 47.2103C40.2094 47.4667 39.9112 47.6884 39.6061 47.8824C40.0499 47.9864 40.6672 47.931 41.3121 47.7092C40.8752 48.3675 40.2302 48.9357 39.4258 49.3168C37.3522 50.2939 34.9873 49.6495 34.1343 47.8686V47.8547C34.0649 47.73 34.0164 47.5983 33.9748 47.4598C33.8638 47.1271 33.8222 46.7737 33.8291 46.4273C33.8291 46.3995 33.8222 46.3718 33.8014 46.358C33.5517 46.157 33.1842 46.06 32.7958 46.1085C32.6571 46.1224 32.5253 46.1639 32.4005 46.2125L32.3936 46.2055Z" fill="#404596"/>
<path d="M28.9331 35.9708L29.2313 35.9916C29.3423 35.9985 29.4602 36.0193 29.5711 36.054C29.7931 36.1233 30.0011 36.2341 30.1814 36.3727C30.9235 36.9409 30.9582 38.0012 31.1662 38.8465C31.3951 39.7959 31.7349 40.7452 32.3937 41.4936C32.3937 41.4936 32.3937 41.4936 32.4007 41.5075C32.5116 41.6114 32.685 41.4936 32.6434 41.3481C32.6087 41.2372 32.581 41.1263 32.5602 41.0155C32.4353 40.3225 32.5602 39.6712 32.8445 39.2138C33.1705 39.8167 33.6767 40.378 34.3217 40.8284C34.7239 41.1055 35.1539 41.3204 35.5839 41.459C36.215 41.6738 36.8253 41.5629 37.4772 41.549C38.1846 41.5352 38.9474 41.6183 39.5993 41.9163C39.9392 42.0757 40.2651 42.2905 40.5078 42.5746C40.5703 42.6508 40.6257 42.727 40.6812 42.8102L40.709 42.8587L40.7922 43.0042C40.9378 43.2675 41.028 43.5586 41.0488 43.8565L40.8269 43.5655C40.4524 43.0804 39.8906 42.8795 39.2942 42.8587C38.4342 42.8241 37.5604 43.025 36.7282 43.2329C36.319 43.3368 35.9098 43.4477 35.5076 43.5724C35.362 43.614 35.2094 43.6556 35.0499 43.6833C34.8834 43.718 34.717 43.7387 34.5436 43.7595C33.7808 43.8288 32.9555 43.7457 32.1302 43.4824C31.7626 43.3646 31.4228 43.219 31.1038 43.0527C31.2356 43.4893 31.5962 43.9882 32.1094 44.4455C31.3188 44.397 30.5074 44.1268 29.7723 43.6209C27.8859 42.3182 27.2617 39.9414 28.3783 38.3199V38.3061C28.4685 38.1882 28.5586 38.0774 28.6488 37.9804C28.8846 37.717 29.162 37.5022 29.4671 37.3359C29.4879 37.3221 29.5087 37.3013 29.5087 37.2736C29.5573 36.9617 29.4602 36.5945 29.2244 36.2757C29.1412 36.1648 29.0441 36.0678 28.94 35.9847L28.9331 35.9708Z" fill="#404596"/>
<path d="M36.0764 27.8495L36.2082 28.1128C36.2567 28.2167 36.2984 28.3276 36.3261 28.4385C36.3816 28.6671 36.3885 28.8958 36.3538 29.1245C36.2359 30.053 35.3344 30.6074 34.7033 31.2102C33.9959 31.8893 33.344 32.6516 33.025 33.594C33.025 33.594 33.025 33.594 33.025 33.6078C32.9903 33.7534 33.1775 33.8504 33.2816 33.7395C33.3579 33.6563 33.4411 33.5801 33.5312 33.5039C34.0652 33.0465 34.6963 32.8248 35.2373 32.8456C34.8836 33.4277 34.6409 34.1483 34.5784 34.9314C34.5368 35.4234 34.5715 35.8946 34.6617 36.338C34.7934 36.9963 35.1957 37.4606 35.5286 38.0219C35.8961 38.6248 36.2082 39.3316 36.2706 40.0384C36.3053 40.4126 36.2775 40.8006 36.1527 41.154C36.118 41.2441 36.0764 41.3342 36.0348 41.4243L36.0071 41.4728L35.9239 41.6114C35.7713 41.8677 35.5632 42.0895 35.3136 42.2558L35.4523 41.9232C35.6881 41.355 35.5771 40.7729 35.2997 40.2393C34.8975 39.484 34.2872 38.8188 33.6907 38.209C33.3995 37.9041 33.0943 37.6131 32.7892 37.322C32.6782 37.2181 32.5673 37.1003 32.4632 36.9825C32.3523 36.8577 32.2482 36.7192 32.1442 36.5806C31.7004 35.9569 31.3605 35.2016 31.1802 34.3562C31.097 33.982 31.0554 33.6148 31.0415 33.2475C30.7294 33.5801 30.4728 34.1414 30.3411 34.8136C29.9874 34.1068 29.814 33.2683 29.8903 32.3813C30.0775 30.0946 31.8252 28.3761 33.7878 28.5216H33.8086C33.9473 28.5355 34.086 28.5563 34.2248 28.584C34.5715 28.6602 34.8975 28.7919 35.1887 28.972C35.2095 28.9859 35.2373 28.9859 35.265 28.979C35.5632 28.8612 35.8337 28.5978 35.9863 28.2375C36.0418 28.1058 36.0764 27.9742 36.0972 27.8425L36.0764 27.8495Z" fill="#404596"/>
<path d="M46.6799 29.9768L46.5135 30.2263C46.451 30.3233 46.3748 30.4064 46.2915 30.4896C46.1251 30.649 45.924 30.7737 45.709 30.8568C44.8421 31.2172 43.9128 30.7182 43.0736 30.4688C42.1305 30.1916 41.1457 30.0114 40.1678 30.2055C40.1678 30.2055 40.1609 30.2055 40.1539 30.2055C40.0083 30.254 40.0222 30.4619 40.1678 30.4965C40.2788 30.5242 40.3897 30.5589 40.5007 30.5935C41.1595 30.8291 41.6727 31.2587 41.9224 31.7369C41.2358 31.723 40.4938 31.8755 39.7864 32.2081C39.3425 32.416 38.9472 32.6793 38.6074 32.9842C38.1081 33.4277 37.9 34.0097 37.581 34.578C37.2412 35.1947 36.7835 35.8183 36.2009 36.2272C35.8958 36.442 35.549 36.6152 35.1745 36.6845C35.0774 36.6984 34.9803 36.7122 34.8832 36.7122H34.8278H34.6613C34.3631 36.7122 34.0649 36.636 33.7944 36.5043L34.1551 36.4558C34.7654 36.3727 35.2161 35.9916 35.5352 35.4788C35.9929 34.7512 36.2564 33.8919 36.4922 33.0743C36.6101 32.6654 36.7141 32.2566 36.8112 31.8477C36.8459 31.6953 36.8944 31.5429 36.943 31.3973C36.9985 31.238 37.0609 31.0786 37.1302 30.9192C37.4492 30.2263 37.9347 29.5541 38.5797 28.972C38.864 28.7156 39.1622 28.4939 39.4674 28.2999C39.0235 28.1959 38.4063 28.2514 37.7613 28.4731C38.1982 27.8148 38.8432 27.2466 39.6477 26.8655C41.7213 25.8884 44.0862 26.5329 44.9392 28.3137V28.3276C45.0085 28.4523 45.0571 28.584 45.0987 28.7226C45.2097 29.0552 45.2513 29.4086 45.2443 29.7551C45.2443 29.7828 45.2513 29.8105 45.2721 29.8243C45.5217 30.0253 45.8893 30.1223 46.2777 30.0738C46.4164 30.06 46.5481 30.0184 46.673 29.9699L46.6799 29.9768Z" fill="#404596"/>
<path d="M50.1479 40.2115L49.8497 40.1907C49.7387 40.1838 49.6208 40.163 49.5099 40.1284C49.2879 40.0591 49.0799 39.9482 48.8996 39.8096C48.1575 39.2414 48.1228 38.1812 47.9148 37.3358C47.6859 36.3865 47.3461 35.4371 46.6873 34.6888C46.6873 34.6888 46.6873 34.6888 46.6803 34.6749C46.5694 34.571 46.396 34.6888 46.4376 34.8343C46.4723 34.9452 46.5 35.056 46.5208 35.1669C46.6457 35.8598 46.5208 36.5112 46.2365 36.9686C45.9105 36.3657 45.4043 35.8044 44.7593 35.354C44.3571 35.0768 43.9271 34.862 43.4971 34.7234C42.866 34.5086 42.2557 34.6195 41.6038 34.6333C40.8964 34.6472 40.1336 34.564 39.4817 34.2661C39.1418 34.1067 38.8159 33.8919 38.5732 33.6078C38.5107 33.5315 38.4553 33.4553 38.3998 33.3722L38.372 33.3237L38.2888 33.1781C38.1432 32.9148 38.053 32.6238 38.0322 32.3258L38.2542 32.6169C38.6286 33.1019 39.1904 33.3029 39.7868 33.3237C40.6468 33.3583 41.5206 33.1574 42.3528 32.9495C42.762 32.8455 43.1712 32.7347 43.5734 32.6099C43.719 32.5684 43.8716 32.5268 44.0311 32.4991C44.1976 32.4644 44.364 32.4436 44.5374 32.4228C45.3002 32.3535 46.1255 32.4367 46.9508 32.7C47.3184 32.8178 47.6582 32.9633 47.9772 33.1296C47.8454 32.6931 47.4848 32.1942 46.9716 31.7368C47.7622 31.7853 48.5736 32.0556 49.3087 32.5614C51.1951 33.8642 51.8193 36.241 50.7027 37.8625V37.8763C50.6125 37.9941 50.5224 38.105 50.4322 38.202C50.1964 38.4653 49.919 38.6801 49.6139 38.8464C49.5931 38.8603 49.5723 38.8811 49.5723 38.9088C49.5237 39.2206 49.6208 39.5879 49.8566 39.9066C49.9398 40.0175 50.0369 40.1145 50.141 40.1977L50.1479 40.2115Z" fill="#404596"/>
<path d="M43.0047 48.333L42.8729 48.0697C42.8243 47.9657 42.7827 47.8548 42.755 47.744C42.6995 47.5153 42.6926 47.2866 42.7272 47.058C42.8451 46.1294 43.7467 45.575 44.3778 44.9722C45.0852 44.2931 45.7371 43.5309 46.0561 42.5885C46.0561 42.5885 46.0561 42.5885 46.0561 42.5746C46.0908 42.4291 45.9035 42.3321 45.7995 42.4429C45.7232 42.5261 45.64 42.6023 45.5498 42.6785C45.0158 43.1359 44.3847 43.3576 43.8438 43.3368C44.1975 42.7548 44.4402 42.0341 44.5026 41.2511C44.5443 40.7591 44.5096 40.2879 44.4194 39.8444C44.2877 39.1861 43.8854 38.7218 43.5525 38.1605C43.185 37.5577 42.8729 36.8509 42.8105 36.1441C42.7758 35.7699 42.8035 35.3818 42.9284 35.0284C42.963 34.9383 43.0047 34.8483 43.0463 34.7582L43.074 34.7097L43.1572 34.5711C43.3098 34.3147 43.5179 34.0929 43.7675 33.9266L43.6288 34.2592C43.393 34.8275 43.504 35.4095 43.7814 35.9431C44.1836 36.6984 44.7939 37.3636 45.3903 37.9734C45.6816 38.2783 45.9868 38.5694 46.2919 38.8604C46.4029 38.9643 46.5138 39.0821 46.6179 39.1999C46.7288 39.3247 46.8328 39.4633 46.9369 39.6019C47.3807 40.2255 47.7205 40.9808 47.9009 41.8262C47.9841 42.2004 48.0257 42.5677 48.0396 42.9349C48.3516 42.6023 48.6082 42.041 48.74 41.3689C49.0937 42.0757 49.2671 42.9141 49.1908 43.8011C49.0035 46.0878 47.2559 47.8063 45.2932 47.6608H45.2724C45.1337 47.647 44.995 47.6262 44.8563 47.5984C44.5096 47.5222 44.1836 47.3906 43.8924 47.2104C43.8715 47.1965 43.8438 47.1965 43.8161 47.2035C43.5179 47.3213 43.2474 47.5846 43.0948 47.9449C43.0393 48.0766 43.0047 48.2082 42.9838 48.3399L43.0047 48.333Z" fill="#404596"/>
<path d="M343.428 142.269C334.37 147.112 308.96 132.235 286.664 109.063C282.759 105.002 279.201 100.941 276.039 96.9985C280.061 101.281 284.569 105.633 289.472 109.915C313.967 131.334 338.968 142.872 345.272 135.672C345.827 135.041 346.209 134.279 346.438 133.406C347.103 137.681 346.174 140.793 343.428 142.269Z" fill="#7ECBF3"/>
<path d="M201.237 99.2921C189.988 96.9985 181.881 90.4987 181.881 82.8486C181.881 78.4553 184.551 74.4362 188.948 71.3942C186.423 73.4453 184.745 76.0161 184.211 78.9611C182.782 86.8746 190.037 95.086 201.237 99.2852V99.2921Z" fill="#7ECBF3"/>
</g>
<defs>
<clipPath id="clip0_11_408">
<rect width="429" height="260" fill="white"/>
</clipPath>
</defs>
</svg>
