<svg width="191" height="286" viewBox="0 0 191 286" fill="none" xmlns="http://www.w3.org/2000/svg">
<g clip-path="url(#clip0_29_382)">
<path d="M157.23 152.703C162.244 146.155 170.467 143.583 177.577 145.678C178.107 145.625 178.638 145.598 179.195 145.598C182.67 144.087 185.774 141.515 187.976 138.042C192.936 130.195 191.663 120.36 185.429 114.66C188.055 120.174 187.817 127.067 184.156 132.873C178.611 141.674 167.39 144.617 159.06 139.448C157.548 138.493 156.222 137.353 155.108 136.028C151.845 137.539 148.953 140.031 146.858 143.345C141.313 152.146 143.542 163.44 151.871 168.61C152.561 169.034 153.277 169.405 153.994 169.723C152.296 164.235 153.304 157.846 157.23 152.703Z" fill="#6199D2"/>
<path d="M91.0698 235.523C88.0721 227.808 80.83 222.93 73.4023 222.877C72.8982 222.665 72.3942 222.48 71.8902 222.321C68.9721 219.882 66.6907 216.515 65.55 212.538C62.9503 203.604 66.8764 194.59 74.4634 190.958C70.4046 195.439 68.7334 202.119 70.6434 208.721C73.5614 218.742 83.5624 224.813 92.9798 222.321C94.7041 221.87 96.2957 221.128 97.7282 220.226C100.434 222.639 102.556 225.847 103.644 229.611C106.562 239.632 101.283 249.76 91.8391 252.278C91.0698 252.49 90.2739 252.623 89.5046 252.729C92.6614 247.983 93.4573 241.594 91.0963 235.523H91.0698Z" fill="#414595"/>
<path d="M92.6878 266.912C94.0142 258.773 100.063 252.623 107.331 251.112C107.782 250.82 108.233 250.528 108.711 250.29C111.045 247.321 112.584 243.609 112.875 239.473C113.539 230.221 107.809 222.162 99.6116 220.041C104.546 223.646 107.57 229.85 107.066 236.716C106.323 247.082 97.8077 254.982 88.0455 254.319C86.2416 254.213 84.5438 253.789 82.9521 253.179C80.8034 256.043 79.3974 259.622 79.1321 263.519C78.3893 273.885 85.6845 282.819 95.4467 283.455C96.2425 283.508 97.0649 283.508 97.8342 283.455C93.7489 279.425 91.6267 273.328 92.6613 266.912H92.6878Z" fill="#6199D2"/>
<path d="M85.6318 172.321C82.6341 164.606 75.3921 159.728 67.9643 159.675C67.4602 159.463 66.9562 159.278 66.4522 159.119C63.5341 156.68 61.2527 153.313 60.1121 149.336C57.5123 140.402 61.4384 131.388 69.0254 127.756C64.9666 132.237 63.2954 138.917 65.2054 145.519C68.1234 155.54 78.1244 161.611 87.5418 159.119C89.2661 158.668 90.8577 157.926 92.2902 157.024C94.9961 159.437 97.1183 162.645 98.2059 166.409C101.124 176.43 95.845 186.557 86.4011 189.076C85.6318 189.288 84.8359 189.421 84.0666 189.527C87.2234 184.781 88.0193 178.392 85.6583 172.321H85.6318Z" fill="#414595"/>
<path d="M87.2498 203.71C88.5762 195.571 94.6245 189.421 101.893 187.909C102.344 187.618 102.795 187.326 103.273 187.088C105.607 184.118 107.146 180.407 107.437 176.271C108.101 167.019 102.371 158.96 94.1736 156.839C99.1077 160.444 102.132 166.648 101.628 173.514C100.885 183.88 92.3697 191.78 82.6075 191.117C80.8036 191.011 79.1058 190.587 77.5141 189.977C75.3654 192.841 73.9594 196.42 73.6941 200.317C72.9514 210.682 80.2465 219.617 90.0087 220.253C90.8045 220.306 91.6269 220.306 92.3962 220.253C88.3109 216.223 86.1887 210.126 87.2233 203.71H87.2498Z" fill="#6199D2"/>
<path d="M63.0567 241.886C57.5655 236.053 49.3153 234.304 42.6303 236.928C42.0998 236.928 41.5957 236.928 41.0652 236.981C37.5635 235.841 34.3006 233.641 31.8335 230.513C26.2627 223.434 26.528 213.917 32.0192 207.925C30.0031 213.413 30.9051 220.014 35.0434 225.237C41.2774 233.164 52.4721 235.019 60.006 229.346C61.3855 228.312 62.5527 227.093 63.5077 225.741C66.8237 226.907 69.8744 229.028 72.2353 232.024C78.4694 239.95 77.4082 250.979 69.8478 256.626C69.2112 257.103 68.5745 257.501 67.9113 257.872C69.0255 252.464 67.4338 246.446 63.1098 241.859L63.0567 241.886Z" fill="#414595"/>
<path d="M75.896 269.484C74.1452 261.716 77.3285 254.001 83.3238 250.025C83.6156 249.6 83.9339 249.176 84.2523 248.779C85.2868 245.279 85.3134 241.382 84.0666 237.565C81.3077 229.028 73.2432 223.858 65.1257 224.919C70.8557 226.377 75.8164 230.857 77.8591 237.167C80.9363 246.737 76.1613 256.891 67.1684 259.86C65.5236 260.39 63.8524 260.656 62.1811 260.656C61.2792 264.022 61.3322 267.707 62.4995 271.313C65.5767 280.883 75.3654 286.239 84.3584 283.296C85.1011 283.057 85.8174 282.766 86.5071 282.421C81.3873 280.274 77.2489 275.581 75.8695 269.457L75.896 269.484Z" fill="#6199D2"/>
<path d="M35.2818 187.141C29.7906 181.308 21.5404 179.559 14.8554 182.183C14.3249 182.183 13.8208 182.183 13.2903 182.236C9.78862 181.096 6.5257 178.896 4.05862 175.768C-1.51221 168.689 -1.24693 159.172 4.24432 153.18C2.2282 158.668 3.13015 165.269 7.26848 170.492C13.5025 178.419 24.6972 180.274 32.2311 174.601C33.6106 173.567 34.7778 172.348 35.7328 170.996C39.0488 172.162 42.0995 174.283 44.4604 177.279C50.6945 185.205 49.6333 196.234 42.0729 201.881C41.4363 202.358 40.7996 202.756 40.1364 203.127C41.2506 197.719 39.6589 191.701 35.3349 187.114L35.2818 187.141Z" fill="#414595"/>
<path d="M48.1216 214.739C46.3708 206.971 49.5541 199.256 55.5494 195.28C55.8412 194.855 56.1595 194.431 56.4778 194.034C57.5124 190.534 57.5389 186.637 56.2921 182.819C53.5333 174.283 45.4688 169.113 37.3513 170.174C43.0813 171.632 48.042 176.112 50.0846 182.422C53.1619 191.992 48.3869 202.146 39.3939 205.115C37.7492 205.645 36.078 205.91 34.4067 205.91C33.5048 209.277 33.5578 212.962 34.7251 216.568C37.8023 226.138 47.591 231.493 56.5839 228.551C57.3267 228.312 58.043 228.021 58.7327 227.676C53.6128 225.529 49.4745 220.836 48.0951 214.712L48.1216 214.739Z" fill="#6199D2"/>
<path d="M56.9817 108.589C54.3024 100.768 47.2991 95.5984 39.8713 95.2008C39.3673 94.9887 38.8898 94.7766 38.3858 94.591C35.5738 92.0195 33.4251 88.573 32.4435 84.5434C30.2417 75.5032 34.5392 66.675 42.2588 63.3611C38.0144 67.6824 36.0513 74.2571 37.696 80.9644C40.1896 91.0916 49.9253 97.5868 59.4488 95.4924C61.1996 95.0947 62.8178 94.4585 64.2769 93.5836C66.8766 96.1021 68.8662 99.3895 69.7946 103.234C72.2883 113.361 66.5848 123.276 57.0348 125.37C56.239 125.556 55.4696 125.662 54.6738 125.715C58.0163 121.102 59.104 114.766 56.9817 108.615V108.589Z" fill="#414595"/>
<path d="M57.2737 140.031C58.945 131.971 65.2586 126.06 72.5537 124.867C73.0047 124.601 73.4822 124.336 73.9597 124.098C76.4268 121.235 78.1245 117.576 78.5755 113.467C79.6366 104.241 74.225 95.9431 66.1605 93.5041C70.9355 97.3216 73.6944 103.658 72.9251 110.471C71.7313 120.81 62.8976 128.313 53.1619 127.252C51.3845 127.067 49.6868 126.59 48.1216 125.874C45.8402 128.658 44.3016 132.157 43.8506 136.054C42.6569 146.393 49.5806 155.593 59.3163 156.653C60.1122 156.733 60.908 156.759 61.7038 156.733C57.7777 152.517 55.9208 146.34 57.2472 140.004L57.2737 140.031Z" fill="#6199D2"/>
<path d="M54.2229 45.2277C51.5436 37.4069 44.5403 32.2373 37.1125 31.8396C36.6085 31.6276 36.131 31.4155 35.627 31.2299C32.815 28.6583 30.6663 25.2119 29.6847 21.1822C27.4829 12.142 31.7804 3.31387 39.5 0C35.2556 4.32128 33.2925 10.896 34.9372 17.6033C37.4309 27.7304 47.1666 34.2256 56.69 32.1313C58.4409 31.7336 60.0591 31.0973 61.5181 30.2225C64.1178 32.741 66.1074 36.0284 67.0359 39.8725C69.5295 49.9996 63.826 59.9147 54.276 62.0091C53.4802 62.1947 52.7109 62.3007 51.915 62.3537C55.2575 57.7408 56.3452 51.4047 54.2229 45.2542V45.2277Z" fill="#414595"/>
<path d="M54.5144 76.6696C56.1857 68.6103 62.4993 62.6984 69.7944 61.5054C70.2454 61.2403 70.7229 60.9752 71.2004 60.7366C73.6675 57.8734 75.3653 54.2149 75.8162 50.1057C76.8773 40.8799 71.4657 32.582 63.4012 30.1429C68.1762 33.9605 70.9351 40.2966 70.1658 47.1099C68.9721 57.4492 60.1383 64.9518 50.4026 63.8914C48.6253 63.7058 46.9275 63.2286 45.3623 62.5128C43.081 65.2965 41.5423 68.7959 41.0914 72.693C39.8976 83.0323 46.8214 92.2316 56.5571 93.292C57.3529 93.3715 58.1487 93.3981 58.9446 93.3715C55.0185 89.1563 53.1615 82.9792 54.4879 76.6431L54.5144 76.6696Z" fill="#6199D2"/>
<path d="M123.964 240.534C124.946 232.315 120.887 224.627 114.361 221.048C114.016 220.624 113.671 220.226 113.273 219.855C111.841 216.329 111.416 212.273 112.292 208.243C114.228 199.15 121.948 193.053 130.331 193.397C124.627 195.439 120.011 200.529 118.579 207.263C116.43 217.469 122.372 227.543 131.869 229.77C133.62 230.168 135.345 230.301 137.042 230.141C138.289 233.535 138.66 237.379 137.838 241.223C135.689 251.43 126.245 257.872 116.749 255.645C115.953 255.459 115.21 255.221 114.467 254.929C119.481 252.225 123.195 246.976 123.964 240.507V240.534Z" fill="#414595"/>
<path d="M110.595 268.98C115.608 262.432 123.832 259.86 130.941 261.955C131.472 261.902 132.002 261.875 132.56 261.875C136.035 260.364 139.138 257.792 141.34 254.319C146.301 246.472 145.028 236.637 138.82 230.937C141.446 236.451 141.208 243.344 137.547 249.15C132.002 257.951 120.755 260.894 112.451 255.724C110.939 254.77 109.613 253.63 108.499 252.305C105.236 253.816 102.344 256.308 100.249 259.622C94.7044 268.423 96.9327 279.717 105.236 284.887C105.926 285.311 106.642 285.682 107.358 286C105.66 280.512 106.668 274.123 110.595 268.98Z" fill="#6199D2"/>
<path d="M148.317 182.236C149.298 174.018 145.239 166.33 138.714 162.751C138.369 162.326 138.024 161.929 137.626 161.558C136.193 158.032 135.769 153.976 136.644 149.946C138.581 140.853 146.301 134.755 154.683 135.1C148.98 137.141 144.364 142.231 142.932 148.965C140.783 159.172 146.725 169.246 156.222 171.473C157.973 171.87 159.697 172.003 161.395 171.844C162.642 175.237 163.013 179.081 162.191 182.925C160.042 193.132 150.598 199.574 141.101 197.347C140.305 197.162 139.562 196.923 138.82 196.632C143.833 193.928 147.547 188.678 148.317 182.21V182.236Z" fill="#414595"/>
<path d="M133.594 210.682C138.608 204.134 146.831 201.563 153.941 203.657C154.471 203.604 155.002 203.578 155.559 203.578C159.034 202.066 162.138 199.495 164.34 196.022C169.3 188.175 168.027 178.339 161.82 172.639C164.446 178.154 164.207 185.046 160.546 190.852C155.002 199.654 143.754 202.597 135.451 197.427C133.939 196.473 132.613 195.333 131.498 194.007C128.235 195.518 125.344 198.01 123.248 201.324C117.704 210.126 119.932 221.419 128.235 226.589C128.925 227.013 129.641 227.384 130.358 227.702C128.66 222.215 129.668 215.826 133.594 210.682Z" fill="#6199D2"/>
</g>
<defs>
<clipPath id="clip0_29_382">
<rect width="191" height="286" fill="white"/>
</clipPath>
</defs>
</svg>
